G04 #@! TF.GenerationSoftware,KiCad,Pcbnew,5.1.9-73d0e3b20d~88~ubuntu20.04.1*
G04 #@! TF.CreationDate,2021-03-19T22:30:43+02:00*
G04 #@! TF.ProjectId,nRF5340-Wearable,6e524635-3334-4302-9d57-65617261626c,rev?*
G04 #@! TF.SameCoordinates,Original*
G04 #@! TF.FileFunction,Copper,L1,Top*
G04 #@! TF.FilePolarity,Positive*
%FSLAX46Y46*%
G04 Gerber Fmt 4.6, Leading zero omitted, Abs format (unit mm)*
G04 Created by KiCad (PCBNEW 5.1.9-73d0e3b20d~88~ubuntu20.04.1) date 2021-03-19 22:30:43*
%MOMM*%
%LPD*%
G01*
G04 APERTURE LIST*
G04 #@! TA.AperFunction,SMDPad,CuDef*
%ADD10C,0.599440*%
G04 #@! TD*
G04 #@! TA.AperFunction,SMDPad,CuDef*
%ADD11R,0.698500X1.498600*%
G04 #@! TD*
G04 #@! TA.AperFunction,SMDPad,CuDef*
%ADD12R,1.498600X1.498600*%
G04 #@! TD*
G04 #@! TA.AperFunction,SMDPad,CuDef*
%ADD13R,0.599440X0.599440*%
G04 #@! TD*
G04 #@! TA.AperFunction,SMDPad,CuDef*
%ADD14R,1.500000X1.500000*%
G04 #@! TD*
G04 #@! TA.AperFunction,ComponentPad*
%ADD15C,0.100000*%
G04 #@! TD*
G04 #@! TA.AperFunction,SMDPad,CuDef*
%ADD16R,5.560000X2.600000*%
G04 #@! TD*
G04 #@! TA.AperFunction,SMDPad,CuDef*
%ADD17C,17.800000*%
G04 #@! TD*
G04 #@! TA.AperFunction,ViaPad*
%ADD18C,0.600000*%
G04 #@! TD*
G04 #@! TA.AperFunction,Conductor*
%ADD19C,0.500000*%
G04 #@! TD*
G04 #@! TA.AperFunction,Conductor*
%ADD20C,0.250000*%
G04 #@! TD*
G04 #@! TA.AperFunction,Conductor*
%ADD21C,0.200000*%
G04 #@! TD*
G04 #@! TA.AperFunction,Conductor*
%ADD22C,0.100000*%
G04 #@! TD*
G04 APERTURE END LIST*
D10*
X75119280Y-72137880D03*
D11*
X79518560Y-59890000D03*
X78418740Y-59890000D03*
X77318920Y-59890000D03*
X76219100Y-59890000D03*
X75119280Y-59890000D03*
X74019460Y-59890000D03*
X72919640Y-59890000D03*
X71819820Y-59890000D03*
X71819820Y-73887940D03*
X72919640Y-73887940D03*
X74019460Y-73887940D03*
X75119280Y-73887940D03*
X76219100Y-73887940D03*
X77318920Y-73887940D03*
X78418740Y-73887940D03*
X79518560Y-73887940D03*
D10*
X78718460Y-64639800D03*
X77519580Y-64639800D03*
X76318160Y-64639800D03*
X75119280Y-64639800D03*
X73917860Y-64639800D03*
X72718980Y-64639800D03*
X71517560Y-64639800D03*
X78718460Y-66138400D03*
X77519580Y-66138400D03*
X76318160Y-66138400D03*
X75119280Y-66138400D03*
X73917860Y-66138400D03*
X72718980Y-66138400D03*
X71517560Y-66138400D03*
X78718460Y-67639540D03*
X77519580Y-67639540D03*
X76318160Y-67639540D03*
X75119280Y-67639540D03*
X73917860Y-67639540D03*
X72718980Y-67639540D03*
X71517560Y-67639540D03*
X78718460Y-69138140D03*
X77519580Y-69138140D03*
X76318160Y-69138140D03*
X75119280Y-69138140D03*
X73917860Y-69138140D03*
X72718980Y-69138140D03*
X71517560Y-69138140D03*
X78718460Y-70639280D03*
X77519580Y-70639280D03*
X76318160Y-70639280D03*
X75119280Y-70639280D03*
X73917860Y-70639280D03*
X72718980Y-70639280D03*
X71517560Y-70639280D03*
D12*
X80719980Y-63519660D03*
X80719980Y-65767560D03*
X80719980Y-68018000D03*
X80719980Y-70268440D03*
D10*
X73917860Y-72137880D03*
X72718980Y-72137880D03*
D13*
X71517560Y-72137880D03*
D10*
X78718460Y-63138660D03*
X77519580Y-63138660D03*
X76318160Y-63138660D03*
X75119280Y-63138660D03*
X73917860Y-63138660D03*
X72718980Y-63138660D03*
X71517560Y-63138660D03*
D14*
X79910000Y-56200000D03*
X72110000Y-56200000D03*
G04 #@! TA.AperFunction,SMDPad,CuDef*
G36*
G01*
X71230000Y-77193750D02*
X71230000Y-78106250D01*
G75*
G02*
X70986250Y-78350000I-243750J0D01*
G01*
X70498750Y-78350000D01*
G75*
G02*
X70255000Y-78106250I0J243750D01*
G01*
X70255000Y-77193750D01*
G75*
G02*
X70498750Y-76950000I243750J0D01*
G01*
X70986250Y-76950000D01*
G75*
G02*
X71230000Y-77193750I0J-243750D01*
G01*
G37*
G04 #@! TD.AperFunction*
G04 #@! TA.AperFunction,SMDPad,CuDef*
G36*
G01*
X73105000Y-77193750D02*
X73105000Y-78106250D01*
G75*
G02*
X72861250Y-78350000I-243750J0D01*
G01*
X72373750Y-78350000D01*
G75*
G02*
X72130000Y-78106250I0J243750D01*
G01*
X72130000Y-77193750D01*
G75*
G02*
X72373750Y-76950000I243750J0D01*
G01*
X72861250Y-76950000D01*
G75*
G02*
X73105000Y-77193750I0J-243750D01*
G01*
G37*
G04 #@! TD.AperFunction*
G04 #@! TA.AperFunction,SMDPad,CuDef*
G36*
G01*
X69395000Y-56715000D02*
X69395000Y-56565000D01*
G75*
G02*
X69470000Y-56490000I75000J0D01*
G01*
X69970000Y-56490000D01*
G75*
G02*
X70045000Y-56565000I0J-75000D01*
G01*
X70045000Y-56715000D01*
G75*
G02*
X69970000Y-56790000I-75000J0D01*
G01*
X69470000Y-56790000D01*
G75*
G02*
X69395000Y-56715000I0J75000D01*
G01*
G37*
G04 #@! TD.AperFunction*
G04 #@! TA.AperFunction,SMDPad,CuDef*
G36*
G01*
X69395000Y-57365000D02*
X69395000Y-57215000D01*
G75*
G02*
X69470000Y-57140000I75000J0D01*
G01*
X69970000Y-57140000D01*
G75*
G02*
X70045000Y-57215000I0J-75000D01*
G01*
X70045000Y-57365000D01*
G75*
G02*
X69970000Y-57440000I-75000J0D01*
G01*
X69470000Y-57440000D01*
G75*
G02*
X69395000Y-57365000I0J75000D01*
G01*
G37*
G04 #@! TD.AperFunction*
G04 #@! TA.AperFunction,SMDPad,CuDef*
G36*
G01*
X69395000Y-58015000D02*
X69395000Y-57865000D01*
G75*
G02*
X69470000Y-57790000I75000J0D01*
G01*
X69970000Y-57790000D01*
G75*
G02*
X70045000Y-57865000I0J-75000D01*
G01*
X70045000Y-58015000D01*
G75*
G02*
X69970000Y-58090000I-75000J0D01*
G01*
X69470000Y-58090000D01*
G75*
G02*
X69395000Y-58015000I0J75000D01*
G01*
G37*
G04 #@! TD.AperFunction*
G04 #@! TA.AperFunction,SMDPad,CuDef*
G36*
G01*
X67595000Y-58015000D02*
X67595000Y-57865000D01*
G75*
G02*
X67670000Y-57790000I75000J0D01*
G01*
X68170000Y-57790000D01*
G75*
G02*
X68245000Y-57865000I0J-75000D01*
G01*
X68245000Y-58015000D01*
G75*
G02*
X68170000Y-58090000I-75000J0D01*
G01*
X67670000Y-58090000D01*
G75*
G02*
X67595000Y-58015000I0J75000D01*
G01*
G37*
G04 #@! TD.AperFunction*
G04 #@! TA.AperFunction,SMDPad,CuDef*
G36*
G01*
X67595000Y-57365000D02*
X67595000Y-57215000D01*
G75*
G02*
X67670000Y-57140000I75000J0D01*
G01*
X68170000Y-57140000D01*
G75*
G02*
X68245000Y-57215000I0J-75000D01*
G01*
X68245000Y-57365000D01*
G75*
G02*
X68170000Y-57440000I-75000J0D01*
G01*
X67670000Y-57440000D01*
G75*
G02*
X67595000Y-57365000I0J75000D01*
G01*
G37*
G04 #@! TD.AperFunction*
G04 #@! TA.AperFunction,SMDPad,CuDef*
G36*
G01*
X67595000Y-56715000D02*
X67595000Y-56565000D01*
G75*
G02*
X67670000Y-56490000I75000J0D01*
G01*
X68170000Y-56490000D01*
G75*
G02*
X68245000Y-56565000I0J-75000D01*
G01*
X68245000Y-56715000D01*
G75*
G02*
X68170000Y-56790000I-75000J0D01*
G01*
X67670000Y-56790000D01*
G75*
G02*
X67595000Y-56715000I0J75000D01*
G01*
G37*
G04 #@! TD.AperFunction*
G04 #@! TA.AperFunction,ComponentPad*
G36*
G01*
X81014409Y-76793161D02*
X81014409Y-76793161D01*
G75*
G02*
X80331396Y-76610148I-250000J433013D01*
G01*
X80331396Y-76610148D01*
G75*
G02*
X80514409Y-75927135I433013J250000D01*
G01*
X80514409Y-75927135D01*
G75*
G02*
X81197422Y-76110148I250000J-433013D01*
G01*
X81197422Y-76110148D01*
G75*
G02*
X81014409Y-76793161I-433013J-250000D01*
G01*
G37*
G04 #@! TD.AperFunction*
G04 #@! TA.AperFunction,ComponentPad*
G36*
G01*
X81649409Y-77893013D02*
X81649409Y-77893013D01*
G75*
G02*
X80966396Y-77710000I-250000J433013D01*
G01*
X80966396Y-77710000D01*
G75*
G02*
X81149409Y-77026987I433013J250000D01*
G01*
X81149409Y-77026987D01*
G75*
G02*
X81832422Y-77210000I250000J-433013D01*
G01*
X81832422Y-77210000D01*
G75*
G02*
X81649409Y-77893013I-433013J-250000D01*
G01*
G37*
G04 #@! TD.AperFunction*
G04 #@! TA.AperFunction,ComponentPad*
G36*
G01*
X79914557Y-77428161D02*
X79914557Y-77428161D01*
G75*
G02*
X79231544Y-77245148I-250000J433013D01*
G01*
X79231544Y-77245148D01*
G75*
G02*
X79414557Y-76562135I433013J250000D01*
G01*
X79414557Y-76562135D01*
G75*
G02*
X80097570Y-76745148I250000J-433013D01*
G01*
X80097570Y-76745148D01*
G75*
G02*
X79914557Y-77428161I-433013J-250000D01*
G01*
G37*
G04 #@! TD.AperFunction*
G04 #@! TA.AperFunction,ComponentPad*
G36*
G01*
X80549557Y-78528013D02*
X80549557Y-78528013D01*
G75*
G02*
X79866544Y-78345000I-250000J433013D01*
G01*
X79866544Y-78345000D01*
G75*
G02*
X80049557Y-77661987I433013J250000D01*
G01*
X80049557Y-77661987D01*
G75*
G02*
X80732570Y-77845000I250000J-433013D01*
G01*
X80732570Y-77845000D01*
G75*
G02*
X80549557Y-78528013I-433013J-250000D01*
G01*
G37*
G04 #@! TD.AperFunction*
G04 #@! TA.AperFunction,ComponentPad*
G36*
G01*
X78814705Y-78063161D02*
X78814705Y-78063161D01*
G75*
G02*
X78131692Y-77880148I-250000J433013D01*
G01*
X78131692Y-77880148D01*
G75*
G02*
X78314705Y-77197135I433013J250000D01*
G01*
X78314705Y-77197135D01*
G75*
G02*
X78997718Y-77380148I250000J-433013D01*
G01*
X78997718Y-77380148D01*
G75*
G02*
X78814705Y-78063161I-433013J-250000D01*
G01*
G37*
G04 #@! TD.AperFunction*
G04 #@! TA.AperFunction,ComponentPad*
G36*
G01*
X79449705Y-79163013D02*
X79449705Y-79163013D01*
G75*
G02*
X78766692Y-78980000I-250000J433013D01*
G01*
X78766692Y-78980000D01*
G75*
G02*
X78949705Y-78296987I433013J250000D01*
G01*
X78949705Y-78296987D01*
G75*
G02*
X79632718Y-78480000I250000J-433013D01*
G01*
X79632718Y-78480000D01*
G75*
G02*
X79449705Y-79163013I-433013J-250000D01*
G01*
G37*
G04 #@! TD.AperFunction*
G04 #@! TA.AperFunction,ComponentPad*
G36*
G01*
X77714852Y-78698161D02*
X77714852Y-78698161D01*
G75*
G02*
X77031839Y-78515148I-250000J433013D01*
G01*
X77031839Y-78515148D01*
G75*
G02*
X77214852Y-77832135I433013J250000D01*
G01*
X77214852Y-77832135D01*
G75*
G02*
X77897865Y-78015148I250000J-433013D01*
G01*
X77897865Y-78015148D01*
G75*
G02*
X77714852Y-78698161I-433013J-250000D01*
G01*
G37*
G04 #@! TD.AperFunction*
G04 #@! TA.AperFunction,ComponentPad*
G36*
G01*
X78349852Y-79798013D02*
X78349852Y-79798013D01*
G75*
G02*
X77666839Y-79615000I-250000J433013D01*
G01*
X77666839Y-79615000D01*
G75*
G02*
X77849852Y-78931987I433013J250000D01*
G01*
X77849852Y-78931987D01*
G75*
G02*
X78532865Y-79115000I250000J-433013D01*
G01*
X78532865Y-79115000D01*
G75*
G02*
X78349852Y-79798013I-433013J-250000D01*
G01*
G37*
G04 #@! TD.AperFunction*
G04 #@! TA.AperFunction,ComponentPad*
G36*
G01*
X76615000Y-79333161D02*
X76615000Y-79333161D01*
G75*
G02*
X75931987Y-79150148I-250000J433013D01*
G01*
X75931987Y-79150148D01*
G75*
G02*
X76115000Y-78467135I433013J250000D01*
G01*
X76115000Y-78467135D01*
G75*
G02*
X76798013Y-78650148I250000J-433013D01*
G01*
X76798013Y-78650148D01*
G75*
G02*
X76615000Y-79333161I-433013J-250000D01*
G01*
G37*
G04 #@! TD.AperFunction*
G04 #@! TA.AperFunction,ComponentPad*
D15*
G36*
X77683013Y-80183013D02*
G01*
X76816987Y-80683013D01*
X76316987Y-79816987D01*
X77183013Y-79316987D01*
X77683013Y-80183013D01*
G37*
G04 #@! TD.AperFunction*
D16*
X60330000Y-78895000D03*
X60330000Y-55085000D03*
D17*
X60330000Y-66990000D03*
D18*
X60900000Y-79000000D03*
X60800000Y-54900000D03*
X56743148Y-75624641D03*
X59600000Y-54900000D03*
X59700000Y-79000000D03*
X78129998Y-66940000D03*
X77860000Y-62330000D03*
X54070000Y-64830000D03*
X57530000Y-69960000D03*
X79220000Y-56490000D03*
X62210000Y-61790000D03*
X66430000Y-65500000D03*
X54570000Y-67490000D03*
X80750000Y-62300000D03*
X80740000Y-60040000D03*
X64580000Y-72540000D03*
X67540000Y-67840000D03*
X64620000Y-68230000D03*
X75740000Y-63860000D03*
X76490000Y-71690000D03*
X70120000Y-55620000D03*
X72110000Y-61200000D03*
X69440000Y-74730000D03*
X79130000Y-65340000D03*
X79190000Y-68350000D03*
X75000000Y-52300000D03*
X62900000Y-52200000D03*
X63100000Y-81500000D03*
X75000000Y-81500000D03*
X56400000Y-78400000D03*
X53200000Y-75300000D03*
X56100000Y-55300000D03*
X53800000Y-57600000D03*
X50780000Y-66730000D03*
X76130000Y-81980000D03*
X69200000Y-79600000D03*
X64600000Y-55800000D03*
X71700000Y-54100000D03*
X65700000Y-54000000D03*
X68800000Y-54000000D03*
X65600000Y-79800000D03*
X71800000Y-79700000D03*
X75400000Y-77000000D03*
X70700000Y-71100000D03*
X78900000Y-71900000D03*
X80720000Y-69140000D03*
X80710000Y-66880000D03*
X80720000Y-64610000D03*
X80710000Y-71540000D03*
X80750000Y-73800000D03*
X80810000Y-79630000D03*
X80780000Y-54720000D03*
X78190000Y-53070000D03*
X77700000Y-81360000D03*
X71840000Y-82460000D03*
X66820000Y-82450000D03*
X51700000Y-72270000D03*
X51420000Y-61890000D03*
X73400000Y-62370000D03*
X78170000Y-63860000D03*
X72210000Y-69880000D03*
X70240000Y-59300000D03*
X67390000Y-58860000D03*
X76270000Y-54120000D03*
X74420000Y-63870000D03*
X68130000Y-64470000D03*
X72150000Y-76100000D03*
X74400000Y-79630000D03*
X68260000Y-73550000D03*
X72960000Y-71390000D03*
X75340000Y-57940000D03*
X75630000Y-55700000D03*
X71700000Y-57530000D03*
X64470000Y-61790000D03*
X52280000Y-63740000D03*
X59605010Y-73234990D03*
X69440000Y-64090000D03*
X79470000Y-75940000D03*
X68790000Y-71160000D03*
X70669975Y-56490025D03*
X70500000Y-64430000D03*
X52620000Y-61640000D03*
X79790000Y-58830000D03*
X69610000Y-65060000D03*
X77420000Y-58070000D03*
X77500000Y-75200000D03*
X76886084Y-76866084D03*
X68790000Y-59860000D03*
X51500000Y-70230000D03*
X73320000Y-66890000D03*
X73320000Y-65400000D03*
X66940000Y-73910000D03*
X76106791Y-65419080D03*
X73248909Y-69988909D03*
X78610000Y-61300000D03*
X64960000Y-75150000D03*
X74518572Y-71689279D03*
X58380662Y-76134540D03*
X78110000Y-68350000D03*
X66370000Y-55860000D03*
X68910000Y-76684540D03*
X78290000Y-69980000D03*
X66440000Y-78860000D03*
X78200000Y-72320000D03*
X65730000Y-57950000D03*
X71600000Y-78600000D03*
X69770000Y-66260000D03*
X76233916Y-75066084D03*
X74280000Y-75200000D03*
X72540000Y-57400000D03*
X73300000Y-68360000D03*
X69679986Y-67011855D03*
X73250000Y-58610000D03*
X72550000Y-58340000D03*
X76876360Y-75781456D03*
D19*
X71819820Y-73887940D02*
X71819820Y-74980180D01*
D20*
X72080180Y-74980180D02*
X71819820Y-74980180D01*
X74500000Y-77400000D02*
X72080180Y-74980180D01*
X74500000Y-78600000D02*
X74500000Y-77400000D01*
X75900000Y-80000000D02*
X74500000Y-78600000D01*
X77000000Y-80000000D02*
X75900000Y-80000000D01*
D19*
X62605000Y-78895000D02*
X60330000Y-78895000D01*
X65580000Y-75920000D02*
X62605000Y-78895000D01*
X70880000Y-75920000D02*
X65580000Y-75920000D01*
X71819820Y-74980180D02*
X70880000Y-75920000D01*
D21*
X60330000Y-66990000D02*
X68190000Y-66990000D01*
X68190000Y-66990000D02*
X69660000Y-68460000D01*
X69660000Y-68460000D02*
X69660000Y-68900000D01*
X60330000Y-66990000D02*
X67830000Y-66990000D01*
X60330000Y-66990000D02*
X67740000Y-66990000D01*
X69874001Y-65610001D02*
X70250000Y-65234002D01*
X69639999Y-65610001D02*
X69874001Y-65610001D01*
X68260000Y-66990000D02*
X69639999Y-65610001D01*
X60330000Y-66990000D02*
X68260000Y-66990000D01*
X77494861Y-65340000D02*
X76920000Y-65914861D01*
X79130000Y-65340000D02*
X77494861Y-65340000D01*
X76920000Y-65914861D02*
X76920000Y-67020000D01*
X71570000Y-66190840D02*
X71517560Y-66138400D01*
X71570000Y-66720000D02*
X71570000Y-66190840D01*
X70770000Y-67520000D02*
X71570000Y-66720000D01*
X70770000Y-69180000D02*
X70770000Y-67520000D01*
X68790000Y-71160000D02*
X70770000Y-69180000D01*
X70520000Y-56640000D02*
X70669975Y-56490025D01*
X69720000Y-56640000D02*
X70520000Y-56640000D01*
D20*
X79518560Y-59890000D02*
X79518560Y-59101440D01*
X79518560Y-59101440D02*
X79790000Y-58830000D01*
D21*
X78418740Y-59068740D02*
X77420000Y-58070000D01*
X78418740Y-59890000D02*
X78418740Y-59068740D01*
X69010000Y-57760000D02*
X69190000Y-57940000D01*
X69010000Y-55540000D02*
X69010000Y-57760000D01*
X69510000Y-55040000D02*
X69010000Y-55540000D01*
X69190000Y-57940000D02*
X69720000Y-57940000D01*
X73790000Y-55040000D02*
X69510000Y-55040000D01*
X76820000Y-58070000D02*
X73790000Y-55040000D01*
X77420000Y-58070000D02*
X76820000Y-58070000D01*
X77318920Y-75018920D02*
X77500000Y-75200000D01*
X77318920Y-73887940D02*
X77318920Y-75018920D01*
X78418740Y-73887940D02*
X78418740Y-75333428D01*
X78418740Y-75333428D02*
X76886084Y-76866084D01*
X76365000Y-78900148D02*
X76365000Y-78165000D01*
X76365000Y-78165000D02*
X79518560Y-75011440D01*
X79518560Y-75011440D02*
X79518560Y-74837240D01*
X79518560Y-74837240D02*
X79518560Y-73887940D01*
X72120000Y-63353268D02*
X72746732Y-63980000D01*
X73258060Y-63980000D02*
X73917860Y-64639800D01*
X72120000Y-62610000D02*
X72120000Y-63353268D01*
X71670000Y-62160000D02*
X72120000Y-62610000D01*
X70790000Y-62160000D02*
X71670000Y-62160000D01*
X68790000Y-60160000D02*
X70790000Y-62160000D01*
X72746732Y-63980000D02*
X73258060Y-63980000D01*
X68790000Y-59860000D02*
X68790000Y-60160000D01*
X73917860Y-66282140D02*
X73917860Y-66138400D01*
X73320000Y-66880000D02*
X73917860Y-66282140D01*
X73320000Y-66890000D02*
X73320000Y-66880000D01*
X73320000Y-65537380D02*
X72718980Y-66138400D01*
X73320000Y-65400000D02*
X73320000Y-65537380D01*
X73917860Y-69138140D02*
X74656000Y-68400000D01*
X75510000Y-68400000D02*
X75720000Y-68190000D01*
X74656000Y-68400000D02*
X75510000Y-68400000D01*
X75720000Y-68190000D02*
X75720000Y-65805871D01*
X75720000Y-65805871D02*
X76106791Y-65419080D01*
X74307420Y-69950000D02*
X73220000Y-69950000D01*
X75119280Y-69138140D02*
X74307420Y-69950000D01*
X74818571Y-71389280D02*
X74518572Y-71689279D01*
X75330720Y-71389280D02*
X74818571Y-71389280D01*
X75720000Y-71000000D02*
X75330720Y-71389280D01*
X75720000Y-70120000D02*
X75720000Y-71000000D01*
X76318160Y-69521840D02*
X75720000Y-70120000D01*
X76318160Y-69138140D02*
X76318160Y-69521840D01*
X77519580Y-69138140D02*
X78110000Y-68547720D01*
X78110000Y-68547720D02*
X78110000Y-68350000D01*
X67150000Y-56640000D02*
X66370000Y-55860000D01*
X67920000Y-56640000D02*
X67150000Y-56640000D01*
X78290000Y-70210820D02*
X78718460Y-70639280D01*
X78290000Y-69980000D02*
X78290000Y-70210820D01*
X77519580Y-70639280D02*
X78200000Y-71319700D01*
X78200000Y-71319700D02*
X78200000Y-72320000D01*
X72110000Y-65740000D02*
X72110000Y-66690000D01*
X72360000Y-65490000D02*
X72110000Y-65740000D01*
X72360000Y-65120000D02*
X72360000Y-65490000D01*
X72110000Y-64870000D02*
X72360000Y-65120000D01*
X72110000Y-66690000D02*
X71517560Y-67282440D01*
X72110000Y-64340000D02*
X72110000Y-64870000D01*
X71517560Y-67282440D02*
X71517560Y-67639540D01*
X71620000Y-63850000D02*
X72110000Y-64340000D01*
X70950000Y-63850000D02*
X71620000Y-63850000D01*
X65730000Y-58630000D02*
X70950000Y-63850000D01*
X65730000Y-57950000D02*
X65730000Y-58630000D01*
X76730000Y-65609873D02*
X76318160Y-66021713D01*
X76910000Y-65050000D02*
X76730000Y-65230000D01*
X76920000Y-65050000D02*
X76910000Y-65050000D01*
X76920000Y-62650000D02*
X76920000Y-65050000D01*
X76318160Y-66021713D02*
X76318160Y-66138400D01*
X76070000Y-61800000D02*
X76920000Y-62650000D01*
X71530000Y-61800000D02*
X76070000Y-61800000D01*
X71070000Y-57920000D02*
X71070000Y-61340000D01*
X76730000Y-65230000D02*
X76730000Y-65609873D01*
X70440000Y-57290000D02*
X71070000Y-57920000D01*
X71070000Y-61340000D02*
X71530000Y-61800000D01*
X69720000Y-57290000D02*
X70440000Y-57290000D01*
D20*
X71600000Y-78507500D02*
X70742500Y-77650000D01*
X71600000Y-78600000D02*
X71600000Y-78507500D01*
D21*
X71517560Y-64639800D02*
X69897360Y-66260000D01*
X69897360Y-66260000D02*
X69770000Y-66260000D01*
D20*
X76219100Y-73887940D02*
X76219100Y-75051268D01*
X76219100Y-75051268D02*
X76233916Y-75066084D01*
D21*
X74019460Y-74939460D02*
X74280000Y-75200000D01*
X74019460Y-73887940D02*
X74019460Y-74939460D01*
X72110000Y-56200000D02*
X72110000Y-56970000D01*
X72110000Y-56970000D02*
X72540000Y-57400000D01*
X73917860Y-67702140D02*
X73917860Y-67639540D01*
X73300000Y-68320000D02*
X73917860Y-67702140D01*
X73300000Y-68360000D02*
X73300000Y-68320000D01*
X72919640Y-58940360D02*
X73250000Y-58610000D01*
X72919640Y-59890000D02*
X72919640Y-58940360D01*
X71819820Y-59070180D02*
X72550000Y-58340000D01*
X71819820Y-59890000D02*
X71819820Y-59070180D01*
X76160000Y-75770000D02*
X76812720Y-75770000D01*
X75119280Y-74729280D02*
X76160000Y-75770000D01*
X76876360Y-75833640D02*
X76876360Y-75781456D01*
X75119280Y-73887940D02*
X75119280Y-74729280D01*
X76812720Y-75770000D02*
X76876360Y-75833640D01*
X73152151Y-76653192D02*
X73105000Y-76648548D01*
X72717500Y-76650000D01*
X72642500Y-76725000D01*
X72642500Y-77625000D01*
X73330000Y-77625000D01*
X73405000Y-77550000D01*
X73406452Y-76950000D01*
X73401808Y-76902849D01*
X74075001Y-77576042D01*
X74075000Y-78579133D01*
X74072945Y-78600000D01*
X74075000Y-78620867D01*
X74075000Y-78620873D01*
X74077869Y-78650000D01*
X74081150Y-78683314D01*
X74081657Y-78684986D01*
X74105452Y-78763426D01*
X74144916Y-78837259D01*
X74198026Y-78901974D01*
X74214243Y-78915283D01*
X75584721Y-80285762D01*
X75598026Y-80301974D01*
X75662740Y-80355084D01*
X75736573Y-80394548D01*
X75787294Y-80409934D01*
X75816685Y-80418850D01*
X75824327Y-80419603D01*
X75879126Y-80425000D01*
X75879133Y-80425000D01*
X75900000Y-80427055D01*
X75920867Y-80425000D01*
X76319938Y-80425000D01*
X76555923Y-80833738D01*
X76590344Y-80881773D01*
X76633475Y-80922170D01*
X76683659Y-80953376D01*
X76738966Y-80974192D01*
X76797271Y-80983819D01*
X76856334Y-80981885D01*
X76913885Y-80968466D01*
X76967712Y-80944077D01*
X77833738Y-80444077D01*
X77881773Y-80409656D01*
X77922170Y-80366525D01*
X77953376Y-80316341D01*
X77974192Y-80261034D01*
X77983819Y-80202729D01*
X77982178Y-80152626D01*
X78041132Y-80162845D01*
X78197912Y-80158970D01*
X78350924Y-80124583D01*
X78363067Y-80120459D01*
X78440486Y-80004995D01*
X78090701Y-79399151D01*
X78073381Y-79409151D01*
X78053175Y-79374151D01*
X78134003Y-79374151D01*
X78483787Y-79979995D01*
X78622491Y-79970680D01*
X78632134Y-79962226D01*
X78738420Y-79846908D01*
X78820166Y-79713070D01*
X78874230Y-79565856D01*
X78890217Y-79463952D01*
X78986462Y-79501059D01*
X79140985Y-79527845D01*
X79297765Y-79523970D01*
X79450777Y-79489583D01*
X79462920Y-79485459D01*
X79540339Y-79369995D01*
X79190554Y-78764151D01*
X78646830Y-79078070D01*
X78134003Y-79374151D01*
X78053175Y-79374151D01*
X78048381Y-79365849D01*
X78065701Y-79355849D01*
X78055701Y-79338529D01*
X78099003Y-79313529D01*
X78109003Y-79330849D01*
X78559673Y-79070655D01*
X78622590Y-79034330D01*
X78714884Y-78981044D01*
X79133854Y-78739151D01*
X79233856Y-78739151D01*
X79583640Y-79344995D01*
X79722344Y-79335680D01*
X79731987Y-79327226D01*
X79838273Y-79211908D01*
X79920019Y-79078070D01*
X79974083Y-78930856D01*
X79990070Y-78828952D01*
X80086314Y-78866059D01*
X80240837Y-78892845D01*
X80397617Y-78888970D01*
X80550629Y-78854583D01*
X80562772Y-78850459D01*
X80640191Y-78734995D01*
X80290406Y-78129151D01*
X79684525Y-78478956D01*
X79684525Y-78478957D01*
X79233856Y-78739151D01*
X79133854Y-78739151D01*
X79165554Y-78720849D01*
X79155554Y-78703529D01*
X79198856Y-78678529D01*
X79208856Y-78695849D01*
X79814737Y-78346044D01*
X79814737Y-78346043D01*
X80265406Y-78085849D01*
X80255406Y-78068529D01*
X80298708Y-78043529D01*
X80308708Y-78060849D01*
X80914589Y-77711044D01*
X80914589Y-77711043D01*
X81178222Y-77558834D01*
X81178323Y-77616512D01*
X80784377Y-77843956D01*
X80784377Y-77843957D01*
X80333708Y-78104151D01*
X80683492Y-78709995D01*
X80822196Y-78700680D01*
X80831839Y-78692226D01*
X80938125Y-78576908D01*
X81019871Y-78443070D01*
X81073935Y-78295856D01*
X81089922Y-78193952D01*
X81179395Y-78228449D01*
X81181840Y-79623698D01*
X80233439Y-80279179D01*
X78873849Y-81031262D01*
X77446272Y-81644598D01*
X75964850Y-82113110D01*
X74444220Y-82432171D01*
X72895503Y-82599048D01*
X71994583Y-82625000D01*
X66009326Y-82625000D01*
X64448182Y-82547282D01*
X62911703Y-82316284D01*
X61405747Y-81933819D01*
X59945247Y-81403682D01*
X58544614Y-80731108D01*
X58165254Y-80500000D01*
X63673428Y-80500000D01*
X63675000Y-80515961D01*
X63675001Y-81984029D01*
X63673428Y-82000000D01*
X63679703Y-82063711D01*
X63698287Y-82124974D01*
X63728465Y-82181434D01*
X63769079Y-82230921D01*
X63818566Y-82271535D01*
X63875026Y-82301713D01*
X63936289Y-82320297D01*
X63984039Y-82325000D01*
X63984040Y-82325000D01*
X64000000Y-82326572D01*
X64015961Y-82325000D01*
X73984039Y-82325000D01*
X74000000Y-82326572D01*
X74015960Y-82325000D01*
X74015961Y-82325000D01*
X74063711Y-82320297D01*
X74124974Y-82301713D01*
X74181434Y-82271535D01*
X74230921Y-82230921D01*
X74271535Y-82181434D01*
X74301713Y-82124974D01*
X74320297Y-82063711D01*
X74326572Y-82000000D01*
X74325000Y-81984039D01*
X74325000Y-80515961D01*
X74326572Y-80500000D01*
X74320297Y-80436289D01*
X74301713Y-80375026D01*
X74271535Y-80318566D01*
X74230921Y-80269079D01*
X74181434Y-80228465D01*
X74124974Y-80198287D01*
X74063711Y-80179703D01*
X74015961Y-80175000D01*
X74000000Y-80173428D01*
X73984040Y-80175000D01*
X64015960Y-80175000D01*
X64000000Y-80173428D01*
X63984039Y-80175000D01*
X63936289Y-80179703D01*
X63875026Y-80198287D01*
X63818566Y-80228465D01*
X63769079Y-80269079D01*
X63728465Y-80318566D01*
X63698287Y-80375026D01*
X63679703Y-80436289D01*
X63673428Y-80500000D01*
X58165254Y-80500000D01*
X58159428Y-80496451D01*
X63110000Y-80496451D01*
X63168810Y-80490659D01*
X63225360Y-80473504D01*
X63277477Y-80445647D01*
X63323158Y-80408158D01*
X63360647Y-80362477D01*
X63388504Y-80310360D01*
X63405659Y-80253810D01*
X63411451Y-80195000D01*
X63411451Y-78866366D01*
X63476912Y-78800905D01*
X65840000Y-78800905D01*
X65840000Y-78919095D01*
X65863058Y-79035014D01*
X65908287Y-79144207D01*
X65973950Y-79242478D01*
X66057522Y-79326050D01*
X66155793Y-79391713D01*
X66264986Y-79436942D01*
X66380905Y-79460000D01*
X66499095Y-79460000D01*
X66615014Y-79436942D01*
X66724207Y-79391713D01*
X66822478Y-79326050D01*
X66906050Y-79242478D01*
X66971713Y-79144207D01*
X67016942Y-79035014D01*
X67040000Y-78919095D01*
X67040000Y-78800905D01*
X67016942Y-78684986D01*
X66971713Y-78575793D01*
X66906050Y-78477522D01*
X66822478Y-78393950D01*
X66724207Y-78328287D01*
X66615014Y-78283058D01*
X66499095Y-78260000D01*
X66380905Y-78260000D01*
X66264986Y-78283058D01*
X66155793Y-78328287D01*
X66057522Y-78393950D01*
X65973950Y-78477522D01*
X65908287Y-78575793D01*
X65863058Y-78684986D01*
X65840000Y-78800905D01*
X63476912Y-78800905D01*
X64769374Y-77508443D01*
X66398000Y-77508443D01*
X66398000Y-77631557D01*
X66422019Y-77752306D01*
X66469132Y-77866048D01*
X66537531Y-77968414D01*
X66624586Y-78055469D01*
X66726952Y-78123868D01*
X66840694Y-78170981D01*
X66961443Y-78195000D01*
X67084557Y-78195000D01*
X67205306Y-78170981D01*
X67319048Y-78123868D01*
X67421414Y-78055469D01*
X67508469Y-77968414D01*
X67576868Y-77866048D01*
X67623981Y-77752306D01*
X67648000Y-77631557D01*
X67648000Y-77508443D01*
X67623981Y-77387694D01*
X67576868Y-77273952D01*
X67508469Y-77171586D01*
X67421414Y-77084531D01*
X67319048Y-77016132D01*
X67205306Y-76969019D01*
X67084557Y-76945000D01*
X66961443Y-76945000D01*
X66840694Y-76969019D01*
X66726952Y-77016132D01*
X66624586Y-77084531D01*
X66537531Y-77171586D01*
X66469132Y-77273952D01*
X66422019Y-77387694D01*
X66398000Y-77508443D01*
X64769374Y-77508443D01*
X65807818Y-76470000D01*
X68349430Y-76470000D01*
X68333058Y-76509526D01*
X68310000Y-76625445D01*
X68310000Y-76743635D01*
X68333058Y-76859554D01*
X68378287Y-76968747D01*
X68443950Y-77067018D01*
X68527522Y-77150590D01*
X68625793Y-77216253D01*
X68734986Y-77261482D01*
X68850905Y-77284540D01*
X68969095Y-77284540D01*
X69085014Y-77261482D01*
X69194207Y-77216253D01*
X69227884Y-77193750D01*
X69953549Y-77193750D01*
X69953549Y-78106250D01*
X69964025Y-78212613D01*
X69995050Y-78314889D01*
X70045432Y-78409147D01*
X70113235Y-78491765D01*
X70195853Y-78559568D01*
X70290111Y-78609950D01*
X70392387Y-78640975D01*
X70498750Y-78651451D01*
X70986250Y-78651451D01*
X71000000Y-78650097D01*
X71000000Y-78659095D01*
X71023058Y-78775014D01*
X71068287Y-78884207D01*
X71133950Y-78982478D01*
X71217522Y-79066050D01*
X71315793Y-79131713D01*
X71424986Y-79176942D01*
X71540905Y-79200000D01*
X71659095Y-79200000D01*
X71775014Y-79176942D01*
X71884207Y-79131713D01*
X71982478Y-79066050D01*
X72066050Y-78982478D01*
X72131713Y-78884207D01*
X72176942Y-78775014D01*
X72200000Y-78659095D01*
X72200000Y-78651190D01*
X72517500Y-78650000D01*
X72592500Y-78575000D01*
X72592500Y-77675000D01*
X72642500Y-77675000D01*
X72642500Y-78575000D01*
X72717500Y-78650000D01*
X73105000Y-78651452D01*
X73163810Y-78645660D01*
X73220361Y-78628505D01*
X73272478Y-78600648D01*
X73318159Y-78563159D01*
X73355648Y-78517478D01*
X73383505Y-78465361D01*
X73400660Y-78408810D01*
X73406452Y-78350000D01*
X73405000Y-77750000D01*
X73330000Y-77675000D01*
X72642500Y-77675000D01*
X72592500Y-77675000D01*
X71905000Y-77675000D01*
X71830000Y-77750000D01*
X71829285Y-78045538D01*
X71775014Y-78023058D01*
X71702094Y-78008553D01*
X71531451Y-77837910D01*
X71531451Y-77193750D01*
X71520975Y-77087387D01*
X71489950Y-76985111D01*
X71471183Y-76950000D01*
X71828548Y-76950000D01*
X71830000Y-77550000D01*
X71905000Y-77625000D01*
X72592500Y-77625000D01*
X72592500Y-76725000D01*
X72517500Y-76650000D01*
X72130000Y-76648548D01*
X72071190Y-76654340D01*
X72014639Y-76671495D01*
X71962522Y-76699352D01*
X71916841Y-76736841D01*
X71879352Y-76782522D01*
X71851495Y-76834639D01*
X71834340Y-76891190D01*
X71828548Y-76950000D01*
X71471183Y-76950000D01*
X71439568Y-76890853D01*
X71371765Y-76808235D01*
X71289147Y-76740432D01*
X71194889Y-76690050D01*
X71092613Y-76659025D01*
X70986250Y-76648549D01*
X70498750Y-76648549D01*
X70392387Y-76659025D01*
X70290111Y-76690050D01*
X70195853Y-76740432D01*
X70113235Y-76808235D01*
X70045432Y-76890853D01*
X69995050Y-76985111D01*
X69964025Y-77087387D01*
X69953549Y-77193750D01*
X69227884Y-77193750D01*
X69292478Y-77150590D01*
X69376050Y-77067018D01*
X69441713Y-76968747D01*
X69486942Y-76859554D01*
X69510000Y-76743635D01*
X69510000Y-76625445D01*
X69486942Y-76509526D01*
X69470570Y-76470000D01*
X70852992Y-76470000D01*
X70880000Y-76472660D01*
X70907008Y-76470000D01*
X70907018Y-76470000D01*
X70987819Y-76462042D01*
X71091494Y-76430592D01*
X71187042Y-76379521D01*
X71270790Y-76310790D01*
X71288013Y-76289804D01*
X72038389Y-75539429D01*
X73152151Y-76653192D01*
G04 #@! TA.AperFunction,Conductor*
D22*
G36*
X73152151Y-76653192D02*
G01*
X73105000Y-76648548D01*
X72717500Y-76650000D01*
X72642500Y-76725000D01*
X72642500Y-77625000D01*
X73330000Y-77625000D01*
X73405000Y-77550000D01*
X73406452Y-76950000D01*
X73401808Y-76902849D01*
X74075001Y-77576042D01*
X74075000Y-78579133D01*
X74072945Y-78600000D01*
X74075000Y-78620867D01*
X74075000Y-78620873D01*
X74077869Y-78650000D01*
X74081150Y-78683314D01*
X74081657Y-78684986D01*
X74105452Y-78763426D01*
X74144916Y-78837259D01*
X74198026Y-78901974D01*
X74214243Y-78915283D01*
X75584721Y-80285762D01*
X75598026Y-80301974D01*
X75662740Y-80355084D01*
X75736573Y-80394548D01*
X75787294Y-80409934D01*
X75816685Y-80418850D01*
X75824327Y-80419603D01*
X75879126Y-80425000D01*
X75879133Y-80425000D01*
X75900000Y-80427055D01*
X75920867Y-80425000D01*
X76319938Y-80425000D01*
X76555923Y-80833738D01*
X76590344Y-80881773D01*
X76633475Y-80922170D01*
X76683659Y-80953376D01*
X76738966Y-80974192D01*
X76797271Y-80983819D01*
X76856334Y-80981885D01*
X76913885Y-80968466D01*
X76967712Y-80944077D01*
X77833738Y-80444077D01*
X77881773Y-80409656D01*
X77922170Y-80366525D01*
X77953376Y-80316341D01*
X77974192Y-80261034D01*
X77983819Y-80202729D01*
X77982178Y-80152626D01*
X78041132Y-80162845D01*
X78197912Y-80158970D01*
X78350924Y-80124583D01*
X78363067Y-80120459D01*
X78440486Y-80004995D01*
X78090701Y-79399151D01*
X78073381Y-79409151D01*
X78053175Y-79374151D01*
X78134003Y-79374151D01*
X78483787Y-79979995D01*
X78622491Y-79970680D01*
X78632134Y-79962226D01*
X78738420Y-79846908D01*
X78820166Y-79713070D01*
X78874230Y-79565856D01*
X78890217Y-79463952D01*
X78986462Y-79501059D01*
X79140985Y-79527845D01*
X79297765Y-79523970D01*
X79450777Y-79489583D01*
X79462920Y-79485459D01*
X79540339Y-79369995D01*
X79190554Y-78764151D01*
X78646830Y-79078070D01*
X78134003Y-79374151D01*
X78053175Y-79374151D01*
X78048381Y-79365849D01*
X78065701Y-79355849D01*
X78055701Y-79338529D01*
X78099003Y-79313529D01*
X78109003Y-79330849D01*
X78559673Y-79070655D01*
X78622590Y-79034330D01*
X78714884Y-78981044D01*
X79133854Y-78739151D01*
X79233856Y-78739151D01*
X79583640Y-79344995D01*
X79722344Y-79335680D01*
X79731987Y-79327226D01*
X79838273Y-79211908D01*
X79920019Y-79078070D01*
X79974083Y-78930856D01*
X79990070Y-78828952D01*
X80086314Y-78866059D01*
X80240837Y-78892845D01*
X80397617Y-78888970D01*
X80550629Y-78854583D01*
X80562772Y-78850459D01*
X80640191Y-78734995D01*
X80290406Y-78129151D01*
X79684525Y-78478956D01*
X79684525Y-78478957D01*
X79233856Y-78739151D01*
X79133854Y-78739151D01*
X79165554Y-78720849D01*
X79155554Y-78703529D01*
X79198856Y-78678529D01*
X79208856Y-78695849D01*
X79814737Y-78346044D01*
X79814737Y-78346043D01*
X80265406Y-78085849D01*
X80255406Y-78068529D01*
X80298708Y-78043529D01*
X80308708Y-78060849D01*
X80914589Y-77711044D01*
X80914589Y-77711043D01*
X81178222Y-77558834D01*
X81178323Y-77616512D01*
X80784377Y-77843956D01*
X80784377Y-77843957D01*
X80333708Y-78104151D01*
X80683492Y-78709995D01*
X80822196Y-78700680D01*
X80831839Y-78692226D01*
X80938125Y-78576908D01*
X81019871Y-78443070D01*
X81073935Y-78295856D01*
X81089922Y-78193952D01*
X81179395Y-78228449D01*
X81181840Y-79623698D01*
X80233439Y-80279179D01*
X78873849Y-81031262D01*
X77446272Y-81644598D01*
X75964850Y-82113110D01*
X74444220Y-82432171D01*
X72895503Y-82599048D01*
X71994583Y-82625000D01*
X66009326Y-82625000D01*
X64448182Y-82547282D01*
X62911703Y-82316284D01*
X61405747Y-81933819D01*
X59945247Y-81403682D01*
X58544614Y-80731108D01*
X58165254Y-80500000D01*
X63673428Y-80500000D01*
X63675000Y-80515961D01*
X63675001Y-81984029D01*
X63673428Y-82000000D01*
X63679703Y-82063711D01*
X63698287Y-82124974D01*
X63728465Y-82181434D01*
X63769079Y-82230921D01*
X63818566Y-82271535D01*
X63875026Y-82301713D01*
X63936289Y-82320297D01*
X63984039Y-82325000D01*
X63984040Y-82325000D01*
X64000000Y-82326572D01*
X64015961Y-82325000D01*
X73984039Y-82325000D01*
X74000000Y-82326572D01*
X74015960Y-82325000D01*
X74015961Y-82325000D01*
X74063711Y-82320297D01*
X74124974Y-82301713D01*
X74181434Y-82271535D01*
X74230921Y-82230921D01*
X74271535Y-82181434D01*
X74301713Y-82124974D01*
X74320297Y-82063711D01*
X74326572Y-82000000D01*
X74325000Y-81984039D01*
X74325000Y-80515961D01*
X74326572Y-80500000D01*
X74320297Y-80436289D01*
X74301713Y-80375026D01*
X74271535Y-80318566D01*
X74230921Y-80269079D01*
X74181434Y-80228465D01*
X74124974Y-80198287D01*
X74063711Y-80179703D01*
X74015961Y-80175000D01*
X74000000Y-80173428D01*
X73984040Y-80175000D01*
X64015960Y-80175000D01*
X64000000Y-80173428D01*
X63984039Y-80175000D01*
X63936289Y-80179703D01*
X63875026Y-80198287D01*
X63818566Y-80228465D01*
X63769079Y-80269079D01*
X63728465Y-80318566D01*
X63698287Y-80375026D01*
X63679703Y-80436289D01*
X63673428Y-80500000D01*
X58165254Y-80500000D01*
X58159428Y-80496451D01*
X63110000Y-80496451D01*
X63168810Y-80490659D01*
X63225360Y-80473504D01*
X63277477Y-80445647D01*
X63323158Y-80408158D01*
X63360647Y-80362477D01*
X63388504Y-80310360D01*
X63405659Y-80253810D01*
X63411451Y-80195000D01*
X63411451Y-78866366D01*
X63476912Y-78800905D01*
X65840000Y-78800905D01*
X65840000Y-78919095D01*
X65863058Y-79035014D01*
X65908287Y-79144207D01*
X65973950Y-79242478D01*
X66057522Y-79326050D01*
X66155793Y-79391713D01*
X66264986Y-79436942D01*
X66380905Y-79460000D01*
X66499095Y-79460000D01*
X66615014Y-79436942D01*
X66724207Y-79391713D01*
X66822478Y-79326050D01*
X66906050Y-79242478D01*
X66971713Y-79144207D01*
X67016942Y-79035014D01*
X67040000Y-78919095D01*
X67040000Y-78800905D01*
X67016942Y-78684986D01*
X66971713Y-78575793D01*
X66906050Y-78477522D01*
X66822478Y-78393950D01*
X66724207Y-78328287D01*
X66615014Y-78283058D01*
X66499095Y-78260000D01*
X66380905Y-78260000D01*
X66264986Y-78283058D01*
X66155793Y-78328287D01*
X66057522Y-78393950D01*
X65973950Y-78477522D01*
X65908287Y-78575793D01*
X65863058Y-78684986D01*
X65840000Y-78800905D01*
X63476912Y-78800905D01*
X64769374Y-77508443D01*
X66398000Y-77508443D01*
X66398000Y-77631557D01*
X66422019Y-77752306D01*
X66469132Y-77866048D01*
X66537531Y-77968414D01*
X66624586Y-78055469D01*
X66726952Y-78123868D01*
X66840694Y-78170981D01*
X66961443Y-78195000D01*
X67084557Y-78195000D01*
X67205306Y-78170981D01*
X67319048Y-78123868D01*
X67421414Y-78055469D01*
X67508469Y-77968414D01*
X67576868Y-77866048D01*
X67623981Y-77752306D01*
X67648000Y-77631557D01*
X67648000Y-77508443D01*
X67623981Y-77387694D01*
X67576868Y-77273952D01*
X67508469Y-77171586D01*
X67421414Y-77084531D01*
X67319048Y-77016132D01*
X67205306Y-76969019D01*
X67084557Y-76945000D01*
X66961443Y-76945000D01*
X66840694Y-76969019D01*
X66726952Y-77016132D01*
X66624586Y-77084531D01*
X66537531Y-77171586D01*
X66469132Y-77273952D01*
X66422019Y-77387694D01*
X66398000Y-77508443D01*
X64769374Y-77508443D01*
X65807818Y-76470000D01*
X68349430Y-76470000D01*
X68333058Y-76509526D01*
X68310000Y-76625445D01*
X68310000Y-76743635D01*
X68333058Y-76859554D01*
X68378287Y-76968747D01*
X68443950Y-77067018D01*
X68527522Y-77150590D01*
X68625793Y-77216253D01*
X68734986Y-77261482D01*
X68850905Y-77284540D01*
X68969095Y-77284540D01*
X69085014Y-77261482D01*
X69194207Y-77216253D01*
X69227884Y-77193750D01*
X69953549Y-77193750D01*
X69953549Y-78106250D01*
X69964025Y-78212613D01*
X69995050Y-78314889D01*
X70045432Y-78409147D01*
X70113235Y-78491765D01*
X70195853Y-78559568D01*
X70290111Y-78609950D01*
X70392387Y-78640975D01*
X70498750Y-78651451D01*
X70986250Y-78651451D01*
X71000000Y-78650097D01*
X71000000Y-78659095D01*
X71023058Y-78775014D01*
X71068287Y-78884207D01*
X71133950Y-78982478D01*
X71217522Y-79066050D01*
X71315793Y-79131713D01*
X71424986Y-79176942D01*
X71540905Y-79200000D01*
X71659095Y-79200000D01*
X71775014Y-79176942D01*
X71884207Y-79131713D01*
X71982478Y-79066050D01*
X72066050Y-78982478D01*
X72131713Y-78884207D01*
X72176942Y-78775014D01*
X72200000Y-78659095D01*
X72200000Y-78651190D01*
X72517500Y-78650000D01*
X72592500Y-78575000D01*
X72592500Y-77675000D01*
X72642500Y-77675000D01*
X72642500Y-78575000D01*
X72717500Y-78650000D01*
X73105000Y-78651452D01*
X73163810Y-78645660D01*
X73220361Y-78628505D01*
X73272478Y-78600648D01*
X73318159Y-78563159D01*
X73355648Y-78517478D01*
X73383505Y-78465361D01*
X73400660Y-78408810D01*
X73406452Y-78350000D01*
X73405000Y-77750000D01*
X73330000Y-77675000D01*
X72642500Y-77675000D01*
X72592500Y-77675000D01*
X71905000Y-77675000D01*
X71830000Y-77750000D01*
X71829285Y-78045538D01*
X71775014Y-78023058D01*
X71702094Y-78008553D01*
X71531451Y-77837910D01*
X71531451Y-77193750D01*
X71520975Y-77087387D01*
X71489950Y-76985111D01*
X71471183Y-76950000D01*
X71828548Y-76950000D01*
X71830000Y-77550000D01*
X71905000Y-77625000D01*
X72592500Y-77625000D01*
X72592500Y-76725000D01*
X72517500Y-76650000D01*
X72130000Y-76648548D01*
X72071190Y-76654340D01*
X72014639Y-76671495D01*
X71962522Y-76699352D01*
X71916841Y-76736841D01*
X71879352Y-76782522D01*
X71851495Y-76834639D01*
X71834340Y-76891190D01*
X71828548Y-76950000D01*
X71471183Y-76950000D01*
X71439568Y-76890853D01*
X71371765Y-76808235D01*
X71289147Y-76740432D01*
X71194889Y-76690050D01*
X71092613Y-76659025D01*
X70986250Y-76648549D01*
X70498750Y-76648549D01*
X70392387Y-76659025D01*
X70290111Y-76690050D01*
X70195853Y-76740432D01*
X70113235Y-76808235D01*
X70045432Y-76890853D01*
X69995050Y-76985111D01*
X69964025Y-77087387D01*
X69953549Y-77193750D01*
X69227884Y-77193750D01*
X69292478Y-77150590D01*
X69376050Y-77067018D01*
X69441713Y-76968747D01*
X69486942Y-76859554D01*
X69510000Y-76743635D01*
X69510000Y-76625445D01*
X69486942Y-76509526D01*
X69470570Y-76470000D01*
X70852992Y-76470000D01*
X70880000Y-76472660D01*
X70907008Y-76470000D01*
X70907018Y-76470000D01*
X70987819Y-76462042D01*
X71091494Y-76430592D01*
X71187042Y-76379521D01*
X71270790Y-76310790D01*
X71288013Y-76289804D01*
X72038389Y-75539429D01*
X73152151Y-76653192D01*
G37*
G04 #@! TD.AperFunction*
D21*
X73551828Y-51452719D02*
X75088296Y-51683716D01*
X76594235Y-52066176D01*
X78054753Y-52596318D01*
X79455386Y-53268892D01*
X80782293Y-54077251D01*
X81137544Y-54345439D01*
X81151781Y-62469618D01*
X80819980Y-62470360D01*
X80744980Y-62545360D01*
X80744980Y-63494660D01*
X80764980Y-63494660D01*
X80764980Y-63544660D01*
X80744980Y-63544660D01*
X80744980Y-64493960D01*
X80819980Y-64568960D01*
X81155461Y-64569710D01*
X81155720Y-64717509D01*
X80819980Y-64718260D01*
X80744980Y-64793260D01*
X80744980Y-65742560D01*
X80764980Y-65742560D01*
X80764980Y-65792560D01*
X80744980Y-65792560D01*
X80744980Y-66741860D01*
X80819980Y-66816860D01*
X81159400Y-66817619D01*
X81159663Y-66967940D01*
X80819980Y-66968700D01*
X80744980Y-67043700D01*
X80744980Y-67993000D01*
X80764980Y-67993000D01*
X80764980Y-68043000D01*
X80744980Y-68043000D01*
X80744980Y-68992300D01*
X80819980Y-69067300D01*
X81163343Y-69068068D01*
X81163607Y-69218372D01*
X80819980Y-69219140D01*
X80744980Y-69294140D01*
X80744980Y-70243440D01*
X80764980Y-70243440D01*
X80764980Y-70293440D01*
X80744980Y-70293440D01*
X80744980Y-71242740D01*
X80819980Y-71317740D01*
X81167287Y-71318517D01*
X81174916Y-75672288D01*
X81143351Y-75651197D01*
X80997760Y-75590891D01*
X80843202Y-75560148D01*
X80685616Y-75560148D01*
X80531058Y-75590891D01*
X80385467Y-75651197D01*
X80254439Y-75738747D01*
X80143008Y-75850178D01*
X80055458Y-75981206D01*
X79995152Y-76126797D01*
X79969539Y-76255562D01*
X79897908Y-76225891D01*
X79743350Y-76195148D01*
X79585764Y-76195148D01*
X79431206Y-76225891D01*
X79285615Y-76286197D01*
X79154587Y-76373747D01*
X79043156Y-76485178D01*
X78955606Y-76616206D01*
X78895300Y-76761797D01*
X78869687Y-76890562D01*
X78798056Y-76860891D01*
X78643498Y-76830148D01*
X78485912Y-76830148D01*
X78331354Y-76860891D01*
X78185763Y-76921197D01*
X78151785Y-76943900D01*
X79787514Y-75308172D01*
X79802771Y-75295651D01*
X79852757Y-75234743D01*
X79889900Y-75165254D01*
X79912772Y-75089854D01*
X79918560Y-75031087D01*
X79918560Y-75031077D01*
X79920494Y-75011441D01*
X79918560Y-74991805D01*
X79918560Y-74933693D01*
X79926620Y-74932899D01*
X79983170Y-74915744D01*
X80035287Y-74887887D01*
X80080968Y-74850398D01*
X80118457Y-74804717D01*
X80146314Y-74752600D01*
X80163469Y-74696050D01*
X80169261Y-74637240D01*
X80169261Y-73138640D01*
X80163469Y-73079830D01*
X80146314Y-73023280D01*
X80118457Y-72971163D01*
X80080968Y-72925482D01*
X80035287Y-72887993D01*
X79983170Y-72860136D01*
X79926620Y-72842981D01*
X79867810Y-72837189D01*
X79169310Y-72837189D01*
X79110500Y-72842981D01*
X79053950Y-72860136D01*
X79001833Y-72887993D01*
X78968650Y-72915225D01*
X78935467Y-72887993D01*
X78883350Y-72860136D01*
X78826800Y-72842981D01*
X78767990Y-72837189D01*
X78505944Y-72837189D01*
X78582478Y-72786050D01*
X78666050Y-72702478D01*
X78731713Y-72604207D01*
X78776942Y-72495014D01*
X78800000Y-72379095D01*
X78800000Y-72260905D01*
X78776942Y-72144986D01*
X78731713Y-72035793D01*
X78666050Y-71937522D01*
X78600000Y-71871472D01*
X78600000Y-71339335D01*
X78601934Y-71319699D01*
X78600000Y-71300063D01*
X78600000Y-71300053D01*
X78594212Y-71241286D01*
X78589289Y-71225055D01*
X78659393Y-71239000D01*
X78777527Y-71239000D01*
X78893392Y-71215953D01*
X79002534Y-71170745D01*
X79100759Y-71105113D01*
X79184293Y-71021579D01*
X79186858Y-71017740D01*
X79669228Y-71017740D01*
X79675020Y-71076550D01*
X79692175Y-71133101D01*
X79720032Y-71185218D01*
X79757521Y-71230899D01*
X79803202Y-71268388D01*
X79855319Y-71296245D01*
X79911870Y-71313400D01*
X79970680Y-71319192D01*
X80619980Y-71317740D01*
X80694980Y-71242740D01*
X80694980Y-70293440D01*
X79745680Y-70293440D01*
X79670680Y-70368440D01*
X79669228Y-71017740D01*
X79186858Y-71017740D01*
X79249925Y-70923354D01*
X79295133Y-70814212D01*
X79318180Y-70698347D01*
X79318180Y-70580213D01*
X79295133Y-70464348D01*
X79249925Y-70355206D01*
X79184293Y-70256981D01*
X79100759Y-70173447D01*
X79002534Y-70107815D01*
X78893392Y-70062607D01*
X78885630Y-70061063D01*
X78890000Y-70039095D01*
X78890000Y-69920905D01*
X78866942Y-69804986D01*
X78835511Y-69729103D01*
X78837342Y-69728919D01*
X78950313Y-69694375D01*
X79052142Y-69639946D01*
X79073448Y-69528483D01*
X79064105Y-69519140D01*
X79669228Y-69519140D01*
X79670680Y-70168440D01*
X79745680Y-70243440D01*
X80694980Y-70243440D01*
X80694980Y-69294140D01*
X80619980Y-69219140D01*
X79970680Y-69217688D01*
X79911870Y-69223480D01*
X79855319Y-69240635D01*
X79803202Y-69268492D01*
X79757521Y-69305981D01*
X79720032Y-69351662D01*
X79692175Y-69403779D01*
X79675020Y-69460330D01*
X79669228Y-69519140D01*
X79064105Y-69519140D01*
X78718460Y-69173495D01*
X78704318Y-69187638D01*
X78668963Y-69152283D01*
X78683105Y-69138140D01*
X78753815Y-69138140D01*
X79108803Y-69493128D01*
X79220266Y-69471822D01*
X79275722Y-69367513D01*
X79309763Y-69254389D01*
X79321080Y-69136798D01*
X79309239Y-69019258D01*
X79274695Y-68906287D01*
X79220266Y-68804458D01*
X79108803Y-68783152D01*
X78753815Y-69138140D01*
X78683105Y-69138140D01*
X78668963Y-69123998D01*
X78704318Y-69088643D01*
X78718460Y-69102785D01*
X79053945Y-68767300D01*
X79669228Y-68767300D01*
X79675020Y-68826110D01*
X79692175Y-68882661D01*
X79720032Y-68934778D01*
X79757521Y-68980459D01*
X79803202Y-69017948D01*
X79855319Y-69045805D01*
X79911870Y-69062960D01*
X79970680Y-69068752D01*
X80619980Y-69067300D01*
X80694980Y-68992300D01*
X80694980Y-68043000D01*
X79745680Y-68043000D01*
X79670680Y-68118000D01*
X79669228Y-68767300D01*
X79053945Y-68767300D01*
X79073448Y-68747797D01*
X79052142Y-68636334D01*
X78947833Y-68580878D01*
X78834709Y-68546837D01*
X78717118Y-68535520D01*
X78681087Y-68539150D01*
X78686942Y-68525014D01*
X78710000Y-68409095D01*
X78710000Y-68290905D01*
X78699923Y-68240247D01*
X78719802Y-68242160D01*
X78837342Y-68230319D01*
X78950313Y-68195775D01*
X79052142Y-68141346D01*
X79073448Y-68029883D01*
X78718460Y-67674895D01*
X78704318Y-67689038D01*
X78668963Y-67653683D01*
X78683105Y-67639540D01*
X78753815Y-67639540D01*
X79108803Y-67994528D01*
X79220266Y-67973222D01*
X79275722Y-67868913D01*
X79309763Y-67755789D01*
X79321080Y-67638198D01*
X79309239Y-67520658D01*
X79274695Y-67407687D01*
X79220266Y-67305858D01*
X79108803Y-67284552D01*
X78753815Y-67639540D01*
X78683105Y-67639540D01*
X78668963Y-67625398D01*
X78704318Y-67590043D01*
X78718460Y-67604185D01*
X79053945Y-67268700D01*
X79669228Y-67268700D01*
X79670680Y-67918000D01*
X79745680Y-67993000D01*
X80694980Y-67993000D01*
X80694980Y-67043700D01*
X80619980Y-66968700D01*
X79970680Y-66967248D01*
X79911870Y-66973040D01*
X79855319Y-66990195D01*
X79803202Y-67018052D01*
X79757521Y-67055541D01*
X79720032Y-67101222D01*
X79692175Y-67153339D01*
X79675020Y-67209890D01*
X79669228Y-67268700D01*
X79053945Y-67268700D01*
X79073448Y-67249197D01*
X79052142Y-67137734D01*
X78947833Y-67082278D01*
X78834709Y-67048237D01*
X78722373Y-67037426D01*
X78729998Y-66999095D01*
X78729998Y-66880905D01*
X78706940Y-66764986D01*
X78696067Y-66738736D01*
X78719802Y-66741020D01*
X78837342Y-66729179D01*
X78950313Y-66694635D01*
X79052142Y-66640206D01*
X79073448Y-66528743D01*
X79061565Y-66516860D01*
X79669228Y-66516860D01*
X79675020Y-66575670D01*
X79692175Y-66632221D01*
X79720032Y-66684338D01*
X79757521Y-66730019D01*
X79803202Y-66767508D01*
X79855319Y-66795365D01*
X79911870Y-66812520D01*
X79970680Y-66818312D01*
X80619980Y-66816860D01*
X80694980Y-66741860D01*
X80694980Y-65792560D01*
X79745680Y-65792560D01*
X79670680Y-65867560D01*
X79669228Y-66516860D01*
X79061565Y-66516860D01*
X78718460Y-66173755D01*
X78704318Y-66187898D01*
X78668963Y-66152543D01*
X78683105Y-66138400D01*
X78753815Y-66138400D01*
X79108803Y-66493388D01*
X79220266Y-66472082D01*
X79275722Y-66367773D01*
X79309763Y-66254649D01*
X79321080Y-66137058D01*
X79309239Y-66019518D01*
X79274695Y-65906547D01*
X79220266Y-65804718D01*
X79108803Y-65783412D01*
X78753815Y-66138400D01*
X78683105Y-66138400D01*
X78328117Y-65783412D01*
X78216654Y-65804718D01*
X78161198Y-65909027D01*
X78127157Y-66022151D01*
X78119300Y-66103790D01*
X78119300Y-66079333D01*
X78096253Y-65963468D01*
X78051045Y-65854326D01*
X77985413Y-65756101D01*
X77977369Y-65748057D01*
X78363472Y-65748057D01*
X78718460Y-66103045D01*
X79073448Y-65748057D01*
X79052142Y-65636594D01*
X78947833Y-65581138D01*
X78834709Y-65547097D01*
X78717118Y-65535780D01*
X78599578Y-65547621D01*
X78486607Y-65582165D01*
X78384778Y-65636594D01*
X78363472Y-65748057D01*
X77977369Y-65748057D01*
X77901879Y-65672567D01*
X77803654Y-65606935D01*
X77694512Y-65561727D01*
X77578647Y-65538680D01*
X77460513Y-65538680D01*
X77344648Y-65561727D01*
X77235506Y-65606935D01*
X77137281Y-65672567D01*
X77124502Y-65685346D01*
X77130000Y-65629520D01*
X77131935Y-65609873D01*
X77130000Y-65590226D01*
X77130000Y-65395684D01*
X77139402Y-65386282D01*
X77143303Y-65384197D01*
X77204211Y-65334211D01*
X77254197Y-65273303D01*
X77291340Y-65203814D01*
X77293879Y-65195444D01*
X77344648Y-65216473D01*
X77460513Y-65239520D01*
X77578647Y-65239520D01*
X77694512Y-65216473D01*
X77803654Y-65171265D01*
X77901879Y-65105633D01*
X77977369Y-65030143D01*
X78363472Y-65030143D01*
X78384778Y-65141606D01*
X78489087Y-65197062D01*
X78602211Y-65231103D01*
X78719802Y-65242420D01*
X78837342Y-65230579D01*
X78950313Y-65196035D01*
X79052142Y-65141606D01*
X79073448Y-65030143D01*
X79061565Y-65018260D01*
X79669228Y-65018260D01*
X79670680Y-65667560D01*
X79745680Y-65742560D01*
X80694980Y-65742560D01*
X80694980Y-64793260D01*
X80619980Y-64718260D01*
X79970680Y-64716808D01*
X79911870Y-64722600D01*
X79855319Y-64739755D01*
X79803202Y-64767612D01*
X79757521Y-64805101D01*
X79720032Y-64850782D01*
X79692175Y-64902899D01*
X79675020Y-64959450D01*
X79669228Y-65018260D01*
X79061565Y-65018260D01*
X78718460Y-64675155D01*
X78363472Y-65030143D01*
X77977369Y-65030143D01*
X77985413Y-65022099D01*
X78051045Y-64923874D01*
X78096253Y-64814732D01*
X78119300Y-64698867D01*
X78119300Y-64675488D01*
X78127681Y-64758682D01*
X78162225Y-64871653D01*
X78216654Y-64973482D01*
X78328117Y-64994788D01*
X78683105Y-64639800D01*
X78753815Y-64639800D01*
X79108803Y-64994788D01*
X79220266Y-64973482D01*
X79275722Y-64869173D01*
X79309763Y-64756049D01*
X79321080Y-64638458D01*
X79309239Y-64520918D01*
X79274695Y-64407947D01*
X79220266Y-64306118D01*
X79108803Y-64284812D01*
X78753815Y-64639800D01*
X78683105Y-64639800D01*
X78328117Y-64284812D01*
X78216654Y-64306118D01*
X78161198Y-64410427D01*
X78127157Y-64523551D01*
X78119300Y-64605190D01*
X78119300Y-64580733D01*
X78096253Y-64464868D01*
X78051045Y-64355726D01*
X77985413Y-64257501D01*
X77977369Y-64249457D01*
X78363472Y-64249457D01*
X78718460Y-64604445D01*
X79053945Y-64268960D01*
X79669228Y-64268960D01*
X79675020Y-64327770D01*
X79692175Y-64384321D01*
X79720032Y-64436438D01*
X79757521Y-64482119D01*
X79803202Y-64519608D01*
X79855319Y-64547465D01*
X79911870Y-64564620D01*
X79970680Y-64570412D01*
X80619980Y-64568960D01*
X80694980Y-64493960D01*
X80694980Y-63544660D01*
X79745680Y-63544660D01*
X79670680Y-63619660D01*
X79669228Y-64268960D01*
X79053945Y-64268960D01*
X79073448Y-64249457D01*
X79052142Y-64137994D01*
X78947833Y-64082538D01*
X78834709Y-64048497D01*
X78717118Y-64037180D01*
X78599578Y-64049021D01*
X78486607Y-64083565D01*
X78384778Y-64137994D01*
X78363472Y-64249457D01*
X77977369Y-64249457D01*
X77901879Y-64173967D01*
X77803654Y-64108335D01*
X77694512Y-64063127D01*
X77578647Y-64040080D01*
X77460513Y-64040080D01*
X77344648Y-64063127D01*
X77320000Y-64073337D01*
X77320000Y-63705123D01*
X77344648Y-63715333D01*
X77460513Y-63738380D01*
X77578647Y-63738380D01*
X77694512Y-63715333D01*
X77803654Y-63670125D01*
X77901879Y-63604493D01*
X77985413Y-63520959D01*
X78051045Y-63422734D01*
X78096253Y-63313592D01*
X78119020Y-63199135D01*
X78141787Y-63313592D01*
X78186995Y-63422734D01*
X78252627Y-63520959D01*
X78336161Y-63604493D01*
X78434386Y-63670125D01*
X78543528Y-63715333D01*
X78659393Y-63738380D01*
X78777527Y-63738380D01*
X78893392Y-63715333D01*
X79002534Y-63670125D01*
X79100759Y-63604493D01*
X79184293Y-63520959D01*
X79249925Y-63422734D01*
X79295133Y-63313592D01*
X79318180Y-63197727D01*
X79318180Y-63079593D01*
X79295133Y-62963728D01*
X79249925Y-62854586D01*
X79193647Y-62770360D01*
X79669228Y-62770360D01*
X79670680Y-63419660D01*
X79745680Y-63494660D01*
X80694980Y-63494660D01*
X80694980Y-62545360D01*
X80619980Y-62470360D01*
X79970680Y-62468908D01*
X79911870Y-62474700D01*
X79855319Y-62491855D01*
X79803202Y-62519712D01*
X79757521Y-62557201D01*
X79720032Y-62602882D01*
X79692175Y-62654999D01*
X79675020Y-62711550D01*
X79669228Y-62770360D01*
X79193647Y-62770360D01*
X79184293Y-62756361D01*
X79100759Y-62672827D01*
X79002534Y-62607195D01*
X78893392Y-62561987D01*
X78777527Y-62538940D01*
X78659393Y-62538940D01*
X78543528Y-62561987D01*
X78434386Y-62607195D01*
X78365758Y-62653051D01*
X78391713Y-62614207D01*
X78436942Y-62505014D01*
X78460000Y-62389095D01*
X78460000Y-62270905D01*
X78436942Y-62154986D01*
X78391713Y-62045793D01*
X78326050Y-61947522D01*
X78242478Y-61863950D01*
X78144207Y-61798287D01*
X78035014Y-61753058D01*
X77919095Y-61730000D01*
X77800905Y-61730000D01*
X77684986Y-61753058D01*
X77575793Y-61798287D01*
X77477522Y-61863950D01*
X77393950Y-61947522D01*
X77328287Y-62045793D01*
X77283058Y-62154986D01*
X77260000Y-62270905D01*
X77260000Y-62389095D01*
X77275352Y-62466275D01*
X77254197Y-62426697D01*
X77229849Y-62397029D01*
X77204211Y-62365789D01*
X77188949Y-62353264D01*
X76366737Y-61531052D01*
X76354211Y-61515789D01*
X76293303Y-61465803D01*
X76223814Y-61428660D01*
X76148414Y-61405788D01*
X76089647Y-61400000D01*
X76089646Y-61400000D01*
X76070000Y-61398065D01*
X76050354Y-61400000D01*
X71695686Y-61400000D01*
X71470000Y-61174315D01*
X71470000Y-60940695D01*
X71470570Y-60940751D01*
X72169070Y-60940751D01*
X72227880Y-60934959D01*
X72284430Y-60917804D01*
X72336547Y-60889947D01*
X72369730Y-60862715D01*
X72402913Y-60889947D01*
X72455030Y-60917804D01*
X72511580Y-60934959D01*
X72570390Y-60940751D01*
X73268890Y-60940751D01*
X73327700Y-60934959D01*
X73384250Y-60917804D01*
X73436367Y-60889947D01*
X73469550Y-60862715D01*
X73502733Y-60889947D01*
X73554850Y-60917804D01*
X73611400Y-60934959D01*
X73670210Y-60940751D01*
X74368710Y-60940751D01*
X74427520Y-60934959D01*
X74484070Y-60917804D01*
X74536187Y-60889947D01*
X74569370Y-60862715D01*
X74602553Y-60889947D01*
X74654670Y-60917804D01*
X74711220Y-60934959D01*
X74770030Y-60940751D01*
X75468530Y-60940751D01*
X75527340Y-60934959D01*
X75583890Y-60917804D01*
X75636007Y-60889947D01*
X75669190Y-60862715D01*
X75702373Y-60889947D01*
X75754490Y-60917804D01*
X75811040Y-60934959D01*
X75869850Y-60940751D01*
X76568350Y-60940751D01*
X76627160Y-60934959D01*
X76683710Y-60917804D01*
X76735827Y-60889947D01*
X76769010Y-60862715D01*
X76802193Y-60889947D01*
X76854310Y-60917804D01*
X76910860Y-60934959D01*
X76969670Y-60940751D01*
X77668170Y-60940751D01*
X77726980Y-60934959D01*
X77783530Y-60917804D01*
X77835647Y-60889947D01*
X77868830Y-60862715D01*
X77902013Y-60889947D01*
X77954130Y-60917804D01*
X78010680Y-60934959D01*
X78069490Y-60940751D01*
X78128429Y-60940751D01*
X78078287Y-61015793D01*
X78033058Y-61124986D01*
X78010000Y-61240905D01*
X78010000Y-61359095D01*
X78033058Y-61475014D01*
X78078287Y-61584207D01*
X78143950Y-61682478D01*
X78227522Y-61766050D01*
X78325793Y-61831713D01*
X78434986Y-61876942D01*
X78550905Y-61900000D01*
X78669095Y-61900000D01*
X78785014Y-61876942D01*
X78894207Y-61831713D01*
X78992478Y-61766050D01*
X79076050Y-61682478D01*
X79141713Y-61584207D01*
X79186942Y-61475014D01*
X79210000Y-61359095D01*
X79210000Y-61240905D01*
X79186942Y-61124986D01*
X79141713Y-61015793D01*
X79081905Y-60926284D01*
X79110500Y-60934959D01*
X79169310Y-60940751D01*
X79867810Y-60940751D01*
X79926620Y-60934959D01*
X79983170Y-60917804D01*
X80035287Y-60889947D01*
X80080968Y-60852458D01*
X80118457Y-60806777D01*
X80146314Y-60754660D01*
X80163469Y-60698110D01*
X80169261Y-60639300D01*
X80169261Y-59298200D01*
X80172478Y-59296050D01*
X80256050Y-59212478D01*
X80321713Y-59114207D01*
X80366942Y-59005014D01*
X80390000Y-58889095D01*
X80390000Y-58770905D01*
X80366942Y-58654986D01*
X80321713Y-58545793D01*
X80256050Y-58447522D01*
X80172478Y-58363950D01*
X80074207Y-58298287D01*
X79965014Y-58253058D01*
X79849095Y-58230000D01*
X79730905Y-58230000D01*
X79614986Y-58253058D01*
X79505793Y-58298287D01*
X79407522Y-58363950D01*
X79323950Y-58447522D01*
X79258287Y-58545793D01*
X79213058Y-58654986D01*
X79190000Y-58770905D01*
X79190000Y-58831862D01*
X79183938Y-58839249D01*
X79169310Y-58839249D01*
X79110500Y-58845041D01*
X79053950Y-58862196D01*
X79001833Y-58890053D01*
X78968650Y-58917285D01*
X78935467Y-58890053D01*
X78883350Y-58862196D01*
X78826800Y-58845041D01*
X78767990Y-58839249D01*
X78747859Y-58839249D01*
X78715475Y-58799790D01*
X78702951Y-58784529D01*
X78687688Y-58772003D01*
X78020000Y-58104315D01*
X78020000Y-58010905D01*
X77996942Y-57894986D01*
X77951713Y-57785793D01*
X77886050Y-57687522D01*
X77802478Y-57603950D01*
X77704207Y-57538287D01*
X77595014Y-57493058D01*
X77479095Y-57470000D01*
X77360905Y-57470000D01*
X77244986Y-57493058D01*
X77135793Y-57538287D01*
X77037522Y-57603950D01*
X76978579Y-57662893D01*
X76265686Y-56950000D01*
X78858548Y-56950000D01*
X78864340Y-57008810D01*
X78881495Y-57065361D01*
X78909352Y-57117478D01*
X78946841Y-57163159D01*
X78992522Y-57200648D01*
X79044639Y-57228505D01*
X79101190Y-57245660D01*
X79160000Y-57251452D01*
X79810000Y-57250000D01*
X79885000Y-57175000D01*
X79885000Y-56225000D01*
X79935000Y-56225000D01*
X79935000Y-57175000D01*
X80010000Y-57250000D01*
X80660000Y-57251452D01*
X80718810Y-57245660D01*
X80775361Y-57228505D01*
X80827478Y-57200648D01*
X80873159Y-57163159D01*
X80910648Y-57117478D01*
X80938505Y-57065361D01*
X80955660Y-57008810D01*
X80961452Y-56950000D01*
X80960000Y-56300000D01*
X80885000Y-56225000D01*
X79935000Y-56225000D01*
X79885000Y-56225000D01*
X78935000Y-56225000D01*
X78860000Y-56300000D01*
X78858548Y-56950000D01*
X76265686Y-56950000D01*
X74765686Y-55450000D01*
X78858548Y-55450000D01*
X78860000Y-56100000D01*
X78935000Y-56175000D01*
X79885000Y-56175000D01*
X79885000Y-55225000D01*
X79935000Y-55225000D01*
X79935000Y-56175000D01*
X80885000Y-56175000D01*
X80960000Y-56100000D01*
X80961452Y-55450000D01*
X80955660Y-55391190D01*
X80938505Y-55334639D01*
X80910648Y-55282522D01*
X80873159Y-55236841D01*
X80827478Y-55199352D01*
X80775361Y-55171495D01*
X80718810Y-55154340D01*
X80660000Y-55148548D01*
X80010000Y-55150000D01*
X79935000Y-55225000D01*
X79885000Y-55225000D01*
X79810000Y-55150000D01*
X79160000Y-55148548D01*
X79101190Y-55154340D01*
X79044639Y-55171495D01*
X78992522Y-55199352D01*
X78946841Y-55236841D01*
X78909352Y-55282522D01*
X78881495Y-55334639D01*
X78864340Y-55391190D01*
X78858548Y-55450000D01*
X74765686Y-55450000D01*
X74086737Y-54771052D01*
X74074211Y-54755789D01*
X74013303Y-54705803D01*
X73943814Y-54668660D01*
X73868414Y-54645788D01*
X73809647Y-54640000D01*
X73809646Y-54640000D01*
X73790000Y-54638065D01*
X73770354Y-54640000D01*
X69529647Y-54640000D01*
X69510000Y-54638065D01*
X69490353Y-54640000D01*
X69445750Y-54644393D01*
X69431586Y-54645788D01*
X69356186Y-54668660D01*
X69286697Y-54705803D01*
X69241049Y-54743265D01*
X69241047Y-54743267D01*
X69225789Y-54755789D01*
X69213267Y-54771047D01*
X68741052Y-55243263D01*
X68725789Y-55255789D01*
X68675803Y-55316698D01*
X68638660Y-55386187D01*
X68634468Y-55400008D01*
X68615788Y-55461587D01*
X68608065Y-55540000D01*
X68610000Y-55559647D01*
X68610001Y-57740344D01*
X68608065Y-57760000D01*
X68615788Y-57838413D01*
X68638661Y-57913814D01*
X68675803Y-57983302D01*
X68713265Y-58028950D01*
X68713268Y-58028953D01*
X68725790Y-58044211D01*
X68741048Y-58056733D01*
X68893259Y-58208943D01*
X68905789Y-58224211D01*
X68966697Y-58274197D01*
X69036186Y-58311340D01*
X69111586Y-58334212D01*
X69170353Y-58340000D01*
X69170363Y-58340000D01*
X69189999Y-58341934D01*
X69209635Y-58340000D01*
X69283291Y-58340000D01*
X69325938Y-58362795D01*
X69396558Y-58384218D01*
X69470000Y-58391451D01*
X69970000Y-58391451D01*
X70043442Y-58384218D01*
X70114062Y-58362795D01*
X70179145Y-58328008D01*
X70236191Y-58281191D01*
X70283008Y-58224145D01*
X70317795Y-58159062D01*
X70339218Y-58088442D01*
X70346451Y-58015000D01*
X70346451Y-57865000D01*
X70339218Y-57791558D01*
X70323256Y-57738941D01*
X70670000Y-58085685D01*
X70670001Y-61320344D01*
X70668065Y-61340000D01*
X70675788Y-61418413D01*
X70698661Y-61493814D01*
X70709181Y-61513495D01*
X69327038Y-60131352D01*
X69366942Y-60035014D01*
X69390000Y-59919095D01*
X69390000Y-59800905D01*
X69366942Y-59684986D01*
X69321713Y-59575793D01*
X69256050Y-59477522D01*
X69172478Y-59393950D01*
X69074207Y-59328287D01*
X68965014Y-59283058D01*
X68849095Y-59260000D01*
X68730905Y-59260000D01*
X68614986Y-59283058D01*
X68505793Y-59328287D01*
X68407522Y-59393950D01*
X68323950Y-59477522D01*
X68258287Y-59575793D01*
X68213058Y-59684986D01*
X68190000Y-59800905D01*
X68190000Y-59919095D01*
X68213058Y-60035014D01*
X68258287Y-60144207D01*
X68323950Y-60242478D01*
X68407522Y-60326050D01*
X68435023Y-60344426D01*
X68441696Y-60356910D01*
X68455803Y-60383302D01*
X68493265Y-60428950D01*
X68493268Y-60428953D01*
X68505790Y-60444211D01*
X68521048Y-60456733D01*
X70493267Y-62428953D01*
X70505789Y-62444211D01*
X70521047Y-62456733D01*
X70521049Y-62456735D01*
X70534495Y-62467769D01*
X70566697Y-62494197D01*
X70636186Y-62531340D01*
X70711586Y-62554212D01*
X70770353Y-62560000D01*
X70770363Y-62560000D01*
X70789999Y-62561934D01*
X70809635Y-62560000D01*
X71352617Y-62560000D01*
X71342628Y-62561987D01*
X71233486Y-62607195D01*
X71135261Y-62672827D01*
X71051727Y-62756361D01*
X70986095Y-62854586D01*
X70940887Y-62963728D01*
X70917840Y-63079593D01*
X70917840Y-63197727D01*
X70931354Y-63265668D01*
X66130000Y-58464315D01*
X66130000Y-58398528D01*
X66196050Y-58332478D01*
X66261713Y-58234207D01*
X66306942Y-58125014D01*
X66313906Y-58090000D01*
X67293548Y-58090000D01*
X67299340Y-58148810D01*
X67316495Y-58205361D01*
X67344352Y-58257478D01*
X67381841Y-58303159D01*
X67427522Y-58340648D01*
X67479639Y-58368505D01*
X67536190Y-58385660D01*
X67595000Y-58391452D01*
X67820000Y-58390000D01*
X67895000Y-58315000D01*
X67895000Y-57965000D01*
X67945000Y-57965000D01*
X67945000Y-58315000D01*
X68020000Y-58390000D01*
X68245000Y-58391452D01*
X68303810Y-58385660D01*
X68360361Y-58368505D01*
X68412478Y-58340648D01*
X68458159Y-58303159D01*
X68495648Y-58257478D01*
X68523505Y-58205361D01*
X68540660Y-58148810D01*
X68546452Y-58090000D01*
X68545000Y-58040000D01*
X68470000Y-57965000D01*
X67945000Y-57965000D01*
X67895000Y-57965000D01*
X67370000Y-57965000D01*
X67295000Y-58040000D01*
X67293548Y-58090000D01*
X66313906Y-58090000D01*
X66330000Y-58009095D01*
X66330000Y-57890905D01*
X66306942Y-57774986D01*
X66261713Y-57665793D01*
X66196050Y-57567522D01*
X66112478Y-57483950D01*
X66014207Y-57418287D01*
X65905014Y-57373058D01*
X65789095Y-57350000D01*
X65670905Y-57350000D01*
X65554986Y-57373058D01*
X65445793Y-57418287D01*
X65347522Y-57483950D01*
X65263950Y-57567522D01*
X65198287Y-57665793D01*
X65153058Y-57774986D01*
X65130000Y-57890905D01*
X65130000Y-58009095D01*
X65153058Y-58125014D01*
X65198287Y-58234207D01*
X65263950Y-58332478D01*
X65330001Y-58398529D01*
X65330001Y-58610344D01*
X65328065Y-58630000D01*
X65335788Y-58708413D01*
X65358661Y-58783814D01*
X65395803Y-58853302D01*
X65433265Y-58898950D01*
X65433268Y-58898953D01*
X65445790Y-58914211D01*
X65461048Y-58926733D01*
X70377021Y-63842707D01*
X70324986Y-63853058D01*
X70215793Y-63898287D01*
X70117522Y-63963950D01*
X70033950Y-64047522D01*
X69968287Y-64145793D01*
X69923058Y-64254986D01*
X69900000Y-64370905D01*
X69900000Y-64489095D01*
X69909879Y-64538759D01*
X69894207Y-64528287D01*
X69785014Y-64483058D01*
X69669095Y-64460000D01*
X69550905Y-64460000D01*
X69434986Y-64483058D01*
X69325793Y-64528287D01*
X69227522Y-64593950D01*
X69215757Y-64605715D01*
X68994439Y-63766871D01*
X68199152Y-62138454D01*
X67823637Y-61576456D01*
X66831480Y-60523875D01*
X60365355Y-66990000D01*
X60379498Y-67004143D01*
X60344143Y-67039498D01*
X60330000Y-67025355D01*
X53863875Y-73491480D01*
X54916456Y-74483637D01*
X56260733Y-75266655D01*
X56211435Y-75340434D01*
X56166206Y-75449627D01*
X56143148Y-75565546D01*
X56143148Y-75683736D01*
X56166206Y-75799655D01*
X56211435Y-75908848D01*
X56277098Y-76007119D01*
X56360670Y-76090691D01*
X56458941Y-76156354D01*
X56568134Y-76201583D01*
X56684053Y-76224641D01*
X56802243Y-76224641D01*
X56918162Y-76201583D01*
X57027355Y-76156354D01*
X57125626Y-76090691D01*
X57209198Y-76007119D01*
X57274861Y-75908848D01*
X57320090Y-75799655D01*
X57341674Y-75691145D01*
X57843444Y-75863624D01*
X57803720Y-75959526D01*
X57780662Y-76075445D01*
X57780662Y-76193635D01*
X57803720Y-76309554D01*
X57848949Y-76418747D01*
X57914612Y-76517018D01*
X57998184Y-76600590D01*
X58096455Y-76666253D01*
X58205648Y-76711482D01*
X58321567Y-76734540D01*
X58439757Y-76734540D01*
X58555676Y-76711482D01*
X58664869Y-76666253D01*
X58763140Y-76600590D01*
X58846712Y-76517018D01*
X58912375Y-76418747D01*
X58957604Y-76309554D01*
X58980662Y-76193635D01*
X58980662Y-76091231D01*
X59992045Y-76228336D01*
X61800849Y-76116755D01*
X63553129Y-75654439D01*
X64369298Y-75255838D01*
X64383058Y-75325014D01*
X64428287Y-75434207D01*
X64493950Y-75532478D01*
X64577522Y-75616050D01*
X64675793Y-75681713D01*
X64784986Y-75726942D01*
X64900905Y-75750000D01*
X64972182Y-75750000D01*
X63330903Y-77391280D01*
X63323158Y-77381842D01*
X63277477Y-77344353D01*
X63225360Y-77316496D01*
X63168810Y-77299341D01*
X63110000Y-77293549D01*
X57550000Y-77293549D01*
X57491190Y-77299341D01*
X57434640Y-77316496D01*
X57382523Y-77344353D01*
X57336842Y-77381842D01*
X57299353Y-77427523D01*
X57271496Y-77479640D01*
X57254341Y-77536190D01*
X57248549Y-77595000D01*
X57248549Y-79941538D01*
X57217707Y-79922749D01*
X55977647Y-78986599D01*
X54836697Y-77931915D01*
X53806138Y-76769128D01*
X52896163Y-75509736D01*
X52115765Y-74166180D01*
X51472674Y-72751776D01*
X50973238Y-71280484D01*
X50716052Y-70170905D01*
X50900000Y-70170905D01*
X50900000Y-70289095D01*
X50923058Y-70405014D01*
X50968287Y-70514207D01*
X51033950Y-70612478D01*
X51117522Y-70696050D01*
X51215793Y-70761713D01*
X51324986Y-70806942D01*
X51440905Y-70830000D01*
X51559095Y-70830000D01*
X51675014Y-70806942D01*
X51784207Y-70761713D01*
X51882478Y-70696050D01*
X51895198Y-70683330D01*
X52460848Y-71841546D01*
X52836363Y-72403544D01*
X53828520Y-73456125D01*
X60294645Y-66990000D01*
X53828520Y-60523875D01*
X53107180Y-61289145D01*
X53086050Y-61257522D01*
X53002478Y-61173950D01*
X52904207Y-61108287D01*
X52795014Y-61063058D01*
X52679095Y-61040000D01*
X52560905Y-61040000D01*
X52444986Y-61063058D01*
X52335793Y-61108287D01*
X52237522Y-61173950D01*
X52153950Y-61257522D01*
X52088287Y-61355793D01*
X52043058Y-61464986D01*
X52020000Y-61580905D01*
X52020000Y-61699095D01*
X52043058Y-61815014D01*
X52088287Y-61924207D01*
X52153950Y-62022478D01*
X52237522Y-62106050D01*
X52335793Y-62171713D01*
X52444986Y-62216942D01*
X52461390Y-62220205D01*
X51924221Y-63142412D01*
X51335108Y-64856229D01*
X51091664Y-66652045D01*
X51203245Y-68460849D01*
X51511710Y-69630000D01*
X51440905Y-69630000D01*
X51324986Y-69653058D01*
X51215793Y-69698287D01*
X51117522Y-69763950D01*
X51033950Y-69847522D01*
X50968287Y-69945793D01*
X50923058Y-70054986D01*
X50900000Y-70170905D01*
X50716052Y-70170905D01*
X50622401Y-69766868D01*
X50423631Y-68225889D01*
X50378892Y-66672784D01*
X50488629Y-65122918D01*
X50751752Y-63591620D01*
X51165668Y-62094015D01*
X51726278Y-60644926D01*
X51805455Y-60488520D01*
X53863875Y-60488520D01*
X60330000Y-66954645D01*
X66796125Y-60488520D01*
X65743544Y-59496363D01*
X64177588Y-58584221D01*
X62463771Y-57995108D01*
X60667955Y-57751664D01*
X58859151Y-57863245D01*
X57106871Y-58325561D01*
X55478454Y-59120848D01*
X54916456Y-59496363D01*
X53863875Y-60488520D01*
X51805455Y-60488520D01*
X52428036Y-59258688D01*
X53264007Y-57949000D01*
X54225922Y-56728817D01*
X55304266Y-55610206D01*
X56488388Y-54604221D01*
X57248549Y-54078841D01*
X57248549Y-56385000D01*
X57254341Y-56443810D01*
X57271496Y-56500360D01*
X57299353Y-56552477D01*
X57336842Y-56598158D01*
X57382523Y-56635647D01*
X57434640Y-56663504D01*
X57491190Y-56680659D01*
X57550000Y-56686451D01*
X63110000Y-56686451D01*
X63168810Y-56680659D01*
X63225360Y-56663504D01*
X63277477Y-56635647D01*
X63323158Y-56598158D01*
X63360647Y-56552477D01*
X63388504Y-56500360D01*
X63405659Y-56443810D01*
X63411451Y-56385000D01*
X63411451Y-55800905D01*
X65770000Y-55800905D01*
X65770000Y-55919095D01*
X65793058Y-56035014D01*
X65838287Y-56144207D01*
X65903950Y-56242478D01*
X65987522Y-56326050D01*
X66085793Y-56391713D01*
X66194986Y-56436942D01*
X66310905Y-56460000D01*
X66404315Y-56460000D01*
X66853263Y-56908948D01*
X66865789Y-56924211D01*
X66921133Y-56969631D01*
X66926697Y-56974197D01*
X66996186Y-57011340D01*
X67071586Y-57034212D01*
X67150000Y-57041935D01*
X67169647Y-57040000D01*
X67338741Y-57040000D01*
X67322205Y-57070938D01*
X67300782Y-57141558D01*
X67293549Y-57215000D01*
X67293549Y-57365000D01*
X67300782Y-57438442D01*
X67322205Y-57509062D01*
X67356992Y-57574145D01*
X67370523Y-57590632D01*
X67344352Y-57622522D01*
X67316495Y-57674639D01*
X67299340Y-57731190D01*
X67293548Y-57790000D01*
X67295000Y-57840000D01*
X67370000Y-57915000D01*
X67895000Y-57915000D01*
X67895000Y-57895000D01*
X67945000Y-57895000D01*
X67945000Y-57915000D01*
X68470000Y-57915000D01*
X68545000Y-57840000D01*
X68546452Y-57790000D01*
X68540660Y-57731190D01*
X68523505Y-57674639D01*
X68495648Y-57622522D01*
X68469477Y-57590632D01*
X68483008Y-57574145D01*
X68517795Y-57509062D01*
X68539218Y-57438442D01*
X68546451Y-57365000D01*
X68546451Y-57215000D01*
X68539218Y-57141558D01*
X68517795Y-57070938D01*
X68483008Y-57005855D01*
X68449479Y-56965000D01*
X68483008Y-56924145D01*
X68517795Y-56859062D01*
X68539218Y-56788442D01*
X68546451Y-56715000D01*
X68546451Y-56565000D01*
X68539218Y-56491558D01*
X68517795Y-56420938D01*
X68483008Y-56355855D01*
X68436191Y-56298809D01*
X68379145Y-56251992D01*
X68314062Y-56217205D01*
X68243442Y-56195782D01*
X68170000Y-56188549D01*
X67670000Y-56188549D01*
X67596558Y-56195782D01*
X67525938Y-56217205D01*
X67483291Y-56240000D01*
X67315685Y-56240000D01*
X66970000Y-55894315D01*
X66970000Y-55800905D01*
X66946942Y-55684986D01*
X66901713Y-55575793D01*
X66836050Y-55477522D01*
X66752478Y-55393950D01*
X66654207Y-55328287D01*
X66545014Y-55283058D01*
X66429095Y-55260000D01*
X66310905Y-55260000D01*
X66194986Y-55283058D01*
X66085793Y-55328287D01*
X65987522Y-55393950D01*
X65903950Y-55477522D01*
X65838287Y-55575793D01*
X65793058Y-55684986D01*
X65770000Y-55800905D01*
X63411451Y-55800905D01*
X63411451Y-53785000D01*
X63405659Y-53726190D01*
X63388504Y-53669640D01*
X63360647Y-53617523D01*
X63323158Y-53571842D01*
X63277477Y-53534353D01*
X63225360Y-53506496D01*
X63168810Y-53489341D01*
X63110000Y-53483549D01*
X58195493Y-53483549D01*
X59126151Y-52968738D01*
X60553728Y-52355402D01*
X61677499Y-52000000D01*
X63673428Y-52000000D01*
X63675001Y-52015971D01*
X63675000Y-53484039D01*
X63673428Y-53500000D01*
X63679703Y-53563711D01*
X63698287Y-53624974D01*
X63728465Y-53681434D01*
X63746332Y-53703204D01*
X63769079Y-53730921D01*
X63818566Y-53771535D01*
X63875026Y-53801713D01*
X63936289Y-53820297D01*
X64000000Y-53826572D01*
X64015960Y-53825000D01*
X73984040Y-53825000D01*
X74000000Y-53826572D01*
X74063711Y-53820297D01*
X74124974Y-53801713D01*
X74181434Y-53771535D01*
X74230921Y-53730921D01*
X74271535Y-53681434D01*
X74301713Y-53624974D01*
X74320297Y-53563711D01*
X74325000Y-53515961D01*
X74325000Y-53515960D01*
X74326572Y-53500000D01*
X74325000Y-53484039D01*
X74325000Y-52015961D01*
X74326572Y-52000000D01*
X74320297Y-51936289D01*
X74301713Y-51875026D01*
X74271535Y-51818566D01*
X74230921Y-51769079D01*
X74181434Y-51728465D01*
X74124974Y-51698287D01*
X74063711Y-51679703D01*
X74015961Y-51675000D01*
X74015960Y-51675000D01*
X74000000Y-51673428D01*
X73984039Y-51675000D01*
X64015961Y-51675000D01*
X64000000Y-51673428D01*
X63984040Y-51675000D01*
X63984039Y-51675000D01*
X63936289Y-51679703D01*
X63875026Y-51698287D01*
X63818566Y-51728465D01*
X63769079Y-51769079D01*
X63728465Y-51818566D01*
X63698287Y-51875026D01*
X63679703Y-51936289D01*
X63673428Y-52000000D01*
X61677499Y-52000000D01*
X62035147Y-51886891D01*
X63555780Y-51567829D01*
X65104498Y-51400952D01*
X66005417Y-51375000D01*
X71990674Y-51375000D01*
X73551828Y-51452719D01*
G04 #@! TA.AperFunction,Conductor*
D22*
G36*
X73551828Y-51452719D02*
G01*
X75088296Y-51683716D01*
X76594235Y-52066176D01*
X78054753Y-52596318D01*
X79455386Y-53268892D01*
X80782293Y-54077251D01*
X81137544Y-54345439D01*
X81151781Y-62469618D01*
X80819980Y-62470360D01*
X80744980Y-62545360D01*
X80744980Y-63494660D01*
X80764980Y-63494660D01*
X80764980Y-63544660D01*
X80744980Y-63544660D01*
X80744980Y-64493960D01*
X80819980Y-64568960D01*
X81155461Y-64569710D01*
X81155720Y-64717509D01*
X80819980Y-64718260D01*
X80744980Y-64793260D01*
X80744980Y-65742560D01*
X80764980Y-65742560D01*
X80764980Y-65792560D01*
X80744980Y-65792560D01*
X80744980Y-66741860D01*
X80819980Y-66816860D01*
X81159400Y-66817619D01*
X81159663Y-66967940D01*
X80819980Y-66968700D01*
X80744980Y-67043700D01*
X80744980Y-67993000D01*
X80764980Y-67993000D01*
X80764980Y-68043000D01*
X80744980Y-68043000D01*
X80744980Y-68992300D01*
X80819980Y-69067300D01*
X81163343Y-69068068D01*
X81163607Y-69218372D01*
X80819980Y-69219140D01*
X80744980Y-69294140D01*
X80744980Y-70243440D01*
X80764980Y-70243440D01*
X80764980Y-70293440D01*
X80744980Y-70293440D01*
X80744980Y-71242740D01*
X80819980Y-71317740D01*
X81167287Y-71318517D01*
X81174916Y-75672288D01*
X81143351Y-75651197D01*
X80997760Y-75590891D01*
X80843202Y-75560148D01*
X80685616Y-75560148D01*
X80531058Y-75590891D01*
X80385467Y-75651197D01*
X80254439Y-75738747D01*
X80143008Y-75850178D01*
X80055458Y-75981206D01*
X79995152Y-76126797D01*
X79969539Y-76255562D01*
X79897908Y-76225891D01*
X79743350Y-76195148D01*
X79585764Y-76195148D01*
X79431206Y-76225891D01*
X79285615Y-76286197D01*
X79154587Y-76373747D01*
X79043156Y-76485178D01*
X78955606Y-76616206D01*
X78895300Y-76761797D01*
X78869687Y-76890562D01*
X78798056Y-76860891D01*
X78643498Y-76830148D01*
X78485912Y-76830148D01*
X78331354Y-76860891D01*
X78185763Y-76921197D01*
X78151785Y-76943900D01*
X79787514Y-75308172D01*
X79802771Y-75295651D01*
X79852757Y-75234743D01*
X79889900Y-75165254D01*
X79912772Y-75089854D01*
X79918560Y-75031087D01*
X79918560Y-75031077D01*
X79920494Y-75011441D01*
X79918560Y-74991805D01*
X79918560Y-74933693D01*
X79926620Y-74932899D01*
X79983170Y-74915744D01*
X80035287Y-74887887D01*
X80080968Y-74850398D01*
X80118457Y-74804717D01*
X80146314Y-74752600D01*
X80163469Y-74696050D01*
X80169261Y-74637240D01*
X80169261Y-73138640D01*
X80163469Y-73079830D01*
X80146314Y-73023280D01*
X80118457Y-72971163D01*
X80080968Y-72925482D01*
X80035287Y-72887993D01*
X79983170Y-72860136D01*
X79926620Y-72842981D01*
X79867810Y-72837189D01*
X79169310Y-72837189D01*
X79110500Y-72842981D01*
X79053950Y-72860136D01*
X79001833Y-72887993D01*
X78968650Y-72915225D01*
X78935467Y-72887993D01*
X78883350Y-72860136D01*
X78826800Y-72842981D01*
X78767990Y-72837189D01*
X78505944Y-72837189D01*
X78582478Y-72786050D01*
X78666050Y-72702478D01*
X78731713Y-72604207D01*
X78776942Y-72495014D01*
X78800000Y-72379095D01*
X78800000Y-72260905D01*
X78776942Y-72144986D01*
X78731713Y-72035793D01*
X78666050Y-71937522D01*
X78600000Y-71871472D01*
X78600000Y-71339335D01*
X78601934Y-71319699D01*
X78600000Y-71300063D01*
X78600000Y-71300053D01*
X78594212Y-71241286D01*
X78589289Y-71225055D01*
X78659393Y-71239000D01*
X78777527Y-71239000D01*
X78893392Y-71215953D01*
X79002534Y-71170745D01*
X79100759Y-71105113D01*
X79184293Y-71021579D01*
X79186858Y-71017740D01*
X79669228Y-71017740D01*
X79675020Y-71076550D01*
X79692175Y-71133101D01*
X79720032Y-71185218D01*
X79757521Y-71230899D01*
X79803202Y-71268388D01*
X79855319Y-71296245D01*
X79911870Y-71313400D01*
X79970680Y-71319192D01*
X80619980Y-71317740D01*
X80694980Y-71242740D01*
X80694980Y-70293440D01*
X79745680Y-70293440D01*
X79670680Y-70368440D01*
X79669228Y-71017740D01*
X79186858Y-71017740D01*
X79249925Y-70923354D01*
X79295133Y-70814212D01*
X79318180Y-70698347D01*
X79318180Y-70580213D01*
X79295133Y-70464348D01*
X79249925Y-70355206D01*
X79184293Y-70256981D01*
X79100759Y-70173447D01*
X79002534Y-70107815D01*
X78893392Y-70062607D01*
X78885630Y-70061063D01*
X78890000Y-70039095D01*
X78890000Y-69920905D01*
X78866942Y-69804986D01*
X78835511Y-69729103D01*
X78837342Y-69728919D01*
X78950313Y-69694375D01*
X79052142Y-69639946D01*
X79073448Y-69528483D01*
X79064105Y-69519140D01*
X79669228Y-69519140D01*
X79670680Y-70168440D01*
X79745680Y-70243440D01*
X80694980Y-70243440D01*
X80694980Y-69294140D01*
X80619980Y-69219140D01*
X79970680Y-69217688D01*
X79911870Y-69223480D01*
X79855319Y-69240635D01*
X79803202Y-69268492D01*
X79757521Y-69305981D01*
X79720032Y-69351662D01*
X79692175Y-69403779D01*
X79675020Y-69460330D01*
X79669228Y-69519140D01*
X79064105Y-69519140D01*
X78718460Y-69173495D01*
X78704318Y-69187638D01*
X78668963Y-69152283D01*
X78683105Y-69138140D01*
X78753815Y-69138140D01*
X79108803Y-69493128D01*
X79220266Y-69471822D01*
X79275722Y-69367513D01*
X79309763Y-69254389D01*
X79321080Y-69136798D01*
X79309239Y-69019258D01*
X79274695Y-68906287D01*
X79220266Y-68804458D01*
X79108803Y-68783152D01*
X78753815Y-69138140D01*
X78683105Y-69138140D01*
X78668963Y-69123998D01*
X78704318Y-69088643D01*
X78718460Y-69102785D01*
X79053945Y-68767300D01*
X79669228Y-68767300D01*
X79675020Y-68826110D01*
X79692175Y-68882661D01*
X79720032Y-68934778D01*
X79757521Y-68980459D01*
X79803202Y-69017948D01*
X79855319Y-69045805D01*
X79911870Y-69062960D01*
X79970680Y-69068752D01*
X80619980Y-69067300D01*
X80694980Y-68992300D01*
X80694980Y-68043000D01*
X79745680Y-68043000D01*
X79670680Y-68118000D01*
X79669228Y-68767300D01*
X79053945Y-68767300D01*
X79073448Y-68747797D01*
X79052142Y-68636334D01*
X78947833Y-68580878D01*
X78834709Y-68546837D01*
X78717118Y-68535520D01*
X78681087Y-68539150D01*
X78686942Y-68525014D01*
X78710000Y-68409095D01*
X78710000Y-68290905D01*
X78699923Y-68240247D01*
X78719802Y-68242160D01*
X78837342Y-68230319D01*
X78950313Y-68195775D01*
X79052142Y-68141346D01*
X79073448Y-68029883D01*
X78718460Y-67674895D01*
X78704318Y-67689038D01*
X78668963Y-67653683D01*
X78683105Y-67639540D01*
X78753815Y-67639540D01*
X79108803Y-67994528D01*
X79220266Y-67973222D01*
X79275722Y-67868913D01*
X79309763Y-67755789D01*
X79321080Y-67638198D01*
X79309239Y-67520658D01*
X79274695Y-67407687D01*
X79220266Y-67305858D01*
X79108803Y-67284552D01*
X78753815Y-67639540D01*
X78683105Y-67639540D01*
X78668963Y-67625398D01*
X78704318Y-67590043D01*
X78718460Y-67604185D01*
X79053945Y-67268700D01*
X79669228Y-67268700D01*
X79670680Y-67918000D01*
X79745680Y-67993000D01*
X80694980Y-67993000D01*
X80694980Y-67043700D01*
X80619980Y-66968700D01*
X79970680Y-66967248D01*
X79911870Y-66973040D01*
X79855319Y-66990195D01*
X79803202Y-67018052D01*
X79757521Y-67055541D01*
X79720032Y-67101222D01*
X79692175Y-67153339D01*
X79675020Y-67209890D01*
X79669228Y-67268700D01*
X79053945Y-67268700D01*
X79073448Y-67249197D01*
X79052142Y-67137734D01*
X78947833Y-67082278D01*
X78834709Y-67048237D01*
X78722373Y-67037426D01*
X78729998Y-66999095D01*
X78729998Y-66880905D01*
X78706940Y-66764986D01*
X78696067Y-66738736D01*
X78719802Y-66741020D01*
X78837342Y-66729179D01*
X78950313Y-66694635D01*
X79052142Y-66640206D01*
X79073448Y-66528743D01*
X79061565Y-66516860D01*
X79669228Y-66516860D01*
X79675020Y-66575670D01*
X79692175Y-66632221D01*
X79720032Y-66684338D01*
X79757521Y-66730019D01*
X79803202Y-66767508D01*
X79855319Y-66795365D01*
X79911870Y-66812520D01*
X79970680Y-66818312D01*
X80619980Y-66816860D01*
X80694980Y-66741860D01*
X80694980Y-65792560D01*
X79745680Y-65792560D01*
X79670680Y-65867560D01*
X79669228Y-66516860D01*
X79061565Y-66516860D01*
X78718460Y-66173755D01*
X78704318Y-66187898D01*
X78668963Y-66152543D01*
X78683105Y-66138400D01*
X78753815Y-66138400D01*
X79108803Y-66493388D01*
X79220266Y-66472082D01*
X79275722Y-66367773D01*
X79309763Y-66254649D01*
X79321080Y-66137058D01*
X79309239Y-66019518D01*
X79274695Y-65906547D01*
X79220266Y-65804718D01*
X79108803Y-65783412D01*
X78753815Y-66138400D01*
X78683105Y-66138400D01*
X78328117Y-65783412D01*
X78216654Y-65804718D01*
X78161198Y-65909027D01*
X78127157Y-66022151D01*
X78119300Y-66103790D01*
X78119300Y-66079333D01*
X78096253Y-65963468D01*
X78051045Y-65854326D01*
X77985413Y-65756101D01*
X77977369Y-65748057D01*
X78363472Y-65748057D01*
X78718460Y-66103045D01*
X79073448Y-65748057D01*
X79052142Y-65636594D01*
X78947833Y-65581138D01*
X78834709Y-65547097D01*
X78717118Y-65535780D01*
X78599578Y-65547621D01*
X78486607Y-65582165D01*
X78384778Y-65636594D01*
X78363472Y-65748057D01*
X77977369Y-65748057D01*
X77901879Y-65672567D01*
X77803654Y-65606935D01*
X77694512Y-65561727D01*
X77578647Y-65538680D01*
X77460513Y-65538680D01*
X77344648Y-65561727D01*
X77235506Y-65606935D01*
X77137281Y-65672567D01*
X77124502Y-65685346D01*
X77130000Y-65629520D01*
X77131935Y-65609873D01*
X77130000Y-65590226D01*
X77130000Y-65395684D01*
X77139402Y-65386282D01*
X77143303Y-65384197D01*
X77204211Y-65334211D01*
X77254197Y-65273303D01*
X77291340Y-65203814D01*
X77293879Y-65195444D01*
X77344648Y-65216473D01*
X77460513Y-65239520D01*
X77578647Y-65239520D01*
X77694512Y-65216473D01*
X77803654Y-65171265D01*
X77901879Y-65105633D01*
X77977369Y-65030143D01*
X78363472Y-65030143D01*
X78384778Y-65141606D01*
X78489087Y-65197062D01*
X78602211Y-65231103D01*
X78719802Y-65242420D01*
X78837342Y-65230579D01*
X78950313Y-65196035D01*
X79052142Y-65141606D01*
X79073448Y-65030143D01*
X79061565Y-65018260D01*
X79669228Y-65018260D01*
X79670680Y-65667560D01*
X79745680Y-65742560D01*
X80694980Y-65742560D01*
X80694980Y-64793260D01*
X80619980Y-64718260D01*
X79970680Y-64716808D01*
X79911870Y-64722600D01*
X79855319Y-64739755D01*
X79803202Y-64767612D01*
X79757521Y-64805101D01*
X79720032Y-64850782D01*
X79692175Y-64902899D01*
X79675020Y-64959450D01*
X79669228Y-65018260D01*
X79061565Y-65018260D01*
X78718460Y-64675155D01*
X78363472Y-65030143D01*
X77977369Y-65030143D01*
X77985413Y-65022099D01*
X78051045Y-64923874D01*
X78096253Y-64814732D01*
X78119300Y-64698867D01*
X78119300Y-64675488D01*
X78127681Y-64758682D01*
X78162225Y-64871653D01*
X78216654Y-64973482D01*
X78328117Y-64994788D01*
X78683105Y-64639800D01*
X78753815Y-64639800D01*
X79108803Y-64994788D01*
X79220266Y-64973482D01*
X79275722Y-64869173D01*
X79309763Y-64756049D01*
X79321080Y-64638458D01*
X79309239Y-64520918D01*
X79274695Y-64407947D01*
X79220266Y-64306118D01*
X79108803Y-64284812D01*
X78753815Y-64639800D01*
X78683105Y-64639800D01*
X78328117Y-64284812D01*
X78216654Y-64306118D01*
X78161198Y-64410427D01*
X78127157Y-64523551D01*
X78119300Y-64605190D01*
X78119300Y-64580733D01*
X78096253Y-64464868D01*
X78051045Y-64355726D01*
X77985413Y-64257501D01*
X77977369Y-64249457D01*
X78363472Y-64249457D01*
X78718460Y-64604445D01*
X79053945Y-64268960D01*
X79669228Y-64268960D01*
X79675020Y-64327770D01*
X79692175Y-64384321D01*
X79720032Y-64436438D01*
X79757521Y-64482119D01*
X79803202Y-64519608D01*
X79855319Y-64547465D01*
X79911870Y-64564620D01*
X79970680Y-64570412D01*
X80619980Y-64568960D01*
X80694980Y-64493960D01*
X80694980Y-63544660D01*
X79745680Y-63544660D01*
X79670680Y-63619660D01*
X79669228Y-64268960D01*
X79053945Y-64268960D01*
X79073448Y-64249457D01*
X79052142Y-64137994D01*
X78947833Y-64082538D01*
X78834709Y-64048497D01*
X78717118Y-64037180D01*
X78599578Y-64049021D01*
X78486607Y-64083565D01*
X78384778Y-64137994D01*
X78363472Y-64249457D01*
X77977369Y-64249457D01*
X77901879Y-64173967D01*
X77803654Y-64108335D01*
X77694512Y-64063127D01*
X77578647Y-64040080D01*
X77460513Y-64040080D01*
X77344648Y-64063127D01*
X77320000Y-64073337D01*
X77320000Y-63705123D01*
X77344648Y-63715333D01*
X77460513Y-63738380D01*
X77578647Y-63738380D01*
X77694512Y-63715333D01*
X77803654Y-63670125D01*
X77901879Y-63604493D01*
X77985413Y-63520959D01*
X78051045Y-63422734D01*
X78096253Y-63313592D01*
X78119020Y-63199135D01*
X78141787Y-63313592D01*
X78186995Y-63422734D01*
X78252627Y-63520959D01*
X78336161Y-63604493D01*
X78434386Y-63670125D01*
X78543528Y-63715333D01*
X78659393Y-63738380D01*
X78777527Y-63738380D01*
X78893392Y-63715333D01*
X79002534Y-63670125D01*
X79100759Y-63604493D01*
X79184293Y-63520959D01*
X79249925Y-63422734D01*
X79295133Y-63313592D01*
X79318180Y-63197727D01*
X79318180Y-63079593D01*
X79295133Y-62963728D01*
X79249925Y-62854586D01*
X79193647Y-62770360D01*
X79669228Y-62770360D01*
X79670680Y-63419660D01*
X79745680Y-63494660D01*
X80694980Y-63494660D01*
X80694980Y-62545360D01*
X80619980Y-62470360D01*
X79970680Y-62468908D01*
X79911870Y-62474700D01*
X79855319Y-62491855D01*
X79803202Y-62519712D01*
X79757521Y-62557201D01*
X79720032Y-62602882D01*
X79692175Y-62654999D01*
X79675020Y-62711550D01*
X79669228Y-62770360D01*
X79193647Y-62770360D01*
X79184293Y-62756361D01*
X79100759Y-62672827D01*
X79002534Y-62607195D01*
X78893392Y-62561987D01*
X78777527Y-62538940D01*
X78659393Y-62538940D01*
X78543528Y-62561987D01*
X78434386Y-62607195D01*
X78365758Y-62653051D01*
X78391713Y-62614207D01*
X78436942Y-62505014D01*
X78460000Y-62389095D01*
X78460000Y-62270905D01*
X78436942Y-62154986D01*
X78391713Y-62045793D01*
X78326050Y-61947522D01*
X78242478Y-61863950D01*
X78144207Y-61798287D01*
X78035014Y-61753058D01*
X77919095Y-61730000D01*
X77800905Y-61730000D01*
X77684986Y-61753058D01*
X77575793Y-61798287D01*
X77477522Y-61863950D01*
X77393950Y-61947522D01*
X77328287Y-62045793D01*
X77283058Y-62154986D01*
X77260000Y-62270905D01*
X77260000Y-62389095D01*
X77275352Y-62466275D01*
X77254197Y-62426697D01*
X77229849Y-62397029D01*
X77204211Y-62365789D01*
X77188949Y-62353264D01*
X76366737Y-61531052D01*
X76354211Y-61515789D01*
X76293303Y-61465803D01*
X76223814Y-61428660D01*
X76148414Y-61405788D01*
X76089647Y-61400000D01*
X76089646Y-61400000D01*
X76070000Y-61398065D01*
X76050354Y-61400000D01*
X71695686Y-61400000D01*
X71470000Y-61174315D01*
X71470000Y-60940695D01*
X71470570Y-60940751D01*
X72169070Y-60940751D01*
X72227880Y-60934959D01*
X72284430Y-60917804D01*
X72336547Y-60889947D01*
X72369730Y-60862715D01*
X72402913Y-60889947D01*
X72455030Y-60917804D01*
X72511580Y-60934959D01*
X72570390Y-60940751D01*
X73268890Y-60940751D01*
X73327700Y-60934959D01*
X73384250Y-60917804D01*
X73436367Y-60889947D01*
X73469550Y-60862715D01*
X73502733Y-60889947D01*
X73554850Y-60917804D01*
X73611400Y-60934959D01*
X73670210Y-60940751D01*
X74368710Y-60940751D01*
X74427520Y-60934959D01*
X74484070Y-60917804D01*
X74536187Y-60889947D01*
X74569370Y-60862715D01*
X74602553Y-60889947D01*
X74654670Y-60917804D01*
X74711220Y-60934959D01*
X74770030Y-60940751D01*
X75468530Y-60940751D01*
X75527340Y-60934959D01*
X75583890Y-60917804D01*
X75636007Y-60889947D01*
X75669190Y-60862715D01*
X75702373Y-60889947D01*
X75754490Y-60917804D01*
X75811040Y-60934959D01*
X75869850Y-60940751D01*
X76568350Y-60940751D01*
X76627160Y-60934959D01*
X76683710Y-60917804D01*
X76735827Y-60889947D01*
X76769010Y-60862715D01*
X76802193Y-60889947D01*
X76854310Y-60917804D01*
X76910860Y-60934959D01*
X76969670Y-60940751D01*
X77668170Y-60940751D01*
X77726980Y-60934959D01*
X77783530Y-60917804D01*
X77835647Y-60889947D01*
X77868830Y-60862715D01*
X77902013Y-60889947D01*
X77954130Y-60917804D01*
X78010680Y-60934959D01*
X78069490Y-60940751D01*
X78128429Y-60940751D01*
X78078287Y-61015793D01*
X78033058Y-61124986D01*
X78010000Y-61240905D01*
X78010000Y-61359095D01*
X78033058Y-61475014D01*
X78078287Y-61584207D01*
X78143950Y-61682478D01*
X78227522Y-61766050D01*
X78325793Y-61831713D01*
X78434986Y-61876942D01*
X78550905Y-61900000D01*
X78669095Y-61900000D01*
X78785014Y-61876942D01*
X78894207Y-61831713D01*
X78992478Y-61766050D01*
X79076050Y-61682478D01*
X79141713Y-61584207D01*
X79186942Y-61475014D01*
X79210000Y-61359095D01*
X79210000Y-61240905D01*
X79186942Y-61124986D01*
X79141713Y-61015793D01*
X79081905Y-60926284D01*
X79110500Y-60934959D01*
X79169310Y-60940751D01*
X79867810Y-60940751D01*
X79926620Y-60934959D01*
X79983170Y-60917804D01*
X80035287Y-60889947D01*
X80080968Y-60852458D01*
X80118457Y-60806777D01*
X80146314Y-60754660D01*
X80163469Y-60698110D01*
X80169261Y-60639300D01*
X80169261Y-59298200D01*
X80172478Y-59296050D01*
X80256050Y-59212478D01*
X80321713Y-59114207D01*
X80366942Y-59005014D01*
X80390000Y-58889095D01*
X80390000Y-58770905D01*
X80366942Y-58654986D01*
X80321713Y-58545793D01*
X80256050Y-58447522D01*
X80172478Y-58363950D01*
X80074207Y-58298287D01*
X79965014Y-58253058D01*
X79849095Y-58230000D01*
X79730905Y-58230000D01*
X79614986Y-58253058D01*
X79505793Y-58298287D01*
X79407522Y-58363950D01*
X79323950Y-58447522D01*
X79258287Y-58545793D01*
X79213058Y-58654986D01*
X79190000Y-58770905D01*
X79190000Y-58831862D01*
X79183938Y-58839249D01*
X79169310Y-58839249D01*
X79110500Y-58845041D01*
X79053950Y-58862196D01*
X79001833Y-58890053D01*
X78968650Y-58917285D01*
X78935467Y-58890053D01*
X78883350Y-58862196D01*
X78826800Y-58845041D01*
X78767990Y-58839249D01*
X78747859Y-58839249D01*
X78715475Y-58799790D01*
X78702951Y-58784529D01*
X78687688Y-58772003D01*
X78020000Y-58104315D01*
X78020000Y-58010905D01*
X77996942Y-57894986D01*
X77951713Y-57785793D01*
X77886050Y-57687522D01*
X77802478Y-57603950D01*
X77704207Y-57538287D01*
X77595014Y-57493058D01*
X77479095Y-57470000D01*
X77360905Y-57470000D01*
X77244986Y-57493058D01*
X77135793Y-57538287D01*
X77037522Y-57603950D01*
X76978579Y-57662893D01*
X76265686Y-56950000D01*
X78858548Y-56950000D01*
X78864340Y-57008810D01*
X78881495Y-57065361D01*
X78909352Y-57117478D01*
X78946841Y-57163159D01*
X78992522Y-57200648D01*
X79044639Y-57228505D01*
X79101190Y-57245660D01*
X79160000Y-57251452D01*
X79810000Y-57250000D01*
X79885000Y-57175000D01*
X79885000Y-56225000D01*
X79935000Y-56225000D01*
X79935000Y-57175000D01*
X80010000Y-57250000D01*
X80660000Y-57251452D01*
X80718810Y-57245660D01*
X80775361Y-57228505D01*
X80827478Y-57200648D01*
X80873159Y-57163159D01*
X80910648Y-57117478D01*
X80938505Y-57065361D01*
X80955660Y-57008810D01*
X80961452Y-56950000D01*
X80960000Y-56300000D01*
X80885000Y-56225000D01*
X79935000Y-56225000D01*
X79885000Y-56225000D01*
X78935000Y-56225000D01*
X78860000Y-56300000D01*
X78858548Y-56950000D01*
X76265686Y-56950000D01*
X74765686Y-55450000D01*
X78858548Y-55450000D01*
X78860000Y-56100000D01*
X78935000Y-56175000D01*
X79885000Y-56175000D01*
X79885000Y-55225000D01*
X79935000Y-55225000D01*
X79935000Y-56175000D01*
X80885000Y-56175000D01*
X80960000Y-56100000D01*
X80961452Y-55450000D01*
X80955660Y-55391190D01*
X80938505Y-55334639D01*
X80910648Y-55282522D01*
X80873159Y-55236841D01*
X80827478Y-55199352D01*
X80775361Y-55171495D01*
X80718810Y-55154340D01*
X80660000Y-55148548D01*
X80010000Y-55150000D01*
X79935000Y-55225000D01*
X79885000Y-55225000D01*
X79810000Y-55150000D01*
X79160000Y-55148548D01*
X79101190Y-55154340D01*
X79044639Y-55171495D01*
X78992522Y-55199352D01*
X78946841Y-55236841D01*
X78909352Y-55282522D01*
X78881495Y-55334639D01*
X78864340Y-55391190D01*
X78858548Y-55450000D01*
X74765686Y-55450000D01*
X74086737Y-54771052D01*
X74074211Y-54755789D01*
X74013303Y-54705803D01*
X73943814Y-54668660D01*
X73868414Y-54645788D01*
X73809647Y-54640000D01*
X73809646Y-54640000D01*
X73790000Y-54638065D01*
X73770354Y-54640000D01*
X69529647Y-54640000D01*
X69510000Y-54638065D01*
X69490353Y-54640000D01*
X69445750Y-54644393D01*
X69431586Y-54645788D01*
X69356186Y-54668660D01*
X69286697Y-54705803D01*
X69241049Y-54743265D01*
X69241047Y-54743267D01*
X69225789Y-54755789D01*
X69213267Y-54771047D01*
X68741052Y-55243263D01*
X68725789Y-55255789D01*
X68675803Y-55316698D01*
X68638660Y-55386187D01*
X68634468Y-55400008D01*
X68615788Y-55461587D01*
X68608065Y-55540000D01*
X68610000Y-55559647D01*
X68610001Y-57740344D01*
X68608065Y-57760000D01*
X68615788Y-57838413D01*
X68638661Y-57913814D01*
X68675803Y-57983302D01*
X68713265Y-58028950D01*
X68713268Y-58028953D01*
X68725790Y-58044211D01*
X68741048Y-58056733D01*
X68893259Y-58208943D01*
X68905789Y-58224211D01*
X68966697Y-58274197D01*
X69036186Y-58311340D01*
X69111586Y-58334212D01*
X69170353Y-58340000D01*
X69170363Y-58340000D01*
X69189999Y-58341934D01*
X69209635Y-58340000D01*
X69283291Y-58340000D01*
X69325938Y-58362795D01*
X69396558Y-58384218D01*
X69470000Y-58391451D01*
X69970000Y-58391451D01*
X70043442Y-58384218D01*
X70114062Y-58362795D01*
X70179145Y-58328008D01*
X70236191Y-58281191D01*
X70283008Y-58224145D01*
X70317795Y-58159062D01*
X70339218Y-58088442D01*
X70346451Y-58015000D01*
X70346451Y-57865000D01*
X70339218Y-57791558D01*
X70323256Y-57738941D01*
X70670000Y-58085685D01*
X70670001Y-61320344D01*
X70668065Y-61340000D01*
X70675788Y-61418413D01*
X70698661Y-61493814D01*
X70709181Y-61513495D01*
X69327038Y-60131352D01*
X69366942Y-60035014D01*
X69390000Y-59919095D01*
X69390000Y-59800905D01*
X69366942Y-59684986D01*
X69321713Y-59575793D01*
X69256050Y-59477522D01*
X69172478Y-59393950D01*
X69074207Y-59328287D01*
X68965014Y-59283058D01*
X68849095Y-59260000D01*
X68730905Y-59260000D01*
X68614986Y-59283058D01*
X68505793Y-59328287D01*
X68407522Y-59393950D01*
X68323950Y-59477522D01*
X68258287Y-59575793D01*
X68213058Y-59684986D01*
X68190000Y-59800905D01*
X68190000Y-59919095D01*
X68213058Y-60035014D01*
X68258287Y-60144207D01*
X68323950Y-60242478D01*
X68407522Y-60326050D01*
X68435023Y-60344426D01*
X68441696Y-60356910D01*
X68455803Y-60383302D01*
X68493265Y-60428950D01*
X68493268Y-60428953D01*
X68505790Y-60444211D01*
X68521048Y-60456733D01*
X70493267Y-62428953D01*
X70505789Y-62444211D01*
X70521047Y-62456733D01*
X70521049Y-62456735D01*
X70534495Y-62467769D01*
X70566697Y-62494197D01*
X70636186Y-62531340D01*
X70711586Y-62554212D01*
X70770353Y-62560000D01*
X70770363Y-62560000D01*
X70789999Y-62561934D01*
X70809635Y-62560000D01*
X71352617Y-62560000D01*
X71342628Y-62561987D01*
X71233486Y-62607195D01*
X71135261Y-62672827D01*
X71051727Y-62756361D01*
X70986095Y-62854586D01*
X70940887Y-62963728D01*
X70917840Y-63079593D01*
X70917840Y-63197727D01*
X70931354Y-63265668D01*
X66130000Y-58464315D01*
X66130000Y-58398528D01*
X66196050Y-58332478D01*
X66261713Y-58234207D01*
X66306942Y-58125014D01*
X66313906Y-58090000D01*
X67293548Y-58090000D01*
X67299340Y-58148810D01*
X67316495Y-58205361D01*
X67344352Y-58257478D01*
X67381841Y-58303159D01*
X67427522Y-58340648D01*
X67479639Y-58368505D01*
X67536190Y-58385660D01*
X67595000Y-58391452D01*
X67820000Y-58390000D01*
X67895000Y-58315000D01*
X67895000Y-57965000D01*
X67945000Y-57965000D01*
X67945000Y-58315000D01*
X68020000Y-58390000D01*
X68245000Y-58391452D01*
X68303810Y-58385660D01*
X68360361Y-58368505D01*
X68412478Y-58340648D01*
X68458159Y-58303159D01*
X68495648Y-58257478D01*
X68523505Y-58205361D01*
X68540660Y-58148810D01*
X68546452Y-58090000D01*
X68545000Y-58040000D01*
X68470000Y-57965000D01*
X67945000Y-57965000D01*
X67895000Y-57965000D01*
X67370000Y-57965000D01*
X67295000Y-58040000D01*
X67293548Y-58090000D01*
X66313906Y-58090000D01*
X66330000Y-58009095D01*
X66330000Y-57890905D01*
X66306942Y-57774986D01*
X66261713Y-57665793D01*
X66196050Y-57567522D01*
X66112478Y-57483950D01*
X66014207Y-57418287D01*
X65905014Y-57373058D01*
X65789095Y-57350000D01*
X65670905Y-57350000D01*
X65554986Y-57373058D01*
X65445793Y-57418287D01*
X65347522Y-57483950D01*
X65263950Y-57567522D01*
X65198287Y-57665793D01*
X65153058Y-57774986D01*
X65130000Y-57890905D01*
X65130000Y-58009095D01*
X65153058Y-58125014D01*
X65198287Y-58234207D01*
X65263950Y-58332478D01*
X65330001Y-58398529D01*
X65330001Y-58610344D01*
X65328065Y-58630000D01*
X65335788Y-58708413D01*
X65358661Y-58783814D01*
X65395803Y-58853302D01*
X65433265Y-58898950D01*
X65433268Y-58898953D01*
X65445790Y-58914211D01*
X65461048Y-58926733D01*
X70377021Y-63842707D01*
X70324986Y-63853058D01*
X70215793Y-63898287D01*
X70117522Y-63963950D01*
X70033950Y-64047522D01*
X69968287Y-64145793D01*
X69923058Y-64254986D01*
X69900000Y-64370905D01*
X69900000Y-64489095D01*
X69909879Y-64538759D01*
X69894207Y-64528287D01*
X69785014Y-64483058D01*
X69669095Y-64460000D01*
X69550905Y-64460000D01*
X69434986Y-64483058D01*
X69325793Y-64528287D01*
X69227522Y-64593950D01*
X69215757Y-64605715D01*
X68994439Y-63766871D01*
X68199152Y-62138454D01*
X67823637Y-61576456D01*
X66831480Y-60523875D01*
X60365355Y-66990000D01*
X60379498Y-67004143D01*
X60344143Y-67039498D01*
X60330000Y-67025355D01*
X53863875Y-73491480D01*
X54916456Y-74483637D01*
X56260733Y-75266655D01*
X56211435Y-75340434D01*
X56166206Y-75449627D01*
X56143148Y-75565546D01*
X56143148Y-75683736D01*
X56166206Y-75799655D01*
X56211435Y-75908848D01*
X56277098Y-76007119D01*
X56360670Y-76090691D01*
X56458941Y-76156354D01*
X56568134Y-76201583D01*
X56684053Y-76224641D01*
X56802243Y-76224641D01*
X56918162Y-76201583D01*
X57027355Y-76156354D01*
X57125626Y-76090691D01*
X57209198Y-76007119D01*
X57274861Y-75908848D01*
X57320090Y-75799655D01*
X57341674Y-75691145D01*
X57843444Y-75863624D01*
X57803720Y-75959526D01*
X57780662Y-76075445D01*
X57780662Y-76193635D01*
X57803720Y-76309554D01*
X57848949Y-76418747D01*
X57914612Y-76517018D01*
X57998184Y-76600590D01*
X58096455Y-76666253D01*
X58205648Y-76711482D01*
X58321567Y-76734540D01*
X58439757Y-76734540D01*
X58555676Y-76711482D01*
X58664869Y-76666253D01*
X58763140Y-76600590D01*
X58846712Y-76517018D01*
X58912375Y-76418747D01*
X58957604Y-76309554D01*
X58980662Y-76193635D01*
X58980662Y-76091231D01*
X59992045Y-76228336D01*
X61800849Y-76116755D01*
X63553129Y-75654439D01*
X64369298Y-75255838D01*
X64383058Y-75325014D01*
X64428287Y-75434207D01*
X64493950Y-75532478D01*
X64577522Y-75616050D01*
X64675793Y-75681713D01*
X64784986Y-75726942D01*
X64900905Y-75750000D01*
X64972182Y-75750000D01*
X63330903Y-77391280D01*
X63323158Y-77381842D01*
X63277477Y-77344353D01*
X63225360Y-77316496D01*
X63168810Y-77299341D01*
X63110000Y-77293549D01*
X57550000Y-77293549D01*
X57491190Y-77299341D01*
X57434640Y-77316496D01*
X57382523Y-77344353D01*
X57336842Y-77381842D01*
X57299353Y-77427523D01*
X57271496Y-77479640D01*
X57254341Y-77536190D01*
X57248549Y-77595000D01*
X57248549Y-79941538D01*
X57217707Y-79922749D01*
X55977647Y-78986599D01*
X54836697Y-77931915D01*
X53806138Y-76769128D01*
X52896163Y-75509736D01*
X52115765Y-74166180D01*
X51472674Y-72751776D01*
X50973238Y-71280484D01*
X50716052Y-70170905D01*
X50900000Y-70170905D01*
X50900000Y-70289095D01*
X50923058Y-70405014D01*
X50968287Y-70514207D01*
X51033950Y-70612478D01*
X51117522Y-70696050D01*
X51215793Y-70761713D01*
X51324986Y-70806942D01*
X51440905Y-70830000D01*
X51559095Y-70830000D01*
X51675014Y-70806942D01*
X51784207Y-70761713D01*
X51882478Y-70696050D01*
X51895198Y-70683330D01*
X52460848Y-71841546D01*
X52836363Y-72403544D01*
X53828520Y-73456125D01*
X60294645Y-66990000D01*
X53828520Y-60523875D01*
X53107180Y-61289145D01*
X53086050Y-61257522D01*
X53002478Y-61173950D01*
X52904207Y-61108287D01*
X52795014Y-61063058D01*
X52679095Y-61040000D01*
X52560905Y-61040000D01*
X52444986Y-61063058D01*
X52335793Y-61108287D01*
X52237522Y-61173950D01*
X52153950Y-61257522D01*
X52088287Y-61355793D01*
X52043058Y-61464986D01*
X52020000Y-61580905D01*
X52020000Y-61699095D01*
X52043058Y-61815014D01*
X52088287Y-61924207D01*
X52153950Y-62022478D01*
X52237522Y-62106050D01*
X52335793Y-62171713D01*
X52444986Y-62216942D01*
X52461390Y-62220205D01*
X51924221Y-63142412D01*
X51335108Y-64856229D01*
X51091664Y-66652045D01*
X51203245Y-68460849D01*
X51511710Y-69630000D01*
X51440905Y-69630000D01*
X51324986Y-69653058D01*
X51215793Y-69698287D01*
X51117522Y-69763950D01*
X51033950Y-69847522D01*
X50968287Y-69945793D01*
X50923058Y-70054986D01*
X50900000Y-70170905D01*
X50716052Y-70170905D01*
X50622401Y-69766868D01*
X50423631Y-68225889D01*
X50378892Y-66672784D01*
X50488629Y-65122918D01*
X50751752Y-63591620D01*
X51165668Y-62094015D01*
X51726278Y-60644926D01*
X51805455Y-60488520D01*
X53863875Y-60488520D01*
X60330000Y-66954645D01*
X66796125Y-60488520D01*
X65743544Y-59496363D01*
X64177588Y-58584221D01*
X62463771Y-57995108D01*
X60667955Y-57751664D01*
X58859151Y-57863245D01*
X57106871Y-58325561D01*
X55478454Y-59120848D01*
X54916456Y-59496363D01*
X53863875Y-60488520D01*
X51805455Y-60488520D01*
X52428036Y-59258688D01*
X53264007Y-57949000D01*
X54225922Y-56728817D01*
X55304266Y-55610206D01*
X56488388Y-54604221D01*
X57248549Y-54078841D01*
X57248549Y-56385000D01*
X57254341Y-56443810D01*
X57271496Y-56500360D01*
X57299353Y-56552477D01*
X57336842Y-56598158D01*
X57382523Y-56635647D01*
X57434640Y-56663504D01*
X57491190Y-56680659D01*
X57550000Y-56686451D01*
X63110000Y-56686451D01*
X63168810Y-56680659D01*
X63225360Y-56663504D01*
X63277477Y-56635647D01*
X63323158Y-56598158D01*
X63360647Y-56552477D01*
X63388504Y-56500360D01*
X63405659Y-56443810D01*
X63411451Y-56385000D01*
X63411451Y-55800905D01*
X65770000Y-55800905D01*
X65770000Y-55919095D01*
X65793058Y-56035014D01*
X65838287Y-56144207D01*
X65903950Y-56242478D01*
X65987522Y-56326050D01*
X66085793Y-56391713D01*
X66194986Y-56436942D01*
X66310905Y-56460000D01*
X66404315Y-56460000D01*
X66853263Y-56908948D01*
X66865789Y-56924211D01*
X66921133Y-56969631D01*
X66926697Y-56974197D01*
X66996186Y-57011340D01*
X67071586Y-57034212D01*
X67150000Y-57041935D01*
X67169647Y-57040000D01*
X67338741Y-57040000D01*
X67322205Y-57070938D01*
X67300782Y-57141558D01*
X67293549Y-57215000D01*
X67293549Y-57365000D01*
X67300782Y-57438442D01*
X67322205Y-57509062D01*
X67356992Y-57574145D01*
X67370523Y-57590632D01*
X67344352Y-57622522D01*
X67316495Y-57674639D01*
X67299340Y-57731190D01*
X67293548Y-57790000D01*
X67295000Y-57840000D01*
X67370000Y-57915000D01*
X67895000Y-57915000D01*
X67895000Y-57895000D01*
X67945000Y-57895000D01*
X67945000Y-57915000D01*
X68470000Y-57915000D01*
X68545000Y-57840000D01*
X68546452Y-57790000D01*
X68540660Y-57731190D01*
X68523505Y-57674639D01*
X68495648Y-57622522D01*
X68469477Y-57590632D01*
X68483008Y-57574145D01*
X68517795Y-57509062D01*
X68539218Y-57438442D01*
X68546451Y-57365000D01*
X68546451Y-57215000D01*
X68539218Y-57141558D01*
X68517795Y-57070938D01*
X68483008Y-57005855D01*
X68449479Y-56965000D01*
X68483008Y-56924145D01*
X68517795Y-56859062D01*
X68539218Y-56788442D01*
X68546451Y-56715000D01*
X68546451Y-56565000D01*
X68539218Y-56491558D01*
X68517795Y-56420938D01*
X68483008Y-56355855D01*
X68436191Y-56298809D01*
X68379145Y-56251992D01*
X68314062Y-56217205D01*
X68243442Y-56195782D01*
X68170000Y-56188549D01*
X67670000Y-56188549D01*
X67596558Y-56195782D01*
X67525938Y-56217205D01*
X67483291Y-56240000D01*
X67315685Y-56240000D01*
X66970000Y-55894315D01*
X66970000Y-55800905D01*
X66946942Y-55684986D01*
X66901713Y-55575793D01*
X66836050Y-55477522D01*
X66752478Y-55393950D01*
X66654207Y-55328287D01*
X66545014Y-55283058D01*
X66429095Y-55260000D01*
X66310905Y-55260000D01*
X66194986Y-55283058D01*
X66085793Y-55328287D01*
X65987522Y-55393950D01*
X65903950Y-55477522D01*
X65838287Y-55575793D01*
X65793058Y-55684986D01*
X65770000Y-55800905D01*
X63411451Y-55800905D01*
X63411451Y-53785000D01*
X63405659Y-53726190D01*
X63388504Y-53669640D01*
X63360647Y-53617523D01*
X63323158Y-53571842D01*
X63277477Y-53534353D01*
X63225360Y-53506496D01*
X63168810Y-53489341D01*
X63110000Y-53483549D01*
X58195493Y-53483549D01*
X59126151Y-52968738D01*
X60553728Y-52355402D01*
X61677499Y-52000000D01*
X63673428Y-52000000D01*
X63675001Y-52015971D01*
X63675000Y-53484039D01*
X63673428Y-53500000D01*
X63679703Y-53563711D01*
X63698287Y-53624974D01*
X63728465Y-53681434D01*
X63746332Y-53703204D01*
X63769079Y-53730921D01*
X63818566Y-53771535D01*
X63875026Y-53801713D01*
X63936289Y-53820297D01*
X64000000Y-53826572D01*
X64015960Y-53825000D01*
X73984040Y-53825000D01*
X74000000Y-53826572D01*
X74063711Y-53820297D01*
X74124974Y-53801713D01*
X74181434Y-53771535D01*
X74230921Y-53730921D01*
X74271535Y-53681434D01*
X74301713Y-53624974D01*
X74320297Y-53563711D01*
X74325000Y-53515961D01*
X74325000Y-53515960D01*
X74326572Y-53500000D01*
X74325000Y-53484039D01*
X74325000Y-52015961D01*
X74326572Y-52000000D01*
X74320297Y-51936289D01*
X74301713Y-51875026D01*
X74271535Y-51818566D01*
X74230921Y-51769079D01*
X74181434Y-51728465D01*
X74124974Y-51698287D01*
X74063711Y-51679703D01*
X74015961Y-51675000D01*
X74015960Y-51675000D01*
X74000000Y-51673428D01*
X73984039Y-51675000D01*
X64015961Y-51675000D01*
X64000000Y-51673428D01*
X63984040Y-51675000D01*
X63984039Y-51675000D01*
X63936289Y-51679703D01*
X63875026Y-51698287D01*
X63818566Y-51728465D01*
X63769079Y-51769079D01*
X63728465Y-51818566D01*
X63698287Y-51875026D01*
X63679703Y-51936289D01*
X63673428Y-52000000D01*
X61677499Y-52000000D01*
X62035147Y-51886891D01*
X63555780Y-51567829D01*
X65104498Y-51400952D01*
X66005417Y-51375000D01*
X71990674Y-51375000D01*
X73551828Y-51452719D01*
G37*
G04 #@! TD.AperFunction*
D21*
X76942907Y-65963468D02*
X76919860Y-66079333D01*
X76919860Y-66197467D01*
X76942907Y-66313332D01*
X76988115Y-66422474D01*
X77053747Y-66520699D01*
X77137281Y-66604233D01*
X77235506Y-66669865D01*
X77344648Y-66715073D01*
X77460513Y-66738120D01*
X77564184Y-66738120D01*
X77553056Y-66764986D01*
X77529998Y-66880905D01*
X77529998Y-66999095D01*
X77538099Y-67039820D01*
X77460513Y-67039820D01*
X77344648Y-67062867D01*
X77235506Y-67108075D01*
X77137281Y-67173707D01*
X77053747Y-67257241D01*
X76988115Y-67355466D01*
X76942907Y-67464608D01*
X76919860Y-67580473D01*
X76919860Y-67698607D01*
X76942907Y-67814472D01*
X76988115Y-67923614D01*
X77053747Y-68021839D01*
X77137281Y-68105373D01*
X77235506Y-68171005D01*
X77344648Y-68216213D01*
X77460513Y-68239260D01*
X77520273Y-68239260D01*
X77510000Y-68290905D01*
X77510000Y-68409095D01*
X77533058Y-68525014D01*
X77538611Y-68538420D01*
X77460513Y-68538420D01*
X77344648Y-68561467D01*
X77235506Y-68606675D01*
X77137281Y-68672307D01*
X77053747Y-68755841D01*
X76988115Y-68854066D01*
X76942907Y-68963208D01*
X76919860Y-69079073D01*
X76919860Y-69197207D01*
X76942907Y-69313072D01*
X76988115Y-69422214D01*
X77053747Y-69520439D01*
X77137281Y-69603973D01*
X77235506Y-69669605D01*
X77344648Y-69714813D01*
X77460513Y-69737860D01*
X77578647Y-69737860D01*
X77694512Y-69714813D01*
X77765120Y-69685566D01*
X77758287Y-69695793D01*
X77713058Y-69804986D01*
X77690000Y-69920905D01*
X77690000Y-70039095D01*
X77694692Y-70062681D01*
X77694512Y-70062607D01*
X77578647Y-70039560D01*
X77460513Y-70039560D01*
X77344648Y-70062607D01*
X77235506Y-70107815D01*
X77137281Y-70173447D01*
X77053747Y-70256981D01*
X76988115Y-70355206D01*
X76942907Y-70464348D01*
X76919860Y-70580213D01*
X76919860Y-70698347D01*
X76942907Y-70814212D01*
X76988115Y-70923354D01*
X77053747Y-71021579D01*
X77137281Y-71105113D01*
X77235506Y-71170745D01*
X77344648Y-71215953D01*
X77460513Y-71239000D01*
X77553615Y-71239000D01*
X77800000Y-71485386D01*
X77800001Y-71871471D01*
X77733950Y-71937522D01*
X77668287Y-72035793D01*
X77623058Y-72144986D01*
X77600000Y-72260905D01*
X77600000Y-72379095D01*
X77623058Y-72495014D01*
X77668287Y-72604207D01*
X77733950Y-72702478D01*
X77817522Y-72786050D01*
X77915793Y-72851713D01*
X77946270Y-72864337D01*
X77902013Y-72887993D01*
X77868830Y-72915225D01*
X77835647Y-72887993D01*
X77783530Y-72860136D01*
X77726980Y-72842981D01*
X77668170Y-72837189D01*
X76969670Y-72837189D01*
X76910860Y-72842981D01*
X76854310Y-72860136D01*
X76802193Y-72887993D01*
X76769010Y-72915225D01*
X76735827Y-72887993D01*
X76683710Y-72860136D01*
X76627160Y-72842981D01*
X76568350Y-72837189D01*
X75869850Y-72837189D01*
X75811040Y-72842981D01*
X75754490Y-72860136D01*
X75702373Y-72887993D01*
X75669190Y-72915225D01*
X75636007Y-72887993D01*
X75583890Y-72860136D01*
X75527340Y-72842981D01*
X75468530Y-72837189D01*
X74770030Y-72837189D01*
X74711220Y-72842981D01*
X74654670Y-72860136D01*
X74602553Y-72887993D01*
X74569370Y-72915225D01*
X74536187Y-72887993D01*
X74484070Y-72860136D01*
X74427520Y-72842981D01*
X74368710Y-72837189D01*
X73670210Y-72837189D01*
X73611400Y-72842981D01*
X73554850Y-72860136D01*
X73502733Y-72887993D01*
X73469551Y-72915224D01*
X73436368Y-72887992D01*
X73384251Y-72860135D01*
X73327700Y-72842980D01*
X73268890Y-72837188D01*
X73019640Y-72838640D01*
X72944640Y-72913640D01*
X72944640Y-73862940D01*
X72964640Y-73862940D01*
X72964640Y-73912940D01*
X72944640Y-73912940D01*
X72944640Y-74862240D01*
X73019640Y-74937240D01*
X73268890Y-74938692D01*
X73327700Y-74932900D01*
X73384251Y-74915745D01*
X73436368Y-74887888D01*
X73469551Y-74860656D01*
X73502733Y-74887887D01*
X73554850Y-74915744D01*
X73611400Y-74932899D01*
X73618106Y-74933559D01*
X73617525Y-74939460D01*
X73625248Y-75017873D01*
X73648121Y-75093274D01*
X73680000Y-75152916D01*
X73680000Y-75259095D01*
X73703058Y-75375014D01*
X73748287Y-75484207D01*
X73813950Y-75582478D01*
X73897522Y-75666050D01*
X73995793Y-75731713D01*
X74104986Y-75776942D01*
X74220905Y-75800000D01*
X74339095Y-75800000D01*
X74455014Y-75776942D01*
X74564207Y-75731713D01*
X74662478Y-75666050D01*
X74746050Y-75582478D01*
X74811713Y-75484207D01*
X74856942Y-75375014D01*
X74880000Y-75259095D01*
X74880000Y-75140905D01*
X74858839Y-75034524D01*
X75863263Y-76038948D01*
X75875789Y-76054211D01*
X75936697Y-76104197D01*
X76006186Y-76141340D01*
X76081586Y-76164212D01*
X76140353Y-76170000D01*
X76140363Y-76170000D01*
X76159999Y-76171934D01*
X76179635Y-76170000D01*
X76416376Y-76170000D01*
X76493882Y-76247506D01*
X76592153Y-76313169D01*
X76622608Y-76325784D01*
X76601877Y-76334371D01*
X76503606Y-76400034D01*
X76420034Y-76483606D01*
X76354371Y-76581877D01*
X76309142Y-76691070D01*
X76286084Y-76806989D01*
X76286084Y-76925179D01*
X76309142Y-77041098D01*
X76354371Y-77150291D01*
X76420034Y-77248562D01*
X76503606Y-77332134D01*
X76580681Y-77383634D01*
X76096048Y-77868267D01*
X76080790Y-77880789D01*
X76068268Y-77896047D01*
X76068265Y-77896050D01*
X76030803Y-77941698D01*
X75993661Y-78011186D01*
X75970788Y-78086587D01*
X75963065Y-78165000D01*
X75965001Y-78184656D01*
X75965001Y-78205267D01*
X75855030Y-78278747D01*
X75743599Y-78390178D01*
X75656049Y-78521206D01*
X75595743Y-78666797D01*
X75565000Y-78821355D01*
X75565000Y-78978941D01*
X75586110Y-79085069D01*
X74925000Y-78423960D01*
X74925000Y-77420866D01*
X74927055Y-77399999D01*
X74925000Y-77379132D01*
X74925000Y-77379126D01*
X74918850Y-77316686D01*
X74918793Y-77316496D01*
X74905887Y-77273952D01*
X74894548Y-77236573D01*
X74855084Y-77162740D01*
X74801974Y-77098026D01*
X74785762Y-77084721D01*
X72639331Y-74938290D01*
X72819640Y-74937240D01*
X72894640Y-74862240D01*
X72894640Y-73912940D01*
X72874640Y-73912940D01*
X72874640Y-73862940D01*
X72894640Y-73862940D01*
X72894640Y-72913640D01*
X72819640Y-72838640D01*
X72570390Y-72837188D01*
X72511580Y-72842980D01*
X72455029Y-72860135D01*
X72402912Y-72887992D01*
X72369729Y-72915224D01*
X72336547Y-72887993D01*
X72284430Y-72860136D01*
X72227880Y-72842981D01*
X72169070Y-72837189D01*
X71470570Y-72837189D01*
X71411760Y-72842981D01*
X71355210Y-72860136D01*
X71303093Y-72887993D01*
X71257412Y-72925482D01*
X71219923Y-72971163D01*
X71192066Y-73023280D01*
X71174911Y-73079830D01*
X71169119Y-73138640D01*
X71169119Y-74637240D01*
X71174911Y-74696050D01*
X71192066Y-74752600D01*
X71219067Y-74803115D01*
X70652183Y-75370000D01*
X65607007Y-75370000D01*
X65579999Y-75367340D01*
X65552991Y-75370000D01*
X65552982Y-75370000D01*
X65516834Y-75373560D01*
X65536942Y-75325014D01*
X65560000Y-75209095D01*
X65560000Y-75090905D01*
X65536942Y-74974986D01*
X65491713Y-74865793D01*
X65426050Y-74767522D01*
X65383044Y-74724516D01*
X65743544Y-74483637D01*
X66340000Y-73921421D01*
X66340000Y-73969095D01*
X66363058Y-74085014D01*
X66408287Y-74194207D01*
X66473950Y-74292478D01*
X66557522Y-74376050D01*
X66655793Y-74441713D01*
X66764986Y-74486942D01*
X66880905Y-74510000D01*
X66999095Y-74510000D01*
X67115014Y-74486942D01*
X67224207Y-74441713D01*
X67322478Y-74376050D01*
X67406050Y-74292478D01*
X67471713Y-74194207D01*
X67516942Y-74085014D01*
X67540000Y-73969095D01*
X67540000Y-73850905D01*
X67516942Y-73734986D01*
X67471713Y-73625793D01*
X67406050Y-73527522D01*
X67322478Y-73443950D01*
X67224207Y-73378287D01*
X67115014Y-73333058D01*
X66999095Y-73310000D01*
X66969217Y-73310000D01*
X67823637Y-72403544D01*
X68152962Y-71838160D01*
X70916389Y-71838160D01*
X70916389Y-72437600D01*
X70922181Y-72496410D01*
X70939336Y-72552960D01*
X70967193Y-72605077D01*
X71004682Y-72650758D01*
X71050363Y-72688247D01*
X71102480Y-72716104D01*
X71159030Y-72733259D01*
X71217840Y-72739051D01*
X71817280Y-72739051D01*
X71876090Y-72733259D01*
X71932640Y-72716104D01*
X71984757Y-72688247D01*
X72030438Y-72650758D01*
X72067927Y-72605077D01*
X72095784Y-72552960D01*
X72112939Y-72496410D01*
X72118731Y-72437600D01*
X72118731Y-71838160D01*
X72112939Y-71779350D01*
X72095784Y-71722800D01*
X72067927Y-71670683D01*
X72030438Y-71625002D01*
X71984757Y-71587513D01*
X71932640Y-71559656D01*
X71876090Y-71542501D01*
X71817280Y-71536709D01*
X71217840Y-71536709D01*
X71159030Y-71542501D01*
X71102480Y-71559656D01*
X71050363Y-71587513D01*
X71004682Y-71625002D01*
X70967193Y-71670683D01*
X70939336Y-71722800D01*
X70922181Y-71779350D01*
X70916389Y-71838160D01*
X68152962Y-71838160D01*
X68324735Y-71543263D01*
X68407522Y-71626050D01*
X68505793Y-71691713D01*
X68614986Y-71736942D01*
X68730905Y-71760000D01*
X68849095Y-71760000D01*
X68965014Y-71736942D01*
X69074207Y-71691713D01*
X69172478Y-71626050D01*
X69256050Y-71542478D01*
X69321713Y-71444207D01*
X69366942Y-71335014D01*
X69390000Y-71219095D01*
X69390000Y-71125685D01*
X69935472Y-70580213D01*
X70917840Y-70580213D01*
X70917840Y-70698347D01*
X70940887Y-70814212D01*
X70986095Y-70923354D01*
X71051727Y-71021579D01*
X71135261Y-71105113D01*
X71233486Y-71170745D01*
X71342628Y-71215953D01*
X71458493Y-71239000D01*
X71576627Y-71239000D01*
X71692492Y-71215953D01*
X71801634Y-71170745D01*
X71899859Y-71105113D01*
X71983393Y-71021579D01*
X72049025Y-70923354D01*
X72094233Y-70814212D01*
X72117280Y-70698347D01*
X72117280Y-70580213D01*
X72094233Y-70464348D01*
X72049025Y-70355206D01*
X71983393Y-70256981D01*
X71899859Y-70173447D01*
X71801634Y-70107815D01*
X71692492Y-70062607D01*
X71576627Y-70039560D01*
X71458493Y-70039560D01*
X71342628Y-70062607D01*
X71233486Y-70107815D01*
X71135261Y-70173447D01*
X71051727Y-70256981D01*
X70986095Y-70355206D01*
X70940887Y-70464348D01*
X70917840Y-70580213D01*
X69935472Y-70580213D01*
X71029104Y-69486582D01*
X71051727Y-69520439D01*
X71135261Y-69603973D01*
X71233486Y-69669605D01*
X71342628Y-69714813D01*
X71458493Y-69737860D01*
X71576627Y-69737860D01*
X71692492Y-69714813D01*
X71801634Y-69669605D01*
X71899859Y-69603973D01*
X71983393Y-69520439D01*
X72049025Y-69422214D01*
X72094233Y-69313072D01*
X72117280Y-69197207D01*
X72117280Y-69079073D01*
X72094233Y-68963208D01*
X72049025Y-68854066D01*
X71983393Y-68755841D01*
X71899859Y-68672307D01*
X71801634Y-68606675D01*
X71692492Y-68561467D01*
X71576627Y-68538420D01*
X71458493Y-68538420D01*
X71342628Y-68561467D01*
X71233486Y-68606675D01*
X71170000Y-68649095D01*
X71170000Y-68128585D01*
X71233486Y-68171005D01*
X71342628Y-68216213D01*
X71458493Y-68239260D01*
X71576627Y-68239260D01*
X71692492Y-68216213D01*
X71801634Y-68171005D01*
X71899859Y-68105373D01*
X71983393Y-68021839D01*
X72049025Y-67923614D01*
X72094233Y-67814472D01*
X72117280Y-67698607D01*
X72117280Y-67580473D01*
X72094233Y-67464608D01*
X72049025Y-67355466D01*
X72033481Y-67332204D01*
X72378948Y-66986737D01*
X72394211Y-66974211D01*
X72444197Y-66913303D01*
X72481340Y-66843814D01*
X72504212Y-66768414D01*
X72510000Y-66709647D01*
X72510821Y-66701310D01*
X72544048Y-66715073D01*
X72659913Y-66738120D01*
X72738456Y-66738120D01*
X72720000Y-66830905D01*
X72720000Y-66949095D01*
X72738047Y-67039820D01*
X72659913Y-67039820D01*
X72544048Y-67062867D01*
X72434906Y-67108075D01*
X72336681Y-67173707D01*
X72253147Y-67257241D01*
X72187515Y-67355466D01*
X72142307Y-67464608D01*
X72119260Y-67580473D01*
X72119260Y-67698607D01*
X72142307Y-67814472D01*
X72187515Y-67923614D01*
X72253147Y-68021839D01*
X72336681Y-68105373D01*
X72434906Y-68171005D01*
X72544048Y-68216213D01*
X72659913Y-68239260D01*
X72712262Y-68239260D01*
X72700000Y-68300905D01*
X72700000Y-68419095D01*
X72723058Y-68535014D01*
X72724469Y-68538420D01*
X72659913Y-68538420D01*
X72544048Y-68561467D01*
X72434906Y-68606675D01*
X72336681Y-68672307D01*
X72253147Y-68755841D01*
X72187515Y-68854066D01*
X72142307Y-68963208D01*
X72119260Y-69079073D01*
X72119260Y-69197207D01*
X72142307Y-69313072D01*
X72187515Y-69422214D01*
X72253147Y-69520439D01*
X72336681Y-69603973D01*
X72434906Y-69669605D01*
X72544048Y-69714813D01*
X72659913Y-69737860D01*
X72703462Y-69737860D01*
X72671967Y-69813895D01*
X72648909Y-69929814D01*
X72648909Y-70041749D01*
X72544048Y-70062607D01*
X72434906Y-70107815D01*
X72336681Y-70173447D01*
X72253147Y-70256981D01*
X72187515Y-70355206D01*
X72142307Y-70464348D01*
X72119260Y-70580213D01*
X72119260Y-70698347D01*
X72142307Y-70814212D01*
X72187515Y-70923354D01*
X72253147Y-71021579D01*
X72336681Y-71105113D01*
X72434906Y-71170745D01*
X72544048Y-71215953D01*
X72659913Y-71239000D01*
X72778047Y-71239000D01*
X72893912Y-71215953D01*
X73003054Y-71170745D01*
X73101279Y-71105113D01*
X73184813Y-71021579D01*
X73250445Y-70923354D01*
X73295653Y-70814212D01*
X73318420Y-70699755D01*
X73341187Y-70814212D01*
X73386395Y-70923354D01*
X73452027Y-71021579D01*
X73535561Y-71105113D01*
X73633786Y-71170745D01*
X73742928Y-71215953D01*
X73858793Y-71239000D01*
X73976927Y-71239000D01*
X74092792Y-71215953D01*
X74201934Y-71170745D01*
X74300159Y-71105113D01*
X74383693Y-71021579D01*
X74449325Y-70923354D01*
X74494533Y-70814212D01*
X74517580Y-70698347D01*
X74517580Y-70580213D01*
X74494533Y-70464348D01*
X74449325Y-70355206D01*
X74432517Y-70330051D01*
X74461234Y-70321340D01*
X74530723Y-70284197D01*
X74591631Y-70234211D01*
X74604157Y-70218948D01*
X75085245Y-69737860D01*
X75178347Y-69737860D01*
X75294212Y-69714813D01*
X75403354Y-69669605D01*
X75501579Y-69603973D01*
X75585113Y-69520439D01*
X75650745Y-69422214D01*
X75695953Y-69313072D01*
X75718720Y-69198615D01*
X75741487Y-69313072D01*
X75786695Y-69422214D01*
X75812893Y-69461422D01*
X75451052Y-69823263D01*
X75435789Y-69835789D01*
X75385803Y-69896698D01*
X75348660Y-69966187D01*
X75329784Y-70028413D01*
X75325788Y-70041587D01*
X75322561Y-70074350D01*
X75294212Y-70062607D01*
X75178347Y-70039560D01*
X75060213Y-70039560D01*
X74944348Y-70062607D01*
X74835206Y-70107815D01*
X74736981Y-70173447D01*
X74653447Y-70256981D01*
X74587815Y-70355206D01*
X74542607Y-70464348D01*
X74519560Y-70580213D01*
X74519560Y-70698347D01*
X74542607Y-70814212D01*
X74587815Y-70923354D01*
X74653447Y-71021579D01*
X74655015Y-71023147D01*
X74595268Y-71055083D01*
X74553600Y-71089279D01*
X74459477Y-71089279D01*
X74343558Y-71112337D01*
X74234365Y-71157566D01*
X74136094Y-71223229D01*
X74052522Y-71306801D01*
X73986859Y-71405072D01*
X73941630Y-71514265D01*
X73936877Y-71538160D01*
X73858793Y-71538160D01*
X73742928Y-71561207D01*
X73633786Y-71606415D01*
X73535561Y-71672047D01*
X73452027Y-71755581D01*
X73386395Y-71853806D01*
X73341187Y-71962948D01*
X73318420Y-72077405D01*
X73295653Y-71962948D01*
X73250445Y-71853806D01*
X73184813Y-71755581D01*
X73101279Y-71672047D01*
X73003054Y-71606415D01*
X72893912Y-71561207D01*
X72778047Y-71538160D01*
X72659913Y-71538160D01*
X72544048Y-71561207D01*
X72434906Y-71606415D01*
X72336681Y-71672047D01*
X72253147Y-71755581D01*
X72187515Y-71853806D01*
X72142307Y-71962948D01*
X72119260Y-72078813D01*
X72119260Y-72196947D01*
X72142307Y-72312812D01*
X72187515Y-72421954D01*
X72253147Y-72520179D01*
X72336681Y-72603713D01*
X72434906Y-72669345D01*
X72544048Y-72714553D01*
X72659913Y-72737600D01*
X72778047Y-72737600D01*
X72893912Y-72714553D01*
X73003054Y-72669345D01*
X73101279Y-72603713D01*
X73184813Y-72520179D01*
X73250445Y-72421954D01*
X73295653Y-72312812D01*
X73318420Y-72198355D01*
X73341187Y-72312812D01*
X73386395Y-72421954D01*
X73452027Y-72520179D01*
X73535561Y-72603713D01*
X73633786Y-72669345D01*
X73742928Y-72714553D01*
X73858793Y-72737600D01*
X73976927Y-72737600D01*
X74092792Y-72714553D01*
X74201934Y-72669345D01*
X74300159Y-72603713D01*
X74375649Y-72528223D01*
X74764292Y-72528223D01*
X74785598Y-72639686D01*
X74889907Y-72695142D01*
X75003031Y-72729183D01*
X75120622Y-72740500D01*
X75238162Y-72728659D01*
X75351133Y-72694115D01*
X75452962Y-72639686D01*
X75474268Y-72528223D01*
X75119280Y-72173235D01*
X74764292Y-72528223D01*
X74375649Y-72528223D01*
X74383693Y-72520179D01*
X74449325Y-72421954D01*
X74494533Y-72312812D01*
X74499214Y-72289279D01*
X74538444Y-72289279D01*
X74563045Y-72369733D01*
X74617474Y-72471562D01*
X74728937Y-72492868D01*
X75083925Y-72137880D01*
X75069783Y-72123738D01*
X75105138Y-72088383D01*
X75119280Y-72102525D01*
X75133423Y-72088383D01*
X75168778Y-72123738D01*
X75154635Y-72137880D01*
X75509623Y-72492868D01*
X75621086Y-72471562D01*
X75676542Y-72367253D01*
X75710583Y-72254129D01*
X75721900Y-72136538D01*
X75710059Y-72018998D01*
X75675515Y-71906027D01*
X75621086Y-71804198D01*
X75509626Y-71782892D01*
X75562735Y-71729783D01*
X75555344Y-71722392D01*
X75614931Y-71673491D01*
X75627457Y-71658228D01*
X75988953Y-71296733D01*
X76004211Y-71284211D01*
X76038246Y-71242740D01*
X76054197Y-71223303D01*
X76073552Y-71187092D01*
X76143228Y-71215953D01*
X76259093Y-71239000D01*
X76377227Y-71239000D01*
X76493092Y-71215953D01*
X76602234Y-71170745D01*
X76700459Y-71105113D01*
X76783993Y-71021579D01*
X76849625Y-70923354D01*
X76894833Y-70814212D01*
X76917880Y-70698347D01*
X76917880Y-70580213D01*
X76894833Y-70464348D01*
X76849625Y-70355206D01*
X76783993Y-70256981D01*
X76700459Y-70173447D01*
X76602234Y-70107815D01*
X76493092Y-70062607D01*
X76377227Y-70039560D01*
X76366126Y-70039560D01*
X76587113Y-69818573D01*
X76602371Y-69806051D01*
X76618989Y-69785803D01*
X76652357Y-69745143D01*
X76662217Y-69726697D01*
X76689500Y-69675654D01*
X76712372Y-69600254D01*
X76713267Y-69591165D01*
X76783993Y-69520439D01*
X76849625Y-69422214D01*
X76894833Y-69313072D01*
X76917880Y-69197207D01*
X76917880Y-69079073D01*
X76894833Y-68963208D01*
X76849625Y-68854066D01*
X76783993Y-68755841D01*
X76700459Y-68672307D01*
X76602234Y-68606675D01*
X76493092Y-68561467D01*
X76377227Y-68538420D01*
X76259093Y-68538420D01*
X76143228Y-68561467D01*
X76034086Y-68606675D01*
X75935861Y-68672307D01*
X75852327Y-68755841D01*
X75786695Y-68854066D01*
X75741487Y-68963208D01*
X75718720Y-69077665D01*
X75695953Y-68963208D01*
X75650745Y-68854066D01*
X75606987Y-68788578D01*
X75663814Y-68771340D01*
X75733303Y-68734197D01*
X75794211Y-68684211D01*
X75806737Y-68668948D01*
X75988949Y-68486736D01*
X76004211Y-68474211D01*
X76054197Y-68413303D01*
X76074197Y-68375886D01*
X76091340Y-68343815D01*
X76114212Y-68268414D01*
X76120289Y-68206711D01*
X76143228Y-68216213D01*
X76259093Y-68239260D01*
X76377227Y-68239260D01*
X76493092Y-68216213D01*
X76602234Y-68171005D01*
X76700459Y-68105373D01*
X76783993Y-68021839D01*
X76849625Y-67923614D01*
X76894833Y-67814472D01*
X76917880Y-67698607D01*
X76917880Y-67580473D01*
X76894833Y-67464608D01*
X76849625Y-67355466D01*
X76783993Y-67257241D01*
X76700459Y-67173707D01*
X76602234Y-67108075D01*
X76493092Y-67062867D01*
X76377227Y-67039820D01*
X76259093Y-67039820D01*
X76143228Y-67062867D01*
X76120000Y-67072488D01*
X76120000Y-66705452D01*
X76143228Y-66715073D01*
X76259093Y-66738120D01*
X76377227Y-66738120D01*
X76493092Y-66715073D01*
X76602234Y-66669865D01*
X76700459Y-66604233D01*
X76783993Y-66520699D01*
X76849625Y-66422474D01*
X76894833Y-66313332D01*
X76917880Y-66197467D01*
X76917880Y-66079333D01*
X76902673Y-66002885D01*
X76943485Y-65962073D01*
X76942907Y-65963468D01*
G04 #@! TA.AperFunction,Conductor*
D22*
G36*
X76942907Y-65963468D02*
G01*
X76919860Y-66079333D01*
X76919860Y-66197467D01*
X76942907Y-66313332D01*
X76988115Y-66422474D01*
X77053747Y-66520699D01*
X77137281Y-66604233D01*
X77235506Y-66669865D01*
X77344648Y-66715073D01*
X77460513Y-66738120D01*
X77564184Y-66738120D01*
X77553056Y-66764986D01*
X77529998Y-66880905D01*
X77529998Y-66999095D01*
X77538099Y-67039820D01*
X77460513Y-67039820D01*
X77344648Y-67062867D01*
X77235506Y-67108075D01*
X77137281Y-67173707D01*
X77053747Y-67257241D01*
X76988115Y-67355466D01*
X76942907Y-67464608D01*
X76919860Y-67580473D01*
X76919860Y-67698607D01*
X76942907Y-67814472D01*
X76988115Y-67923614D01*
X77053747Y-68021839D01*
X77137281Y-68105373D01*
X77235506Y-68171005D01*
X77344648Y-68216213D01*
X77460513Y-68239260D01*
X77520273Y-68239260D01*
X77510000Y-68290905D01*
X77510000Y-68409095D01*
X77533058Y-68525014D01*
X77538611Y-68538420D01*
X77460513Y-68538420D01*
X77344648Y-68561467D01*
X77235506Y-68606675D01*
X77137281Y-68672307D01*
X77053747Y-68755841D01*
X76988115Y-68854066D01*
X76942907Y-68963208D01*
X76919860Y-69079073D01*
X76919860Y-69197207D01*
X76942907Y-69313072D01*
X76988115Y-69422214D01*
X77053747Y-69520439D01*
X77137281Y-69603973D01*
X77235506Y-69669605D01*
X77344648Y-69714813D01*
X77460513Y-69737860D01*
X77578647Y-69737860D01*
X77694512Y-69714813D01*
X77765120Y-69685566D01*
X77758287Y-69695793D01*
X77713058Y-69804986D01*
X77690000Y-69920905D01*
X77690000Y-70039095D01*
X77694692Y-70062681D01*
X77694512Y-70062607D01*
X77578647Y-70039560D01*
X77460513Y-70039560D01*
X77344648Y-70062607D01*
X77235506Y-70107815D01*
X77137281Y-70173447D01*
X77053747Y-70256981D01*
X76988115Y-70355206D01*
X76942907Y-70464348D01*
X76919860Y-70580213D01*
X76919860Y-70698347D01*
X76942907Y-70814212D01*
X76988115Y-70923354D01*
X77053747Y-71021579D01*
X77137281Y-71105113D01*
X77235506Y-71170745D01*
X77344648Y-71215953D01*
X77460513Y-71239000D01*
X77553615Y-71239000D01*
X77800000Y-71485386D01*
X77800001Y-71871471D01*
X77733950Y-71937522D01*
X77668287Y-72035793D01*
X77623058Y-72144986D01*
X77600000Y-72260905D01*
X77600000Y-72379095D01*
X77623058Y-72495014D01*
X77668287Y-72604207D01*
X77733950Y-72702478D01*
X77817522Y-72786050D01*
X77915793Y-72851713D01*
X77946270Y-72864337D01*
X77902013Y-72887993D01*
X77868830Y-72915225D01*
X77835647Y-72887993D01*
X77783530Y-72860136D01*
X77726980Y-72842981D01*
X77668170Y-72837189D01*
X76969670Y-72837189D01*
X76910860Y-72842981D01*
X76854310Y-72860136D01*
X76802193Y-72887993D01*
X76769010Y-72915225D01*
X76735827Y-72887993D01*
X76683710Y-72860136D01*
X76627160Y-72842981D01*
X76568350Y-72837189D01*
X75869850Y-72837189D01*
X75811040Y-72842981D01*
X75754490Y-72860136D01*
X75702373Y-72887993D01*
X75669190Y-72915225D01*
X75636007Y-72887993D01*
X75583890Y-72860136D01*
X75527340Y-72842981D01*
X75468530Y-72837189D01*
X74770030Y-72837189D01*
X74711220Y-72842981D01*
X74654670Y-72860136D01*
X74602553Y-72887993D01*
X74569370Y-72915225D01*
X74536187Y-72887993D01*
X74484070Y-72860136D01*
X74427520Y-72842981D01*
X74368710Y-72837189D01*
X73670210Y-72837189D01*
X73611400Y-72842981D01*
X73554850Y-72860136D01*
X73502733Y-72887993D01*
X73469551Y-72915224D01*
X73436368Y-72887992D01*
X73384251Y-72860135D01*
X73327700Y-72842980D01*
X73268890Y-72837188D01*
X73019640Y-72838640D01*
X72944640Y-72913640D01*
X72944640Y-73862940D01*
X72964640Y-73862940D01*
X72964640Y-73912940D01*
X72944640Y-73912940D01*
X72944640Y-74862240D01*
X73019640Y-74937240D01*
X73268890Y-74938692D01*
X73327700Y-74932900D01*
X73384251Y-74915745D01*
X73436368Y-74887888D01*
X73469551Y-74860656D01*
X73502733Y-74887887D01*
X73554850Y-74915744D01*
X73611400Y-74932899D01*
X73618106Y-74933559D01*
X73617525Y-74939460D01*
X73625248Y-75017873D01*
X73648121Y-75093274D01*
X73680000Y-75152916D01*
X73680000Y-75259095D01*
X73703058Y-75375014D01*
X73748287Y-75484207D01*
X73813950Y-75582478D01*
X73897522Y-75666050D01*
X73995793Y-75731713D01*
X74104986Y-75776942D01*
X74220905Y-75800000D01*
X74339095Y-75800000D01*
X74455014Y-75776942D01*
X74564207Y-75731713D01*
X74662478Y-75666050D01*
X74746050Y-75582478D01*
X74811713Y-75484207D01*
X74856942Y-75375014D01*
X74880000Y-75259095D01*
X74880000Y-75140905D01*
X74858839Y-75034524D01*
X75863263Y-76038948D01*
X75875789Y-76054211D01*
X75936697Y-76104197D01*
X76006186Y-76141340D01*
X76081586Y-76164212D01*
X76140353Y-76170000D01*
X76140363Y-76170000D01*
X76159999Y-76171934D01*
X76179635Y-76170000D01*
X76416376Y-76170000D01*
X76493882Y-76247506D01*
X76592153Y-76313169D01*
X76622608Y-76325784D01*
X76601877Y-76334371D01*
X76503606Y-76400034D01*
X76420034Y-76483606D01*
X76354371Y-76581877D01*
X76309142Y-76691070D01*
X76286084Y-76806989D01*
X76286084Y-76925179D01*
X76309142Y-77041098D01*
X76354371Y-77150291D01*
X76420034Y-77248562D01*
X76503606Y-77332134D01*
X76580681Y-77383634D01*
X76096048Y-77868267D01*
X76080790Y-77880789D01*
X76068268Y-77896047D01*
X76068265Y-77896050D01*
X76030803Y-77941698D01*
X75993661Y-78011186D01*
X75970788Y-78086587D01*
X75963065Y-78165000D01*
X75965001Y-78184656D01*
X75965001Y-78205267D01*
X75855030Y-78278747D01*
X75743599Y-78390178D01*
X75656049Y-78521206D01*
X75595743Y-78666797D01*
X75565000Y-78821355D01*
X75565000Y-78978941D01*
X75586110Y-79085069D01*
X74925000Y-78423960D01*
X74925000Y-77420866D01*
X74927055Y-77399999D01*
X74925000Y-77379132D01*
X74925000Y-77379126D01*
X74918850Y-77316686D01*
X74918793Y-77316496D01*
X74905887Y-77273952D01*
X74894548Y-77236573D01*
X74855084Y-77162740D01*
X74801974Y-77098026D01*
X74785762Y-77084721D01*
X72639331Y-74938290D01*
X72819640Y-74937240D01*
X72894640Y-74862240D01*
X72894640Y-73912940D01*
X72874640Y-73912940D01*
X72874640Y-73862940D01*
X72894640Y-73862940D01*
X72894640Y-72913640D01*
X72819640Y-72838640D01*
X72570390Y-72837188D01*
X72511580Y-72842980D01*
X72455029Y-72860135D01*
X72402912Y-72887992D01*
X72369729Y-72915224D01*
X72336547Y-72887993D01*
X72284430Y-72860136D01*
X72227880Y-72842981D01*
X72169070Y-72837189D01*
X71470570Y-72837189D01*
X71411760Y-72842981D01*
X71355210Y-72860136D01*
X71303093Y-72887993D01*
X71257412Y-72925482D01*
X71219923Y-72971163D01*
X71192066Y-73023280D01*
X71174911Y-73079830D01*
X71169119Y-73138640D01*
X71169119Y-74637240D01*
X71174911Y-74696050D01*
X71192066Y-74752600D01*
X71219067Y-74803115D01*
X70652183Y-75370000D01*
X65607007Y-75370000D01*
X65579999Y-75367340D01*
X65552991Y-75370000D01*
X65552982Y-75370000D01*
X65516834Y-75373560D01*
X65536942Y-75325014D01*
X65560000Y-75209095D01*
X65560000Y-75090905D01*
X65536942Y-74974986D01*
X65491713Y-74865793D01*
X65426050Y-74767522D01*
X65383044Y-74724516D01*
X65743544Y-74483637D01*
X66340000Y-73921421D01*
X66340000Y-73969095D01*
X66363058Y-74085014D01*
X66408287Y-74194207D01*
X66473950Y-74292478D01*
X66557522Y-74376050D01*
X66655793Y-74441713D01*
X66764986Y-74486942D01*
X66880905Y-74510000D01*
X66999095Y-74510000D01*
X67115014Y-74486942D01*
X67224207Y-74441713D01*
X67322478Y-74376050D01*
X67406050Y-74292478D01*
X67471713Y-74194207D01*
X67516942Y-74085014D01*
X67540000Y-73969095D01*
X67540000Y-73850905D01*
X67516942Y-73734986D01*
X67471713Y-73625793D01*
X67406050Y-73527522D01*
X67322478Y-73443950D01*
X67224207Y-73378287D01*
X67115014Y-73333058D01*
X66999095Y-73310000D01*
X66969217Y-73310000D01*
X67823637Y-72403544D01*
X68152962Y-71838160D01*
X70916389Y-71838160D01*
X70916389Y-72437600D01*
X70922181Y-72496410D01*
X70939336Y-72552960D01*
X70967193Y-72605077D01*
X71004682Y-72650758D01*
X71050363Y-72688247D01*
X71102480Y-72716104D01*
X71159030Y-72733259D01*
X71217840Y-72739051D01*
X71817280Y-72739051D01*
X71876090Y-72733259D01*
X71932640Y-72716104D01*
X71984757Y-72688247D01*
X72030438Y-72650758D01*
X72067927Y-72605077D01*
X72095784Y-72552960D01*
X72112939Y-72496410D01*
X72118731Y-72437600D01*
X72118731Y-71838160D01*
X72112939Y-71779350D01*
X72095784Y-71722800D01*
X72067927Y-71670683D01*
X72030438Y-71625002D01*
X71984757Y-71587513D01*
X71932640Y-71559656D01*
X71876090Y-71542501D01*
X71817280Y-71536709D01*
X71217840Y-71536709D01*
X71159030Y-71542501D01*
X71102480Y-71559656D01*
X71050363Y-71587513D01*
X71004682Y-71625002D01*
X70967193Y-71670683D01*
X70939336Y-71722800D01*
X70922181Y-71779350D01*
X70916389Y-71838160D01*
X68152962Y-71838160D01*
X68324735Y-71543263D01*
X68407522Y-71626050D01*
X68505793Y-71691713D01*
X68614986Y-71736942D01*
X68730905Y-71760000D01*
X68849095Y-71760000D01*
X68965014Y-71736942D01*
X69074207Y-71691713D01*
X69172478Y-71626050D01*
X69256050Y-71542478D01*
X69321713Y-71444207D01*
X69366942Y-71335014D01*
X69390000Y-71219095D01*
X69390000Y-71125685D01*
X69935472Y-70580213D01*
X70917840Y-70580213D01*
X70917840Y-70698347D01*
X70940887Y-70814212D01*
X70986095Y-70923354D01*
X71051727Y-71021579D01*
X71135261Y-71105113D01*
X71233486Y-71170745D01*
X71342628Y-71215953D01*
X71458493Y-71239000D01*
X71576627Y-71239000D01*
X71692492Y-71215953D01*
X71801634Y-71170745D01*
X71899859Y-71105113D01*
X71983393Y-71021579D01*
X72049025Y-70923354D01*
X72094233Y-70814212D01*
X72117280Y-70698347D01*
X72117280Y-70580213D01*
X72094233Y-70464348D01*
X72049025Y-70355206D01*
X71983393Y-70256981D01*
X71899859Y-70173447D01*
X71801634Y-70107815D01*
X71692492Y-70062607D01*
X71576627Y-70039560D01*
X71458493Y-70039560D01*
X71342628Y-70062607D01*
X71233486Y-70107815D01*
X71135261Y-70173447D01*
X71051727Y-70256981D01*
X70986095Y-70355206D01*
X70940887Y-70464348D01*
X70917840Y-70580213D01*
X69935472Y-70580213D01*
X71029104Y-69486582D01*
X71051727Y-69520439D01*
X71135261Y-69603973D01*
X71233486Y-69669605D01*
X71342628Y-69714813D01*
X71458493Y-69737860D01*
X71576627Y-69737860D01*
X71692492Y-69714813D01*
X71801634Y-69669605D01*
X71899859Y-69603973D01*
X71983393Y-69520439D01*
X72049025Y-69422214D01*
X72094233Y-69313072D01*
X72117280Y-69197207D01*
X72117280Y-69079073D01*
X72094233Y-68963208D01*
X72049025Y-68854066D01*
X71983393Y-68755841D01*
X71899859Y-68672307D01*
X71801634Y-68606675D01*
X71692492Y-68561467D01*
X71576627Y-68538420D01*
X71458493Y-68538420D01*
X71342628Y-68561467D01*
X71233486Y-68606675D01*
X71170000Y-68649095D01*
X71170000Y-68128585D01*
X71233486Y-68171005D01*
X71342628Y-68216213D01*
X71458493Y-68239260D01*
X71576627Y-68239260D01*
X71692492Y-68216213D01*
X71801634Y-68171005D01*
X71899859Y-68105373D01*
X71983393Y-68021839D01*
X72049025Y-67923614D01*
X72094233Y-67814472D01*
X72117280Y-67698607D01*
X72117280Y-67580473D01*
X72094233Y-67464608D01*
X72049025Y-67355466D01*
X72033481Y-67332204D01*
X72378948Y-66986737D01*
X72394211Y-66974211D01*
X72444197Y-66913303D01*
X72481340Y-66843814D01*
X72504212Y-66768414D01*
X72510000Y-66709647D01*
X72510821Y-66701310D01*
X72544048Y-66715073D01*
X72659913Y-66738120D01*
X72738456Y-66738120D01*
X72720000Y-66830905D01*
X72720000Y-66949095D01*
X72738047Y-67039820D01*
X72659913Y-67039820D01*
X72544048Y-67062867D01*
X72434906Y-67108075D01*
X72336681Y-67173707D01*
X72253147Y-67257241D01*
X72187515Y-67355466D01*
X72142307Y-67464608D01*
X72119260Y-67580473D01*
X72119260Y-67698607D01*
X72142307Y-67814472D01*
X72187515Y-67923614D01*
X72253147Y-68021839D01*
X72336681Y-68105373D01*
X72434906Y-68171005D01*
X72544048Y-68216213D01*
X72659913Y-68239260D01*
X72712262Y-68239260D01*
X72700000Y-68300905D01*
X72700000Y-68419095D01*
X72723058Y-68535014D01*
X72724469Y-68538420D01*
X72659913Y-68538420D01*
X72544048Y-68561467D01*
X72434906Y-68606675D01*
X72336681Y-68672307D01*
X72253147Y-68755841D01*
X72187515Y-68854066D01*
X72142307Y-68963208D01*
X72119260Y-69079073D01*
X72119260Y-69197207D01*
X72142307Y-69313072D01*
X72187515Y-69422214D01*
X72253147Y-69520439D01*
X72336681Y-69603973D01*
X72434906Y-69669605D01*
X72544048Y-69714813D01*
X72659913Y-69737860D01*
X72703462Y-69737860D01*
X72671967Y-69813895D01*
X72648909Y-69929814D01*
X72648909Y-70041749D01*
X72544048Y-70062607D01*
X72434906Y-70107815D01*
X72336681Y-70173447D01*
X72253147Y-70256981D01*
X72187515Y-70355206D01*
X72142307Y-70464348D01*
X72119260Y-70580213D01*
X72119260Y-70698347D01*
X72142307Y-70814212D01*
X72187515Y-70923354D01*
X72253147Y-71021579D01*
X72336681Y-71105113D01*
X72434906Y-71170745D01*
X72544048Y-71215953D01*
X72659913Y-71239000D01*
X72778047Y-71239000D01*
X72893912Y-71215953D01*
X73003054Y-71170745D01*
X73101279Y-71105113D01*
X73184813Y-71021579D01*
X73250445Y-70923354D01*
X73295653Y-70814212D01*
X73318420Y-70699755D01*
X73341187Y-70814212D01*
X73386395Y-70923354D01*
X73452027Y-71021579D01*
X73535561Y-71105113D01*
X73633786Y-71170745D01*
X73742928Y-71215953D01*
X73858793Y-71239000D01*
X73976927Y-71239000D01*
X74092792Y-71215953D01*
X74201934Y-71170745D01*
X74300159Y-71105113D01*
X74383693Y-71021579D01*
X74449325Y-70923354D01*
X74494533Y-70814212D01*
X74517580Y-70698347D01*
X74517580Y-70580213D01*
X74494533Y-70464348D01*
X74449325Y-70355206D01*
X74432517Y-70330051D01*
X74461234Y-70321340D01*
X74530723Y-70284197D01*
X74591631Y-70234211D01*
X74604157Y-70218948D01*
X75085245Y-69737860D01*
X75178347Y-69737860D01*
X75294212Y-69714813D01*
X75403354Y-69669605D01*
X75501579Y-69603973D01*
X75585113Y-69520439D01*
X75650745Y-69422214D01*
X75695953Y-69313072D01*
X75718720Y-69198615D01*
X75741487Y-69313072D01*
X75786695Y-69422214D01*
X75812893Y-69461422D01*
X75451052Y-69823263D01*
X75435789Y-69835789D01*
X75385803Y-69896698D01*
X75348660Y-69966187D01*
X75329784Y-70028413D01*
X75325788Y-70041587D01*
X75322561Y-70074350D01*
X75294212Y-70062607D01*
X75178347Y-70039560D01*
X75060213Y-70039560D01*
X74944348Y-70062607D01*
X74835206Y-70107815D01*
X74736981Y-70173447D01*
X74653447Y-70256981D01*
X74587815Y-70355206D01*
X74542607Y-70464348D01*
X74519560Y-70580213D01*
X74519560Y-70698347D01*
X74542607Y-70814212D01*
X74587815Y-70923354D01*
X74653447Y-71021579D01*
X74655015Y-71023147D01*
X74595268Y-71055083D01*
X74553600Y-71089279D01*
X74459477Y-71089279D01*
X74343558Y-71112337D01*
X74234365Y-71157566D01*
X74136094Y-71223229D01*
X74052522Y-71306801D01*
X73986859Y-71405072D01*
X73941630Y-71514265D01*
X73936877Y-71538160D01*
X73858793Y-71538160D01*
X73742928Y-71561207D01*
X73633786Y-71606415D01*
X73535561Y-71672047D01*
X73452027Y-71755581D01*
X73386395Y-71853806D01*
X73341187Y-71962948D01*
X73318420Y-72077405D01*
X73295653Y-71962948D01*
X73250445Y-71853806D01*
X73184813Y-71755581D01*
X73101279Y-71672047D01*
X73003054Y-71606415D01*
X72893912Y-71561207D01*
X72778047Y-71538160D01*
X72659913Y-71538160D01*
X72544048Y-71561207D01*
X72434906Y-71606415D01*
X72336681Y-71672047D01*
X72253147Y-71755581D01*
X72187515Y-71853806D01*
X72142307Y-71962948D01*
X72119260Y-72078813D01*
X72119260Y-72196947D01*
X72142307Y-72312812D01*
X72187515Y-72421954D01*
X72253147Y-72520179D01*
X72336681Y-72603713D01*
X72434906Y-72669345D01*
X72544048Y-72714553D01*
X72659913Y-72737600D01*
X72778047Y-72737600D01*
X72893912Y-72714553D01*
X73003054Y-72669345D01*
X73101279Y-72603713D01*
X73184813Y-72520179D01*
X73250445Y-72421954D01*
X73295653Y-72312812D01*
X73318420Y-72198355D01*
X73341187Y-72312812D01*
X73386395Y-72421954D01*
X73452027Y-72520179D01*
X73535561Y-72603713D01*
X73633786Y-72669345D01*
X73742928Y-72714553D01*
X73858793Y-72737600D01*
X73976927Y-72737600D01*
X74092792Y-72714553D01*
X74201934Y-72669345D01*
X74300159Y-72603713D01*
X74375649Y-72528223D01*
X74764292Y-72528223D01*
X74785598Y-72639686D01*
X74889907Y-72695142D01*
X75003031Y-72729183D01*
X75120622Y-72740500D01*
X75238162Y-72728659D01*
X75351133Y-72694115D01*
X75452962Y-72639686D01*
X75474268Y-72528223D01*
X75119280Y-72173235D01*
X74764292Y-72528223D01*
X74375649Y-72528223D01*
X74383693Y-72520179D01*
X74449325Y-72421954D01*
X74494533Y-72312812D01*
X74499214Y-72289279D01*
X74538444Y-72289279D01*
X74563045Y-72369733D01*
X74617474Y-72471562D01*
X74728937Y-72492868D01*
X75083925Y-72137880D01*
X75069783Y-72123738D01*
X75105138Y-72088383D01*
X75119280Y-72102525D01*
X75133423Y-72088383D01*
X75168778Y-72123738D01*
X75154635Y-72137880D01*
X75509623Y-72492868D01*
X75621086Y-72471562D01*
X75676542Y-72367253D01*
X75710583Y-72254129D01*
X75721900Y-72136538D01*
X75710059Y-72018998D01*
X75675515Y-71906027D01*
X75621086Y-71804198D01*
X75509626Y-71782892D01*
X75562735Y-71729783D01*
X75555344Y-71722392D01*
X75614931Y-71673491D01*
X75627457Y-71658228D01*
X75988953Y-71296733D01*
X76004211Y-71284211D01*
X76038246Y-71242740D01*
X76054197Y-71223303D01*
X76073552Y-71187092D01*
X76143228Y-71215953D01*
X76259093Y-71239000D01*
X76377227Y-71239000D01*
X76493092Y-71215953D01*
X76602234Y-71170745D01*
X76700459Y-71105113D01*
X76783993Y-71021579D01*
X76849625Y-70923354D01*
X76894833Y-70814212D01*
X76917880Y-70698347D01*
X76917880Y-70580213D01*
X76894833Y-70464348D01*
X76849625Y-70355206D01*
X76783993Y-70256981D01*
X76700459Y-70173447D01*
X76602234Y-70107815D01*
X76493092Y-70062607D01*
X76377227Y-70039560D01*
X76366126Y-70039560D01*
X76587113Y-69818573D01*
X76602371Y-69806051D01*
X76618989Y-69785803D01*
X76652357Y-69745143D01*
X76662217Y-69726697D01*
X76689500Y-69675654D01*
X76712372Y-69600254D01*
X76713267Y-69591165D01*
X76783993Y-69520439D01*
X76849625Y-69422214D01*
X76894833Y-69313072D01*
X76917880Y-69197207D01*
X76917880Y-69079073D01*
X76894833Y-68963208D01*
X76849625Y-68854066D01*
X76783993Y-68755841D01*
X76700459Y-68672307D01*
X76602234Y-68606675D01*
X76493092Y-68561467D01*
X76377227Y-68538420D01*
X76259093Y-68538420D01*
X76143228Y-68561467D01*
X76034086Y-68606675D01*
X75935861Y-68672307D01*
X75852327Y-68755841D01*
X75786695Y-68854066D01*
X75741487Y-68963208D01*
X75718720Y-69077665D01*
X75695953Y-68963208D01*
X75650745Y-68854066D01*
X75606987Y-68788578D01*
X75663814Y-68771340D01*
X75733303Y-68734197D01*
X75794211Y-68684211D01*
X75806737Y-68668948D01*
X75988949Y-68486736D01*
X76004211Y-68474211D01*
X76054197Y-68413303D01*
X76074197Y-68375886D01*
X76091340Y-68343815D01*
X76114212Y-68268414D01*
X76120289Y-68206711D01*
X76143228Y-68216213D01*
X76259093Y-68239260D01*
X76377227Y-68239260D01*
X76493092Y-68216213D01*
X76602234Y-68171005D01*
X76700459Y-68105373D01*
X76783993Y-68021839D01*
X76849625Y-67923614D01*
X76894833Y-67814472D01*
X76917880Y-67698607D01*
X76917880Y-67580473D01*
X76894833Y-67464608D01*
X76849625Y-67355466D01*
X76783993Y-67257241D01*
X76700459Y-67173707D01*
X76602234Y-67108075D01*
X76493092Y-67062867D01*
X76377227Y-67039820D01*
X76259093Y-67039820D01*
X76143228Y-67062867D01*
X76120000Y-67072488D01*
X76120000Y-66705452D01*
X76143228Y-66715073D01*
X76259093Y-66738120D01*
X76377227Y-66738120D01*
X76493092Y-66715073D01*
X76602234Y-66669865D01*
X76700459Y-66604233D01*
X76783993Y-66520699D01*
X76849625Y-66422474D01*
X76894833Y-66313332D01*
X76917880Y-66197467D01*
X76917880Y-66079333D01*
X76902673Y-66002885D01*
X76943485Y-65962073D01*
X76942907Y-65963468D01*
G37*
G04 #@! TD.AperFunction*
D21*
X71841048Y-65166733D02*
X71960000Y-65285684D01*
X71960000Y-65324316D01*
X71841053Y-65443262D01*
X71825789Y-65455789D01*
X71775803Y-65516698D01*
X71740995Y-65581818D01*
X71692492Y-65561727D01*
X71576627Y-65538680D01*
X71458493Y-65538680D01*
X71342628Y-65561727D01*
X71233486Y-65606935D01*
X71135261Y-65672567D01*
X71051727Y-65756101D01*
X70986095Y-65854326D01*
X70940887Y-65963468D01*
X70917840Y-66079333D01*
X70917840Y-66197467D01*
X70940887Y-66313332D01*
X70986095Y-66422474D01*
X71051727Y-66520699D01*
X71127671Y-66596643D01*
X70501047Y-67223267D01*
X70485790Y-67235789D01*
X70473268Y-67251047D01*
X70473265Y-67251050D01*
X70435803Y-67296698D01*
X70398661Y-67366186D01*
X70375788Y-67441587D01*
X70368065Y-67520000D01*
X70370001Y-67539656D01*
X70370000Y-69014314D01*
X68834803Y-70549511D01*
X69324892Y-69123771D01*
X69532240Y-67594221D01*
X69620891Y-67611855D01*
X69739081Y-67611855D01*
X69855000Y-67588797D01*
X69964193Y-67543568D01*
X70062464Y-67477905D01*
X70146036Y-67394333D01*
X70211699Y-67296062D01*
X70256928Y-67186869D01*
X70279986Y-67070950D01*
X70279986Y-66952760D01*
X70256928Y-66836841D01*
X70211699Y-66727648D01*
X70187338Y-66691190D01*
X70236050Y-66642478D01*
X70301713Y-66544207D01*
X70346942Y-66435014D01*
X70361570Y-66361475D01*
X71483526Y-65239520D01*
X71576627Y-65239520D01*
X71692492Y-65216473D01*
X71801634Y-65171265D01*
X71826404Y-65154715D01*
X71841048Y-65166733D01*
G04 #@! TA.AperFunction,Conductor*
D22*
G36*
X71841048Y-65166733D02*
G01*
X71960000Y-65285684D01*
X71960000Y-65324316D01*
X71841053Y-65443262D01*
X71825789Y-65455789D01*
X71775803Y-65516698D01*
X71740995Y-65581818D01*
X71692492Y-65561727D01*
X71576627Y-65538680D01*
X71458493Y-65538680D01*
X71342628Y-65561727D01*
X71233486Y-65606935D01*
X71135261Y-65672567D01*
X71051727Y-65756101D01*
X70986095Y-65854326D01*
X70940887Y-65963468D01*
X70917840Y-66079333D01*
X70917840Y-66197467D01*
X70940887Y-66313332D01*
X70986095Y-66422474D01*
X71051727Y-66520699D01*
X71127671Y-66596643D01*
X70501047Y-67223267D01*
X70485790Y-67235789D01*
X70473268Y-67251047D01*
X70473265Y-67251050D01*
X70435803Y-67296698D01*
X70398661Y-67366186D01*
X70375788Y-67441587D01*
X70368065Y-67520000D01*
X70370001Y-67539656D01*
X70370000Y-69014314D01*
X68834803Y-70549511D01*
X69324892Y-69123771D01*
X69532240Y-67594221D01*
X69620891Y-67611855D01*
X69739081Y-67611855D01*
X69855000Y-67588797D01*
X69964193Y-67543568D01*
X70062464Y-67477905D01*
X70146036Y-67394333D01*
X70211699Y-67296062D01*
X70256928Y-67186869D01*
X70279986Y-67070950D01*
X70279986Y-66952760D01*
X70256928Y-66836841D01*
X70211699Y-66727648D01*
X70187338Y-66691190D01*
X70236050Y-66642478D01*
X70301713Y-66544207D01*
X70346942Y-66435014D01*
X70361570Y-66361475D01*
X71483526Y-65239520D01*
X71576627Y-65239520D01*
X71692492Y-65216473D01*
X71801634Y-65171265D01*
X71826404Y-65154715D01*
X71841048Y-65166733D01*
G37*
G04 #@! TD.AperFunction*
D21*
X76245883Y-62541568D02*
X76143228Y-62561987D01*
X76034086Y-62607195D01*
X75935861Y-62672827D01*
X75852327Y-62756361D01*
X75786695Y-62854586D01*
X75741487Y-62963728D01*
X75718720Y-63078185D01*
X75695953Y-62963728D01*
X75650745Y-62854586D01*
X75585113Y-62756361D01*
X75501579Y-62672827D01*
X75403354Y-62607195D01*
X75294212Y-62561987D01*
X75178347Y-62538940D01*
X75060213Y-62538940D01*
X74944348Y-62561987D01*
X74835206Y-62607195D01*
X74736981Y-62672827D01*
X74653447Y-62756361D01*
X74587815Y-62854586D01*
X74542607Y-62963728D01*
X74519560Y-63079593D01*
X74519560Y-63197727D01*
X74542607Y-63313592D01*
X74587815Y-63422734D01*
X74653447Y-63520959D01*
X74736981Y-63604493D01*
X74835206Y-63670125D01*
X74944348Y-63715333D01*
X75060213Y-63738380D01*
X75178347Y-63738380D01*
X75294212Y-63715333D01*
X75403354Y-63670125D01*
X75501579Y-63604493D01*
X75585113Y-63520959D01*
X75650745Y-63422734D01*
X75695953Y-63313592D01*
X75718720Y-63199135D01*
X75741487Y-63313592D01*
X75786695Y-63422734D01*
X75852327Y-63520959D01*
X75935861Y-63604493D01*
X76034086Y-63670125D01*
X76143228Y-63715333D01*
X76259093Y-63738380D01*
X76377227Y-63738380D01*
X76493092Y-63715333D01*
X76520000Y-63704187D01*
X76520001Y-64074273D01*
X76493092Y-64063127D01*
X76377227Y-64040080D01*
X76259093Y-64040080D01*
X76143228Y-64063127D01*
X76034086Y-64108335D01*
X75935861Y-64173967D01*
X75852327Y-64257501D01*
X75786695Y-64355726D01*
X75741487Y-64464868D01*
X75718720Y-64579325D01*
X75695953Y-64464868D01*
X75650745Y-64355726D01*
X75585113Y-64257501D01*
X75501579Y-64173967D01*
X75403354Y-64108335D01*
X75294212Y-64063127D01*
X75178347Y-64040080D01*
X75060213Y-64040080D01*
X74944348Y-64063127D01*
X74835206Y-64108335D01*
X74736981Y-64173967D01*
X74653447Y-64257501D01*
X74587815Y-64355726D01*
X74542607Y-64464868D01*
X74519560Y-64580733D01*
X74519560Y-64698867D01*
X74542607Y-64814732D01*
X74587815Y-64923874D01*
X74653447Y-65022099D01*
X74736981Y-65105633D01*
X74835206Y-65171265D01*
X74944348Y-65216473D01*
X75060213Y-65239520D01*
X75178347Y-65239520D01*
X75294212Y-65216473D01*
X75403354Y-65171265D01*
X75501579Y-65105633D01*
X75585113Y-65022099D01*
X75650745Y-64923874D01*
X75695953Y-64814732D01*
X75718720Y-64700275D01*
X75741487Y-64814732D01*
X75782631Y-64914063D01*
X75724313Y-64953030D01*
X75640741Y-65036602D01*
X75575078Y-65134873D01*
X75529849Y-65244066D01*
X75506791Y-65359985D01*
X75506791Y-65453395D01*
X75451047Y-65509139D01*
X75435790Y-65521660D01*
X75423268Y-65536918D01*
X75423265Y-65536921D01*
X75385803Y-65582569D01*
X75378321Y-65596566D01*
X75294212Y-65561727D01*
X75178347Y-65538680D01*
X75060213Y-65538680D01*
X74944348Y-65561727D01*
X74835206Y-65606935D01*
X74736981Y-65672567D01*
X74653447Y-65756101D01*
X74587815Y-65854326D01*
X74542607Y-65963468D01*
X74519560Y-66079333D01*
X74519560Y-66197467D01*
X74542607Y-66313332D01*
X74587815Y-66422474D01*
X74653447Y-66520699D01*
X74736981Y-66604233D01*
X74835206Y-66669865D01*
X74944348Y-66715073D01*
X75060213Y-66738120D01*
X75178347Y-66738120D01*
X75294212Y-66715073D01*
X75320001Y-66704391D01*
X75320000Y-67073549D01*
X75294212Y-67062867D01*
X75178347Y-67039820D01*
X75060213Y-67039820D01*
X74944348Y-67062867D01*
X74835206Y-67108075D01*
X74736981Y-67173707D01*
X74653447Y-67257241D01*
X74587815Y-67355466D01*
X74542607Y-67464608D01*
X74519560Y-67580473D01*
X74519560Y-67698607D01*
X74542607Y-67814472D01*
X74587815Y-67923614D01*
X74638700Y-67999769D01*
X74636353Y-68000000D01*
X74577586Y-68005788D01*
X74502186Y-68028660D01*
X74432697Y-68065803D01*
X74371789Y-68115789D01*
X74359265Y-68131050D01*
X73951895Y-68538420D01*
X73875531Y-68538420D01*
X73876942Y-68535014D01*
X73900000Y-68419095D01*
X73900000Y-68300905D01*
X73897475Y-68288211D01*
X73946426Y-68239260D01*
X73976927Y-68239260D01*
X74092792Y-68216213D01*
X74201934Y-68171005D01*
X74300159Y-68105373D01*
X74383693Y-68021839D01*
X74449325Y-67923614D01*
X74494533Y-67814472D01*
X74517580Y-67698607D01*
X74517580Y-67580473D01*
X74494533Y-67464608D01*
X74449325Y-67355466D01*
X74383693Y-67257241D01*
X74300159Y-67173707D01*
X74201934Y-67108075D01*
X74092792Y-67062867D01*
X73976927Y-67039820D01*
X73901953Y-67039820D01*
X73920000Y-66949095D01*
X73920000Y-66845685D01*
X74040139Y-66725546D01*
X74092792Y-66715073D01*
X74201934Y-66669865D01*
X74300159Y-66604233D01*
X74383693Y-66520699D01*
X74449325Y-66422474D01*
X74494533Y-66313332D01*
X74517580Y-66197467D01*
X74517580Y-66079333D01*
X74494533Y-65963468D01*
X74449325Y-65854326D01*
X74383693Y-65756101D01*
X74300159Y-65672567D01*
X74201934Y-65606935D01*
X74092792Y-65561727D01*
X73976927Y-65538680D01*
X73904169Y-65538680D01*
X73920000Y-65459095D01*
X73920000Y-65340905D01*
X73899833Y-65239520D01*
X73976927Y-65239520D01*
X74092792Y-65216473D01*
X74201934Y-65171265D01*
X74300159Y-65105633D01*
X74383693Y-65022099D01*
X74449325Y-64923874D01*
X74494533Y-64814732D01*
X74517580Y-64698867D01*
X74517580Y-64580733D01*
X74494533Y-64464868D01*
X74449325Y-64355726D01*
X74383693Y-64257501D01*
X74300159Y-64173967D01*
X74201934Y-64108335D01*
X74092792Y-64063127D01*
X73976927Y-64040080D01*
X73883826Y-64040080D01*
X73554797Y-63711052D01*
X73542271Y-63695789D01*
X73481363Y-63645803D01*
X73411874Y-63608660D01*
X73336474Y-63585788D01*
X73277707Y-63580000D01*
X73277706Y-63580000D01*
X73258060Y-63578065D01*
X73238414Y-63580000D01*
X73125772Y-63580000D01*
X73184813Y-63520959D01*
X73250445Y-63422734D01*
X73295653Y-63313592D01*
X73318420Y-63199135D01*
X73341187Y-63313592D01*
X73386395Y-63422734D01*
X73452027Y-63520959D01*
X73535561Y-63604493D01*
X73633786Y-63670125D01*
X73742928Y-63715333D01*
X73858793Y-63738380D01*
X73976927Y-63738380D01*
X74092792Y-63715333D01*
X74201934Y-63670125D01*
X74300159Y-63604493D01*
X74383693Y-63520959D01*
X74449325Y-63422734D01*
X74494533Y-63313592D01*
X74517580Y-63197727D01*
X74517580Y-63079593D01*
X74494533Y-62963728D01*
X74449325Y-62854586D01*
X74383693Y-62756361D01*
X74300159Y-62672827D01*
X74201934Y-62607195D01*
X74092792Y-62561987D01*
X73976927Y-62538940D01*
X73858793Y-62538940D01*
X73742928Y-62561987D01*
X73633786Y-62607195D01*
X73535561Y-62672827D01*
X73452027Y-62756361D01*
X73386395Y-62854586D01*
X73341187Y-62963728D01*
X73318420Y-63078185D01*
X73295653Y-62963728D01*
X73250445Y-62854586D01*
X73184813Y-62756361D01*
X73101279Y-62672827D01*
X73003054Y-62607195D01*
X72893912Y-62561987D01*
X72778047Y-62538940D01*
X72659913Y-62538940D01*
X72544048Y-62561987D01*
X72518258Y-62572669D01*
X72514212Y-62531586D01*
X72491340Y-62456186D01*
X72454197Y-62386697D01*
X72404211Y-62325789D01*
X72388954Y-62313268D01*
X72275686Y-62200000D01*
X75904315Y-62200000D01*
X76245883Y-62541568D01*
G04 #@! TA.AperFunction,Conductor*
D22*
G36*
X76245883Y-62541568D02*
G01*
X76143228Y-62561987D01*
X76034086Y-62607195D01*
X75935861Y-62672827D01*
X75852327Y-62756361D01*
X75786695Y-62854586D01*
X75741487Y-62963728D01*
X75718720Y-63078185D01*
X75695953Y-62963728D01*
X75650745Y-62854586D01*
X75585113Y-62756361D01*
X75501579Y-62672827D01*
X75403354Y-62607195D01*
X75294212Y-62561987D01*
X75178347Y-62538940D01*
X75060213Y-62538940D01*
X74944348Y-62561987D01*
X74835206Y-62607195D01*
X74736981Y-62672827D01*
X74653447Y-62756361D01*
X74587815Y-62854586D01*
X74542607Y-62963728D01*
X74519560Y-63079593D01*
X74519560Y-63197727D01*
X74542607Y-63313592D01*
X74587815Y-63422734D01*
X74653447Y-63520959D01*
X74736981Y-63604493D01*
X74835206Y-63670125D01*
X74944348Y-63715333D01*
X75060213Y-63738380D01*
X75178347Y-63738380D01*
X75294212Y-63715333D01*
X75403354Y-63670125D01*
X75501579Y-63604493D01*
X75585113Y-63520959D01*
X75650745Y-63422734D01*
X75695953Y-63313592D01*
X75718720Y-63199135D01*
X75741487Y-63313592D01*
X75786695Y-63422734D01*
X75852327Y-63520959D01*
X75935861Y-63604493D01*
X76034086Y-63670125D01*
X76143228Y-63715333D01*
X76259093Y-63738380D01*
X76377227Y-63738380D01*
X76493092Y-63715333D01*
X76520000Y-63704187D01*
X76520001Y-64074273D01*
X76493092Y-64063127D01*
X76377227Y-64040080D01*
X76259093Y-64040080D01*
X76143228Y-64063127D01*
X76034086Y-64108335D01*
X75935861Y-64173967D01*
X75852327Y-64257501D01*
X75786695Y-64355726D01*
X75741487Y-64464868D01*
X75718720Y-64579325D01*
X75695953Y-64464868D01*
X75650745Y-64355726D01*
X75585113Y-64257501D01*
X75501579Y-64173967D01*
X75403354Y-64108335D01*
X75294212Y-64063127D01*
X75178347Y-64040080D01*
X75060213Y-64040080D01*
X74944348Y-64063127D01*
X74835206Y-64108335D01*
X74736981Y-64173967D01*
X74653447Y-64257501D01*
X74587815Y-64355726D01*
X74542607Y-64464868D01*
X74519560Y-64580733D01*
X74519560Y-64698867D01*
X74542607Y-64814732D01*
X74587815Y-64923874D01*
X74653447Y-65022099D01*
X74736981Y-65105633D01*
X74835206Y-65171265D01*
X74944348Y-65216473D01*
X75060213Y-65239520D01*
X75178347Y-65239520D01*
X75294212Y-65216473D01*
X75403354Y-65171265D01*
X75501579Y-65105633D01*
X75585113Y-65022099D01*
X75650745Y-64923874D01*
X75695953Y-64814732D01*
X75718720Y-64700275D01*
X75741487Y-64814732D01*
X75782631Y-64914063D01*
X75724313Y-64953030D01*
X75640741Y-65036602D01*
X75575078Y-65134873D01*
X75529849Y-65244066D01*
X75506791Y-65359985D01*
X75506791Y-65453395D01*
X75451047Y-65509139D01*
X75435790Y-65521660D01*
X75423268Y-65536918D01*
X75423265Y-65536921D01*
X75385803Y-65582569D01*
X75378321Y-65596566D01*
X75294212Y-65561727D01*
X75178347Y-65538680D01*
X75060213Y-65538680D01*
X74944348Y-65561727D01*
X74835206Y-65606935D01*
X74736981Y-65672567D01*
X74653447Y-65756101D01*
X74587815Y-65854326D01*
X74542607Y-65963468D01*
X74519560Y-66079333D01*
X74519560Y-66197467D01*
X74542607Y-66313332D01*
X74587815Y-66422474D01*
X74653447Y-66520699D01*
X74736981Y-66604233D01*
X74835206Y-66669865D01*
X74944348Y-66715073D01*
X75060213Y-66738120D01*
X75178347Y-66738120D01*
X75294212Y-66715073D01*
X75320001Y-66704391D01*
X75320000Y-67073549D01*
X75294212Y-67062867D01*
X75178347Y-67039820D01*
X75060213Y-67039820D01*
X74944348Y-67062867D01*
X74835206Y-67108075D01*
X74736981Y-67173707D01*
X74653447Y-67257241D01*
X74587815Y-67355466D01*
X74542607Y-67464608D01*
X74519560Y-67580473D01*
X74519560Y-67698607D01*
X74542607Y-67814472D01*
X74587815Y-67923614D01*
X74638700Y-67999769D01*
X74636353Y-68000000D01*
X74577586Y-68005788D01*
X74502186Y-68028660D01*
X74432697Y-68065803D01*
X74371789Y-68115789D01*
X74359265Y-68131050D01*
X73951895Y-68538420D01*
X73875531Y-68538420D01*
X73876942Y-68535014D01*
X73900000Y-68419095D01*
X73900000Y-68300905D01*
X73897475Y-68288211D01*
X73946426Y-68239260D01*
X73976927Y-68239260D01*
X74092792Y-68216213D01*
X74201934Y-68171005D01*
X74300159Y-68105373D01*
X74383693Y-68021839D01*
X74449325Y-67923614D01*
X74494533Y-67814472D01*
X74517580Y-67698607D01*
X74517580Y-67580473D01*
X74494533Y-67464608D01*
X74449325Y-67355466D01*
X74383693Y-67257241D01*
X74300159Y-67173707D01*
X74201934Y-67108075D01*
X74092792Y-67062867D01*
X73976927Y-67039820D01*
X73901953Y-67039820D01*
X73920000Y-66949095D01*
X73920000Y-66845685D01*
X74040139Y-66725546D01*
X74092792Y-66715073D01*
X74201934Y-66669865D01*
X74300159Y-66604233D01*
X74383693Y-66520699D01*
X74449325Y-66422474D01*
X74494533Y-66313332D01*
X74517580Y-66197467D01*
X74517580Y-66079333D01*
X74494533Y-65963468D01*
X74449325Y-65854326D01*
X74383693Y-65756101D01*
X74300159Y-65672567D01*
X74201934Y-65606935D01*
X74092792Y-65561727D01*
X73976927Y-65538680D01*
X73904169Y-65538680D01*
X73920000Y-65459095D01*
X73920000Y-65340905D01*
X73899833Y-65239520D01*
X73976927Y-65239520D01*
X74092792Y-65216473D01*
X74201934Y-65171265D01*
X74300159Y-65105633D01*
X74383693Y-65022099D01*
X74449325Y-64923874D01*
X74494533Y-64814732D01*
X74517580Y-64698867D01*
X74517580Y-64580733D01*
X74494533Y-64464868D01*
X74449325Y-64355726D01*
X74383693Y-64257501D01*
X74300159Y-64173967D01*
X74201934Y-64108335D01*
X74092792Y-64063127D01*
X73976927Y-64040080D01*
X73883826Y-64040080D01*
X73554797Y-63711052D01*
X73542271Y-63695789D01*
X73481363Y-63645803D01*
X73411874Y-63608660D01*
X73336474Y-63585788D01*
X73277707Y-63580000D01*
X73277706Y-63580000D01*
X73258060Y-63578065D01*
X73238414Y-63580000D01*
X73125772Y-63580000D01*
X73184813Y-63520959D01*
X73250445Y-63422734D01*
X73295653Y-63313592D01*
X73318420Y-63199135D01*
X73341187Y-63313592D01*
X73386395Y-63422734D01*
X73452027Y-63520959D01*
X73535561Y-63604493D01*
X73633786Y-63670125D01*
X73742928Y-63715333D01*
X73858793Y-63738380D01*
X73976927Y-63738380D01*
X74092792Y-63715333D01*
X74201934Y-63670125D01*
X74300159Y-63604493D01*
X74383693Y-63520959D01*
X74449325Y-63422734D01*
X74494533Y-63313592D01*
X74517580Y-63197727D01*
X74517580Y-63079593D01*
X74494533Y-62963728D01*
X74449325Y-62854586D01*
X74383693Y-62756361D01*
X74300159Y-62672827D01*
X74201934Y-62607195D01*
X74092792Y-62561987D01*
X73976927Y-62538940D01*
X73858793Y-62538940D01*
X73742928Y-62561987D01*
X73633786Y-62607195D01*
X73535561Y-62672827D01*
X73452027Y-62756361D01*
X73386395Y-62854586D01*
X73341187Y-62963728D01*
X73318420Y-63078185D01*
X73295653Y-62963728D01*
X73250445Y-62854586D01*
X73184813Y-62756361D01*
X73101279Y-62672827D01*
X73003054Y-62607195D01*
X72893912Y-62561987D01*
X72778047Y-62538940D01*
X72659913Y-62538940D01*
X72544048Y-62561987D01*
X72518258Y-62572669D01*
X72514212Y-62531586D01*
X72491340Y-62456186D01*
X72454197Y-62386697D01*
X72404211Y-62325789D01*
X72388954Y-62313268D01*
X72275686Y-62200000D01*
X75904315Y-62200000D01*
X76245883Y-62541568D01*
G37*
G04 #@! TD.AperFunction*
D21*
X70215793Y-64961713D02*
X70324986Y-65006942D01*
X70440905Y-65030000D01*
X70559095Y-65030000D01*
X70562315Y-65029360D01*
X69914656Y-65677019D01*
X69829095Y-65660000D01*
X69710905Y-65660000D01*
X69594986Y-65683058D01*
X69485793Y-65728287D01*
X69470295Y-65738643D01*
X69464382Y-65642789D01*
X69550905Y-65660000D01*
X69669095Y-65660000D01*
X69785014Y-65636942D01*
X69894207Y-65591713D01*
X69992478Y-65526050D01*
X70076050Y-65442478D01*
X70141713Y-65344207D01*
X70186942Y-65235014D01*
X70210000Y-65119095D01*
X70210000Y-65000905D01*
X70200121Y-64951241D01*
X70215793Y-64961713D01*
G04 #@! TA.AperFunction,Conductor*
D22*
G36*
X70215793Y-64961713D02*
G01*
X70324986Y-65006942D01*
X70440905Y-65030000D01*
X70559095Y-65030000D01*
X70562315Y-65029360D01*
X69914656Y-65677019D01*
X69829095Y-65660000D01*
X69710905Y-65660000D01*
X69594986Y-65683058D01*
X69485793Y-65728287D01*
X69470295Y-65738643D01*
X69464382Y-65642789D01*
X69550905Y-65660000D01*
X69669095Y-65660000D01*
X69785014Y-65636942D01*
X69894207Y-65591713D01*
X69992478Y-65526050D01*
X70076050Y-65442478D01*
X70141713Y-65344207D01*
X70186942Y-65235014D01*
X70210000Y-65119095D01*
X70210000Y-65000905D01*
X70200121Y-64951241D01*
X70215793Y-64961713D01*
G37*
G04 #@! TD.AperFunction*
D21*
X76523267Y-58338953D02*
X76535789Y-58354211D01*
X76551047Y-58366733D01*
X76551049Y-58366735D01*
X76553206Y-58368505D01*
X76596697Y-58404197D01*
X76666186Y-58441340D01*
X76741586Y-58464212D01*
X76800353Y-58470000D01*
X76800363Y-58470000D01*
X76819999Y-58471934D01*
X76839635Y-58470000D01*
X76971472Y-58470000D01*
X77037522Y-58536050D01*
X77135793Y-58601713D01*
X77244986Y-58646942D01*
X77360905Y-58670000D01*
X77454315Y-58670000D01*
X77623564Y-58839249D01*
X76969670Y-58839249D01*
X76910860Y-58845041D01*
X76854310Y-58862196D01*
X76802193Y-58890053D01*
X76769010Y-58917285D01*
X76735827Y-58890053D01*
X76683710Y-58862196D01*
X76627160Y-58845041D01*
X76568350Y-58839249D01*
X75869850Y-58839249D01*
X75811040Y-58845041D01*
X75754490Y-58862196D01*
X75702373Y-58890053D01*
X75669190Y-58917285D01*
X75636007Y-58890053D01*
X75583890Y-58862196D01*
X75527340Y-58845041D01*
X75468530Y-58839249D01*
X74770030Y-58839249D01*
X74711220Y-58845041D01*
X74654670Y-58862196D01*
X74602553Y-58890053D01*
X74569370Y-58917285D01*
X74536187Y-58890053D01*
X74484070Y-58862196D01*
X74427520Y-58845041D01*
X74368710Y-58839249D01*
X73804477Y-58839249D01*
X73826942Y-58785014D01*
X73850000Y-58669095D01*
X73850000Y-58550905D01*
X73826942Y-58434986D01*
X73781713Y-58325793D01*
X73716050Y-58227522D01*
X73632478Y-58143950D01*
X73534207Y-58078287D01*
X73425014Y-58033058D01*
X73309095Y-58010000D01*
X73190905Y-58010000D01*
X73074986Y-58033058D01*
X73068357Y-58035804D01*
X73016050Y-57957522D01*
X72932478Y-57873950D01*
X72921566Y-57866659D01*
X72922478Y-57866050D01*
X73006050Y-57782478D01*
X73071713Y-57684207D01*
X73116942Y-57575014D01*
X73140000Y-57459095D01*
X73140000Y-57340905D01*
X73116942Y-57224986D01*
X73085236Y-57148441D01*
X73110647Y-57117477D01*
X73138504Y-57065360D01*
X73155659Y-57008810D01*
X73161451Y-56950000D01*
X73161451Y-55450000D01*
X73160466Y-55440000D01*
X73624315Y-55440000D01*
X76523267Y-58338953D01*
G04 #@! TA.AperFunction,Conductor*
D22*
G36*
X76523267Y-58338953D02*
G01*
X76535789Y-58354211D01*
X76551047Y-58366733D01*
X76551049Y-58366735D01*
X76553206Y-58368505D01*
X76596697Y-58404197D01*
X76666186Y-58441340D01*
X76741586Y-58464212D01*
X76800353Y-58470000D01*
X76800363Y-58470000D01*
X76819999Y-58471934D01*
X76839635Y-58470000D01*
X76971472Y-58470000D01*
X77037522Y-58536050D01*
X77135793Y-58601713D01*
X77244986Y-58646942D01*
X77360905Y-58670000D01*
X77454315Y-58670000D01*
X77623564Y-58839249D01*
X76969670Y-58839249D01*
X76910860Y-58845041D01*
X76854310Y-58862196D01*
X76802193Y-58890053D01*
X76769010Y-58917285D01*
X76735827Y-58890053D01*
X76683710Y-58862196D01*
X76627160Y-58845041D01*
X76568350Y-58839249D01*
X75869850Y-58839249D01*
X75811040Y-58845041D01*
X75754490Y-58862196D01*
X75702373Y-58890053D01*
X75669190Y-58917285D01*
X75636007Y-58890053D01*
X75583890Y-58862196D01*
X75527340Y-58845041D01*
X75468530Y-58839249D01*
X74770030Y-58839249D01*
X74711220Y-58845041D01*
X74654670Y-58862196D01*
X74602553Y-58890053D01*
X74569370Y-58917285D01*
X74536187Y-58890053D01*
X74484070Y-58862196D01*
X74427520Y-58845041D01*
X74368710Y-58839249D01*
X73804477Y-58839249D01*
X73826942Y-58785014D01*
X73850000Y-58669095D01*
X73850000Y-58550905D01*
X73826942Y-58434986D01*
X73781713Y-58325793D01*
X73716050Y-58227522D01*
X73632478Y-58143950D01*
X73534207Y-58078287D01*
X73425014Y-58033058D01*
X73309095Y-58010000D01*
X73190905Y-58010000D01*
X73074986Y-58033058D01*
X73068357Y-58035804D01*
X73016050Y-57957522D01*
X72932478Y-57873950D01*
X72921566Y-57866659D01*
X72922478Y-57866050D01*
X73006050Y-57782478D01*
X73071713Y-57684207D01*
X73116942Y-57575014D01*
X73140000Y-57459095D01*
X73140000Y-57340905D01*
X73116942Y-57224986D01*
X73085236Y-57148441D01*
X73110647Y-57117477D01*
X73138504Y-57065360D01*
X73155659Y-57008810D01*
X73161451Y-56950000D01*
X73161451Y-55450000D01*
X73160466Y-55440000D01*
X73624315Y-55440000D01*
X76523267Y-58338953D01*
G37*
G04 #@! TD.AperFunction*
D21*
X71058549Y-56950000D02*
X71064341Y-57008810D01*
X71081496Y-57065360D01*
X71109353Y-57117477D01*
X71146842Y-57163158D01*
X71192523Y-57200647D01*
X71244640Y-57228504D01*
X71301190Y-57245659D01*
X71360000Y-57251451D01*
X71823525Y-57251451D01*
X71825790Y-57254211D01*
X71841047Y-57266732D01*
X71940000Y-57365685D01*
X71940000Y-57459095D01*
X71963058Y-57575014D01*
X72008287Y-57684207D01*
X72073950Y-57782478D01*
X72157522Y-57866050D01*
X72168434Y-57873341D01*
X72167522Y-57873950D01*
X72083950Y-57957522D01*
X72018287Y-58055793D01*
X71973058Y-58164986D01*
X71950000Y-58280905D01*
X71950000Y-58374315D01*
X71550868Y-58773447D01*
X71535610Y-58785969D01*
X71523088Y-58801227D01*
X71523085Y-58801230D01*
X71491884Y-58839249D01*
X71470570Y-58839249D01*
X71470000Y-58839305D01*
X71470000Y-57939647D01*
X71471935Y-57920000D01*
X71464212Y-57841586D01*
X71441340Y-57766186D01*
X71404197Y-57696697D01*
X71393389Y-57683527D01*
X71354211Y-57635789D01*
X71338949Y-57623264D01*
X70792994Y-57077309D01*
X70844989Y-57066967D01*
X70954182Y-57021738D01*
X71052453Y-56956075D01*
X71058549Y-56949979D01*
X71058549Y-56950000D01*
G04 #@! TA.AperFunction,Conductor*
D22*
G36*
X71058549Y-56950000D02*
G01*
X71064341Y-57008810D01*
X71081496Y-57065360D01*
X71109353Y-57117477D01*
X71146842Y-57163158D01*
X71192523Y-57200647D01*
X71244640Y-57228504D01*
X71301190Y-57245659D01*
X71360000Y-57251451D01*
X71823525Y-57251451D01*
X71825790Y-57254211D01*
X71841047Y-57266732D01*
X71940000Y-57365685D01*
X71940000Y-57459095D01*
X71963058Y-57575014D01*
X72008287Y-57684207D01*
X72073950Y-57782478D01*
X72157522Y-57866050D01*
X72168434Y-57873341D01*
X72167522Y-57873950D01*
X72083950Y-57957522D01*
X72018287Y-58055793D01*
X71973058Y-58164986D01*
X71950000Y-58280905D01*
X71950000Y-58374315D01*
X71550868Y-58773447D01*
X71535610Y-58785969D01*
X71523088Y-58801227D01*
X71523085Y-58801230D01*
X71491884Y-58839249D01*
X71470570Y-58839249D01*
X71470000Y-58839305D01*
X71470000Y-57939647D01*
X71471935Y-57920000D01*
X71464212Y-57841586D01*
X71441340Y-57766186D01*
X71404197Y-57696697D01*
X71393389Y-57683527D01*
X71354211Y-57635789D01*
X71338949Y-57623264D01*
X70792994Y-57077309D01*
X70844989Y-57066967D01*
X70954182Y-57021738D01*
X71052453Y-56956075D01*
X71058549Y-56949979D01*
X71058549Y-56950000D01*
G37*
G04 #@! TD.AperFunction*
D21*
X71058549Y-55450000D02*
X71058549Y-56030071D01*
X71052453Y-56023975D01*
X70954182Y-55958312D01*
X70844989Y-55913083D01*
X70729070Y-55890025D01*
X70610880Y-55890025D01*
X70494961Y-55913083D01*
X70385768Y-55958312D01*
X70287497Y-56023975D01*
X70203925Y-56107547D01*
X70138262Y-56205818D01*
X70130014Y-56225731D01*
X70114062Y-56217205D01*
X70043442Y-56195782D01*
X69970000Y-56188549D01*
X69470000Y-56188549D01*
X69410000Y-56194458D01*
X69410000Y-55705685D01*
X69675686Y-55440000D01*
X71059534Y-55440000D01*
X71058549Y-55450000D01*
G04 #@! TA.AperFunction,Conductor*
D22*
G36*
X71058549Y-55450000D02*
G01*
X71058549Y-56030071D01*
X71052453Y-56023975D01*
X70954182Y-55958312D01*
X70844989Y-55913083D01*
X70729070Y-55890025D01*
X70610880Y-55890025D01*
X70494961Y-55913083D01*
X70385768Y-55958312D01*
X70287497Y-56023975D01*
X70203925Y-56107547D01*
X70138262Y-56205818D01*
X70130014Y-56225731D01*
X70114062Y-56217205D01*
X70043442Y-56195782D01*
X69970000Y-56188549D01*
X69470000Y-56188549D01*
X69410000Y-56194458D01*
X69410000Y-55705685D01*
X69675686Y-55440000D01*
X71059534Y-55440000D01*
X71058549Y-55450000D01*
G37*
G04 #@! TD.AperFunction*
M02*
