G04 #@! TF.GenerationSoftware,KiCad,Pcbnew,5.1.9-73d0e3b20d~88~ubuntu20.04.1*
G04 #@! TF.CreationDate,2021-03-19T22:30:43+02:00*
G04 #@! TF.ProjectId,nRF5340-Wearable,6e524635-3334-4302-9d57-65617261626c,rev?*
G04 #@! TF.SameCoordinates,Original*
G04 #@! TF.FileFunction,Copper,L2,Inr*
G04 #@! TF.FilePolarity,Positive*
%FSLAX46Y46*%
G04 Gerber Fmt 4.6, Leading zero omitted, Abs format (unit mm)*
G04 Created by KiCad (PCBNEW 5.1.9-73d0e3b20d~88~ubuntu20.04.1) date 2021-03-19 22:30:43*
%MOMM*%
%LPD*%
G01*
G04 APERTURE LIST*
G04 #@! TA.AperFunction,ComponentPad*
%ADD10C,0.100000*%
G04 #@! TD*
G04 #@! TA.AperFunction,ViaPad*
%ADD11C,0.600000*%
G04 #@! TD*
G04 #@! TA.AperFunction,Conductor*
%ADD12C,0.200000*%
G04 #@! TD*
G04 #@! TA.AperFunction,Conductor*
%ADD13C,0.100000*%
G04 #@! TD*
G04 APERTURE END LIST*
G04 #@! TA.AperFunction,ComponentPad*
G36*
G01*
X81014409Y-76793161D02*
X81014409Y-76793161D01*
G75*
G02*
X80331396Y-76610148I-250000J433013D01*
G01*
X80331396Y-76610148D01*
G75*
G02*
X80514409Y-75927135I433013J250000D01*
G01*
X80514409Y-75927135D01*
G75*
G02*
X81197422Y-76110148I250000J-433013D01*
G01*
X81197422Y-76110148D01*
G75*
G02*
X81014409Y-76793161I-433013J-250000D01*
G01*
G37*
G04 #@! TD.AperFunction*
G04 #@! TA.AperFunction,ComponentPad*
G36*
G01*
X81649409Y-77893013D02*
X81649409Y-77893013D01*
G75*
G02*
X80966396Y-77710000I-250000J433013D01*
G01*
X80966396Y-77710000D01*
G75*
G02*
X81149409Y-77026987I433013J250000D01*
G01*
X81149409Y-77026987D01*
G75*
G02*
X81832422Y-77210000I250000J-433013D01*
G01*
X81832422Y-77210000D01*
G75*
G02*
X81649409Y-77893013I-433013J-250000D01*
G01*
G37*
G04 #@! TD.AperFunction*
G04 #@! TA.AperFunction,ComponentPad*
G36*
G01*
X79914557Y-77428161D02*
X79914557Y-77428161D01*
G75*
G02*
X79231544Y-77245148I-250000J433013D01*
G01*
X79231544Y-77245148D01*
G75*
G02*
X79414557Y-76562135I433013J250000D01*
G01*
X79414557Y-76562135D01*
G75*
G02*
X80097570Y-76745148I250000J-433013D01*
G01*
X80097570Y-76745148D01*
G75*
G02*
X79914557Y-77428161I-433013J-250000D01*
G01*
G37*
G04 #@! TD.AperFunction*
G04 #@! TA.AperFunction,ComponentPad*
G36*
G01*
X80549557Y-78528013D02*
X80549557Y-78528013D01*
G75*
G02*
X79866544Y-78345000I-250000J433013D01*
G01*
X79866544Y-78345000D01*
G75*
G02*
X80049557Y-77661987I433013J250000D01*
G01*
X80049557Y-77661987D01*
G75*
G02*
X80732570Y-77845000I250000J-433013D01*
G01*
X80732570Y-77845000D01*
G75*
G02*
X80549557Y-78528013I-433013J-250000D01*
G01*
G37*
G04 #@! TD.AperFunction*
G04 #@! TA.AperFunction,ComponentPad*
G36*
G01*
X78814705Y-78063161D02*
X78814705Y-78063161D01*
G75*
G02*
X78131692Y-77880148I-250000J433013D01*
G01*
X78131692Y-77880148D01*
G75*
G02*
X78314705Y-77197135I433013J250000D01*
G01*
X78314705Y-77197135D01*
G75*
G02*
X78997718Y-77380148I250000J-433013D01*
G01*
X78997718Y-77380148D01*
G75*
G02*
X78814705Y-78063161I-433013J-250000D01*
G01*
G37*
G04 #@! TD.AperFunction*
G04 #@! TA.AperFunction,ComponentPad*
G36*
G01*
X79449705Y-79163013D02*
X79449705Y-79163013D01*
G75*
G02*
X78766692Y-78980000I-250000J433013D01*
G01*
X78766692Y-78980000D01*
G75*
G02*
X78949705Y-78296987I433013J250000D01*
G01*
X78949705Y-78296987D01*
G75*
G02*
X79632718Y-78480000I250000J-433013D01*
G01*
X79632718Y-78480000D01*
G75*
G02*
X79449705Y-79163013I-433013J-250000D01*
G01*
G37*
G04 #@! TD.AperFunction*
G04 #@! TA.AperFunction,ComponentPad*
G36*
G01*
X77714852Y-78698161D02*
X77714852Y-78698161D01*
G75*
G02*
X77031839Y-78515148I-250000J433013D01*
G01*
X77031839Y-78515148D01*
G75*
G02*
X77214852Y-77832135I433013J250000D01*
G01*
X77214852Y-77832135D01*
G75*
G02*
X77897865Y-78015148I250000J-433013D01*
G01*
X77897865Y-78015148D01*
G75*
G02*
X77714852Y-78698161I-433013J-250000D01*
G01*
G37*
G04 #@! TD.AperFunction*
G04 #@! TA.AperFunction,ComponentPad*
G36*
G01*
X78349852Y-79798013D02*
X78349852Y-79798013D01*
G75*
G02*
X77666839Y-79615000I-250000J433013D01*
G01*
X77666839Y-79615000D01*
G75*
G02*
X77849852Y-78931987I433013J250000D01*
G01*
X77849852Y-78931987D01*
G75*
G02*
X78532865Y-79115000I250000J-433013D01*
G01*
X78532865Y-79115000D01*
G75*
G02*
X78349852Y-79798013I-433013J-250000D01*
G01*
G37*
G04 #@! TD.AperFunction*
G04 #@! TA.AperFunction,ComponentPad*
G36*
G01*
X76615000Y-79333161D02*
X76615000Y-79333161D01*
G75*
G02*
X75931987Y-79150148I-250000J433013D01*
G01*
X75931987Y-79150148D01*
G75*
G02*
X76115000Y-78467135I433013J250000D01*
G01*
X76115000Y-78467135D01*
G75*
G02*
X76798013Y-78650148I250000J-433013D01*
G01*
X76798013Y-78650148D01*
G75*
G02*
X76615000Y-79333161I-433013J-250000D01*
G01*
G37*
G04 #@! TD.AperFunction*
G04 #@! TA.AperFunction,ComponentPad*
D10*
G36*
X77683013Y-80183013D02*
G01*
X76816987Y-80683013D01*
X76316987Y-79816987D01*
X77183013Y-79316987D01*
X77683013Y-80183013D01*
G37*
G04 #@! TD.AperFunction*
D11*
X60900000Y-79000000D03*
X60800000Y-54900000D03*
X56743148Y-75624641D03*
X59600000Y-54900000D03*
X59700000Y-79000000D03*
X78129998Y-66940000D03*
X77860000Y-62330000D03*
X54070000Y-64830000D03*
X57530000Y-69960000D03*
X79220000Y-56490000D03*
X62210000Y-61790000D03*
X66430000Y-65500000D03*
X54570000Y-67490000D03*
X80750000Y-62300000D03*
X80740000Y-60040000D03*
X64580000Y-72540000D03*
X67540000Y-67840000D03*
X64620000Y-68230000D03*
X75740000Y-63860000D03*
X76490000Y-71690000D03*
X70120000Y-55620000D03*
X72110000Y-61200000D03*
X69440000Y-74730000D03*
X79130000Y-65340000D03*
X79190000Y-68350000D03*
X75000000Y-52300000D03*
X62900000Y-52200000D03*
X63100000Y-81500000D03*
X75000000Y-81500000D03*
X56400000Y-78400000D03*
X53200000Y-75300000D03*
X56100000Y-55300000D03*
X53800000Y-57600000D03*
X50780000Y-66730000D03*
X76130000Y-81980000D03*
X69200000Y-79600000D03*
X64600000Y-55800000D03*
X71700000Y-54100000D03*
X65700000Y-54000000D03*
X68800000Y-54000000D03*
X65600000Y-79800000D03*
X71800000Y-79700000D03*
X75400000Y-77000000D03*
X70700000Y-71100000D03*
X78900000Y-71900000D03*
X80720000Y-69140000D03*
X80710000Y-66880000D03*
X80720000Y-64610000D03*
X80710000Y-71540000D03*
X80750000Y-73800000D03*
X80810000Y-79630000D03*
X80780000Y-54720000D03*
X78190000Y-53070000D03*
X77700000Y-81360000D03*
X71840000Y-82460000D03*
X66820000Y-82450000D03*
X51700000Y-72270000D03*
X51420000Y-61890000D03*
X73400000Y-62370000D03*
X78170000Y-63860000D03*
X72210000Y-69880000D03*
X70240000Y-59300000D03*
X67390000Y-58860000D03*
X76270000Y-54120000D03*
X74420000Y-63870000D03*
X68130000Y-64470000D03*
X72150000Y-76100000D03*
X74400000Y-79630000D03*
X68260000Y-73550000D03*
X72960000Y-71390000D03*
X75340000Y-57940000D03*
X75630000Y-55700000D03*
X71700000Y-57530000D03*
X64470000Y-61790000D03*
X52280000Y-63740000D03*
X59605010Y-73234990D03*
X69440000Y-64090000D03*
X79470000Y-75940000D03*
X68790000Y-71160000D03*
X70669975Y-56490025D03*
X70500000Y-64430000D03*
X52620000Y-61640000D03*
X79790000Y-58830000D03*
X69610000Y-65060000D03*
X77420000Y-58070000D03*
X77500000Y-75200000D03*
X76886084Y-76866084D03*
X68790000Y-59860000D03*
X51500000Y-70230000D03*
X73320000Y-66890000D03*
X73320000Y-65400000D03*
X66940000Y-73910000D03*
X76106791Y-65419080D03*
X73248909Y-69988909D03*
X78610000Y-61300000D03*
X64960000Y-75150000D03*
X74518572Y-71689279D03*
X58380662Y-76134540D03*
X78110000Y-68350000D03*
X66370000Y-55860000D03*
X68910000Y-76684540D03*
X78290000Y-69980000D03*
X66440000Y-78860000D03*
X78200000Y-72320000D03*
X65730000Y-57950000D03*
X71600000Y-78600000D03*
X69770000Y-66260000D03*
X76233916Y-75066084D03*
X74280000Y-75200000D03*
X72540000Y-57400000D03*
X73300000Y-68360000D03*
X69679986Y-67011855D03*
X73250000Y-58610000D03*
X72550000Y-58340000D03*
X76876360Y-75781456D03*
D12*
X76750025Y-56490025D02*
X77230000Y-56970000D01*
X70669975Y-56490025D02*
X76750025Y-56490025D01*
X70500000Y-63700000D02*
X70500000Y-64430000D01*
X53930000Y-62950000D02*
X52620000Y-61640000D01*
X70500000Y-64430000D02*
X70500000Y-63720000D01*
X69520000Y-62950000D02*
X71250000Y-62950000D01*
X71425000Y-62775000D02*
X70500000Y-63700000D01*
X77230000Y-56970000D02*
X71425000Y-62775000D01*
X69730000Y-62950000D02*
X69520000Y-62950000D01*
X71250000Y-62950000D02*
X71425000Y-62775000D01*
X69520000Y-62950000D02*
X53930000Y-62950000D01*
X79350000Y-58830000D02*
X79790000Y-58830000D01*
X77490000Y-56970000D02*
X79350000Y-58830000D01*
X77230000Y-56970000D02*
X77490000Y-56970000D01*
X69610000Y-65060000D02*
X71904264Y-65060000D01*
X71904264Y-65060000D02*
X77420000Y-59544264D01*
X77420000Y-59544264D02*
X77420000Y-58070000D01*
X71000000Y-69210000D02*
X73320000Y-66890000D01*
X52520000Y-69210000D02*
X71000000Y-69210000D01*
X51500000Y-70230000D02*
X52520000Y-69210000D01*
X66940000Y-73770000D02*
X66940000Y-73910000D01*
X67920000Y-72790000D02*
X66940000Y-73770000D01*
X68400000Y-72790000D02*
X67920000Y-72790000D01*
X73305998Y-67540000D02*
X70980000Y-69865998D01*
X73630000Y-67540000D02*
X73305998Y-67540000D01*
X73970000Y-67200000D02*
X73630000Y-67540000D01*
X73970000Y-66050000D02*
X73970000Y-67200000D01*
X73320000Y-65400000D02*
X73970000Y-66050000D01*
X70838990Y-69865998D02*
X69555000Y-71149988D01*
X69555000Y-71149988D02*
X69555000Y-71635000D01*
X70980000Y-69865998D02*
X70838990Y-69865998D01*
X69555000Y-71635000D02*
X68400000Y-72790000D01*
X78909999Y-61599999D02*
X78610000Y-61300000D01*
X78909999Y-64327819D02*
X78909999Y-61599999D01*
X73248909Y-69988909D02*
X78909999Y-64327819D01*
X65160000Y-75150000D02*
X67700000Y-75150000D01*
X70860721Y-71989279D02*
X74218573Y-71989278D01*
X65020000Y-75290000D02*
X65160000Y-75150000D01*
X67700000Y-75150000D02*
X70860721Y-71989279D01*
X74218573Y-71989278D02*
X74518572Y-71689279D01*
X63154540Y-76134540D02*
X63034540Y-76134540D01*
X63700000Y-76680000D02*
X63154540Y-76134540D01*
X65550000Y-76680000D02*
X63700000Y-76680000D01*
X63034540Y-76134540D02*
X58380662Y-76134540D01*
X71065460Y-76134540D02*
X66095460Y-76134540D01*
X73960000Y-73240000D02*
X71065460Y-76134540D01*
X66095460Y-76134540D02*
X65550000Y-76680000D01*
X75000000Y-73240000D02*
X73960000Y-73240000D01*
X75840000Y-72400000D02*
X75000000Y-73240000D01*
X75840000Y-71360000D02*
X75840000Y-72400000D01*
X78110000Y-69090000D02*
X75840000Y-71360000D01*
X78110000Y-68350000D02*
X78110000Y-69090000D01*
X73551828Y-51452719D02*
X75088296Y-51683716D01*
X76594235Y-52066176D01*
X78054753Y-52596318D01*
X79455386Y-53268892D01*
X80782293Y-54077251D01*
X81137544Y-54345439D01*
X81174916Y-75672288D01*
X81143351Y-75651197D01*
X80997760Y-75590891D01*
X80843202Y-75560148D01*
X80685616Y-75560148D01*
X80531058Y-75590891D01*
X80385467Y-75651197D01*
X80254439Y-75738747D01*
X80143008Y-75850178D01*
X80055458Y-75981206D01*
X79995152Y-76126797D01*
X79969539Y-76255562D01*
X79897908Y-76225891D01*
X79743350Y-76195148D01*
X79585764Y-76195148D01*
X79431206Y-76225891D01*
X79285615Y-76286197D01*
X79154587Y-76373747D01*
X79043156Y-76485178D01*
X78955606Y-76616206D01*
X78895300Y-76761797D01*
X78869687Y-76890562D01*
X78798056Y-76860891D01*
X78643498Y-76830148D01*
X78485912Y-76830148D01*
X78331354Y-76860891D01*
X78185763Y-76921197D01*
X78054735Y-77008747D01*
X77943304Y-77120178D01*
X77855754Y-77251206D01*
X77795448Y-77396797D01*
X77769835Y-77525562D01*
X77698203Y-77495891D01*
X77543645Y-77465148D01*
X77386059Y-77465148D01*
X77231501Y-77495891D01*
X77085910Y-77556197D01*
X76954882Y-77643747D01*
X76843451Y-77755178D01*
X76755901Y-77886206D01*
X76695595Y-78031797D01*
X76669982Y-78160562D01*
X76598351Y-78130891D01*
X76443793Y-78100148D01*
X76286207Y-78100148D01*
X76131649Y-78130891D01*
X75986058Y-78191197D01*
X75855030Y-78278747D01*
X75743599Y-78390178D01*
X75656049Y-78521206D01*
X75595743Y-78666797D01*
X75565000Y-78821355D01*
X75565000Y-78978941D01*
X75595743Y-79133499D01*
X75656049Y-79279090D01*
X75743599Y-79410118D01*
X75855030Y-79521549D01*
X75986058Y-79609099D01*
X76071087Y-79644319D01*
X76046624Y-79683659D01*
X76025808Y-79738966D01*
X76016181Y-79797271D01*
X76018115Y-79856334D01*
X76031534Y-79913885D01*
X76055923Y-79967712D01*
X76555923Y-80833738D01*
X76590344Y-80881773D01*
X76633475Y-80922170D01*
X76683659Y-80953376D01*
X76738966Y-80974192D01*
X76797271Y-80983819D01*
X76856334Y-80981885D01*
X76913885Y-80968466D01*
X76967712Y-80944077D01*
X77833738Y-80444077D01*
X77881773Y-80409656D01*
X77922170Y-80366525D01*
X77953376Y-80316341D01*
X77974192Y-80261034D01*
X77983819Y-80202729D01*
X77982178Y-80152626D01*
X78041132Y-80162845D01*
X78197912Y-80158970D01*
X78350924Y-80124583D01*
X78363067Y-80120459D01*
X78440486Y-80004995D01*
X78090701Y-79399151D01*
X78073381Y-79409151D01*
X78053175Y-79374151D01*
X78134003Y-79374151D01*
X78483787Y-79979995D01*
X78622491Y-79970680D01*
X78632134Y-79962226D01*
X78738420Y-79846908D01*
X78820166Y-79713070D01*
X78874230Y-79565856D01*
X78890217Y-79463952D01*
X78986462Y-79501059D01*
X79140985Y-79527845D01*
X79297765Y-79523970D01*
X79450777Y-79489583D01*
X79462920Y-79485459D01*
X79540339Y-79369995D01*
X79190554Y-78764151D01*
X78646830Y-79078070D01*
X78134003Y-79374151D01*
X78053175Y-79374151D01*
X78048381Y-79365849D01*
X78065701Y-79355849D01*
X78055701Y-79338529D01*
X78099003Y-79313529D01*
X78109003Y-79330849D01*
X78559673Y-79070655D01*
X78622590Y-79034330D01*
X78714884Y-78981044D01*
X79133854Y-78739151D01*
X79233856Y-78739151D01*
X79583640Y-79344995D01*
X79722344Y-79335680D01*
X79731987Y-79327226D01*
X79838273Y-79211908D01*
X79920019Y-79078070D01*
X79974083Y-78930856D01*
X79990070Y-78828952D01*
X80086314Y-78866059D01*
X80240837Y-78892845D01*
X80397617Y-78888970D01*
X80550629Y-78854583D01*
X80562772Y-78850459D01*
X80640191Y-78734995D01*
X80290406Y-78129151D01*
X79684525Y-78478956D01*
X79684525Y-78478957D01*
X79233856Y-78739151D01*
X79133854Y-78739151D01*
X79165554Y-78720849D01*
X79155554Y-78703529D01*
X79198856Y-78678529D01*
X79208856Y-78695849D01*
X79814737Y-78346044D01*
X79814737Y-78346043D01*
X80265406Y-78085849D01*
X80255406Y-78068529D01*
X80298708Y-78043529D01*
X80308708Y-78060849D01*
X80914589Y-77711044D01*
X80914589Y-77711043D01*
X81178222Y-77558834D01*
X81178323Y-77616512D01*
X80784377Y-77843956D01*
X80784377Y-77843957D01*
X80333708Y-78104151D01*
X80683492Y-78709995D01*
X80822196Y-78700680D01*
X80831839Y-78692226D01*
X80938125Y-78576908D01*
X81019871Y-78443070D01*
X81073935Y-78295856D01*
X81089922Y-78193952D01*
X81179395Y-78228449D01*
X81181840Y-79623698D01*
X80233439Y-80279179D01*
X78873849Y-81031262D01*
X77446272Y-81644598D01*
X75964850Y-82113110D01*
X74444220Y-82432171D01*
X72895503Y-82599048D01*
X71994583Y-82625000D01*
X66009326Y-82625000D01*
X64448182Y-82547282D01*
X62911703Y-82316284D01*
X61405747Y-81933819D01*
X59945247Y-81403682D01*
X58544614Y-80731108D01*
X58165255Y-80500000D01*
X63673428Y-80500000D01*
X63675000Y-80515961D01*
X63675001Y-81984029D01*
X63673428Y-82000000D01*
X63679703Y-82063711D01*
X63698287Y-82124974D01*
X63728465Y-82181434D01*
X63769079Y-82230921D01*
X63818566Y-82271535D01*
X63875026Y-82301713D01*
X63936289Y-82320297D01*
X63984039Y-82325000D01*
X63984040Y-82325000D01*
X64000000Y-82326572D01*
X64015961Y-82325000D01*
X73984039Y-82325000D01*
X74000000Y-82326572D01*
X74015960Y-82325000D01*
X74015961Y-82325000D01*
X74063711Y-82320297D01*
X74124974Y-82301713D01*
X74181434Y-82271535D01*
X74230921Y-82230921D01*
X74271535Y-82181434D01*
X74301713Y-82124974D01*
X74320297Y-82063711D01*
X74326572Y-82000000D01*
X74325000Y-81984039D01*
X74325000Y-80515961D01*
X74326572Y-80500000D01*
X74320297Y-80436289D01*
X74301713Y-80375026D01*
X74271535Y-80318566D01*
X74230921Y-80269079D01*
X74181434Y-80228465D01*
X74124974Y-80198287D01*
X74063711Y-80179703D01*
X74015961Y-80175000D01*
X74000000Y-80173428D01*
X73984040Y-80175000D01*
X64015960Y-80175000D01*
X64000000Y-80173428D01*
X63984039Y-80175000D01*
X63936289Y-80179703D01*
X63875026Y-80198287D01*
X63818566Y-80228465D01*
X63769079Y-80269079D01*
X63728465Y-80318566D01*
X63698287Y-80375026D01*
X63679703Y-80436289D01*
X63673428Y-80500000D01*
X58165255Y-80500000D01*
X57217707Y-79922749D01*
X55977647Y-78986599D01*
X55928216Y-78940905D01*
X59100000Y-78940905D01*
X59100000Y-79059095D01*
X59123058Y-79175014D01*
X59168287Y-79284207D01*
X59233950Y-79382478D01*
X59317522Y-79466050D01*
X59415793Y-79531713D01*
X59524986Y-79576942D01*
X59640905Y-79600000D01*
X59759095Y-79600000D01*
X59875014Y-79576942D01*
X59984207Y-79531713D01*
X60082478Y-79466050D01*
X60166050Y-79382478D01*
X60231713Y-79284207D01*
X60276942Y-79175014D01*
X60300000Y-79059095D01*
X60323058Y-79175014D01*
X60368287Y-79284207D01*
X60433950Y-79382478D01*
X60517522Y-79466050D01*
X60615793Y-79531713D01*
X60724986Y-79576942D01*
X60840905Y-79600000D01*
X60959095Y-79600000D01*
X61075014Y-79576942D01*
X61184207Y-79531713D01*
X61282478Y-79466050D01*
X61366050Y-79382478D01*
X61431713Y-79284207D01*
X61476942Y-79175014D01*
X61500000Y-79059095D01*
X61500000Y-78940905D01*
X61476942Y-78824986D01*
X61466968Y-78800905D01*
X65840000Y-78800905D01*
X65840000Y-78919095D01*
X65863058Y-79035014D01*
X65908287Y-79144207D01*
X65973950Y-79242478D01*
X66057522Y-79326050D01*
X66155793Y-79391713D01*
X66264986Y-79436942D01*
X66380905Y-79460000D01*
X66499095Y-79460000D01*
X66615014Y-79436942D01*
X66724207Y-79391713D01*
X66822478Y-79326050D01*
X66906050Y-79242478D01*
X66971713Y-79144207D01*
X67016942Y-79035014D01*
X67040000Y-78919095D01*
X67040000Y-78800905D01*
X67016942Y-78684986D01*
X66971713Y-78575793D01*
X66948402Y-78540905D01*
X71000000Y-78540905D01*
X71000000Y-78659095D01*
X71023058Y-78775014D01*
X71068287Y-78884207D01*
X71133950Y-78982478D01*
X71217522Y-79066050D01*
X71315793Y-79131713D01*
X71424986Y-79176942D01*
X71540905Y-79200000D01*
X71659095Y-79200000D01*
X71775014Y-79176942D01*
X71884207Y-79131713D01*
X71982478Y-79066050D01*
X72066050Y-78982478D01*
X72131713Y-78884207D01*
X72176942Y-78775014D01*
X72200000Y-78659095D01*
X72200000Y-78540905D01*
X72176942Y-78424986D01*
X72131713Y-78315793D01*
X72066050Y-78217522D01*
X71982478Y-78133950D01*
X71884207Y-78068287D01*
X71775014Y-78023058D01*
X71659095Y-78000000D01*
X71540905Y-78000000D01*
X71424986Y-78023058D01*
X71315793Y-78068287D01*
X71217522Y-78133950D01*
X71133950Y-78217522D01*
X71068287Y-78315793D01*
X71023058Y-78424986D01*
X71000000Y-78540905D01*
X66948402Y-78540905D01*
X66906050Y-78477522D01*
X66822478Y-78393950D01*
X66724207Y-78328287D01*
X66615014Y-78283058D01*
X66499095Y-78260000D01*
X66380905Y-78260000D01*
X66264986Y-78283058D01*
X66155793Y-78328287D01*
X66057522Y-78393950D01*
X65973950Y-78477522D01*
X65908287Y-78575793D01*
X65863058Y-78684986D01*
X65840000Y-78800905D01*
X61466968Y-78800905D01*
X61431713Y-78715793D01*
X61366050Y-78617522D01*
X61282478Y-78533950D01*
X61184207Y-78468287D01*
X61075014Y-78423058D01*
X60959095Y-78400000D01*
X60840905Y-78400000D01*
X60724986Y-78423058D01*
X60615793Y-78468287D01*
X60517522Y-78533950D01*
X60433950Y-78617522D01*
X60368287Y-78715793D01*
X60323058Y-78824986D01*
X60300000Y-78940905D01*
X60276942Y-78824986D01*
X60231713Y-78715793D01*
X60166050Y-78617522D01*
X60082478Y-78533950D01*
X59984207Y-78468287D01*
X59875014Y-78423058D01*
X59759095Y-78400000D01*
X59640905Y-78400000D01*
X59524986Y-78423058D01*
X59415793Y-78468287D01*
X59317522Y-78533950D01*
X59233950Y-78617522D01*
X59168287Y-78715793D01*
X59123058Y-78824986D01*
X59100000Y-78940905D01*
X55928216Y-78940905D01*
X54836697Y-77931915D01*
X54461381Y-77508443D01*
X66398000Y-77508443D01*
X66398000Y-77631557D01*
X66422019Y-77752306D01*
X66469132Y-77866048D01*
X66537531Y-77968414D01*
X66624586Y-78055469D01*
X66726952Y-78123868D01*
X66840694Y-78170981D01*
X66961443Y-78195000D01*
X67084557Y-78195000D01*
X67205306Y-78170981D01*
X67319048Y-78123868D01*
X67421414Y-78055469D01*
X67508469Y-77968414D01*
X67576868Y-77866048D01*
X67623981Y-77752306D01*
X67648000Y-77631557D01*
X67648000Y-77508443D01*
X67623981Y-77387694D01*
X67576868Y-77273952D01*
X67508469Y-77171586D01*
X67421414Y-77084531D01*
X67319048Y-77016132D01*
X67205306Y-76969019D01*
X67084557Y-76945000D01*
X66961443Y-76945000D01*
X66840694Y-76969019D01*
X66726952Y-77016132D01*
X66624586Y-77084531D01*
X66537531Y-77171586D01*
X66469132Y-77273952D01*
X66422019Y-77387694D01*
X66398000Y-77508443D01*
X54461381Y-77508443D01*
X53806138Y-76769128D01*
X52936489Y-75565546D01*
X56143148Y-75565546D01*
X56143148Y-75683736D01*
X56166206Y-75799655D01*
X56211435Y-75908848D01*
X56277098Y-76007119D01*
X56360670Y-76090691D01*
X56458941Y-76156354D01*
X56568134Y-76201583D01*
X56684053Y-76224641D01*
X56802243Y-76224641D01*
X56918162Y-76201583D01*
X57027355Y-76156354D01*
X57125626Y-76090691D01*
X57140872Y-76075445D01*
X57780662Y-76075445D01*
X57780662Y-76193635D01*
X57803720Y-76309554D01*
X57848949Y-76418747D01*
X57914612Y-76517018D01*
X57998184Y-76600590D01*
X58096455Y-76666253D01*
X58205648Y-76711482D01*
X58321567Y-76734540D01*
X58439757Y-76734540D01*
X58555676Y-76711482D01*
X58664869Y-76666253D01*
X58763140Y-76600590D01*
X58829190Y-76534540D01*
X62988855Y-76534540D01*
X63403267Y-76948953D01*
X63415789Y-76964211D01*
X63431047Y-76976733D01*
X63431049Y-76976735D01*
X63476697Y-77014197D01*
X63546185Y-77051340D01*
X63621586Y-77074212D01*
X63700000Y-77081935D01*
X63719646Y-77080000D01*
X65530354Y-77080000D01*
X65550000Y-77081935D01*
X65569646Y-77080000D01*
X65569647Y-77080000D01*
X65628414Y-77074212D01*
X65703814Y-77051340D01*
X65773303Y-77014197D01*
X65834211Y-76964211D01*
X65846737Y-76948948D01*
X66261146Y-76534540D01*
X68328082Y-76534540D01*
X68310000Y-76625445D01*
X68310000Y-76743635D01*
X68333058Y-76859554D01*
X68378287Y-76968747D01*
X68443950Y-77067018D01*
X68527522Y-77150590D01*
X68625793Y-77216253D01*
X68734986Y-77261482D01*
X68850905Y-77284540D01*
X68969095Y-77284540D01*
X69085014Y-77261482D01*
X69194207Y-77216253D01*
X69292478Y-77150590D01*
X69376050Y-77067018D01*
X69441713Y-76968747D01*
X69486942Y-76859554D01*
X69510000Y-76743635D01*
X69510000Y-76625445D01*
X69491918Y-76534540D01*
X71045814Y-76534540D01*
X71065460Y-76536475D01*
X71085106Y-76534540D01*
X71085107Y-76534540D01*
X71143874Y-76528752D01*
X71219274Y-76505880D01*
X71288763Y-76468737D01*
X71349671Y-76418751D01*
X71362197Y-76403488D01*
X72624780Y-75140905D01*
X73680000Y-75140905D01*
X73680000Y-75259095D01*
X73703058Y-75375014D01*
X73748287Y-75484207D01*
X73813950Y-75582478D01*
X73897522Y-75666050D01*
X73995793Y-75731713D01*
X74104986Y-75776942D01*
X74220905Y-75800000D01*
X74339095Y-75800000D01*
X74455014Y-75776942D01*
X74564207Y-75731713D01*
X74662478Y-75666050D01*
X74746050Y-75582478D01*
X74811713Y-75484207D01*
X74856942Y-75375014D01*
X74880000Y-75259095D01*
X74880000Y-75140905D01*
X74856942Y-75024986D01*
X74849488Y-75006989D01*
X75633916Y-75006989D01*
X75633916Y-75125179D01*
X75656974Y-75241098D01*
X75702203Y-75350291D01*
X75767866Y-75448562D01*
X75851438Y-75532134D01*
X75949709Y-75597797D01*
X76058902Y-75643026D01*
X76174821Y-75666084D01*
X76287554Y-75666084D01*
X76276360Y-75722361D01*
X76276360Y-75840551D01*
X76299418Y-75956470D01*
X76344647Y-76065663D01*
X76410310Y-76163934D01*
X76493882Y-76247506D01*
X76592153Y-76313169D01*
X76622608Y-76325784D01*
X76601877Y-76334371D01*
X76503606Y-76400034D01*
X76420034Y-76483606D01*
X76354371Y-76581877D01*
X76309142Y-76691070D01*
X76286084Y-76806989D01*
X76286084Y-76925179D01*
X76309142Y-77041098D01*
X76354371Y-77150291D01*
X76420034Y-77248562D01*
X76503606Y-77332134D01*
X76601877Y-77397797D01*
X76711070Y-77443026D01*
X76826989Y-77466084D01*
X76945179Y-77466084D01*
X77061098Y-77443026D01*
X77170291Y-77397797D01*
X77268562Y-77332134D01*
X77352134Y-77248562D01*
X77417797Y-77150291D01*
X77463026Y-77041098D01*
X77486084Y-76925179D01*
X77486084Y-76806989D01*
X77463026Y-76691070D01*
X77417797Y-76581877D01*
X77352134Y-76483606D01*
X77268562Y-76400034D01*
X77170291Y-76334371D01*
X77139836Y-76321756D01*
X77160567Y-76313169D01*
X77258838Y-76247506D01*
X77342410Y-76163934D01*
X77408073Y-76065663D01*
X77453302Y-75956470D01*
X77476360Y-75840551D01*
X77476360Y-75800000D01*
X77559095Y-75800000D01*
X77675014Y-75776942D01*
X77784207Y-75731713D01*
X77882478Y-75666050D01*
X77966050Y-75582478D01*
X78031713Y-75484207D01*
X78076942Y-75375014D01*
X78100000Y-75259095D01*
X78100000Y-75140905D01*
X78076942Y-75024986D01*
X78031713Y-74915793D01*
X77966050Y-74817522D01*
X77882478Y-74733950D01*
X77784207Y-74668287D01*
X77675014Y-74623058D01*
X77559095Y-74600000D01*
X77440905Y-74600000D01*
X77324986Y-74623058D01*
X77215793Y-74668287D01*
X77117522Y-74733950D01*
X77033950Y-74817522D01*
X76968287Y-74915793D01*
X76923058Y-75024986D01*
X76900000Y-75140905D01*
X76900000Y-75181456D01*
X76822722Y-75181456D01*
X76833916Y-75125179D01*
X76833916Y-75006989D01*
X76810858Y-74891070D01*
X76765629Y-74781877D01*
X76699966Y-74683606D01*
X76616394Y-74600034D01*
X76518123Y-74534371D01*
X76408930Y-74489142D01*
X76293011Y-74466084D01*
X76174821Y-74466084D01*
X76058902Y-74489142D01*
X75949709Y-74534371D01*
X75851438Y-74600034D01*
X75767866Y-74683606D01*
X75702203Y-74781877D01*
X75656974Y-74891070D01*
X75633916Y-75006989D01*
X74849488Y-75006989D01*
X74811713Y-74915793D01*
X74746050Y-74817522D01*
X74662478Y-74733950D01*
X74564207Y-74668287D01*
X74455014Y-74623058D01*
X74339095Y-74600000D01*
X74220905Y-74600000D01*
X74104986Y-74623058D01*
X73995793Y-74668287D01*
X73897522Y-74733950D01*
X73813950Y-74817522D01*
X73748287Y-74915793D01*
X73703058Y-75024986D01*
X73680000Y-75140905D01*
X72624780Y-75140905D01*
X74125685Y-73640000D01*
X74980354Y-73640000D01*
X75000000Y-73641935D01*
X75019646Y-73640000D01*
X75019647Y-73640000D01*
X75078414Y-73634212D01*
X75153814Y-73611340D01*
X75223303Y-73574197D01*
X75284211Y-73524211D01*
X75296737Y-73508948D01*
X76108948Y-72696737D01*
X76124211Y-72684211D01*
X76174197Y-72623303D01*
X76211340Y-72553814D01*
X76234212Y-72478414D01*
X76240000Y-72419647D01*
X76240000Y-72419637D01*
X76241934Y-72400001D01*
X76240000Y-72380365D01*
X76240000Y-72260905D01*
X77600000Y-72260905D01*
X77600000Y-72379095D01*
X77623058Y-72495014D01*
X77668287Y-72604207D01*
X77733950Y-72702478D01*
X77817522Y-72786050D01*
X77915793Y-72851713D01*
X78024986Y-72896942D01*
X78140905Y-72920000D01*
X78259095Y-72920000D01*
X78375014Y-72896942D01*
X78484207Y-72851713D01*
X78582478Y-72786050D01*
X78666050Y-72702478D01*
X78731713Y-72604207D01*
X78776942Y-72495014D01*
X78800000Y-72379095D01*
X78800000Y-72260905D01*
X78776942Y-72144986D01*
X78731713Y-72035793D01*
X78666050Y-71937522D01*
X78582478Y-71853950D01*
X78484207Y-71788287D01*
X78375014Y-71743058D01*
X78259095Y-71720000D01*
X78140905Y-71720000D01*
X78024986Y-71743058D01*
X77915793Y-71788287D01*
X77817522Y-71853950D01*
X77733950Y-71937522D01*
X77668287Y-72035793D01*
X77623058Y-72144986D01*
X77600000Y-72260905D01*
X76240000Y-72260905D01*
X76240000Y-71525685D01*
X77696071Y-70069615D01*
X77713058Y-70155014D01*
X77758287Y-70264207D01*
X77823950Y-70362478D01*
X77907522Y-70446050D01*
X78005793Y-70511713D01*
X78114986Y-70556942D01*
X78230905Y-70580000D01*
X78349095Y-70580000D01*
X78465014Y-70556942D01*
X78574207Y-70511713D01*
X78672478Y-70446050D01*
X78756050Y-70362478D01*
X78821713Y-70264207D01*
X78866942Y-70155014D01*
X78890000Y-70039095D01*
X78890000Y-69920905D01*
X78866942Y-69804986D01*
X78821713Y-69695793D01*
X78756050Y-69597522D01*
X78672478Y-69513950D01*
X78574207Y-69448287D01*
X78465014Y-69403058D01*
X78379731Y-69386094D01*
X78394211Y-69374211D01*
X78444197Y-69313303D01*
X78481340Y-69243814D01*
X78504212Y-69168414D01*
X78510000Y-69109647D01*
X78511935Y-69090000D01*
X78510000Y-69070353D01*
X78510000Y-68798528D01*
X78576050Y-68732478D01*
X78641713Y-68634207D01*
X78686942Y-68525014D01*
X78710000Y-68409095D01*
X78710000Y-68290905D01*
X78686942Y-68174986D01*
X78641713Y-68065793D01*
X78576050Y-67967522D01*
X78492478Y-67883950D01*
X78394207Y-67818287D01*
X78285014Y-67773058D01*
X78169095Y-67750000D01*
X78050905Y-67750000D01*
X77934986Y-67773058D01*
X77825793Y-67818287D01*
X77727522Y-67883950D01*
X77643950Y-67967522D01*
X77578287Y-68065793D01*
X77533058Y-68174986D01*
X77510000Y-68290905D01*
X77510000Y-68409095D01*
X77533058Y-68525014D01*
X77578287Y-68634207D01*
X77643950Y-68732478D01*
X77710001Y-68798529D01*
X77710001Y-68924313D01*
X75571052Y-71063263D01*
X75555789Y-71075789D01*
X75505803Y-71136698D01*
X75468660Y-71206187D01*
X75461922Y-71228401D01*
X75445788Y-71281587D01*
X75438065Y-71360000D01*
X75440000Y-71379647D01*
X75440001Y-72234314D01*
X74834315Y-72840000D01*
X73979647Y-72840000D01*
X73960000Y-72838065D01*
X73940353Y-72840000D01*
X73881586Y-72845788D01*
X73806186Y-72868660D01*
X73736697Y-72905803D01*
X73675789Y-72955789D01*
X73663265Y-72971050D01*
X70899775Y-75734540D01*
X66115106Y-75734540D01*
X66095460Y-75732605D01*
X66017046Y-75740328D01*
X65941645Y-75763200D01*
X65872157Y-75800343D01*
X65826509Y-75837805D01*
X65826507Y-75837807D01*
X65811249Y-75850329D01*
X65798727Y-75865587D01*
X65384315Y-76280000D01*
X63865686Y-76280000D01*
X63451275Y-75865590D01*
X63438751Y-75850329D01*
X63377843Y-75800343D01*
X63308354Y-75763200D01*
X63232954Y-75740328D01*
X63174187Y-75734540D01*
X63174186Y-75734540D01*
X63154540Y-75732605D01*
X63134894Y-75734540D01*
X58829190Y-75734540D01*
X58763140Y-75668490D01*
X58664869Y-75602827D01*
X58555676Y-75557598D01*
X58439757Y-75534540D01*
X58321567Y-75534540D01*
X58205648Y-75557598D01*
X58096455Y-75602827D01*
X57998184Y-75668490D01*
X57914612Y-75752062D01*
X57848949Y-75850333D01*
X57803720Y-75959526D01*
X57780662Y-76075445D01*
X57140872Y-76075445D01*
X57209198Y-76007119D01*
X57274861Y-75908848D01*
X57320090Y-75799655D01*
X57343148Y-75683736D01*
X57343148Y-75565546D01*
X57320090Y-75449627D01*
X57274861Y-75340434D01*
X57209198Y-75242163D01*
X57125626Y-75158591D01*
X57027355Y-75092928D01*
X57022472Y-75090905D01*
X64360000Y-75090905D01*
X64360000Y-75209095D01*
X64383058Y-75325014D01*
X64428287Y-75434207D01*
X64493950Y-75532478D01*
X64577522Y-75616050D01*
X64675793Y-75681713D01*
X64784986Y-75726942D01*
X64900905Y-75750000D01*
X65019095Y-75750000D01*
X65135014Y-75726942D01*
X65244207Y-75681713D01*
X65342478Y-75616050D01*
X65408528Y-75550000D01*
X67680354Y-75550000D01*
X67700000Y-75551935D01*
X67719646Y-75550000D01*
X67719647Y-75550000D01*
X67778414Y-75544212D01*
X67853814Y-75521340D01*
X67923303Y-75484197D01*
X67984211Y-75434211D01*
X67996737Y-75418948D01*
X71026406Y-72389279D01*
X74198917Y-72389277D01*
X74218573Y-72391213D01*
X74296986Y-72383490D01*
X74372387Y-72360617D01*
X74441875Y-72323475D01*
X74483543Y-72289279D01*
X74577667Y-72289279D01*
X74693586Y-72266221D01*
X74802779Y-72220992D01*
X74901050Y-72155329D01*
X74984622Y-72071757D01*
X75050285Y-71973486D01*
X75095514Y-71864293D01*
X75118572Y-71748374D01*
X75118572Y-71630184D01*
X75095514Y-71514265D01*
X75050285Y-71405072D01*
X74984622Y-71306801D01*
X74901050Y-71223229D01*
X74802779Y-71157566D01*
X74693586Y-71112337D01*
X74577667Y-71089279D01*
X74459477Y-71089279D01*
X74343558Y-71112337D01*
X74234365Y-71157566D01*
X74136094Y-71223229D01*
X74052522Y-71306801D01*
X73986859Y-71405072D01*
X73941630Y-71514265D01*
X73926709Y-71589278D01*
X70880378Y-71589280D01*
X70860721Y-71587344D01*
X70782307Y-71595067D01*
X70706907Y-71617939D01*
X70637418Y-71655082D01*
X70591771Y-71692544D01*
X70591768Y-71692547D01*
X70576510Y-71705069D01*
X70563988Y-71720327D01*
X67534315Y-74750000D01*
X65408528Y-74750000D01*
X65342478Y-74683950D01*
X65244207Y-74618287D01*
X65135014Y-74573058D01*
X65019095Y-74550000D01*
X64900905Y-74550000D01*
X64784986Y-74573058D01*
X64675793Y-74618287D01*
X64577522Y-74683950D01*
X64493950Y-74767522D01*
X64428287Y-74865793D01*
X64383058Y-74974986D01*
X64360000Y-75090905D01*
X57022472Y-75090905D01*
X56918162Y-75047699D01*
X56802243Y-75024641D01*
X56684053Y-75024641D01*
X56568134Y-75047699D01*
X56458941Y-75092928D01*
X56360670Y-75158591D01*
X56277098Y-75242163D01*
X56211435Y-75340434D01*
X56166206Y-75449627D01*
X56143148Y-75565546D01*
X52936489Y-75565546D01*
X52896163Y-75509736D01*
X52115765Y-74166180D01*
X51472674Y-72751776D01*
X50973238Y-71280484D01*
X50716052Y-70170905D01*
X50900000Y-70170905D01*
X50900000Y-70289095D01*
X50923058Y-70405014D01*
X50968287Y-70514207D01*
X51033950Y-70612478D01*
X51117522Y-70696050D01*
X51215793Y-70761713D01*
X51324986Y-70806942D01*
X51440905Y-70830000D01*
X51559095Y-70830000D01*
X51675014Y-70806942D01*
X51784207Y-70761713D01*
X51882478Y-70696050D01*
X51966050Y-70612478D01*
X52031713Y-70514207D01*
X52076942Y-70405014D01*
X52100000Y-70289095D01*
X52100000Y-70195685D01*
X52685686Y-69610000D01*
X70529302Y-69610000D01*
X69298400Y-70840903D01*
X69256050Y-70777522D01*
X69172478Y-70693950D01*
X69074207Y-70628287D01*
X68965014Y-70583058D01*
X68849095Y-70560000D01*
X68730905Y-70560000D01*
X68614986Y-70583058D01*
X68505793Y-70628287D01*
X68407522Y-70693950D01*
X68323950Y-70777522D01*
X68258287Y-70875793D01*
X68213058Y-70984986D01*
X68190000Y-71100905D01*
X68190000Y-71219095D01*
X68213058Y-71335014D01*
X68258287Y-71444207D01*
X68323950Y-71542478D01*
X68407522Y-71626050D01*
X68505793Y-71691713D01*
X68614986Y-71736942D01*
X68730905Y-71760000D01*
X68849095Y-71760000D01*
X68868094Y-71756221D01*
X68234315Y-72390000D01*
X67939635Y-72390000D01*
X67919999Y-72388066D01*
X67900363Y-72390000D01*
X67900353Y-72390000D01*
X67841586Y-72395788D01*
X67766186Y-72418660D01*
X67696697Y-72455803D01*
X67696695Y-72455804D01*
X67696696Y-72455804D01*
X67651049Y-72493265D01*
X67651047Y-72493267D01*
X67635789Y-72505789D01*
X67623267Y-72521047D01*
X66822746Y-73321569D01*
X66764986Y-73333058D01*
X66655793Y-73378287D01*
X66557522Y-73443950D01*
X66473950Y-73527522D01*
X66408287Y-73625793D01*
X66363058Y-73734986D01*
X66340000Y-73850905D01*
X66340000Y-73969095D01*
X66363058Y-74085014D01*
X66408287Y-74194207D01*
X66473950Y-74292478D01*
X66557522Y-74376050D01*
X66655793Y-74441713D01*
X66764986Y-74486942D01*
X66880905Y-74510000D01*
X66999095Y-74510000D01*
X67115014Y-74486942D01*
X67224207Y-74441713D01*
X67322478Y-74376050D01*
X67406050Y-74292478D01*
X67471713Y-74194207D01*
X67516942Y-74085014D01*
X67540000Y-73969095D01*
X67540000Y-73850905D01*
X67520884Y-73754802D01*
X68085686Y-73190000D01*
X68380354Y-73190000D01*
X68400000Y-73191935D01*
X68419646Y-73190000D01*
X68419647Y-73190000D01*
X68478414Y-73184212D01*
X68553814Y-73161340D01*
X68623303Y-73124197D01*
X68684211Y-73074211D01*
X68696737Y-73058948D01*
X69823948Y-71931737D01*
X69839211Y-71919211D01*
X69889197Y-71858303D01*
X69926340Y-71788814D01*
X69949212Y-71713414D01*
X69955000Y-71654647D01*
X69956935Y-71635000D01*
X69955000Y-71615353D01*
X69955000Y-71315673D01*
X71005225Y-70265449D01*
X71058414Y-70260210D01*
X71133814Y-70237338D01*
X71203303Y-70200195D01*
X71264211Y-70150209D01*
X71276737Y-70134946D01*
X71481869Y-69929814D01*
X72648909Y-69929814D01*
X72648909Y-70048004D01*
X72671967Y-70163923D01*
X72717196Y-70273116D01*
X72782859Y-70371387D01*
X72866431Y-70454959D01*
X72964702Y-70520622D01*
X73073895Y-70565851D01*
X73189814Y-70588909D01*
X73308004Y-70588909D01*
X73423923Y-70565851D01*
X73533116Y-70520622D01*
X73631387Y-70454959D01*
X73714959Y-70371387D01*
X73780622Y-70273116D01*
X73825851Y-70163923D01*
X73848909Y-70048004D01*
X73848909Y-69954594D01*
X76922598Y-66880905D01*
X77529998Y-66880905D01*
X77529998Y-66999095D01*
X77553056Y-67115014D01*
X77598285Y-67224207D01*
X77663948Y-67322478D01*
X77747520Y-67406050D01*
X77845791Y-67471713D01*
X77954984Y-67516942D01*
X78070903Y-67540000D01*
X78189093Y-67540000D01*
X78305012Y-67516942D01*
X78414205Y-67471713D01*
X78512476Y-67406050D01*
X78596048Y-67322478D01*
X78661711Y-67224207D01*
X78706940Y-67115014D01*
X78729998Y-66999095D01*
X78729998Y-66880905D01*
X78706940Y-66764986D01*
X78661711Y-66655793D01*
X78596048Y-66557522D01*
X78512476Y-66473950D01*
X78414205Y-66408287D01*
X78305012Y-66363058D01*
X78189093Y-66340000D01*
X78070903Y-66340000D01*
X77954984Y-66363058D01*
X77845791Y-66408287D01*
X77747520Y-66473950D01*
X77663948Y-66557522D01*
X77598285Y-66655793D01*
X77553056Y-66764986D01*
X77529998Y-66880905D01*
X76922598Y-66880905D01*
X79178953Y-64624551D01*
X79194210Y-64612030D01*
X79217367Y-64583814D01*
X79244195Y-64551123D01*
X79244196Y-64551122D01*
X79281339Y-64481633D01*
X79304211Y-64406233D01*
X79309999Y-64347466D01*
X79309999Y-64347456D01*
X79311933Y-64327820D01*
X79309999Y-64308184D01*
X79309999Y-61619646D01*
X79311934Y-61599999D01*
X79304211Y-61521585D01*
X79281339Y-61446185D01*
X79244196Y-61376696D01*
X79210000Y-61335029D01*
X79210000Y-61240905D01*
X79186942Y-61124986D01*
X79141713Y-61015793D01*
X79076050Y-60917522D01*
X78992478Y-60833950D01*
X78894207Y-60768287D01*
X78785014Y-60723058D01*
X78669095Y-60700000D01*
X78550905Y-60700000D01*
X78434986Y-60723058D01*
X78325793Y-60768287D01*
X78227522Y-60833950D01*
X78143950Y-60917522D01*
X78078287Y-61015793D01*
X78033058Y-61124986D01*
X78010000Y-61240905D01*
X78010000Y-61359095D01*
X78033058Y-61475014D01*
X78078287Y-61584207D01*
X78143950Y-61682478D01*
X78227522Y-61766050D01*
X78325793Y-61831713D01*
X78434986Y-61876942D01*
X78510000Y-61891863D01*
X78509999Y-64162133D01*
X73283224Y-69388909D01*
X73189814Y-69388909D01*
X73073895Y-69411967D01*
X72964702Y-69457196D01*
X72866431Y-69522859D01*
X72782859Y-69606431D01*
X72717196Y-69704702D01*
X72671967Y-69813895D01*
X72648909Y-69929814D01*
X71481869Y-69929814D01*
X72768050Y-68643634D01*
X72768287Y-68644207D01*
X72833950Y-68742478D01*
X72917522Y-68826050D01*
X73015793Y-68891713D01*
X73124986Y-68936942D01*
X73240905Y-68960000D01*
X73359095Y-68960000D01*
X73475014Y-68936942D01*
X73584207Y-68891713D01*
X73682478Y-68826050D01*
X73766050Y-68742478D01*
X73831713Y-68644207D01*
X73876942Y-68535014D01*
X73900000Y-68419095D01*
X73900000Y-68300905D01*
X73876942Y-68184986D01*
X73831713Y-68075793D01*
X73766050Y-67977522D01*
X73719406Y-67930878D01*
X73783814Y-67911340D01*
X73853303Y-67874197D01*
X73914211Y-67824211D01*
X73926737Y-67808948D01*
X74238948Y-67496737D01*
X74254211Y-67484211D01*
X74304197Y-67423303D01*
X74341340Y-67353814D01*
X74364212Y-67278414D01*
X74370000Y-67219647D01*
X74371935Y-67200000D01*
X74370000Y-67180353D01*
X74370000Y-66069647D01*
X74371935Y-66050000D01*
X74367011Y-66000000D01*
X74364212Y-65971586D01*
X74341340Y-65896186D01*
X74304197Y-65826697D01*
X74277322Y-65793950D01*
X74266735Y-65781049D01*
X74266733Y-65781047D01*
X74254211Y-65765789D01*
X74238954Y-65753268D01*
X73920000Y-65434315D01*
X73920000Y-65359985D01*
X75506791Y-65359985D01*
X75506791Y-65478175D01*
X75529849Y-65594094D01*
X75575078Y-65703287D01*
X75640741Y-65801558D01*
X75724313Y-65885130D01*
X75822584Y-65950793D01*
X75931777Y-65996022D01*
X76047696Y-66019080D01*
X76165886Y-66019080D01*
X76281805Y-65996022D01*
X76390998Y-65950793D01*
X76489269Y-65885130D01*
X76572841Y-65801558D01*
X76638504Y-65703287D01*
X76683733Y-65594094D01*
X76706791Y-65478175D01*
X76706791Y-65359985D01*
X76683733Y-65244066D01*
X76638504Y-65134873D01*
X76572841Y-65036602D01*
X76489269Y-64953030D01*
X76390998Y-64887367D01*
X76281805Y-64842138D01*
X76165886Y-64819080D01*
X76047696Y-64819080D01*
X75931777Y-64842138D01*
X75822584Y-64887367D01*
X75724313Y-64953030D01*
X75640741Y-65036602D01*
X75575078Y-65134873D01*
X75529849Y-65244066D01*
X75506791Y-65359985D01*
X73920000Y-65359985D01*
X73920000Y-65340905D01*
X73896942Y-65224986D01*
X73851713Y-65115793D01*
X73786050Y-65017522D01*
X73702478Y-64933950D01*
X73604207Y-64868287D01*
X73495014Y-64823058D01*
X73379095Y-64800000D01*
X73260905Y-64800000D01*
X73144986Y-64823058D01*
X73035793Y-64868287D01*
X72937522Y-64933950D01*
X72853950Y-65017522D01*
X72788287Y-65115793D01*
X72743058Y-65224986D01*
X72720000Y-65340905D01*
X72720000Y-65459095D01*
X72743058Y-65575014D01*
X72788287Y-65684207D01*
X72853950Y-65782478D01*
X72937522Y-65866050D01*
X73035793Y-65931713D01*
X73144986Y-65976942D01*
X73260905Y-66000000D01*
X73354315Y-66000000D01*
X73570000Y-66215686D01*
X73570000Y-66344118D01*
X73495014Y-66313058D01*
X73379095Y-66290000D01*
X73260905Y-66290000D01*
X73144986Y-66313058D01*
X73035793Y-66358287D01*
X72937522Y-66423950D01*
X72853950Y-66507522D01*
X72788287Y-66605793D01*
X72743058Y-66714986D01*
X72720000Y-66830905D01*
X72720000Y-66924315D01*
X70834315Y-68810000D01*
X52539647Y-68810000D01*
X52520000Y-68808065D01*
X52441586Y-68815788D01*
X52366186Y-68838660D01*
X52296697Y-68875803D01*
X52251049Y-68913265D01*
X52251047Y-68913267D01*
X52235789Y-68925789D01*
X52223267Y-68941047D01*
X51534315Y-69630000D01*
X51440905Y-69630000D01*
X51324986Y-69653058D01*
X51215793Y-69698287D01*
X51117522Y-69763950D01*
X51033950Y-69847522D01*
X50968287Y-69945793D01*
X50923058Y-70054986D01*
X50900000Y-70170905D01*
X50716052Y-70170905D01*
X50622401Y-69766868D01*
X50423631Y-68225889D01*
X50386958Y-66952760D01*
X69079986Y-66952760D01*
X69079986Y-67070950D01*
X69103044Y-67186869D01*
X69148273Y-67296062D01*
X69213936Y-67394333D01*
X69297508Y-67477905D01*
X69395779Y-67543568D01*
X69504972Y-67588797D01*
X69620891Y-67611855D01*
X69739081Y-67611855D01*
X69855000Y-67588797D01*
X69964193Y-67543568D01*
X70062464Y-67477905D01*
X70146036Y-67394333D01*
X70211699Y-67296062D01*
X70256928Y-67186869D01*
X70279986Y-67070950D01*
X70279986Y-66952760D01*
X70256928Y-66836841D01*
X70211699Y-66727648D01*
X70187338Y-66691190D01*
X70236050Y-66642478D01*
X70301713Y-66544207D01*
X70346942Y-66435014D01*
X70370000Y-66319095D01*
X70370000Y-66200905D01*
X70346942Y-66084986D01*
X70301713Y-65975793D01*
X70236050Y-65877522D01*
X70152478Y-65793950D01*
X70054207Y-65728287D01*
X69945014Y-65683058D01*
X69829095Y-65660000D01*
X69710905Y-65660000D01*
X69594986Y-65683058D01*
X69485793Y-65728287D01*
X69387522Y-65793950D01*
X69303950Y-65877522D01*
X69238287Y-65975793D01*
X69193058Y-66084986D01*
X69170000Y-66200905D01*
X69170000Y-66319095D01*
X69193058Y-66435014D01*
X69238287Y-66544207D01*
X69262648Y-66580665D01*
X69213936Y-66629377D01*
X69148273Y-66727648D01*
X69103044Y-66836841D01*
X69079986Y-66952760D01*
X50386958Y-66952760D01*
X50378892Y-66672784D01*
X50488629Y-65122918D01*
X50751752Y-63591620D01*
X51165668Y-62094015D01*
X51364175Y-61580905D01*
X52020000Y-61580905D01*
X52020000Y-61699095D01*
X52043058Y-61815014D01*
X52088287Y-61924207D01*
X52153950Y-62022478D01*
X52237522Y-62106050D01*
X52335793Y-62171713D01*
X52444986Y-62216942D01*
X52560905Y-62240000D01*
X52654315Y-62240000D01*
X53633267Y-63218953D01*
X53645789Y-63234211D01*
X53661047Y-63246733D01*
X53661049Y-63246735D01*
X53706697Y-63284197D01*
X53776186Y-63321340D01*
X53851586Y-63344212D01*
X53930000Y-63351935D01*
X53949647Y-63350000D01*
X70284315Y-63350000D01*
X70231052Y-63403263D01*
X70215789Y-63415789D01*
X70165803Y-63476698D01*
X70128660Y-63546187D01*
X70120462Y-63573214D01*
X70105788Y-63621587D01*
X70098065Y-63700000D01*
X70100000Y-63719647D01*
X70100000Y-63981472D01*
X70033950Y-64047522D01*
X69968287Y-64145793D01*
X69923058Y-64254986D01*
X69900000Y-64370905D01*
X69900000Y-64489095D01*
X69909879Y-64538759D01*
X69894207Y-64528287D01*
X69785014Y-64483058D01*
X69669095Y-64460000D01*
X69550905Y-64460000D01*
X69434986Y-64483058D01*
X69325793Y-64528287D01*
X69227522Y-64593950D01*
X69143950Y-64677522D01*
X69078287Y-64775793D01*
X69033058Y-64884986D01*
X69010000Y-65000905D01*
X69010000Y-65119095D01*
X69033058Y-65235014D01*
X69078287Y-65344207D01*
X69143950Y-65442478D01*
X69227522Y-65526050D01*
X69325793Y-65591713D01*
X69434986Y-65636942D01*
X69550905Y-65660000D01*
X69669095Y-65660000D01*
X69785014Y-65636942D01*
X69894207Y-65591713D01*
X69992478Y-65526050D01*
X70058528Y-65460000D01*
X71884618Y-65460000D01*
X71904264Y-65461935D01*
X71923910Y-65460000D01*
X71923911Y-65460000D01*
X71982678Y-65454212D01*
X72058078Y-65431340D01*
X72127567Y-65394197D01*
X72188475Y-65344211D01*
X72201001Y-65328948D01*
X75259044Y-62270905D01*
X77260000Y-62270905D01*
X77260000Y-62389095D01*
X77283058Y-62505014D01*
X77328287Y-62614207D01*
X77393950Y-62712478D01*
X77477522Y-62796050D01*
X77575793Y-62861713D01*
X77684986Y-62906942D01*
X77800905Y-62930000D01*
X77919095Y-62930000D01*
X78035014Y-62906942D01*
X78144207Y-62861713D01*
X78242478Y-62796050D01*
X78326050Y-62712478D01*
X78391713Y-62614207D01*
X78436942Y-62505014D01*
X78460000Y-62389095D01*
X78460000Y-62270905D01*
X78436942Y-62154986D01*
X78391713Y-62045793D01*
X78326050Y-61947522D01*
X78242478Y-61863950D01*
X78144207Y-61798287D01*
X78035014Y-61753058D01*
X77919095Y-61730000D01*
X77800905Y-61730000D01*
X77684986Y-61753058D01*
X77575793Y-61798287D01*
X77477522Y-61863950D01*
X77393950Y-61947522D01*
X77328287Y-62045793D01*
X77283058Y-62154986D01*
X77260000Y-62270905D01*
X75259044Y-62270905D01*
X77688949Y-59841000D01*
X77704211Y-59828475D01*
X77754197Y-59767567D01*
X77791340Y-59698078D01*
X77814212Y-59622678D01*
X77820000Y-59563911D01*
X77820000Y-59563910D01*
X77821935Y-59544264D01*
X77820000Y-59524617D01*
X77820000Y-58518528D01*
X77886050Y-58452478D01*
X77951713Y-58354207D01*
X77996942Y-58245014D01*
X78020000Y-58129095D01*
X78020000Y-58065685D01*
X79053267Y-59098953D01*
X79065789Y-59114211D01*
X79081047Y-59126733D01*
X79081049Y-59126735D01*
X79092542Y-59136167D01*
X79126697Y-59164197D01*
X79196186Y-59201340D01*
X79271586Y-59224212D01*
X79330353Y-59230000D01*
X79330363Y-59230000D01*
X79342686Y-59231214D01*
X79407522Y-59296050D01*
X79505793Y-59361713D01*
X79614986Y-59406942D01*
X79730905Y-59430000D01*
X79849095Y-59430000D01*
X79965014Y-59406942D01*
X80074207Y-59361713D01*
X80172478Y-59296050D01*
X80256050Y-59212478D01*
X80321713Y-59114207D01*
X80366942Y-59005014D01*
X80390000Y-58889095D01*
X80390000Y-58770905D01*
X80366942Y-58654986D01*
X80321713Y-58545793D01*
X80256050Y-58447522D01*
X80172478Y-58363950D01*
X80074207Y-58298287D01*
X79965014Y-58253058D01*
X79849095Y-58230000D01*
X79730905Y-58230000D01*
X79614986Y-58253058D01*
X79505793Y-58298287D01*
X79432767Y-58347081D01*
X77786737Y-56701052D01*
X77774211Y-56685789D01*
X77713303Y-56635803D01*
X77643814Y-56598660D01*
X77568414Y-56575788D01*
X77509647Y-56570000D01*
X77509646Y-56570000D01*
X77490000Y-56568065D01*
X77470354Y-56570000D01*
X77395686Y-56570000D01*
X77046762Y-56221077D01*
X77034236Y-56205814D01*
X76973328Y-56155828D01*
X76903839Y-56118685D01*
X76828439Y-56095813D01*
X76769672Y-56090025D01*
X76769671Y-56090025D01*
X76750025Y-56088090D01*
X76730379Y-56090025D01*
X71118503Y-56090025D01*
X71052453Y-56023975D01*
X70954182Y-55958312D01*
X70844989Y-55913083D01*
X70729070Y-55890025D01*
X70610880Y-55890025D01*
X70494961Y-55913083D01*
X70385768Y-55958312D01*
X70287497Y-56023975D01*
X70203925Y-56107547D01*
X70138262Y-56205818D01*
X70093033Y-56315011D01*
X70069975Y-56430930D01*
X70069975Y-56549120D01*
X70093033Y-56665039D01*
X70138262Y-56774232D01*
X70203925Y-56872503D01*
X70287497Y-56956075D01*
X70385768Y-57021738D01*
X70494961Y-57066967D01*
X70610880Y-57090025D01*
X70729070Y-57090025D01*
X70844989Y-57066967D01*
X70954182Y-57021738D01*
X71052453Y-56956075D01*
X71118503Y-56890025D01*
X72223260Y-56890025D01*
X72157522Y-56933950D01*
X72073950Y-57017522D01*
X72008287Y-57115793D01*
X71963058Y-57224986D01*
X71940000Y-57340905D01*
X71940000Y-57459095D01*
X71963058Y-57575014D01*
X72008287Y-57684207D01*
X72073950Y-57782478D01*
X72157522Y-57866050D01*
X72168434Y-57873341D01*
X72167522Y-57873950D01*
X72083950Y-57957522D01*
X72018287Y-58055793D01*
X71973058Y-58164986D01*
X71950000Y-58280905D01*
X71950000Y-58399095D01*
X71973058Y-58515014D01*
X72018287Y-58624207D01*
X72083950Y-58722478D01*
X72167522Y-58806050D01*
X72265793Y-58871713D01*
X72374986Y-58916942D01*
X72490905Y-58940000D01*
X72609095Y-58940000D01*
X72725014Y-58916942D01*
X72731643Y-58914196D01*
X72783950Y-58992478D01*
X72867522Y-59076050D01*
X72965793Y-59141713D01*
X73074986Y-59186942D01*
X73190905Y-59210000D01*
X73309095Y-59210000D01*
X73425014Y-59186942D01*
X73534207Y-59141713D01*
X73632478Y-59076050D01*
X73716050Y-58992478D01*
X73781713Y-58894207D01*
X73826942Y-58785014D01*
X73850000Y-58669095D01*
X73850000Y-58550905D01*
X73826942Y-58434986D01*
X73781713Y-58325793D01*
X73716050Y-58227522D01*
X73632478Y-58143950D01*
X73534207Y-58078287D01*
X73425014Y-58033058D01*
X73309095Y-58010000D01*
X73190905Y-58010000D01*
X73074986Y-58033058D01*
X73068357Y-58035804D01*
X73016050Y-57957522D01*
X72932478Y-57873950D01*
X72921566Y-57866659D01*
X72922478Y-57866050D01*
X73006050Y-57782478D01*
X73071713Y-57684207D01*
X73116942Y-57575014D01*
X73140000Y-57459095D01*
X73140000Y-57340905D01*
X73116942Y-57224986D01*
X73071713Y-57115793D01*
X73006050Y-57017522D01*
X72922478Y-56933950D01*
X72856740Y-56890025D01*
X76584340Y-56890025D01*
X76664315Y-56970000D01*
X71084315Y-62550000D01*
X54095686Y-62550000D01*
X53220000Y-61674315D01*
X53220000Y-61580905D01*
X53196942Y-61464986D01*
X53151713Y-61355793D01*
X53086050Y-61257522D01*
X53002478Y-61173950D01*
X52904207Y-61108287D01*
X52795014Y-61063058D01*
X52679095Y-61040000D01*
X52560905Y-61040000D01*
X52444986Y-61063058D01*
X52335793Y-61108287D01*
X52237522Y-61173950D01*
X52153950Y-61257522D01*
X52088287Y-61355793D01*
X52043058Y-61464986D01*
X52020000Y-61580905D01*
X51364175Y-61580905D01*
X51726278Y-60644926D01*
X52153548Y-59800905D01*
X68190000Y-59800905D01*
X68190000Y-59919095D01*
X68213058Y-60035014D01*
X68258287Y-60144207D01*
X68323950Y-60242478D01*
X68407522Y-60326050D01*
X68505793Y-60391713D01*
X68614986Y-60436942D01*
X68730905Y-60460000D01*
X68849095Y-60460000D01*
X68965014Y-60436942D01*
X69074207Y-60391713D01*
X69172478Y-60326050D01*
X69256050Y-60242478D01*
X69321713Y-60144207D01*
X69366942Y-60035014D01*
X69390000Y-59919095D01*
X69390000Y-59800905D01*
X69366942Y-59684986D01*
X69321713Y-59575793D01*
X69256050Y-59477522D01*
X69172478Y-59393950D01*
X69074207Y-59328287D01*
X68965014Y-59283058D01*
X68849095Y-59260000D01*
X68730905Y-59260000D01*
X68614986Y-59283058D01*
X68505793Y-59328287D01*
X68407522Y-59393950D01*
X68323950Y-59477522D01*
X68258287Y-59575793D01*
X68213058Y-59684986D01*
X68190000Y-59800905D01*
X52153548Y-59800905D01*
X52428036Y-59258688D01*
X53264007Y-57949000D01*
X53309805Y-57890905D01*
X65130000Y-57890905D01*
X65130000Y-58009095D01*
X65153058Y-58125014D01*
X65198287Y-58234207D01*
X65263950Y-58332478D01*
X65347522Y-58416050D01*
X65445793Y-58481713D01*
X65554986Y-58526942D01*
X65670905Y-58550000D01*
X65789095Y-58550000D01*
X65905014Y-58526942D01*
X66014207Y-58481713D01*
X66112478Y-58416050D01*
X66196050Y-58332478D01*
X66261713Y-58234207D01*
X66306942Y-58125014D01*
X66330000Y-58009095D01*
X66330000Y-57890905D01*
X66306942Y-57774986D01*
X66261713Y-57665793D01*
X66196050Y-57567522D01*
X66112478Y-57483950D01*
X66014207Y-57418287D01*
X65905014Y-57373058D01*
X65789095Y-57350000D01*
X65670905Y-57350000D01*
X65554986Y-57373058D01*
X65445793Y-57418287D01*
X65347522Y-57483950D01*
X65263950Y-57567522D01*
X65198287Y-57665793D01*
X65153058Y-57774986D01*
X65130000Y-57890905D01*
X53309805Y-57890905D01*
X54225922Y-56728817D01*
X55120431Y-55800905D01*
X65770000Y-55800905D01*
X65770000Y-55919095D01*
X65793058Y-56035014D01*
X65838287Y-56144207D01*
X65903950Y-56242478D01*
X65987522Y-56326050D01*
X66085793Y-56391713D01*
X66194986Y-56436942D01*
X66310905Y-56460000D01*
X66429095Y-56460000D01*
X66545014Y-56436942D01*
X66654207Y-56391713D01*
X66752478Y-56326050D01*
X66836050Y-56242478D01*
X66901713Y-56144207D01*
X66946942Y-56035014D01*
X66970000Y-55919095D01*
X66970000Y-55800905D01*
X66946942Y-55684986D01*
X66901713Y-55575793D01*
X66836050Y-55477522D01*
X66752478Y-55393950D01*
X66654207Y-55328287D01*
X66545014Y-55283058D01*
X66429095Y-55260000D01*
X66310905Y-55260000D01*
X66194986Y-55283058D01*
X66085793Y-55328287D01*
X65987522Y-55393950D01*
X65903950Y-55477522D01*
X65838287Y-55575793D01*
X65793058Y-55684986D01*
X65770000Y-55800905D01*
X55120431Y-55800905D01*
X55304266Y-55610206D01*
X56209792Y-54840905D01*
X59000000Y-54840905D01*
X59000000Y-54959095D01*
X59023058Y-55075014D01*
X59068287Y-55184207D01*
X59133950Y-55282478D01*
X59217522Y-55366050D01*
X59315793Y-55431713D01*
X59424986Y-55476942D01*
X59540905Y-55500000D01*
X59659095Y-55500000D01*
X59775014Y-55476942D01*
X59884207Y-55431713D01*
X59982478Y-55366050D01*
X60066050Y-55282478D01*
X60131713Y-55184207D01*
X60176942Y-55075014D01*
X60200000Y-54959095D01*
X60223058Y-55075014D01*
X60268287Y-55184207D01*
X60333950Y-55282478D01*
X60417522Y-55366050D01*
X60515793Y-55431713D01*
X60624986Y-55476942D01*
X60740905Y-55500000D01*
X60859095Y-55500000D01*
X60975014Y-55476942D01*
X61084207Y-55431713D01*
X61182478Y-55366050D01*
X61266050Y-55282478D01*
X61331713Y-55184207D01*
X61376942Y-55075014D01*
X61400000Y-54959095D01*
X61400000Y-54840905D01*
X61376942Y-54724986D01*
X61331713Y-54615793D01*
X61266050Y-54517522D01*
X61182478Y-54433950D01*
X61084207Y-54368287D01*
X60975014Y-54323058D01*
X60859095Y-54300000D01*
X60740905Y-54300000D01*
X60624986Y-54323058D01*
X60515793Y-54368287D01*
X60417522Y-54433950D01*
X60333950Y-54517522D01*
X60268287Y-54615793D01*
X60223058Y-54724986D01*
X60200000Y-54840905D01*
X60176942Y-54724986D01*
X60131713Y-54615793D01*
X60066050Y-54517522D01*
X59982478Y-54433950D01*
X59884207Y-54368287D01*
X59775014Y-54323058D01*
X59659095Y-54300000D01*
X59540905Y-54300000D01*
X59424986Y-54323058D01*
X59315793Y-54368287D01*
X59217522Y-54433950D01*
X59133950Y-54517522D01*
X59068287Y-54615793D01*
X59023058Y-54724986D01*
X59000000Y-54840905D01*
X56209792Y-54840905D01*
X56488388Y-54604221D01*
X57766561Y-53720821D01*
X59126151Y-52968738D01*
X60553728Y-52355402D01*
X61677499Y-52000000D01*
X63673428Y-52000000D01*
X63675001Y-52015971D01*
X63675000Y-53484039D01*
X63673428Y-53500000D01*
X63679703Y-53563711D01*
X63698287Y-53624974D01*
X63728465Y-53681434D01*
X63746332Y-53703204D01*
X63769079Y-53730921D01*
X63818566Y-53771535D01*
X63875026Y-53801713D01*
X63936289Y-53820297D01*
X64000000Y-53826572D01*
X64015960Y-53825000D01*
X73984040Y-53825000D01*
X74000000Y-53826572D01*
X74063711Y-53820297D01*
X74124974Y-53801713D01*
X74181434Y-53771535D01*
X74230921Y-53730921D01*
X74271535Y-53681434D01*
X74301713Y-53624974D01*
X74320297Y-53563711D01*
X74325000Y-53515961D01*
X74325000Y-53515960D01*
X74326572Y-53500000D01*
X74325000Y-53484039D01*
X74325000Y-52015961D01*
X74326572Y-52000000D01*
X74320297Y-51936289D01*
X74301713Y-51875026D01*
X74271535Y-51818566D01*
X74230921Y-51769079D01*
X74181434Y-51728465D01*
X74124974Y-51698287D01*
X74063711Y-51679703D01*
X74015961Y-51675000D01*
X74015960Y-51675000D01*
X74000000Y-51673428D01*
X73984039Y-51675000D01*
X64015961Y-51675000D01*
X64000000Y-51673428D01*
X63984040Y-51675000D01*
X63984039Y-51675000D01*
X63936289Y-51679703D01*
X63875026Y-51698287D01*
X63818566Y-51728465D01*
X63769079Y-51769079D01*
X63728465Y-51818566D01*
X63698287Y-51875026D01*
X63679703Y-51936289D01*
X63673428Y-52000000D01*
X61677499Y-52000000D01*
X62035147Y-51886891D01*
X63555780Y-51567829D01*
X65104498Y-51400952D01*
X66005417Y-51375000D01*
X71990674Y-51375000D01*
X73551828Y-51452719D01*
G04 #@! TA.AperFunction,Conductor*
D13*
G36*
X73551828Y-51452719D02*
G01*
X75088296Y-51683716D01*
X76594235Y-52066176D01*
X78054753Y-52596318D01*
X79455386Y-53268892D01*
X80782293Y-54077251D01*
X81137544Y-54345439D01*
X81174916Y-75672288D01*
X81143351Y-75651197D01*
X80997760Y-75590891D01*
X80843202Y-75560148D01*
X80685616Y-75560148D01*
X80531058Y-75590891D01*
X80385467Y-75651197D01*
X80254439Y-75738747D01*
X80143008Y-75850178D01*
X80055458Y-75981206D01*
X79995152Y-76126797D01*
X79969539Y-76255562D01*
X79897908Y-76225891D01*
X79743350Y-76195148D01*
X79585764Y-76195148D01*
X79431206Y-76225891D01*
X79285615Y-76286197D01*
X79154587Y-76373747D01*
X79043156Y-76485178D01*
X78955606Y-76616206D01*
X78895300Y-76761797D01*
X78869687Y-76890562D01*
X78798056Y-76860891D01*
X78643498Y-76830148D01*
X78485912Y-76830148D01*
X78331354Y-76860891D01*
X78185763Y-76921197D01*
X78054735Y-77008747D01*
X77943304Y-77120178D01*
X77855754Y-77251206D01*
X77795448Y-77396797D01*
X77769835Y-77525562D01*
X77698203Y-77495891D01*
X77543645Y-77465148D01*
X77386059Y-77465148D01*
X77231501Y-77495891D01*
X77085910Y-77556197D01*
X76954882Y-77643747D01*
X76843451Y-77755178D01*
X76755901Y-77886206D01*
X76695595Y-78031797D01*
X76669982Y-78160562D01*
X76598351Y-78130891D01*
X76443793Y-78100148D01*
X76286207Y-78100148D01*
X76131649Y-78130891D01*
X75986058Y-78191197D01*
X75855030Y-78278747D01*
X75743599Y-78390178D01*
X75656049Y-78521206D01*
X75595743Y-78666797D01*
X75565000Y-78821355D01*
X75565000Y-78978941D01*
X75595743Y-79133499D01*
X75656049Y-79279090D01*
X75743599Y-79410118D01*
X75855030Y-79521549D01*
X75986058Y-79609099D01*
X76071087Y-79644319D01*
X76046624Y-79683659D01*
X76025808Y-79738966D01*
X76016181Y-79797271D01*
X76018115Y-79856334D01*
X76031534Y-79913885D01*
X76055923Y-79967712D01*
X76555923Y-80833738D01*
X76590344Y-80881773D01*
X76633475Y-80922170D01*
X76683659Y-80953376D01*
X76738966Y-80974192D01*
X76797271Y-80983819D01*
X76856334Y-80981885D01*
X76913885Y-80968466D01*
X76967712Y-80944077D01*
X77833738Y-80444077D01*
X77881773Y-80409656D01*
X77922170Y-80366525D01*
X77953376Y-80316341D01*
X77974192Y-80261034D01*
X77983819Y-80202729D01*
X77982178Y-80152626D01*
X78041132Y-80162845D01*
X78197912Y-80158970D01*
X78350924Y-80124583D01*
X78363067Y-80120459D01*
X78440486Y-80004995D01*
X78090701Y-79399151D01*
X78073381Y-79409151D01*
X78053175Y-79374151D01*
X78134003Y-79374151D01*
X78483787Y-79979995D01*
X78622491Y-79970680D01*
X78632134Y-79962226D01*
X78738420Y-79846908D01*
X78820166Y-79713070D01*
X78874230Y-79565856D01*
X78890217Y-79463952D01*
X78986462Y-79501059D01*
X79140985Y-79527845D01*
X79297765Y-79523970D01*
X79450777Y-79489583D01*
X79462920Y-79485459D01*
X79540339Y-79369995D01*
X79190554Y-78764151D01*
X78646830Y-79078070D01*
X78134003Y-79374151D01*
X78053175Y-79374151D01*
X78048381Y-79365849D01*
X78065701Y-79355849D01*
X78055701Y-79338529D01*
X78099003Y-79313529D01*
X78109003Y-79330849D01*
X78559673Y-79070655D01*
X78622590Y-79034330D01*
X78714884Y-78981044D01*
X79133854Y-78739151D01*
X79233856Y-78739151D01*
X79583640Y-79344995D01*
X79722344Y-79335680D01*
X79731987Y-79327226D01*
X79838273Y-79211908D01*
X79920019Y-79078070D01*
X79974083Y-78930856D01*
X79990070Y-78828952D01*
X80086314Y-78866059D01*
X80240837Y-78892845D01*
X80397617Y-78888970D01*
X80550629Y-78854583D01*
X80562772Y-78850459D01*
X80640191Y-78734995D01*
X80290406Y-78129151D01*
X79684525Y-78478956D01*
X79684525Y-78478957D01*
X79233856Y-78739151D01*
X79133854Y-78739151D01*
X79165554Y-78720849D01*
X79155554Y-78703529D01*
X79198856Y-78678529D01*
X79208856Y-78695849D01*
X79814737Y-78346044D01*
X79814737Y-78346043D01*
X80265406Y-78085849D01*
X80255406Y-78068529D01*
X80298708Y-78043529D01*
X80308708Y-78060849D01*
X80914589Y-77711044D01*
X80914589Y-77711043D01*
X81178222Y-77558834D01*
X81178323Y-77616512D01*
X80784377Y-77843956D01*
X80784377Y-77843957D01*
X80333708Y-78104151D01*
X80683492Y-78709995D01*
X80822196Y-78700680D01*
X80831839Y-78692226D01*
X80938125Y-78576908D01*
X81019871Y-78443070D01*
X81073935Y-78295856D01*
X81089922Y-78193952D01*
X81179395Y-78228449D01*
X81181840Y-79623698D01*
X80233439Y-80279179D01*
X78873849Y-81031262D01*
X77446272Y-81644598D01*
X75964850Y-82113110D01*
X74444220Y-82432171D01*
X72895503Y-82599048D01*
X71994583Y-82625000D01*
X66009326Y-82625000D01*
X64448182Y-82547282D01*
X62911703Y-82316284D01*
X61405747Y-81933819D01*
X59945247Y-81403682D01*
X58544614Y-80731108D01*
X58165255Y-80500000D01*
X63673428Y-80500000D01*
X63675000Y-80515961D01*
X63675001Y-81984029D01*
X63673428Y-82000000D01*
X63679703Y-82063711D01*
X63698287Y-82124974D01*
X63728465Y-82181434D01*
X63769079Y-82230921D01*
X63818566Y-82271535D01*
X63875026Y-82301713D01*
X63936289Y-82320297D01*
X63984039Y-82325000D01*
X63984040Y-82325000D01*
X64000000Y-82326572D01*
X64015961Y-82325000D01*
X73984039Y-82325000D01*
X74000000Y-82326572D01*
X74015960Y-82325000D01*
X74015961Y-82325000D01*
X74063711Y-82320297D01*
X74124974Y-82301713D01*
X74181434Y-82271535D01*
X74230921Y-82230921D01*
X74271535Y-82181434D01*
X74301713Y-82124974D01*
X74320297Y-82063711D01*
X74326572Y-82000000D01*
X74325000Y-81984039D01*
X74325000Y-80515961D01*
X74326572Y-80500000D01*
X74320297Y-80436289D01*
X74301713Y-80375026D01*
X74271535Y-80318566D01*
X74230921Y-80269079D01*
X74181434Y-80228465D01*
X74124974Y-80198287D01*
X74063711Y-80179703D01*
X74015961Y-80175000D01*
X74000000Y-80173428D01*
X73984040Y-80175000D01*
X64015960Y-80175000D01*
X64000000Y-80173428D01*
X63984039Y-80175000D01*
X63936289Y-80179703D01*
X63875026Y-80198287D01*
X63818566Y-80228465D01*
X63769079Y-80269079D01*
X63728465Y-80318566D01*
X63698287Y-80375026D01*
X63679703Y-80436289D01*
X63673428Y-80500000D01*
X58165255Y-80500000D01*
X57217707Y-79922749D01*
X55977647Y-78986599D01*
X55928216Y-78940905D01*
X59100000Y-78940905D01*
X59100000Y-79059095D01*
X59123058Y-79175014D01*
X59168287Y-79284207D01*
X59233950Y-79382478D01*
X59317522Y-79466050D01*
X59415793Y-79531713D01*
X59524986Y-79576942D01*
X59640905Y-79600000D01*
X59759095Y-79600000D01*
X59875014Y-79576942D01*
X59984207Y-79531713D01*
X60082478Y-79466050D01*
X60166050Y-79382478D01*
X60231713Y-79284207D01*
X60276942Y-79175014D01*
X60300000Y-79059095D01*
X60323058Y-79175014D01*
X60368287Y-79284207D01*
X60433950Y-79382478D01*
X60517522Y-79466050D01*
X60615793Y-79531713D01*
X60724986Y-79576942D01*
X60840905Y-79600000D01*
X60959095Y-79600000D01*
X61075014Y-79576942D01*
X61184207Y-79531713D01*
X61282478Y-79466050D01*
X61366050Y-79382478D01*
X61431713Y-79284207D01*
X61476942Y-79175014D01*
X61500000Y-79059095D01*
X61500000Y-78940905D01*
X61476942Y-78824986D01*
X61466968Y-78800905D01*
X65840000Y-78800905D01*
X65840000Y-78919095D01*
X65863058Y-79035014D01*
X65908287Y-79144207D01*
X65973950Y-79242478D01*
X66057522Y-79326050D01*
X66155793Y-79391713D01*
X66264986Y-79436942D01*
X66380905Y-79460000D01*
X66499095Y-79460000D01*
X66615014Y-79436942D01*
X66724207Y-79391713D01*
X66822478Y-79326050D01*
X66906050Y-79242478D01*
X66971713Y-79144207D01*
X67016942Y-79035014D01*
X67040000Y-78919095D01*
X67040000Y-78800905D01*
X67016942Y-78684986D01*
X66971713Y-78575793D01*
X66948402Y-78540905D01*
X71000000Y-78540905D01*
X71000000Y-78659095D01*
X71023058Y-78775014D01*
X71068287Y-78884207D01*
X71133950Y-78982478D01*
X71217522Y-79066050D01*
X71315793Y-79131713D01*
X71424986Y-79176942D01*
X71540905Y-79200000D01*
X71659095Y-79200000D01*
X71775014Y-79176942D01*
X71884207Y-79131713D01*
X71982478Y-79066050D01*
X72066050Y-78982478D01*
X72131713Y-78884207D01*
X72176942Y-78775014D01*
X72200000Y-78659095D01*
X72200000Y-78540905D01*
X72176942Y-78424986D01*
X72131713Y-78315793D01*
X72066050Y-78217522D01*
X71982478Y-78133950D01*
X71884207Y-78068287D01*
X71775014Y-78023058D01*
X71659095Y-78000000D01*
X71540905Y-78000000D01*
X71424986Y-78023058D01*
X71315793Y-78068287D01*
X71217522Y-78133950D01*
X71133950Y-78217522D01*
X71068287Y-78315793D01*
X71023058Y-78424986D01*
X71000000Y-78540905D01*
X66948402Y-78540905D01*
X66906050Y-78477522D01*
X66822478Y-78393950D01*
X66724207Y-78328287D01*
X66615014Y-78283058D01*
X66499095Y-78260000D01*
X66380905Y-78260000D01*
X66264986Y-78283058D01*
X66155793Y-78328287D01*
X66057522Y-78393950D01*
X65973950Y-78477522D01*
X65908287Y-78575793D01*
X65863058Y-78684986D01*
X65840000Y-78800905D01*
X61466968Y-78800905D01*
X61431713Y-78715793D01*
X61366050Y-78617522D01*
X61282478Y-78533950D01*
X61184207Y-78468287D01*
X61075014Y-78423058D01*
X60959095Y-78400000D01*
X60840905Y-78400000D01*
X60724986Y-78423058D01*
X60615793Y-78468287D01*
X60517522Y-78533950D01*
X60433950Y-78617522D01*
X60368287Y-78715793D01*
X60323058Y-78824986D01*
X60300000Y-78940905D01*
X60276942Y-78824986D01*
X60231713Y-78715793D01*
X60166050Y-78617522D01*
X60082478Y-78533950D01*
X59984207Y-78468287D01*
X59875014Y-78423058D01*
X59759095Y-78400000D01*
X59640905Y-78400000D01*
X59524986Y-78423058D01*
X59415793Y-78468287D01*
X59317522Y-78533950D01*
X59233950Y-78617522D01*
X59168287Y-78715793D01*
X59123058Y-78824986D01*
X59100000Y-78940905D01*
X55928216Y-78940905D01*
X54836697Y-77931915D01*
X54461381Y-77508443D01*
X66398000Y-77508443D01*
X66398000Y-77631557D01*
X66422019Y-77752306D01*
X66469132Y-77866048D01*
X66537531Y-77968414D01*
X66624586Y-78055469D01*
X66726952Y-78123868D01*
X66840694Y-78170981D01*
X66961443Y-78195000D01*
X67084557Y-78195000D01*
X67205306Y-78170981D01*
X67319048Y-78123868D01*
X67421414Y-78055469D01*
X67508469Y-77968414D01*
X67576868Y-77866048D01*
X67623981Y-77752306D01*
X67648000Y-77631557D01*
X67648000Y-77508443D01*
X67623981Y-77387694D01*
X67576868Y-77273952D01*
X67508469Y-77171586D01*
X67421414Y-77084531D01*
X67319048Y-77016132D01*
X67205306Y-76969019D01*
X67084557Y-76945000D01*
X66961443Y-76945000D01*
X66840694Y-76969019D01*
X66726952Y-77016132D01*
X66624586Y-77084531D01*
X66537531Y-77171586D01*
X66469132Y-77273952D01*
X66422019Y-77387694D01*
X66398000Y-77508443D01*
X54461381Y-77508443D01*
X53806138Y-76769128D01*
X52936489Y-75565546D01*
X56143148Y-75565546D01*
X56143148Y-75683736D01*
X56166206Y-75799655D01*
X56211435Y-75908848D01*
X56277098Y-76007119D01*
X56360670Y-76090691D01*
X56458941Y-76156354D01*
X56568134Y-76201583D01*
X56684053Y-76224641D01*
X56802243Y-76224641D01*
X56918162Y-76201583D01*
X57027355Y-76156354D01*
X57125626Y-76090691D01*
X57140872Y-76075445D01*
X57780662Y-76075445D01*
X57780662Y-76193635D01*
X57803720Y-76309554D01*
X57848949Y-76418747D01*
X57914612Y-76517018D01*
X57998184Y-76600590D01*
X58096455Y-76666253D01*
X58205648Y-76711482D01*
X58321567Y-76734540D01*
X58439757Y-76734540D01*
X58555676Y-76711482D01*
X58664869Y-76666253D01*
X58763140Y-76600590D01*
X58829190Y-76534540D01*
X62988855Y-76534540D01*
X63403267Y-76948953D01*
X63415789Y-76964211D01*
X63431047Y-76976733D01*
X63431049Y-76976735D01*
X63476697Y-77014197D01*
X63546185Y-77051340D01*
X63621586Y-77074212D01*
X63700000Y-77081935D01*
X63719646Y-77080000D01*
X65530354Y-77080000D01*
X65550000Y-77081935D01*
X65569646Y-77080000D01*
X65569647Y-77080000D01*
X65628414Y-77074212D01*
X65703814Y-77051340D01*
X65773303Y-77014197D01*
X65834211Y-76964211D01*
X65846737Y-76948948D01*
X66261146Y-76534540D01*
X68328082Y-76534540D01*
X68310000Y-76625445D01*
X68310000Y-76743635D01*
X68333058Y-76859554D01*
X68378287Y-76968747D01*
X68443950Y-77067018D01*
X68527522Y-77150590D01*
X68625793Y-77216253D01*
X68734986Y-77261482D01*
X68850905Y-77284540D01*
X68969095Y-77284540D01*
X69085014Y-77261482D01*
X69194207Y-77216253D01*
X69292478Y-77150590D01*
X69376050Y-77067018D01*
X69441713Y-76968747D01*
X69486942Y-76859554D01*
X69510000Y-76743635D01*
X69510000Y-76625445D01*
X69491918Y-76534540D01*
X71045814Y-76534540D01*
X71065460Y-76536475D01*
X71085106Y-76534540D01*
X71085107Y-76534540D01*
X71143874Y-76528752D01*
X71219274Y-76505880D01*
X71288763Y-76468737D01*
X71349671Y-76418751D01*
X71362197Y-76403488D01*
X72624780Y-75140905D01*
X73680000Y-75140905D01*
X73680000Y-75259095D01*
X73703058Y-75375014D01*
X73748287Y-75484207D01*
X73813950Y-75582478D01*
X73897522Y-75666050D01*
X73995793Y-75731713D01*
X74104986Y-75776942D01*
X74220905Y-75800000D01*
X74339095Y-75800000D01*
X74455014Y-75776942D01*
X74564207Y-75731713D01*
X74662478Y-75666050D01*
X74746050Y-75582478D01*
X74811713Y-75484207D01*
X74856942Y-75375014D01*
X74880000Y-75259095D01*
X74880000Y-75140905D01*
X74856942Y-75024986D01*
X74849488Y-75006989D01*
X75633916Y-75006989D01*
X75633916Y-75125179D01*
X75656974Y-75241098D01*
X75702203Y-75350291D01*
X75767866Y-75448562D01*
X75851438Y-75532134D01*
X75949709Y-75597797D01*
X76058902Y-75643026D01*
X76174821Y-75666084D01*
X76287554Y-75666084D01*
X76276360Y-75722361D01*
X76276360Y-75840551D01*
X76299418Y-75956470D01*
X76344647Y-76065663D01*
X76410310Y-76163934D01*
X76493882Y-76247506D01*
X76592153Y-76313169D01*
X76622608Y-76325784D01*
X76601877Y-76334371D01*
X76503606Y-76400034D01*
X76420034Y-76483606D01*
X76354371Y-76581877D01*
X76309142Y-76691070D01*
X76286084Y-76806989D01*
X76286084Y-76925179D01*
X76309142Y-77041098D01*
X76354371Y-77150291D01*
X76420034Y-77248562D01*
X76503606Y-77332134D01*
X76601877Y-77397797D01*
X76711070Y-77443026D01*
X76826989Y-77466084D01*
X76945179Y-77466084D01*
X77061098Y-77443026D01*
X77170291Y-77397797D01*
X77268562Y-77332134D01*
X77352134Y-77248562D01*
X77417797Y-77150291D01*
X77463026Y-77041098D01*
X77486084Y-76925179D01*
X77486084Y-76806989D01*
X77463026Y-76691070D01*
X77417797Y-76581877D01*
X77352134Y-76483606D01*
X77268562Y-76400034D01*
X77170291Y-76334371D01*
X77139836Y-76321756D01*
X77160567Y-76313169D01*
X77258838Y-76247506D01*
X77342410Y-76163934D01*
X77408073Y-76065663D01*
X77453302Y-75956470D01*
X77476360Y-75840551D01*
X77476360Y-75800000D01*
X77559095Y-75800000D01*
X77675014Y-75776942D01*
X77784207Y-75731713D01*
X77882478Y-75666050D01*
X77966050Y-75582478D01*
X78031713Y-75484207D01*
X78076942Y-75375014D01*
X78100000Y-75259095D01*
X78100000Y-75140905D01*
X78076942Y-75024986D01*
X78031713Y-74915793D01*
X77966050Y-74817522D01*
X77882478Y-74733950D01*
X77784207Y-74668287D01*
X77675014Y-74623058D01*
X77559095Y-74600000D01*
X77440905Y-74600000D01*
X77324986Y-74623058D01*
X77215793Y-74668287D01*
X77117522Y-74733950D01*
X77033950Y-74817522D01*
X76968287Y-74915793D01*
X76923058Y-75024986D01*
X76900000Y-75140905D01*
X76900000Y-75181456D01*
X76822722Y-75181456D01*
X76833916Y-75125179D01*
X76833916Y-75006989D01*
X76810858Y-74891070D01*
X76765629Y-74781877D01*
X76699966Y-74683606D01*
X76616394Y-74600034D01*
X76518123Y-74534371D01*
X76408930Y-74489142D01*
X76293011Y-74466084D01*
X76174821Y-74466084D01*
X76058902Y-74489142D01*
X75949709Y-74534371D01*
X75851438Y-74600034D01*
X75767866Y-74683606D01*
X75702203Y-74781877D01*
X75656974Y-74891070D01*
X75633916Y-75006989D01*
X74849488Y-75006989D01*
X74811713Y-74915793D01*
X74746050Y-74817522D01*
X74662478Y-74733950D01*
X74564207Y-74668287D01*
X74455014Y-74623058D01*
X74339095Y-74600000D01*
X74220905Y-74600000D01*
X74104986Y-74623058D01*
X73995793Y-74668287D01*
X73897522Y-74733950D01*
X73813950Y-74817522D01*
X73748287Y-74915793D01*
X73703058Y-75024986D01*
X73680000Y-75140905D01*
X72624780Y-75140905D01*
X74125685Y-73640000D01*
X74980354Y-73640000D01*
X75000000Y-73641935D01*
X75019646Y-73640000D01*
X75019647Y-73640000D01*
X75078414Y-73634212D01*
X75153814Y-73611340D01*
X75223303Y-73574197D01*
X75284211Y-73524211D01*
X75296737Y-73508948D01*
X76108948Y-72696737D01*
X76124211Y-72684211D01*
X76174197Y-72623303D01*
X76211340Y-72553814D01*
X76234212Y-72478414D01*
X76240000Y-72419647D01*
X76240000Y-72419637D01*
X76241934Y-72400001D01*
X76240000Y-72380365D01*
X76240000Y-72260905D01*
X77600000Y-72260905D01*
X77600000Y-72379095D01*
X77623058Y-72495014D01*
X77668287Y-72604207D01*
X77733950Y-72702478D01*
X77817522Y-72786050D01*
X77915793Y-72851713D01*
X78024986Y-72896942D01*
X78140905Y-72920000D01*
X78259095Y-72920000D01*
X78375014Y-72896942D01*
X78484207Y-72851713D01*
X78582478Y-72786050D01*
X78666050Y-72702478D01*
X78731713Y-72604207D01*
X78776942Y-72495014D01*
X78800000Y-72379095D01*
X78800000Y-72260905D01*
X78776942Y-72144986D01*
X78731713Y-72035793D01*
X78666050Y-71937522D01*
X78582478Y-71853950D01*
X78484207Y-71788287D01*
X78375014Y-71743058D01*
X78259095Y-71720000D01*
X78140905Y-71720000D01*
X78024986Y-71743058D01*
X77915793Y-71788287D01*
X77817522Y-71853950D01*
X77733950Y-71937522D01*
X77668287Y-72035793D01*
X77623058Y-72144986D01*
X77600000Y-72260905D01*
X76240000Y-72260905D01*
X76240000Y-71525685D01*
X77696071Y-70069615D01*
X77713058Y-70155014D01*
X77758287Y-70264207D01*
X77823950Y-70362478D01*
X77907522Y-70446050D01*
X78005793Y-70511713D01*
X78114986Y-70556942D01*
X78230905Y-70580000D01*
X78349095Y-70580000D01*
X78465014Y-70556942D01*
X78574207Y-70511713D01*
X78672478Y-70446050D01*
X78756050Y-70362478D01*
X78821713Y-70264207D01*
X78866942Y-70155014D01*
X78890000Y-70039095D01*
X78890000Y-69920905D01*
X78866942Y-69804986D01*
X78821713Y-69695793D01*
X78756050Y-69597522D01*
X78672478Y-69513950D01*
X78574207Y-69448287D01*
X78465014Y-69403058D01*
X78379731Y-69386094D01*
X78394211Y-69374211D01*
X78444197Y-69313303D01*
X78481340Y-69243814D01*
X78504212Y-69168414D01*
X78510000Y-69109647D01*
X78511935Y-69090000D01*
X78510000Y-69070353D01*
X78510000Y-68798528D01*
X78576050Y-68732478D01*
X78641713Y-68634207D01*
X78686942Y-68525014D01*
X78710000Y-68409095D01*
X78710000Y-68290905D01*
X78686942Y-68174986D01*
X78641713Y-68065793D01*
X78576050Y-67967522D01*
X78492478Y-67883950D01*
X78394207Y-67818287D01*
X78285014Y-67773058D01*
X78169095Y-67750000D01*
X78050905Y-67750000D01*
X77934986Y-67773058D01*
X77825793Y-67818287D01*
X77727522Y-67883950D01*
X77643950Y-67967522D01*
X77578287Y-68065793D01*
X77533058Y-68174986D01*
X77510000Y-68290905D01*
X77510000Y-68409095D01*
X77533058Y-68525014D01*
X77578287Y-68634207D01*
X77643950Y-68732478D01*
X77710001Y-68798529D01*
X77710001Y-68924313D01*
X75571052Y-71063263D01*
X75555789Y-71075789D01*
X75505803Y-71136698D01*
X75468660Y-71206187D01*
X75461922Y-71228401D01*
X75445788Y-71281587D01*
X75438065Y-71360000D01*
X75440000Y-71379647D01*
X75440001Y-72234314D01*
X74834315Y-72840000D01*
X73979647Y-72840000D01*
X73960000Y-72838065D01*
X73940353Y-72840000D01*
X73881586Y-72845788D01*
X73806186Y-72868660D01*
X73736697Y-72905803D01*
X73675789Y-72955789D01*
X73663265Y-72971050D01*
X70899775Y-75734540D01*
X66115106Y-75734540D01*
X66095460Y-75732605D01*
X66017046Y-75740328D01*
X65941645Y-75763200D01*
X65872157Y-75800343D01*
X65826509Y-75837805D01*
X65826507Y-75837807D01*
X65811249Y-75850329D01*
X65798727Y-75865587D01*
X65384315Y-76280000D01*
X63865686Y-76280000D01*
X63451275Y-75865590D01*
X63438751Y-75850329D01*
X63377843Y-75800343D01*
X63308354Y-75763200D01*
X63232954Y-75740328D01*
X63174187Y-75734540D01*
X63174186Y-75734540D01*
X63154540Y-75732605D01*
X63134894Y-75734540D01*
X58829190Y-75734540D01*
X58763140Y-75668490D01*
X58664869Y-75602827D01*
X58555676Y-75557598D01*
X58439757Y-75534540D01*
X58321567Y-75534540D01*
X58205648Y-75557598D01*
X58096455Y-75602827D01*
X57998184Y-75668490D01*
X57914612Y-75752062D01*
X57848949Y-75850333D01*
X57803720Y-75959526D01*
X57780662Y-76075445D01*
X57140872Y-76075445D01*
X57209198Y-76007119D01*
X57274861Y-75908848D01*
X57320090Y-75799655D01*
X57343148Y-75683736D01*
X57343148Y-75565546D01*
X57320090Y-75449627D01*
X57274861Y-75340434D01*
X57209198Y-75242163D01*
X57125626Y-75158591D01*
X57027355Y-75092928D01*
X57022472Y-75090905D01*
X64360000Y-75090905D01*
X64360000Y-75209095D01*
X64383058Y-75325014D01*
X64428287Y-75434207D01*
X64493950Y-75532478D01*
X64577522Y-75616050D01*
X64675793Y-75681713D01*
X64784986Y-75726942D01*
X64900905Y-75750000D01*
X65019095Y-75750000D01*
X65135014Y-75726942D01*
X65244207Y-75681713D01*
X65342478Y-75616050D01*
X65408528Y-75550000D01*
X67680354Y-75550000D01*
X67700000Y-75551935D01*
X67719646Y-75550000D01*
X67719647Y-75550000D01*
X67778414Y-75544212D01*
X67853814Y-75521340D01*
X67923303Y-75484197D01*
X67984211Y-75434211D01*
X67996737Y-75418948D01*
X71026406Y-72389279D01*
X74198917Y-72389277D01*
X74218573Y-72391213D01*
X74296986Y-72383490D01*
X74372387Y-72360617D01*
X74441875Y-72323475D01*
X74483543Y-72289279D01*
X74577667Y-72289279D01*
X74693586Y-72266221D01*
X74802779Y-72220992D01*
X74901050Y-72155329D01*
X74984622Y-72071757D01*
X75050285Y-71973486D01*
X75095514Y-71864293D01*
X75118572Y-71748374D01*
X75118572Y-71630184D01*
X75095514Y-71514265D01*
X75050285Y-71405072D01*
X74984622Y-71306801D01*
X74901050Y-71223229D01*
X74802779Y-71157566D01*
X74693586Y-71112337D01*
X74577667Y-71089279D01*
X74459477Y-71089279D01*
X74343558Y-71112337D01*
X74234365Y-71157566D01*
X74136094Y-71223229D01*
X74052522Y-71306801D01*
X73986859Y-71405072D01*
X73941630Y-71514265D01*
X73926709Y-71589278D01*
X70880378Y-71589280D01*
X70860721Y-71587344D01*
X70782307Y-71595067D01*
X70706907Y-71617939D01*
X70637418Y-71655082D01*
X70591771Y-71692544D01*
X70591768Y-71692547D01*
X70576510Y-71705069D01*
X70563988Y-71720327D01*
X67534315Y-74750000D01*
X65408528Y-74750000D01*
X65342478Y-74683950D01*
X65244207Y-74618287D01*
X65135014Y-74573058D01*
X65019095Y-74550000D01*
X64900905Y-74550000D01*
X64784986Y-74573058D01*
X64675793Y-74618287D01*
X64577522Y-74683950D01*
X64493950Y-74767522D01*
X64428287Y-74865793D01*
X64383058Y-74974986D01*
X64360000Y-75090905D01*
X57022472Y-75090905D01*
X56918162Y-75047699D01*
X56802243Y-75024641D01*
X56684053Y-75024641D01*
X56568134Y-75047699D01*
X56458941Y-75092928D01*
X56360670Y-75158591D01*
X56277098Y-75242163D01*
X56211435Y-75340434D01*
X56166206Y-75449627D01*
X56143148Y-75565546D01*
X52936489Y-75565546D01*
X52896163Y-75509736D01*
X52115765Y-74166180D01*
X51472674Y-72751776D01*
X50973238Y-71280484D01*
X50716052Y-70170905D01*
X50900000Y-70170905D01*
X50900000Y-70289095D01*
X50923058Y-70405014D01*
X50968287Y-70514207D01*
X51033950Y-70612478D01*
X51117522Y-70696050D01*
X51215793Y-70761713D01*
X51324986Y-70806942D01*
X51440905Y-70830000D01*
X51559095Y-70830000D01*
X51675014Y-70806942D01*
X51784207Y-70761713D01*
X51882478Y-70696050D01*
X51966050Y-70612478D01*
X52031713Y-70514207D01*
X52076942Y-70405014D01*
X52100000Y-70289095D01*
X52100000Y-70195685D01*
X52685686Y-69610000D01*
X70529302Y-69610000D01*
X69298400Y-70840903D01*
X69256050Y-70777522D01*
X69172478Y-70693950D01*
X69074207Y-70628287D01*
X68965014Y-70583058D01*
X68849095Y-70560000D01*
X68730905Y-70560000D01*
X68614986Y-70583058D01*
X68505793Y-70628287D01*
X68407522Y-70693950D01*
X68323950Y-70777522D01*
X68258287Y-70875793D01*
X68213058Y-70984986D01*
X68190000Y-71100905D01*
X68190000Y-71219095D01*
X68213058Y-71335014D01*
X68258287Y-71444207D01*
X68323950Y-71542478D01*
X68407522Y-71626050D01*
X68505793Y-71691713D01*
X68614986Y-71736942D01*
X68730905Y-71760000D01*
X68849095Y-71760000D01*
X68868094Y-71756221D01*
X68234315Y-72390000D01*
X67939635Y-72390000D01*
X67919999Y-72388066D01*
X67900363Y-72390000D01*
X67900353Y-72390000D01*
X67841586Y-72395788D01*
X67766186Y-72418660D01*
X67696697Y-72455803D01*
X67696695Y-72455804D01*
X67696696Y-72455804D01*
X67651049Y-72493265D01*
X67651047Y-72493267D01*
X67635789Y-72505789D01*
X67623267Y-72521047D01*
X66822746Y-73321569D01*
X66764986Y-73333058D01*
X66655793Y-73378287D01*
X66557522Y-73443950D01*
X66473950Y-73527522D01*
X66408287Y-73625793D01*
X66363058Y-73734986D01*
X66340000Y-73850905D01*
X66340000Y-73969095D01*
X66363058Y-74085014D01*
X66408287Y-74194207D01*
X66473950Y-74292478D01*
X66557522Y-74376050D01*
X66655793Y-74441713D01*
X66764986Y-74486942D01*
X66880905Y-74510000D01*
X66999095Y-74510000D01*
X67115014Y-74486942D01*
X67224207Y-74441713D01*
X67322478Y-74376050D01*
X67406050Y-74292478D01*
X67471713Y-74194207D01*
X67516942Y-74085014D01*
X67540000Y-73969095D01*
X67540000Y-73850905D01*
X67520884Y-73754802D01*
X68085686Y-73190000D01*
X68380354Y-73190000D01*
X68400000Y-73191935D01*
X68419646Y-73190000D01*
X68419647Y-73190000D01*
X68478414Y-73184212D01*
X68553814Y-73161340D01*
X68623303Y-73124197D01*
X68684211Y-73074211D01*
X68696737Y-73058948D01*
X69823948Y-71931737D01*
X69839211Y-71919211D01*
X69889197Y-71858303D01*
X69926340Y-71788814D01*
X69949212Y-71713414D01*
X69955000Y-71654647D01*
X69956935Y-71635000D01*
X69955000Y-71615353D01*
X69955000Y-71315673D01*
X71005225Y-70265449D01*
X71058414Y-70260210D01*
X71133814Y-70237338D01*
X71203303Y-70200195D01*
X71264211Y-70150209D01*
X71276737Y-70134946D01*
X71481869Y-69929814D01*
X72648909Y-69929814D01*
X72648909Y-70048004D01*
X72671967Y-70163923D01*
X72717196Y-70273116D01*
X72782859Y-70371387D01*
X72866431Y-70454959D01*
X72964702Y-70520622D01*
X73073895Y-70565851D01*
X73189814Y-70588909D01*
X73308004Y-70588909D01*
X73423923Y-70565851D01*
X73533116Y-70520622D01*
X73631387Y-70454959D01*
X73714959Y-70371387D01*
X73780622Y-70273116D01*
X73825851Y-70163923D01*
X73848909Y-70048004D01*
X73848909Y-69954594D01*
X76922598Y-66880905D01*
X77529998Y-66880905D01*
X77529998Y-66999095D01*
X77553056Y-67115014D01*
X77598285Y-67224207D01*
X77663948Y-67322478D01*
X77747520Y-67406050D01*
X77845791Y-67471713D01*
X77954984Y-67516942D01*
X78070903Y-67540000D01*
X78189093Y-67540000D01*
X78305012Y-67516942D01*
X78414205Y-67471713D01*
X78512476Y-67406050D01*
X78596048Y-67322478D01*
X78661711Y-67224207D01*
X78706940Y-67115014D01*
X78729998Y-66999095D01*
X78729998Y-66880905D01*
X78706940Y-66764986D01*
X78661711Y-66655793D01*
X78596048Y-66557522D01*
X78512476Y-66473950D01*
X78414205Y-66408287D01*
X78305012Y-66363058D01*
X78189093Y-66340000D01*
X78070903Y-66340000D01*
X77954984Y-66363058D01*
X77845791Y-66408287D01*
X77747520Y-66473950D01*
X77663948Y-66557522D01*
X77598285Y-66655793D01*
X77553056Y-66764986D01*
X77529998Y-66880905D01*
X76922598Y-66880905D01*
X79178953Y-64624551D01*
X79194210Y-64612030D01*
X79217367Y-64583814D01*
X79244195Y-64551123D01*
X79244196Y-64551122D01*
X79281339Y-64481633D01*
X79304211Y-64406233D01*
X79309999Y-64347466D01*
X79309999Y-64347456D01*
X79311933Y-64327820D01*
X79309999Y-64308184D01*
X79309999Y-61619646D01*
X79311934Y-61599999D01*
X79304211Y-61521585D01*
X79281339Y-61446185D01*
X79244196Y-61376696D01*
X79210000Y-61335029D01*
X79210000Y-61240905D01*
X79186942Y-61124986D01*
X79141713Y-61015793D01*
X79076050Y-60917522D01*
X78992478Y-60833950D01*
X78894207Y-60768287D01*
X78785014Y-60723058D01*
X78669095Y-60700000D01*
X78550905Y-60700000D01*
X78434986Y-60723058D01*
X78325793Y-60768287D01*
X78227522Y-60833950D01*
X78143950Y-60917522D01*
X78078287Y-61015793D01*
X78033058Y-61124986D01*
X78010000Y-61240905D01*
X78010000Y-61359095D01*
X78033058Y-61475014D01*
X78078287Y-61584207D01*
X78143950Y-61682478D01*
X78227522Y-61766050D01*
X78325793Y-61831713D01*
X78434986Y-61876942D01*
X78510000Y-61891863D01*
X78509999Y-64162133D01*
X73283224Y-69388909D01*
X73189814Y-69388909D01*
X73073895Y-69411967D01*
X72964702Y-69457196D01*
X72866431Y-69522859D01*
X72782859Y-69606431D01*
X72717196Y-69704702D01*
X72671967Y-69813895D01*
X72648909Y-69929814D01*
X71481869Y-69929814D01*
X72768050Y-68643634D01*
X72768287Y-68644207D01*
X72833950Y-68742478D01*
X72917522Y-68826050D01*
X73015793Y-68891713D01*
X73124986Y-68936942D01*
X73240905Y-68960000D01*
X73359095Y-68960000D01*
X73475014Y-68936942D01*
X73584207Y-68891713D01*
X73682478Y-68826050D01*
X73766050Y-68742478D01*
X73831713Y-68644207D01*
X73876942Y-68535014D01*
X73900000Y-68419095D01*
X73900000Y-68300905D01*
X73876942Y-68184986D01*
X73831713Y-68075793D01*
X73766050Y-67977522D01*
X73719406Y-67930878D01*
X73783814Y-67911340D01*
X73853303Y-67874197D01*
X73914211Y-67824211D01*
X73926737Y-67808948D01*
X74238948Y-67496737D01*
X74254211Y-67484211D01*
X74304197Y-67423303D01*
X74341340Y-67353814D01*
X74364212Y-67278414D01*
X74370000Y-67219647D01*
X74371935Y-67200000D01*
X74370000Y-67180353D01*
X74370000Y-66069647D01*
X74371935Y-66050000D01*
X74367011Y-66000000D01*
X74364212Y-65971586D01*
X74341340Y-65896186D01*
X74304197Y-65826697D01*
X74277322Y-65793950D01*
X74266735Y-65781049D01*
X74266733Y-65781047D01*
X74254211Y-65765789D01*
X74238954Y-65753268D01*
X73920000Y-65434315D01*
X73920000Y-65359985D01*
X75506791Y-65359985D01*
X75506791Y-65478175D01*
X75529849Y-65594094D01*
X75575078Y-65703287D01*
X75640741Y-65801558D01*
X75724313Y-65885130D01*
X75822584Y-65950793D01*
X75931777Y-65996022D01*
X76047696Y-66019080D01*
X76165886Y-66019080D01*
X76281805Y-65996022D01*
X76390998Y-65950793D01*
X76489269Y-65885130D01*
X76572841Y-65801558D01*
X76638504Y-65703287D01*
X76683733Y-65594094D01*
X76706791Y-65478175D01*
X76706791Y-65359985D01*
X76683733Y-65244066D01*
X76638504Y-65134873D01*
X76572841Y-65036602D01*
X76489269Y-64953030D01*
X76390998Y-64887367D01*
X76281805Y-64842138D01*
X76165886Y-64819080D01*
X76047696Y-64819080D01*
X75931777Y-64842138D01*
X75822584Y-64887367D01*
X75724313Y-64953030D01*
X75640741Y-65036602D01*
X75575078Y-65134873D01*
X75529849Y-65244066D01*
X75506791Y-65359985D01*
X73920000Y-65359985D01*
X73920000Y-65340905D01*
X73896942Y-65224986D01*
X73851713Y-65115793D01*
X73786050Y-65017522D01*
X73702478Y-64933950D01*
X73604207Y-64868287D01*
X73495014Y-64823058D01*
X73379095Y-64800000D01*
X73260905Y-64800000D01*
X73144986Y-64823058D01*
X73035793Y-64868287D01*
X72937522Y-64933950D01*
X72853950Y-65017522D01*
X72788287Y-65115793D01*
X72743058Y-65224986D01*
X72720000Y-65340905D01*
X72720000Y-65459095D01*
X72743058Y-65575014D01*
X72788287Y-65684207D01*
X72853950Y-65782478D01*
X72937522Y-65866050D01*
X73035793Y-65931713D01*
X73144986Y-65976942D01*
X73260905Y-66000000D01*
X73354315Y-66000000D01*
X73570000Y-66215686D01*
X73570000Y-66344118D01*
X73495014Y-66313058D01*
X73379095Y-66290000D01*
X73260905Y-66290000D01*
X73144986Y-66313058D01*
X73035793Y-66358287D01*
X72937522Y-66423950D01*
X72853950Y-66507522D01*
X72788287Y-66605793D01*
X72743058Y-66714986D01*
X72720000Y-66830905D01*
X72720000Y-66924315D01*
X70834315Y-68810000D01*
X52539647Y-68810000D01*
X52520000Y-68808065D01*
X52441586Y-68815788D01*
X52366186Y-68838660D01*
X52296697Y-68875803D01*
X52251049Y-68913265D01*
X52251047Y-68913267D01*
X52235789Y-68925789D01*
X52223267Y-68941047D01*
X51534315Y-69630000D01*
X51440905Y-69630000D01*
X51324986Y-69653058D01*
X51215793Y-69698287D01*
X51117522Y-69763950D01*
X51033950Y-69847522D01*
X50968287Y-69945793D01*
X50923058Y-70054986D01*
X50900000Y-70170905D01*
X50716052Y-70170905D01*
X50622401Y-69766868D01*
X50423631Y-68225889D01*
X50386958Y-66952760D01*
X69079986Y-66952760D01*
X69079986Y-67070950D01*
X69103044Y-67186869D01*
X69148273Y-67296062D01*
X69213936Y-67394333D01*
X69297508Y-67477905D01*
X69395779Y-67543568D01*
X69504972Y-67588797D01*
X69620891Y-67611855D01*
X69739081Y-67611855D01*
X69855000Y-67588797D01*
X69964193Y-67543568D01*
X70062464Y-67477905D01*
X70146036Y-67394333D01*
X70211699Y-67296062D01*
X70256928Y-67186869D01*
X70279986Y-67070950D01*
X70279986Y-66952760D01*
X70256928Y-66836841D01*
X70211699Y-66727648D01*
X70187338Y-66691190D01*
X70236050Y-66642478D01*
X70301713Y-66544207D01*
X70346942Y-66435014D01*
X70370000Y-66319095D01*
X70370000Y-66200905D01*
X70346942Y-66084986D01*
X70301713Y-65975793D01*
X70236050Y-65877522D01*
X70152478Y-65793950D01*
X70054207Y-65728287D01*
X69945014Y-65683058D01*
X69829095Y-65660000D01*
X69710905Y-65660000D01*
X69594986Y-65683058D01*
X69485793Y-65728287D01*
X69387522Y-65793950D01*
X69303950Y-65877522D01*
X69238287Y-65975793D01*
X69193058Y-66084986D01*
X69170000Y-66200905D01*
X69170000Y-66319095D01*
X69193058Y-66435014D01*
X69238287Y-66544207D01*
X69262648Y-66580665D01*
X69213936Y-66629377D01*
X69148273Y-66727648D01*
X69103044Y-66836841D01*
X69079986Y-66952760D01*
X50386958Y-66952760D01*
X50378892Y-66672784D01*
X50488629Y-65122918D01*
X50751752Y-63591620D01*
X51165668Y-62094015D01*
X51364175Y-61580905D01*
X52020000Y-61580905D01*
X52020000Y-61699095D01*
X52043058Y-61815014D01*
X52088287Y-61924207D01*
X52153950Y-62022478D01*
X52237522Y-62106050D01*
X52335793Y-62171713D01*
X52444986Y-62216942D01*
X52560905Y-62240000D01*
X52654315Y-62240000D01*
X53633267Y-63218953D01*
X53645789Y-63234211D01*
X53661047Y-63246733D01*
X53661049Y-63246735D01*
X53706697Y-63284197D01*
X53776186Y-63321340D01*
X53851586Y-63344212D01*
X53930000Y-63351935D01*
X53949647Y-63350000D01*
X70284315Y-63350000D01*
X70231052Y-63403263D01*
X70215789Y-63415789D01*
X70165803Y-63476698D01*
X70128660Y-63546187D01*
X70120462Y-63573214D01*
X70105788Y-63621587D01*
X70098065Y-63700000D01*
X70100000Y-63719647D01*
X70100000Y-63981472D01*
X70033950Y-64047522D01*
X69968287Y-64145793D01*
X69923058Y-64254986D01*
X69900000Y-64370905D01*
X69900000Y-64489095D01*
X69909879Y-64538759D01*
X69894207Y-64528287D01*
X69785014Y-64483058D01*
X69669095Y-64460000D01*
X69550905Y-64460000D01*
X69434986Y-64483058D01*
X69325793Y-64528287D01*
X69227522Y-64593950D01*
X69143950Y-64677522D01*
X69078287Y-64775793D01*
X69033058Y-64884986D01*
X69010000Y-65000905D01*
X69010000Y-65119095D01*
X69033058Y-65235014D01*
X69078287Y-65344207D01*
X69143950Y-65442478D01*
X69227522Y-65526050D01*
X69325793Y-65591713D01*
X69434986Y-65636942D01*
X69550905Y-65660000D01*
X69669095Y-65660000D01*
X69785014Y-65636942D01*
X69894207Y-65591713D01*
X69992478Y-65526050D01*
X70058528Y-65460000D01*
X71884618Y-65460000D01*
X71904264Y-65461935D01*
X71923910Y-65460000D01*
X71923911Y-65460000D01*
X71982678Y-65454212D01*
X72058078Y-65431340D01*
X72127567Y-65394197D01*
X72188475Y-65344211D01*
X72201001Y-65328948D01*
X75259044Y-62270905D01*
X77260000Y-62270905D01*
X77260000Y-62389095D01*
X77283058Y-62505014D01*
X77328287Y-62614207D01*
X77393950Y-62712478D01*
X77477522Y-62796050D01*
X77575793Y-62861713D01*
X77684986Y-62906942D01*
X77800905Y-62930000D01*
X77919095Y-62930000D01*
X78035014Y-62906942D01*
X78144207Y-62861713D01*
X78242478Y-62796050D01*
X78326050Y-62712478D01*
X78391713Y-62614207D01*
X78436942Y-62505014D01*
X78460000Y-62389095D01*
X78460000Y-62270905D01*
X78436942Y-62154986D01*
X78391713Y-62045793D01*
X78326050Y-61947522D01*
X78242478Y-61863950D01*
X78144207Y-61798287D01*
X78035014Y-61753058D01*
X77919095Y-61730000D01*
X77800905Y-61730000D01*
X77684986Y-61753058D01*
X77575793Y-61798287D01*
X77477522Y-61863950D01*
X77393950Y-61947522D01*
X77328287Y-62045793D01*
X77283058Y-62154986D01*
X77260000Y-62270905D01*
X75259044Y-62270905D01*
X77688949Y-59841000D01*
X77704211Y-59828475D01*
X77754197Y-59767567D01*
X77791340Y-59698078D01*
X77814212Y-59622678D01*
X77820000Y-59563911D01*
X77820000Y-59563910D01*
X77821935Y-59544264D01*
X77820000Y-59524617D01*
X77820000Y-58518528D01*
X77886050Y-58452478D01*
X77951713Y-58354207D01*
X77996942Y-58245014D01*
X78020000Y-58129095D01*
X78020000Y-58065685D01*
X79053267Y-59098953D01*
X79065789Y-59114211D01*
X79081047Y-59126733D01*
X79081049Y-59126735D01*
X79092542Y-59136167D01*
X79126697Y-59164197D01*
X79196186Y-59201340D01*
X79271586Y-59224212D01*
X79330353Y-59230000D01*
X79330363Y-59230000D01*
X79342686Y-59231214D01*
X79407522Y-59296050D01*
X79505793Y-59361713D01*
X79614986Y-59406942D01*
X79730905Y-59430000D01*
X79849095Y-59430000D01*
X79965014Y-59406942D01*
X80074207Y-59361713D01*
X80172478Y-59296050D01*
X80256050Y-59212478D01*
X80321713Y-59114207D01*
X80366942Y-59005014D01*
X80390000Y-58889095D01*
X80390000Y-58770905D01*
X80366942Y-58654986D01*
X80321713Y-58545793D01*
X80256050Y-58447522D01*
X80172478Y-58363950D01*
X80074207Y-58298287D01*
X79965014Y-58253058D01*
X79849095Y-58230000D01*
X79730905Y-58230000D01*
X79614986Y-58253058D01*
X79505793Y-58298287D01*
X79432767Y-58347081D01*
X77786737Y-56701052D01*
X77774211Y-56685789D01*
X77713303Y-56635803D01*
X77643814Y-56598660D01*
X77568414Y-56575788D01*
X77509647Y-56570000D01*
X77509646Y-56570000D01*
X77490000Y-56568065D01*
X77470354Y-56570000D01*
X77395686Y-56570000D01*
X77046762Y-56221077D01*
X77034236Y-56205814D01*
X76973328Y-56155828D01*
X76903839Y-56118685D01*
X76828439Y-56095813D01*
X76769672Y-56090025D01*
X76769671Y-56090025D01*
X76750025Y-56088090D01*
X76730379Y-56090025D01*
X71118503Y-56090025D01*
X71052453Y-56023975D01*
X70954182Y-55958312D01*
X70844989Y-55913083D01*
X70729070Y-55890025D01*
X70610880Y-55890025D01*
X70494961Y-55913083D01*
X70385768Y-55958312D01*
X70287497Y-56023975D01*
X70203925Y-56107547D01*
X70138262Y-56205818D01*
X70093033Y-56315011D01*
X70069975Y-56430930D01*
X70069975Y-56549120D01*
X70093033Y-56665039D01*
X70138262Y-56774232D01*
X70203925Y-56872503D01*
X70287497Y-56956075D01*
X70385768Y-57021738D01*
X70494961Y-57066967D01*
X70610880Y-57090025D01*
X70729070Y-57090025D01*
X70844989Y-57066967D01*
X70954182Y-57021738D01*
X71052453Y-56956075D01*
X71118503Y-56890025D01*
X72223260Y-56890025D01*
X72157522Y-56933950D01*
X72073950Y-57017522D01*
X72008287Y-57115793D01*
X71963058Y-57224986D01*
X71940000Y-57340905D01*
X71940000Y-57459095D01*
X71963058Y-57575014D01*
X72008287Y-57684207D01*
X72073950Y-57782478D01*
X72157522Y-57866050D01*
X72168434Y-57873341D01*
X72167522Y-57873950D01*
X72083950Y-57957522D01*
X72018287Y-58055793D01*
X71973058Y-58164986D01*
X71950000Y-58280905D01*
X71950000Y-58399095D01*
X71973058Y-58515014D01*
X72018287Y-58624207D01*
X72083950Y-58722478D01*
X72167522Y-58806050D01*
X72265793Y-58871713D01*
X72374986Y-58916942D01*
X72490905Y-58940000D01*
X72609095Y-58940000D01*
X72725014Y-58916942D01*
X72731643Y-58914196D01*
X72783950Y-58992478D01*
X72867522Y-59076050D01*
X72965793Y-59141713D01*
X73074986Y-59186942D01*
X73190905Y-59210000D01*
X73309095Y-59210000D01*
X73425014Y-59186942D01*
X73534207Y-59141713D01*
X73632478Y-59076050D01*
X73716050Y-58992478D01*
X73781713Y-58894207D01*
X73826942Y-58785014D01*
X73850000Y-58669095D01*
X73850000Y-58550905D01*
X73826942Y-58434986D01*
X73781713Y-58325793D01*
X73716050Y-58227522D01*
X73632478Y-58143950D01*
X73534207Y-58078287D01*
X73425014Y-58033058D01*
X73309095Y-58010000D01*
X73190905Y-58010000D01*
X73074986Y-58033058D01*
X73068357Y-58035804D01*
X73016050Y-57957522D01*
X72932478Y-57873950D01*
X72921566Y-57866659D01*
X72922478Y-57866050D01*
X73006050Y-57782478D01*
X73071713Y-57684207D01*
X73116942Y-57575014D01*
X73140000Y-57459095D01*
X73140000Y-57340905D01*
X73116942Y-57224986D01*
X73071713Y-57115793D01*
X73006050Y-57017522D01*
X72922478Y-56933950D01*
X72856740Y-56890025D01*
X76584340Y-56890025D01*
X76664315Y-56970000D01*
X71084315Y-62550000D01*
X54095686Y-62550000D01*
X53220000Y-61674315D01*
X53220000Y-61580905D01*
X53196942Y-61464986D01*
X53151713Y-61355793D01*
X53086050Y-61257522D01*
X53002478Y-61173950D01*
X52904207Y-61108287D01*
X52795014Y-61063058D01*
X52679095Y-61040000D01*
X52560905Y-61040000D01*
X52444986Y-61063058D01*
X52335793Y-61108287D01*
X52237522Y-61173950D01*
X52153950Y-61257522D01*
X52088287Y-61355793D01*
X52043058Y-61464986D01*
X52020000Y-61580905D01*
X51364175Y-61580905D01*
X51726278Y-60644926D01*
X52153548Y-59800905D01*
X68190000Y-59800905D01*
X68190000Y-59919095D01*
X68213058Y-60035014D01*
X68258287Y-60144207D01*
X68323950Y-60242478D01*
X68407522Y-60326050D01*
X68505793Y-60391713D01*
X68614986Y-60436942D01*
X68730905Y-60460000D01*
X68849095Y-60460000D01*
X68965014Y-60436942D01*
X69074207Y-60391713D01*
X69172478Y-60326050D01*
X69256050Y-60242478D01*
X69321713Y-60144207D01*
X69366942Y-60035014D01*
X69390000Y-59919095D01*
X69390000Y-59800905D01*
X69366942Y-59684986D01*
X69321713Y-59575793D01*
X69256050Y-59477522D01*
X69172478Y-59393950D01*
X69074207Y-59328287D01*
X68965014Y-59283058D01*
X68849095Y-59260000D01*
X68730905Y-59260000D01*
X68614986Y-59283058D01*
X68505793Y-59328287D01*
X68407522Y-59393950D01*
X68323950Y-59477522D01*
X68258287Y-59575793D01*
X68213058Y-59684986D01*
X68190000Y-59800905D01*
X52153548Y-59800905D01*
X52428036Y-59258688D01*
X53264007Y-57949000D01*
X53309805Y-57890905D01*
X65130000Y-57890905D01*
X65130000Y-58009095D01*
X65153058Y-58125014D01*
X65198287Y-58234207D01*
X65263950Y-58332478D01*
X65347522Y-58416050D01*
X65445793Y-58481713D01*
X65554986Y-58526942D01*
X65670905Y-58550000D01*
X65789095Y-58550000D01*
X65905014Y-58526942D01*
X66014207Y-58481713D01*
X66112478Y-58416050D01*
X66196050Y-58332478D01*
X66261713Y-58234207D01*
X66306942Y-58125014D01*
X66330000Y-58009095D01*
X66330000Y-57890905D01*
X66306942Y-57774986D01*
X66261713Y-57665793D01*
X66196050Y-57567522D01*
X66112478Y-57483950D01*
X66014207Y-57418287D01*
X65905014Y-57373058D01*
X65789095Y-57350000D01*
X65670905Y-57350000D01*
X65554986Y-57373058D01*
X65445793Y-57418287D01*
X65347522Y-57483950D01*
X65263950Y-57567522D01*
X65198287Y-57665793D01*
X65153058Y-57774986D01*
X65130000Y-57890905D01*
X53309805Y-57890905D01*
X54225922Y-56728817D01*
X55120431Y-55800905D01*
X65770000Y-55800905D01*
X65770000Y-55919095D01*
X65793058Y-56035014D01*
X65838287Y-56144207D01*
X65903950Y-56242478D01*
X65987522Y-56326050D01*
X66085793Y-56391713D01*
X66194986Y-56436942D01*
X66310905Y-56460000D01*
X66429095Y-56460000D01*
X66545014Y-56436942D01*
X66654207Y-56391713D01*
X66752478Y-56326050D01*
X66836050Y-56242478D01*
X66901713Y-56144207D01*
X66946942Y-56035014D01*
X66970000Y-55919095D01*
X66970000Y-55800905D01*
X66946942Y-55684986D01*
X66901713Y-55575793D01*
X66836050Y-55477522D01*
X66752478Y-55393950D01*
X66654207Y-55328287D01*
X66545014Y-55283058D01*
X66429095Y-55260000D01*
X66310905Y-55260000D01*
X66194986Y-55283058D01*
X66085793Y-55328287D01*
X65987522Y-55393950D01*
X65903950Y-55477522D01*
X65838287Y-55575793D01*
X65793058Y-55684986D01*
X65770000Y-55800905D01*
X55120431Y-55800905D01*
X55304266Y-55610206D01*
X56209792Y-54840905D01*
X59000000Y-54840905D01*
X59000000Y-54959095D01*
X59023058Y-55075014D01*
X59068287Y-55184207D01*
X59133950Y-55282478D01*
X59217522Y-55366050D01*
X59315793Y-55431713D01*
X59424986Y-55476942D01*
X59540905Y-55500000D01*
X59659095Y-55500000D01*
X59775014Y-55476942D01*
X59884207Y-55431713D01*
X59982478Y-55366050D01*
X60066050Y-55282478D01*
X60131713Y-55184207D01*
X60176942Y-55075014D01*
X60200000Y-54959095D01*
X60223058Y-55075014D01*
X60268287Y-55184207D01*
X60333950Y-55282478D01*
X60417522Y-55366050D01*
X60515793Y-55431713D01*
X60624986Y-55476942D01*
X60740905Y-55500000D01*
X60859095Y-55500000D01*
X60975014Y-55476942D01*
X61084207Y-55431713D01*
X61182478Y-55366050D01*
X61266050Y-55282478D01*
X61331713Y-55184207D01*
X61376942Y-55075014D01*
X61400000Y-54959095D01*
X61400000Y-54840905D01*
X61376942Y-54724986D01*
X61331713Y-54615793D01*
X61266050Y-54517522D01*
X61182478Y-54433950D01*
X61084207Y-54368287D01*
X60975014Y-54323058D01*
X60859095Y-54300000D01*
X60740905Y-54300000D01*
X60624986Y-54323058D01*
X60515793Y-54368287D01*
X60417522Y-54433950D01*
X60333950Y-54517522D01*
X60268287Y-54615793D01*
X60223058Y-54724986D01*
X60200000Y-54840905D01*
X60176942Y-54724986D01*
X60131713Y-54615793D01*
X60066050Y-54517522D01*
X59982478Y-54433950D01*
X59884207Y-54368287D01*
X59775014Y-54323058D01*
X59659095Y-54300000D01*
X59540905Y-54300000D01*
X59424986Y-54323058D01*
X59315793Y-54368287D01*
X59217522Y-54433950D01*
X59133950Y-54517522D01*
X59068287Y-54615793D01*
X59023058Y-54724986D01*
X59000000Y-54840905D01*
X56209792Y-54840905D01*
X56488388Y-54604221D01*
X57766561Y-53720821D01*
X59126151Y-52968738D01*
X60553728Y-52355402D01*
X61677499Y-52000000D01*
X63673428Y-52000000D01*
X63675001Y-52015971D01*
X63675000Y-53484039D01*
X63673428Y-53500000D01*
X63679703Y-53563711D01*
X63698287Y-53624974D01*
X63728465Y-53681434D01*
X63746332Y-53703204D01*
X63769079Y-53730921D01*
X63818566Y-53771535D01*
X63875026Y-53801713D01*
X63936289Y-53820297D01*
X64000000Y-53826572D01*
X64015960Y-53825000D01*
X73984040Y-53825000D01*
X74000000Y-53826572D01*
X74063711Y-53820297D01*
X74124974Y-53801713D01*
X74181434Y-53771535D01*
X74230921Y-53730921D01*
X74271535Y-53681434D01*
X74301713Y-53624974D01*
X74320297Y-53563711D01*
X74325000Y-53515961D01*
X74325000Y-53515960D01*
X74326572Y-53500000D01*
X74325000Y-53484039D01*
X74325000Y-52015961D01*
X74326572Y-52000000D01*
X74320297Y-51936289D01*
X74301713Y-51875026D01*
X74271535Y-51818566D01*
X74230921Y-51769079D01*
X74181434Y-51728465D01*
X74124974Y-51698287D01*
X74063711Y-51679703D01*
X74015961Y-51675000D01*
X74015960Y-51675000D01*
X74000000Y-51673428D01*
X73984039Y-51675000D01*
X64015961Y-51675000D01*
X64000000Y-51673428D01*
X63984040Y-51675000D01*
X63984039Y-51675000D01*
X63936289Y-51679703D01*
X63875026Y-51698287D01*
X63818566Y-51728465D01*
X63769079Y-51769079D01*
X63728465Y-51818566D01*
X63698287Y-51875026D01*
X63679703Y-51936289D01*
X63673428Y-52000000D01*
X61677499Y-52000000D01*
X62035147Y-51886891D01*
X63555780Y-51567829D01*
X65104498Y-51400952D01*
X66005417Y-51375000D01*
X71990674Y-51375000D01*
X73551828Y-51452719D01*
G37*
G04 #@! TD.AperFunction*
D12*
X76820000Y-58010905D02*
X76820000Y-58129095D01*
X76843058Y-58245014D01*
X76888287Y-58354207D01*
X76953950Y-58452478D01*
X77020001Y-58518529D01*
X77020000Y-59378579D01*
X71738579Y-64660000D01*
X71054166Y-64660000D01*
X71076942Y-64605014D01*
X71100000Y-64489095D01*
X71100000Y-64370905D01*
X71076942Y-64254986D01*
X71031713Y-64145793D01*
X70966050Y-64047522D01*
X70900000Y-63981472D01*
X70900000Y-63865685D01*
X71518950Y-63246735D01*
X71534211Y-63234211D01*
X71546737Y-63218948D01*
X76836195Y-57929490D01*
X76820000Y-58010905D01*
G04 #@! TA.AperFunction,Conductor*
D13*
G36*
X76820000Y-58010905D02*
G01*
X76820000Y-58129095D01*
X76843058Y-58245014D01*
X76888287Y-58354207D01*
X76953950Y-58452478D01*
X77020001Y-58518529D01*
X77020000Y-59378579D01*
X71738579Y-64660000D01*
X71054166Y-64660000D01*
X71076942Y-64605014D01*
X71100000Y-64489095D01*
X71100000Y-64370905D01*
X71076942Y-64254986D01*
X71031713Y-64145793D01*
X70966050Y-64047522D01*
X70900000Y-63981472D01*
X70900000Y-63865685D01*
X71518950Y-63246735D01*
X71534211Y-63234211D01*
X71546737Y-63218948D01*
X76836195Y-57929490D01*
X76820000Y-58010905D01*
G37*
G04 #@! TD.AperFunction*
M02*
