G04 #@! TF.GenerationSoftware,KiCad,Pcbnew,5.1.9-73d0e3b20d~88~ubuntu20.04.1*
G04 #@! TF.CreationDate,2021-03-19T22:30:43+02:00*
G04 #@! TF.ProjectId,nRF5340-Wearable,6e524635-3334-4302-9d57-65617261626c,rev?*
G04 #@! TF.SameCoordinates,Original*
G04 #@! TF.FileFunction,Soldermask,Bot*
G04 #@! TF.FilePolarity,Negative*
%FSLAX46Y46*%
G04 Gerber Fmt 4.6, Leading zero omitted, Abs format (unit mm)*
G04 Created by KiCad (PCBNEW 5.1.9-73d0e3b20d~88~ubuntu20.04.1) date 2021-03-19 22:30:43*
%MOMM*%
%LPD*%
G01*
G04 APERTURE LIST*
%ADD10C,0.500000*%
%ADD11C,0.350000*%
%ADD12C,0.750000*%
G04 APERTURE END LIST*
D10*
X67685500Y-77570000D02*
G75*
G03*
X67685500Y-77570000I-662500J0D01*
G01*
D11*
X62880000Y-65780000D03*
X63380000Y-65780000D03*
X63380000Y-66280000D03*
X62880000Y-66280000D03*
X67230000Y-56230000D03*
X67230000Y-56730000D03*
X66730000Y-56730000D03*
X66730000Y-56230000D03*
X59100000Y-76530000D03*
X59100000Y-76030000D03*
X59600000Y-76030000D03*
X59600000Y-76530000D03*
X54040000Y-70520000D03*
X54040000Y-70020000D03*
X54540000Y-70020000D03*
X54540000Y-70520000D03*
X76630000Y-61420000D03*
X77130000Y-61420000D03*
X77130000Y-61920000D03*
X76630000Y-61920000D03*
X76630000Y-67740000D03*
X76630000Y-67240000D03*
X77130000Y-67240000D03*
X77130000Y-67740000D03*
G36*
G01*
X77434746Y-56938198D02*
X78071142Y-56301802D01*
G75*
G02*
X78141852Y-56301802I35355J-35355D01*
G01*
X78353984Y-56513934D01*
G75*
G02*
X78353984Y-56584644I-35355J-35355D01*
G01*
X77717588Y-57221040D01*
G75*
G02*
X77646878Y-57221040I-35355J35355D01*
G01*
X77434746Y-57008908D01*
G75*
G02*
X77434746Y-56938198I35355J35355D01*
G01*
G37*
G36*
G01*
X77788299Y-57291752D02*
X78424695Y-56655356D01*
G75*
G02*
X78495405Y-56655356I35355J-35355D01*
G01*
X78707537Y-56867488D01*
G75*
G02*
X78707537Y-56938198I-35355J-35355D01*
G01*
X78071141Y-57574594D01*
G75*
G02*
X78000431Y-57574594I-35355J35355D01*
G01*
X77788299Y-57362462D01*
G75*
G02*
X77788299Y-57291752I35355J35355D01*
G01*
G37*
G36*
G01*
X78141853Y-57645305D02*
X78778249Y-57008909D01*
G75*
G02*
X78848959Y-57008909I35355J-35355D01*
G01*
X79061091Y-57221041D01*
G75*
G02*
X79061091Y-57291751I-35355J-35355D01*
G01*
X78424695Y-57928147D01*
G75*
G02*
X78353985Y-57928147I-35355J35355D01*
G01*
X78141853Y-57716015D01*
G75*
G02*
X78141853Y-57645305I35355J35355D01*
G01*
G37*
G36*
G01*
X78495406Y-57998859D02*
X79131802Y-57362463D01*
G75*
G02*
X79202512Y-57362463I35355J-35355D01*
G01*
X79414644Y-57574595D01*
G75*
G02*
X79414644Y-57645305I-35355J-35355D01*
G01*
X78778248Y-58281701D01*
G75*
G02*
X78707538Y-58281701I-35355J35355D01*
G01*
X78495406Y-58069569D01*
G75*
G02*
X78495406Y-57998859I35355J35355D01*
G01*
G37*
G36*
G01*
X78848960Y-58352412D02*
X79485356Y-57716016D01*
G75*
G02*
X79556066Y-57716016I35355J-35355D01*
G01*
X79768198Y-57928148D01*
G75*
G02*
X79768198Y-57998858I-35355J-35355D01*
G01*
X79131802Y-58635254D01*
G75*
G02*
X79061092Y-58635254I-35355J35355D01*
G01*
X78848960Y-58423122D01*
G75*
G02*
X78848960Y-58352412I35355J35355D01*
G01*
G37*
G36*
G01*
X77646878Y-55523985D02*
X78353985Y-54816878D01*
G75*
G02*
X78424695Y-54816878I35355J-35355D01*
G01*
X78792390Y-55184573D01*
G75*
G02*
X78792390Y-55255283I-35355J-35355D01*
G01*
X78085283Y-55962390D01*
G75*
G02*
X78014573Y-55962390I-35355J35355D01*
G01*
X77646878Y-55594695D01*
G75*
G02*
X77646878Y-55523985I35355J35355D01*
G01*
G37*
G36*
G01*
X80107610Y-57984717D02*
X80814717Y-57277610D01*
G75*
G02*
X80885427Y-57277610I35355J-35355D01*
G01*
X81253122Y-57645305D01*
G75*
G02*
X81253122Y-57716015I-35355J-35355D01*
G01*
X80546015Y-58423122D01*
G75*
G02*
X80475305Y-58423122I-35355J35355D01*
G01*
X80107610Y-58055427D01*
G75*
G02*
X80107610Y-57984717I35355J35355D01*
G01*
G37*
G36*
G01*
X75970000Y-60140000D02*
X75970000Y-59140000D01*
G75*
G02*
X76245000Y-58865000I275000J0D01*
G01*
X76795000Y-58865000D01*
G75*
G02*
X77070000Y-59140000I0J-275000D01*
G01*
X77070000Y-60140000D01*
G75*
G02*
X76795000Y-60415000I-275000J0D01*
G01*
X76245000Y-60415000D01*
G75*
G02*
X75970000Y-60140000I0J275000D01*
G01*
G37*
G36*
G01*
X74070000Y-60140000D02*
X74070000Y-59140000D01*
G75*
G02*
X74345000Y-58865000I275000J0D01*
G01*
X74895000Y-58865000D01*
G75*
G02*
X75170000Y-59140000I0J-275000D01*
G01*
X75170000Y-60140000D01*
G75*
G02*
X74895000Y-60415000I-275000J0D01*
G01*
X74345000Y-60415000D01*
G75*
G02*
X74070000Y-60140000I0J275000D01*
G01*
G37*
G36*
G01*
X73370000Y-56420000D02*
X74370000Y-56420000D01*
G75*
G02*
X74645000Y-56695000I0J-275000D01*
G01*
X74645000Y-57245000D01*
G75*
G02*
X74370000Y-57520000I-275000J0D01*
G01*
X73370000Y-57520000D01*
G75*
G02*
X73095000Y-57245000I0J275000D01*
G01*
X73095000Y-56695000D01*
G75*
G02*
X73370000Y-56420000I275000J0D01*
G01*
G37*
G36*
G01*
X73370000Y-54520000D02*
X74370000Y-54520000D01*
G75*
G02*
X74645000Y-54795000I0J-275000D01*
G01*
X74645000Y-55345000D01*
G75*
G02*
X74370000Y-55620000I-275000J0D01*
G01*
X73370000Y-55620000D01*
G75*
G02*
X73095000Y-55345000I0J275000D01*
G01*
X73095000Y-54795000D01*
G75*
G02*
X73370000Y-54520000I275000J0D01*
G01*
G37*
G36*
G01*
X63410000Y-55390000D02*
X63410000Y-54390000D01*
G75*
G02*
X63685000Y-54115000I275000J0D01*
G01*
X64235000Y-54115000D01*
G75*
G02*
X64510000Y-54390000I0J-275000D01*
G01*
X64510000Y-55390000D01*
G75*
G02*
X64235000Y-55665000I-275000J0D01*
G01*
X63685000Y-55665000D01*
G75*
G02*
X63410000Y-55390000I0J275000D01*
G01*
G37*
G36*
G01*
X61510000Y-55390000D02*
X61510000Y-54390000D01*
G75*
G02*
X61785000Y-54115000I275000J0D01*
G01*
X62335000Y-54115000D01*
G75*
G02*
X62610000Y-54390000I0J-275000D01*
G01*
X62610000Y-55390000D01*
G75*
G02*
X62335000Y-55665000I-275000J0D01*
G01*
X61785000Y-55665000D01*
G75*
G02*
X61510000Y-55390000I0J275000D01*
G01*
G37*
G36*
G01*
X57569941Y-59158060D02*
X58143517Y-58338908D01*
G75*
G02*
X58213154Y-58326629I40958J-28679D01*
G01*
X60670610Y-60047359D01*
G75*
G02*
X60682889Y-60116996I-28679J-40958D01*
G01*
X60109313Y-60936148D01*
G75*
G02*
X60039676Y-60948427I-40958J28679D01*
G01*
X57582220Y-59227697D01*
G75*
G02*
X57569941Y-59158060I28679J40958D01*
G01*
G37*
G36*
G01*
X55275635Y-62434668D02*
X55849211Y-61615516D01*
G75*
G02*
X55918848Y-61603237I40958J-28679D01*
G01*
X58376304Y-63323967D01*
G75*
G02*
X58388583Y-63393604I-28679J-40958D01*
G01*
X57815007Y-64212756D01*
G75*
G02*
X57745370Y-64225035I-40958J28679D01*
G01*
X55287914Y-62504305D01*
G75*
G02*
X55275635Y-62434668I28679J40958D01*
G01*
G37*
G36*
G01*
X58717093Y-57519756D02*
X59290669Y-56700604D01*
G75*
G02*
X59360306Y-56688325I40958J-28679D01*
G01*
X61817762Y-58409055D01*
G75*
G02*
X61830041Y-58478692I-28679J-40958D01*
G01*
X61256465Y-59297844D01*
G75*
G02*
X61186828Y-59310123I-40958J28679D01*
G01*
X58729372Y-57589393D01*
G75*
G02*
X58717093Y-57519756I28679J40958D01*
G01*
G37*
G36*
G01*
X56422788Y-60796364D02*
X56996364Y-59977212D01*
G75*
G02*
X57066001Y-59964933I40958J-28679D01*
G01*
X59523457Y-61685663D01*
G75*
G02*
X59535736Y-61755300I-28679J-40958D01*
G01*
X58962160Y-62574452D01*
G75*
G02*
X58892523Y-62586731I-40958J28679D01*
G01*
X56435067Y-60866001D01*
G75*
G02*
X56422788Y-60796364I28679J40958D01*
G01*
G37*
G36*
G01*
X54128482Y-64072972D02*
X54702058Y-63253820D01*
G75*
G02*
X54771695Y-63241541I40958J-28679D01*
G01*
X57229151Y-64962271D01*
G75*
G02*
X57241430Y-65031908I-28679J-40958D01*
G01*
X56667854Y-65851060D01*
G75*
G02*
X56598217Y-65863339I-40958J28679D01*
G01*
X54140761Y-64142609D01*
G75*
G02*
X54128482Y-64072972I28679J40958D01*
G01*
G37*
G36*
G01*
X73995612Y-77350000D02*
X73044388Y-77350000D01*
G75*
G02*
X72770000Y-77075612I0J274388D01*
G01*
X72770000Y-76499388D01*
G75*
G02*
X73044388Y-76225000I274388J0D01*
G01*
X73995612Y-76225000D01*
G75*
G02*
X74270000Y-76499388I0J-274388D01*
G01*
X74270000Y-77075612D01*
G75*
G02*
X73995612Y-77350000I-274388J0D01*
G01*
G37*
G36*
G01*
X73995612Y-79175000D02*
X73044388Y-79175000D01*
G75*
G02*
X72770000Y-78900612I0J274388D01*
G01*
X72770000Y-78324388D01*
G75*
G02*
X73044388Y-78050000I274388J0D01*
G01*
X73995612Y-78050000D01*
G75*
G02*
X74270000Y-78324388I0J-274388D01*
G01*
X74270000Y-78900612D01*
G75*
G02*
X73995612Y-79175000I-274388J0D01*
G01*
G37*
G36*
G01*
X60530000Y-66570000D02*
X60530000Y-65570000D01*
G75*
G02*
X60805000Y-65295000I275000J0D01*
G01*
X61355000Y-65295000D01*
G75*
G02*
X61630000Y-65570000I0J-275000D01*
G01*
X61630000Y-66570000D01*
G75*
G02*
X61355000Y-66845000I-275000J0D01*
G01*
X60805000Y-66845000D01*
G75*
G02*
X60530000Y-66570000I0J275000D01*
G01*
G37*
G36*
G01*
X58630000Y-66570000D02*
X58630000Y-65570000D01*
G75*
G02*
X58905000Y-65295000I275000J0D01*
G01*
X59455000Y-65295000D01*
G75*
G02*
X59730000Y-65570000I0J-275000D01*
G01*
X59730000Y-66570000D01*
G75*
G02*
X59455000Y-66845000I-275000J0D01*
G01*
X58905000Y-66845000D01*
G75*
G02*
X58630000Y-66570000I0J275000D01*
G01*
G37*
G36*
G01*
X63484388Y-59190000D02*
X64435612Y-59190000D01*
G75*
G02*
X64710000Y-59464388I0J-274388D01*
G01*
X64710000Y-60040612D01*
G75*
G02*
X64435612Y-60315000I-274388J0D01*
G01*
X63484388Y-60315000D01*
G75*
G02*
X63210000Y-60040612I0J274388D01*
G01*
X63210000Y-59464388D01*
G75*
G02*
X63484388Y-59190000I274388J0D01*
G01*
G37*
G36*
G01*
X63484388Y-57365000D02*
X64435612Y-57365000D01*
G75*
G02*
X64710000Y-57639388I0J-274388D01*
G01*
X64710000Y-58215612D01*
G75*
G02*
X64435612Y-58490000I-274388J0D01*
G01*
X63484388Y-58490000D01*
G75*
G02*
X63210000Y-58215612I0J274388D01*
G01*
X63210000Y-57639388D01*
G75*
G02*
X63484388Y-57365000I274388J0D01*
G01*
G37*
G36*
G01*
X53006096Y-65229650D02*
X52460497Y-66008847D01*
G75*
G02*
X52078350Y-66076230I-224765J157382D01*
G01*
X51606335Y-65745721D01*
G75*
G02*
X51538952Y-65363574I157382J224765D01*
G01*
X52084551Y-64584377D01*
G75*
G02*
X52466698Y-64516994I224765J-157382D01*
G01*
X52938713Y-64847503D01*
G75*
G02*
X53006096Y-65229650I-157382J-224765D01*
G01*
G37*
G36*
G01*
X54501048Y-66276426D02*
X53955449Y-67055623D01*
G75*
G02*
X53573302Y-67123006I-224765J157382D01*
G01*
X53101287Y-66792497D01*
G75*
G02*
X53033904Y-66410350I157382J224765D01*
G01*
X53579503Y-65631153D01*
G75*
G02*
X53961650Y-65563770I224765J-157382D01*
G01*
X54433665Y-65894279D01*
G75*
G02*
X54501048Y-66276426I-157382J-224765D01*
G01*
G37*
G36*
G01*
X60735000Y-72145000D02*
X60735000Y-72755000D01*
G75*
G02*
X60685000Y-72805000I-50000J0D01*
G01*
X60335000Y-72805000D01*
G75*
G02*
X60285000Y-72755000I0J50000D01*
G01*
X60285000Y-72145000D01*
G75*
G02*
X60335000Y-72095000I50000J0D01*
G01*
X60685000Y-72095000D01*
G75*
G02*
X60735000Y-72145000I0J-50000D01*
G01*
G37*
G36*
G01*
X60235000Y-72145000D02*
X60235000Y-72755000D01*
G75*
G02*
X60185000Y-72805000I-50000J0D01*
G01*
X59835000Y-72805000D01*
G75*
G02*
X59785000Y-72755000I0J50000D01*
G01*
X59785000Y-72145000D01*
G75*
G02*
X59835000Y-72095000I50000J0D01*
G01*
X60185000Y-72095000D01*
G75*
G02*
X60235000Y-72145000I0J-50000D01*
G01*
G37*
G36*
G01*
X59735000Y-72145000D02*
X59735000Y-72755000D01*
G75*
G02*
X59685000Y-72805000I-50000J0D01*
G01*
X59335000Y-72805000D01*
G75*
G02*
X59285000Y-72755000I0J50000D01*
G01*
X59285000Y-72145000D01*
G75*
G02*
X59335000Y-72095000I50000J0D01*
G01*
X59685000Y-72095000D01*
G75*
G02*
X59735000Y-72145000I0J-50000D01*
G01*
G37*
G36*
G01*
X59205000Y-72115000D02*
X59205000Y-72465000D01*
G75*
G02*
X59155000Y-72515000I-50000J0D01*
G01*
X58545000Y-72515000D01*
G75*
G02*
X58495000Y-72465000I0J50000D01*
G01*
X58495000Y-72115000D01*
G75*
G02*
X58545000Y-72065000I50000J0D01*
G01*
X59155000Y-72065000D01*
G75*
G02*
X59205000Y-72115000I0J-50000D01*
G01*
G37*
G36*
G01*
X59205000Y-71615000D02*
X59205000Y-71965000D01*
G75*
G02*
X59155000Y-72015000I-50000J0D01*
G01*
X58545000Y-72015000D01*
G75*
G02*
X58495000Y-71965000I0J50000D01*
G01*
X58495000Y-71615000D01*
G75*
G02*
X58545000Y-71565000I50000J0D01*
G01*
X59155000Y-71565000D01*
G75*
G02*
X59205000Y-71615000I0J-50000D01*
G01*
G37*
G36*
G01*
X59205000Y-71115000D02*
X59205000Y-71465000D01*
G75*
G02*
X59155000Y-71515000I-50000J0D01*
G01*
X58545000Y-71515000D01*
G75*
G02*
X58495000Y-71465000I0J50000D01*
G01*
X58495000Y-71115000D01*
G75*
G02*
X58545000Y-71065000I50000J0D01*
G01*
X59155000Y-71065000D01*
G75*
G02*
X59205000Y-71115000I0J-50000D01*
G01*
G37*
G36*
G01*
X59205000Y-70615000D02*
X59205000Y-70965000D01*
G75*
G02*
X59155000Y-71015000I-50000J0D01*
G01*
X58545000Y-71015000D01*
G75*
G02*
X58495000Y-70965000I0J50000D01*
G01*
X58495000Y-70615000D01*
G75*
G02*
X58545000Y-70565000I50000J0D01*
G01*
X59155000Y-70565000D01*
G75*
G02*
X59205000Y-70615000I0J-50000D01*
G01*
G37*
G36*
G01*
X59735000Y-70325000D02*
X59735000Y-70935000D01*
G75*
G02*
X59685000Y-70985000I-50000J0D01*
G01*
X59335000Y-70985000D01*
G75*
G02*
X59285000Y-70935000I0J50000D01*
G01*
X59285000Y-70325000D01*
G75*
G02*
X59335000Y-70275000I50000J0D01*
G01*
X59685000Y-70275000D01*
G75*
G02*
X59735000Y-70325000I0J-50000D01*
G01*
G37*
G36*
G01*
X60235000Y-70325000D02*
X60235000Y-70935000D01*
G75*
G02*
X60185000Y-70985000I-50000J0D01*
G01*
X59835000Y-70985000D01*
G75*
G02*
X59785000Y-70935000I0J50000D01*
G01*
X59785000Y-70325000D01*
G75*
G02*
X59835000Y-70275000I50000J0D01*
G01*
X60185000Y-70275000D01*
G75*
G02*
X60235000Y-70325000I0J-50000D01*
G01*
G37*
G36*
G01*
X60735000Y-70325000D02*
X60735000Y-70935000D01*
G75*
G02*
X60685000Y-70985000I-50000J0D01*
G01*
X60335000Y-70985000D01*
G75*
G02*
X60285000Y-70935000I0J50000D01*
G01*
X60285000Y-70325000D01*
G75*
G02*
X60335000Y-70275000I50000J0D01*
G01*
X60685000Y-70275000D01*
G75*
G02*
X60735000Y-70325000I0J-50000D01*
G01*
G37*
G36*
G01*
X61525000Y-70615000D02*
X61525000Y-70965000D01*
G75*
G02*
X61475000Y-71015000I-50000J0D01*
G01*
X60865000Y-71015000D01*
G75*
G02*
X60815000Y-70965000I0J50000D01*
G01*
X60815000Y-70615000D01*
G75*
G02*
X60865000Y-70565000I50000J0D01*
G01*
X61475000Y-70565000D01*
G75*
G02*
X61525000Y-70615000I0J-50000D01*
G01*
G37*
G36*
G01*
X61525000Y-71115000D02*
X61525000Y-71465000D01*
G75*
G02*
X61475000Y-71515000I-50000J0D01*
G01*
X60865000Y-71515000D01*
G75*
G02*
X60815000Y-71465000I0J50000D01*
G01*
X60815000Y-71115000D01*
G75*
G02*
X60865000Y-71065000I50000J0D01*
G01*
X61475000Y-71065000D01*
G75*
G02*
X61525000Y-71115000I0J-50000D01*
G01*
G37*
G36*
G01*
X61525000Y-71615000D02*
X61525000Y-71965000D01*
G75*
G02*
X61475000Y-72015000I-50000J0D01*
G01*
X60865000Y-72015000D01*
G75*
G02*
X60815000Y-71965000I0J50000D01*
G01*
X60815000Y-71615000D01*
G75*
G02*
X60865000Y-71565000I50000J0D01*
G01*
X61475000Y-71565000D01*
G75*
G02*
X61525000Y-71615000I0J-50000D01*
G01*
G37*
G36*
G01*
X61525000Y-72115000D02*
X61525000Y-72465000D01*
G75*
G02*
X61475000Y-72515000I-50000J0D01*
G01*
X60865000Y-72515000D01*
G75*
G02*
X60815000Y-72465000I0J50000D01*
G01*
X60815000Y-72115000D01*
G75*
G02*
X60865000Y-72065000I50000J0D01*
G01*
X61475000Y-72065000D01*
G75*
G02*
X61525000Y-72115000I0J-50000D01*
G01*
G37*
G36*
G01*
X64688000Y-76320000D02*
X65210000Y-76320000D01*
G75*
G02*
X65260000Y-76370000I0J-50000D01*
G01*
X65260000Y-77095000D01*
G75*
G02*
X65210000Y-77145000I-50000J0D01*
G01*
X64688000Y-77145000D01*
G75*
G02*
X64638000Y-77095000I0J50000D01*
G01*
X64638000Y-76370000D01*
G75*
G02*
X64688000Y-76320000I50000J0D01*
G01*
G37*
G36*
G01*
X65510000Y-76320000D02*
X66032000Y-76320000D01*
G75*
G02*
X66082000Y-76370000I0J-50000D01*
G01*
X66082000Y-77095000D01*
G75*
G02*
X66032000Y-77145000I-50000J0D01*
G01*
X65510000Y-77145000D01*
G75*
G02*
X65460000Y-77095000I0J50000D01*
G01*
X65460000Y-76370000D01*
G75*
G02*
X65510000Y-76320000I50000J0D01*
G01*
G37*
G36*
G01*
X65510000Y-77995000D02*
X66032000Y-77995000D01*
G75*
G02*
X66082000Y-78045000I0J-50000D01*
G01*
X66082000Y-78770000D01*
G75*
G02*
X66032000Y-78820000I-50000J0D01*
G01*
X65510000Y-78820000D01*
G75*
G02*
X65460000Y-78770000I0J50000D01*
G01*
X65460000Y-78045000D01*
G75*
G02*
X65510000Y-77995000I50000J0D01*
G01*
G37*
G36*
G01*
X64688000Y-77995000D02*
X65210000Y-77995000D01*
G75*
G02*
X65260000Y-78045000I0J-50000D01*
G01*
X65260000Y-78770000D01*
G75*
G02*
X65210000Y-78820000I-50000J0D01*
G01*
X64688000Y-78820000D01*
G75*
G02*
X64638000Y-78770000I0J50000D01*
G01*
X64638000Y-78045000D01*
G75*
G02*
X64688000Y-77995000I50000J0D01*
G01*
G37*
D12*
X67023000Y-77570000D03*
G36*
G01*
X68300000Y-57030000D02*
X69300000Y-57030000D01*
G75*
G02*
X69575000Y-57305000I0J-275000D01*
G01*
X69575000Y-57855000D01*
G75*
G02*
X69300000Y-58130000I-275000J0D01*
G01*
X68300000Y-58130000D01*
G75*
G02*
X68025000Y-57855000I0J275000D01*
G01*
X68025000Y-57305000D01*
G75*
G02*
X68300000Y-57030000I275000J0D01*
G01*
G37*
G36*
G01*
X68300000Y-55130000D02*
X69300000Y-55130000D01*
G75*
G02*
X69575000Y-55405000I0J-275000D01*
G01*
X69575000Y-55955000D01*
G75*
G02*
X69300000Y-56230000I-275000J0D01*
G01*
X68300000Y-56230000D01*
G75*
G02*
X68025000Y-55955000I0J275000D01*
G01*
X68025000Y-55405000D01*
G75*
G02*
X68300000Y-55130000I275000J0D01*
G01*
G37*
G36*
G01*
X76850000Y-73960000D02*
X76850000Y-72960000D01*
G75*
G02*
X77125000Y-72685000I275000J0D01*
G01*
X77675000Y-72685000D01*
G75*
G02*
X77950000Y-72960000I0J-275000D01*
G01*
X77950000Y-73960000D01*
G75*
G02*
X77675000Y-74235000I-275000J0D01*
G01*
X77125000Y-74235000D01*
G75*
G02*
X76850000Y-73960000I0J275000D01*
G01*
G37*
G36*
G01*
X74950000Y-73960000D02*
X74950000Y-72960000D01*
G75*
G02*
X75225000Y-72685000I275000J0D01*
G01*
X75775000Y-72685000D01*
G75*
G02*
X76050000Y-72960000I0J-275000D01*
G01*
X76050000Y-73960000D01*
G75*
G02*
X75775000Y-74235000I-275000J0D01*
G01*
X75225000Y-74235000D01*
G75*
G02*
X74950000Y-73960000I0J275000D01*
G01*
G37*
G36*
G01*
X61976000Y-75924000D02*
X60976000Y-75924000D01*
G75*
G02*
X60701000Y-75649000I0J275000D01*
G01*
X60701000Y-75099000D01*
G75*
G02*
X60976000Y-74824000I275000J0D01*
G01*
X61976000Y-74824000D01*
G75*
G02*
X62251000Y-75099000I0J-275000D01*
G01*
X62251000Y-75649000D01*
G75*
G02*
X61976000Y-75924000I-275000J0D01*
G01*
G37*
G36*
G01*
X61976000Y-77824000D02*
X60976000Y-77824000D01*
G75*
G02*
X60701000Y-77549000I0J275000D01*
G01*
X60701000Y-76999000D01*
G75*
G02*
X60976000Y-76724000I275000J0D01*
G01*
X61976000Y-76724000D01*
G75*
G02*
X62251000Y-76999000I0J-275000D01*
G01*
X62251000Y-77549000D01*
G75*
G02*
X61976000Y-77824000I-275000J0D01*
G01*
G37*
G36*
G01*
X55710000Y-71670000D02*
X56710000Y-71670000D01*
G75*
G02*
X56985000Y-71945000I0J-275000D01*
G01*
X56985000Y-72495000D01*
G75*
G02*
X56710000Y-72770000I-275000J0D01*
G01*
X55710000Y-72770000D01*
G75*
G02*
X55435000Y-72495000I0J275000D01*
G01*
X55435000Y-71945000D01*
G75*
G02*
X55710000Y-71670000I275000J0D01*
G01*
G37*
G36*
G01*
X55710000Y-69770000D02*
X56710000Y-69770000D01*
G75*
G02*
X56985000Y-70045000I0J-275000D01*
G01*
X56985000Y-70595000D01*
G75*
G02*
X56710000Y-70870000I-275000J0D01*
G01*
X55710000Y-70870000D01*
G75*
G02*
X55435000Y-70595000I0J275000D01*
G01*
X55435000Y-70045000D01*
G75*
G02*
X55710000Y-69770000I275000J0D01*
G01*
G37*
G36*
G01*
X74430000Y-62780000D02*
X75430000Y-62780000D01*
G75*
G02*
X75705000Y-63055000I0J-275000D01*
G01*
X75705000Y-63605000D01*
G75*
G02*
X75430000Y-63880000I-275000J0D01*
G01*
X74430000Y-63880000D01*
G75*
G02*
X74155000Y-63605000I0J275000D01*
G01*
X74155000Y-63055000D01*
G75*
G02*
X74430000Y-62780000I275000J0D01*
G01*
G37*
G36*
G01*
X74430000Y-60880000D02*
X75430000Y-60880000D01*
G75*
G02*
X75705000Y-61155000I0J-275000D01*
G01*
X75705000Y-61705000D01*
G75*
G02*
X75430000Y-61980000I-275000J0D01*
G01*
X74430000Y-61980000D01*
G75*
G02*
X74155000Y-61705000I0J275000D01*
G01*
X74155000Y-61155000D01*
G75*
G02*
X74430000Y-60880000I275000J0D01*
G01*
G37*
G36*
G01*
X75430000Y-66400000D02*
X74430000Y-66400000D01*
G75*
G02*
X74155000Y-66125000I0J275000D01*
G01*
X74155000Y-65575000D01*
G75*
G02*
X74430000Y-65300000I275000J0D01*
G01*
X75430000Y-65300000D01*
G75*
G02*
X75705000Y-65575000I0J-275000D01*
G01*
X75705000Y-66125000D01*
G75*
G02*
X75430000Y-66400000I-275000J0D01*
G01*
G37*
G36*
G01*
X75430000Y-68300000D02*
X74430000Y-68300000D01*
G75*
G02*
X74155000Y-68025000I0J275000D01*
G01*
X74155000Y-67475000D01*
G75*
G02*
X74430000Y-67200000I275000J0D01*
G01*
X75430000Y-67200000D01*
G75*
G02*
X75705000Y-67475000I0J-275000D01*
G01*
X75705000Y-68025000D01*
G75*
G02*
X75430000Y-68300000I-275000J0D01*
G01*
G37*
G36*
G01*
X75155000Y-71000000D02*
X75805000Y-71000000D01*
G75*
G02*
X75855000Y-71050000I0J-50000D01*
G01*
X75855000Y-72110000D01*
G75*
G02*
X75805000Y-72160000I-50000J0D01*
G01*
X75155000Y-72160000D01*
G75*
G02*
X75105000Y-72110000I0J50000D01*
G01*
X75105000Y-71050000D01*
G75*
G02*
X75155000Y-71000000I50000J0D01*
G01*
G37*
G36*
G01*
X77055000Y-71000000D02*
X77705000Y-71000000D01*
G75*
G02*
X77755000Y-71050000I0J-50000D01*
G01*
X77755000Y-72110000D01*
G75*
G02*
X77705000Y-72160000I-50000J0D01*
G01*
X77055000Y-72160000D01*
G75*
G02*
X77005000Y-72110000I0J50000D01*
G01*
X77005000Y-71050000D01*
G75*
G02*
X77055000Y-71000000I50000J0D01*
G01*
G37*
G36*
G01*
X77055000Y-68800000D02*
X77705000Y-68800000D01*
G75*
G02*
X77755000Y-68850000I0J-50000D01*
G01*
X77755000Y-69910000D01*
G75*
G02*
X77705000Y-69960000I-50000J0D01*
G01*
X77055000Y-69960000D01*
G75*
G02*
X77005000Y-69910000I0J50000D01*
G01*
X77005000Y-68850000D01*
G75*
G02*
X77055000Y-68800000I50000J0D01*
G01*
G37*
G36*
G01*
X76105000Y-68800000D02*
X76755000Y-68800000D01*
G75*
G02*
X76805000Y-68850000I0J-50000D01*
G01*
X76805000Y-69910000D01*
G75*
G02*
X76755000Y-69960000I-50000J0D01*
G01*
X76105000Y-69960000D01*
G75*
G02*
X76055000Y-69910000I0J50000D01*
G01*
X76055000Y-68850000D01*
G75*
G02*
X76105000Y-68800000I50000J0D01*
G01*
G37*
G36*
G01*
X75155000Y-68800000D02*
X75805000Y-68800000D01*
G75*
G02*
X75855000Y-68850000I0J-50000D01*
G01*
X75855000Y-69910000D01*
G75*
G02*
X75805000Y-69960000I-50000J0D01*
G01*
X75155000Y-69960000D01*
G75*
G02*
X75105000Y-69910000I0J50000D01*
G01*
X75105000Y-68850000D01*
G75*
G02*
X75155000Y-68800000I50000J0D01*
G01*
G37*
G36*
G01*
X67085000Y-63135000D02*
X67085000Y-62815000D01*
G75*
G02*
X67135000Y-62765000I50000J0D01*
G01*
X67895000Y-62765000D01*
G75*
G02*
X67945000Y-62815000I0J-50000D01*
G01*
X67945000Y-63135000D01*
G75*
G02*
X67895000Y-63185000I-50000J0D01*
G01*
X67135000Y-63185000D01*
G75*
G02*
X67085000Y-63135000I0J50000D01*
G01*
G37*
G36*
G01*
X67085000Y-62485000D02*
X67085000Y-62165000D01*
G75*
G02*
X67135000Y-62115000I50000J0D01*
G01*
X67895000Y-62115000D01*
G75*
G02*
X67945000Y-62165000I0J-50000D01*
G01*
X67945000Y-62485000D01*
G75*
G02*
X67895000Y-62535000I-50000J0D01*
G01*
X67135000Y-62535000D01*
G75*
G02*
X67085000Y-62485000I0J50000D01*
G01*
G37*
G36*
G01*
X67085000Y-61835000D02*
X67085000Y-61515000D01*
G75*
G02*
X67135000Y-61465000I50000J0D01*
G01*
X67895000Y-61465000D01*
G75*
G02*
X67945000Y-61515000I0J-50000D01*
G01*
X67945000Y-61835000D01*
G75*
G02*
X67895000Y-61885000I-50000J0D01*
G01*
X67135000Y-61885000D01*
G75*
G02*
X67085000Y-61835000I0J50000D01*
G01*
G37*
G36*
G01*
X67085000Y-61185000D02*
X67085000Y-60865000D01*
G75*
G02*
X67135000Y-60815000I50000J0D01*
G01*
X67895000Y-60815000D01*
G75*
G02*
X67945000Y-60865000I0J-50000D01*
G01*
X67945000Y-61185000D01*
G75*
G02*
X67895000Y-61235000I-50000J0D01*
G01*
X67135000Y-61235000D01*
G75*
G02*
X67085000Y-61185000I0J50000D01*
G01*
G37*
G36*
G01*
X70055000Y-61185000D02*
X70055000Y-60865000D01*
G75*
G02*
X70105000Y-60815000I50000J0D01*
G01*
X70865000Y-60815000D01*
G75*
G02*
X70915000Y-60865000I0J-50000D01*
G01*
X70915000Y-61185000D01*
G75*
G02*
X70865000Y-61235000I-50000J0D01*
G01*
X70105000Y-61235000D01*
G75*
G02*
X70055000Y-61185000I0J50000D01*
G01*
G37*
G36*
G01*
X70055000Y-61835000D02*
X70055000Y-61515000D01*
G75*
G02*
X70105000Y-61465000I50000J0D01*
G01*
X70865000Y-61465000D01*
G75*
G02*
X70915000Y-61515000I0J-50000D01*
G01*
X70915000Y-61835000D01*
G75*
G02*
X70865000Y-61885000I-50000J0D01*
G01*
X70105000Y-61885000D01*
G75*
G02*
X70055000Y-61835000I0J50000D01*
G01*
G37*
G36*
G01*
X70055000Y-62485000D02*
X70055000Y-62165000D01*
G75*
G02*
X70105000Y-62115000I50000J0D01*
G01*
X70865000Y-62115000D01*
G75*
G02*
X70915000Y-62165000I0J-50000D01*
G01*
X70915000Y-62485000D01*
G75*
G02*
X70865000Y-62535000I-50000J0D01*
G01*
X70105000Y-62535000D01*
G75*
G02*
X70055000Y-62485000I0J50000D01*
G01*
G37*
G36*
G01*
X70055000Y-63135000D02*
X70055000Y-62815000D01*
G75*
G02*
X70105000Y-62765000I50000J0D01*
G01*
X70865000Y-62765000D01*
G75*
G02*
X70915000Y-62815000I0J-50000D01*
G01*
X70915000Y-63135000D01*
G75*
G02*
X70865000Y-63185000I-50000J0D01*
G01*
X70105000Y-63185000D01*
G75*
G02*
X70055000Y-63135000I0J50000D01*
G01*
G37*
G36*
G01*
X68200000Y-63150000D02*
X68200000Y-60850000D01*
G75*
G02*
X68250000Y-60800000I50000J0D01*
G01*
X69750000Y-60800000D01*
G75*
G02*
X69800000Y-60850000I0J-50000D01*
G01*
X69800000Y-63150000D01*
G75*
G02*
X69750000Y-63200000I-50000J0D01*
G01*
X68250000Y-63200000D01*
G75*
G02*
X68200000Y-63150000I0J50000D01*
G01*
G37*
G36*
G01*
X81039409Y-76836462D02*
X81039409Y-76836462D01*
G75*
G02*
X80288095Y-76635148I-275000J476314D01*
G01*
X80288095Y-76635148D01*
G75*
G02*
X80489409Y-75883834I476314J275000D01*
G01*
X80489409Y-75883834D01*
G75*
G02*
X81240723Y-76085148I275000J-476314D01*
G01*
X81240723Y-76085148D01*
G75*
G02*
X81039409Y-76836462I-476314J-275000D01*
G01*
G37*
G36*
G01*
X81674409Y-77936314D02*
X81674409Y-77936314D01*
G75*
G02*
X80923095Y-77735000I-275000J476314D01*
G01*
X80923095Y-77735000D01*
G75*
G02*
X81124409Y-76983686I476314J275000D01*
G01*
X81124409Y-76983686D01*
G75*
G02*
X81875723Y-77185000I275000J-476314D01*
G01*
X81875723Y-77185000D01*
G75*
G02*
X81674409Y-77936314I-476314J-275000D01*
G01*
G37*
G36*
G01*
X79939557Y-77471462D02*
X79939557Y-77471462D01*
G75*
G02*
X79188243Y-77270148I-275000J476314D01*
G01*
X79188243Y-77270148D01*
G75*
G02*
X79389557Y-76518834I476314J275000D01*
G01*
X79389557Y-76518834D01*
G75*
G02*
X80140871Y-76720148I275000J-476314D01*
G01*
X80140871Y-76720148D01*
G75*
G02*
X79939557Y-77471462I-476314J-275000D01*
G01*
G37*
G36*
G01*
X80574557Y-78571314D02*
X80574557Y-78571314D01*
G75*
G02*
X79823243Y-78370000I-275000J476314D01*
G01*
X79823243Y-78370000D01*
G75*
G02*
X80024557Y-77618686I476314J275000D01*
G01*
X80024557Y-77618686D01*
G75*
G02*
X80775871Y-77820000I275000J-476314D01*
G01*
X80775871Y-77820000D01*
G75*
G02*
X80574557Y-78571314I-476314J-275000D01*
G01*
G37*
G36*
G01*
X78839705Y-78106462D02*
X78839705Y-78106462D01*
G75*
G02*
X78088391Y-77905148I-275000J476314D01*
G01*
X78088391Y-77905148D01*
G75*
G02*
X78289705Y-77153834I476314J275000D01*
G01*
X78289705Y-77153834D01*
G75*
G02*
X79041019Y-77355148I275000J-476314D01*
G01*
X79041019Y-77355148D01*
G75*
G02*
X78839705Y-78106462I-476314J-275000D01*
G01*
G37*
G36*
G01*
X79474705Y-79206314D02*
X79474705Y-79206314D01*
G75*
G02*
X78723391Y-79005000I-275000J476314D01*
G01*
X78723391Y-79005000D01*
G75*
G02*
X78924705Y-78253686I476314J275000D01*
G01*
X78924705Y-78253686D01*
G75*
G02*
X79676019Y-78455000I275000J-476314D01*
G01*
X79676019Y-78455000D01*
G75*
G02*
X79474705Y-79206314I-476314J-275000D01*
G01*
G37*
G36*
G01*
X77739852Y-78741462D02*
X77739852Y-78741462D01*
G75*
G02*
X76988538Y-78540148I-275000J476314D01*
G01*
X76988538Y-78540148D01*
G75*
G02*
X77189852Y-77788834I476314J275000D01*
G01*
X77189852Y-77788834D01*
G75*
G02*
X77941166Y-77990148I275000J-476314D01*
G01*
X77941166Y-77990148D01*
G75*
G02*
X77739852Y-78741462I-476314J-275000D01*
G01*
G37*
G36*
G01*
X78374852Y-79841314D02*
X78374852Y-79841314D01*
G75*
G02*
X77623538Y-79640000I-275000J476314D01*
G01*
X77623538Y-79640000D01*
G75*
G02*
X77824852Y-78888686I476314J275000D01*
G01*
X77824852Y-78888686D01*
G75*
G02*
X78576166Y-79090000I275000J-476314D01*
G01*
X78576166Y-79090000D01*
G75*
G02*
X78374852Y-79841314I-476314J-275000D01*
G01*
G37*
G36*
G01*
X76640000Y-79376462D02*
X76640000Y-79376462D01*
G75*
G02*
X75888686Y-79175148I-275000J476314D01*
G01*
X75888686Y-79175148D01*
G75*
G02*
X76090000Y-78423834I476314J275000D01*
G01*
X76090000Y-78423834D01*
G75*
G02*
X76841314Y-78625148I275000J-476314D01*
G01*
X76841314Y-78625148D01*
G75*
G02*
X76640000Y-79376462I-476314J-275000D01*
G01*
G37*
G36*
G01*
X77708013Y-80226314D02*
X76841987Y-80726314D01*
G75*
G02*
X76773686Y-80708013I-25000J43301D01*
G01*
X76273686Y-79841987D01*
G75*
G02*
X76291987Y-79773686I43301J25000D01*
G01*
X77158013Y-79273686D01*
G75*
G02*
X77226314Y-79291987I25000J-43301D01*
G01*
X77726314Y-80158013D01*
G75*
G02*
X77708013Y-80226314I-43301J-25000D01*
G01*
G37*
G36*
G01*
X66487500Y-71775000D02*
X66712500Y-71775000D01*
G75*
G02*
X66825000Y-71887500I0J-112500D01*
G01*
X66825000Y-72512500D01*
G75*
G02*
X66712500Y-72625000I-112500J0D01*
G01*
X66487500Y-72625000D01*
G75*
G02*
X66375000Y-72512500I0J112500D01*
G01*
X66375000Y-71887500D01*
G75*
G02*
X66487500Y-71775000I112500J0D01*
G01*
G37*
G36*
G01*
X67287500Y-71775000D02*
X67512500Y-71775000D01*
G75*
G02*
X67625000Y-71887500I0J-112500D01*
G01*
X67625000Y-72512500D01*
G75*
G02*
X67512500Y-72625000I-112500J0D01*
G01*
X67287500Y-72625000D01*
G75*
G02*
X67175000Y-72512500I0J112500D01*
G01*
X67175000Y-71887500D01*
G75*
G02*
X67287500Y-71775000I112500J0D01*
G01*
G37*
G36*
G01*
X68087500Y-71775000D02*
X68312500Y-71775000D01*
G75*
G02*
X68425000Y-71887500I0J-112500D01*
G01*
X68425000Y-72512500D01*
G75*
G02*
X68312500Y-72625000I-112500J0D01*
G01*
X68087500Y-72625000D01*
G75*
G02*
X67975000Y-72512500I0J112500D01*
G01*
X67975000Y-71887500D01*
G75*
G02*
X68087500Y-71775000I112500J0D01*
G01*
G37*
G36*
G01*
X68887500Y-71775000D02*
X69112500Y-71775000D01*
G75*
G02*
X69225000Y-71887500I0J-112500D01*
G01*
X69225000Y-72512500D01*
G75*
G02*
X69112500Y-72625000I-112500J0D01*
G01*
X68887500Y-72625000D01*
G75*
G02*
X68775000Y-72512500I0J112500D01*
G01*
X68775000Y-71887500D01*
G75*
G02*
X68887500Y-71775000I112500J0D01*
G01*
G37*
G36*
G01*
X69687500Y-71775000D02*
X69912500Y-71775000D01*
G75*
G02*
X70025000Y-71887500I0J-112500D01*
G01*
X70025000Y-72512500D01*
G75*
G02*
X69912500Y-72625000I-112500J0D01*
G01*
X69687500Y-72625000D01*
G75*
G02*
X69575000Y-72512500I0J112500D01*
G01*
X69575000Y-71887500D01*
G75*
G02*
X69687500Y-71775000I112500J0D01*
G01*
G37*
G36*
G01*
X70487500Y-71775000D02*
X70712500Y-71775000D01*
G75*
G02*
X70825000Y-71887500I0J-112500D01*
G01*
X70825000Y-72512500D01*
G75*
G02*
X70712500Y-72625000I-112500J0D01*
G01*
X70487500Y-72625000D01*
G75*
G02*
X70375000Y-72512500I0J112500D01*
G01*
X70375000Y-71887500D01*
G75*
G02*
X70487500Y-71775000I112500J0D01*
G01*
G37*
G36*
G01*
X71287500Y-71775000D02*
X71512500Y-71775000D01*
G75*
G02*
X71625000Y-71887500I0J-112500D01*
G01*
X71625000Y-72512500D01*
G75*
G02*
X71512500Y-72625000I-112500J0D01*
G01*
X71287500Y-72625000D01*
G75*
G02*
X71175000Y-72512500I0J112500D01*
G01*
X71175000Y-71887500D01*
G75*
G02*
X71287500Y-71775000I112500J0D01*
G01*
G37*
G36*
G01*
X71287500Y-69375000D02*
X71512500Y-69375000D01*
G75*
G02*
X71625000Y-69487500I0J-112500D01*
G01*
X71625000Y-70112500D01*
G75*
G02*
X71512500Y-70225000I-112500J0D01*
G01*
X71287500Y-70225000D01*
G75*
G02*
X71175000Y-70112500I0J112500D01*
G01*
X71175000Y-69487500D01*
G75*
G02*
X71287500Y-69375000I112500J0D01*
G01*
G37*
G36*
G01*
X70487500Y-69375000D02*
X70712500Y-69375000D01*
G75*
G02*
X70825000Y-69487500I0J-112500D01*
G01*
X70825000Y-70112500D01*
G75*
G02*
X70712500Y-70225000I-112500J0D01*
G01*
X70487500Y-70225000D01*
G75*
G02*
X70375000Y-70112500I0J112500D01*
G01*
X70375000Y-69487500D01*
G75*
G02*
X70487500Y-69375000I112500J0D01*
G01*
G37*
G36*
G01*
X69687500Y-69375000D02*
X69912500Y-69375000D01*
G75*
G02*
X70025000Y-69487500I0J-112500D01*
G01*
X70025000Y-70112500D01*
G75*
G02*
X69912500Y-70225000I-112500J0D01*
G01*
X69687500Y-70225000D01*
G75*
G02*
X69575000Y-70112500I0J112500D01*
G01*
X69575000Y-69487500D01*
G75*
G02*
X69687500Y-69375000I112500J0D01*
G01*
G37*
G36*
G01*
X68887500Y-69375000D02*
X69112500Y-69375000D01*
G75*
G02*
X69225000Y-69487500I0J-112500D01*
G01*
X69225000Y-70112500D01*
G75*
G02*
X69112500Y-70225000I-112500J0D01*
G01*
X68887500Y-70225000D01*
G75*
G02*
X68775000Y-70112500I0J112500D01*
G01*
X68775000Y-69487500D01*
G75*
G02*
X68887500Y-69375000I112500J0D01*
G01*
G37*
G36*
G01*
X68087500Y-69375000D02*
X68312500Y-69375000D01*
G75*
G02*
X68425000Y-69487500I0J-112500D01*
G01*
X68425000Y-70112500D01*
G75*
G02*
X68312500Y-70225000I-112500J0D01*
G01*
X68087500Y-70225000D01*
G75*
G02*
X67975000Y-70112500I0J112500D01*
G01*
X67975000Y-69487500D01*
G75*
G02*
X68087500Y-69375000I112500J0D01*
G01*
G37*
G36*
G01*
X67287500Y-69375000D02*
X67512500Y-69375000D01*
G75*
G02*
X67625000Y-69487500I0J-112500D01*
G01*
X67625000Y-70112500D01*
G75*
G02*
X67512500Y-70225000I-112500J0D01*
G01*
X67287500Y-70225000D01*
G75*
G02*
X67175000Y-70112500I0J112500D01*
G01*
X67175000Y-69487500D01*
G75*
G02*
X67287500Y-69375000I112500J0D01*
G01*
G37*
G36*
G01*
X66487500Y-69375000D02*
X66712500Y-69375000D01*
G75*
G02*
X66825000Y-69487500I0J-112500D01*
G01*
X66825000Y-70112500D01*
G75*
G02*
X66712500Y-70225000I-112500J0D01*
G01*
X66487500Y-70225000D01*
G75*
G02*
X66375000Y-70112500I0J112500D01*
G01*
X66375000Y-69487500D01*
G75*
G02*
X66487500Y-69375000I112500J0D01*
G01*
G37*
M02*
