G04 #@! TF.GenerationSoftware,KiCad,Pcbnew,5.1.9-73d0e3b20d~88~ubuntu20.04.1*
G04 #@! TF.CreationDate,2021-03-19T22:30:43+02:00*
G04 #@! TF.ProjectId,nRF5340-Wearable,6e524635-3334-4302-9d57-65617261626c,rev?*
G04 #@! TF.SameCoordinates,Original*
G04 #@! TF.FileFunction,Legend,Top*
G04 #@! TF.FilePolarity,Positive*
%FSLAX46Y46*%
G04 Gerber Fmt 4.6, Leading zero omitted, Abs format (unit mm)*
G04 Created by KiCad (PCBNEW 5.1.9-73d0e3b20d~88~ubuntu20.04.1) date 2021-03-19 22:30:43*
%MOMM*%
%LPD*%
G01*
G04 APERTURE LIST*
%ADD10C,0.100000*%
%ADD11C,0.127000*%
%ADD12C,0.120000*%
%ADD13C,0.150000*%
G04 APERTURE END LIST*
D10*
X84359285Y-68855714D02*
X84859285Y-68855714D01*
X84430714Y-68855714D02*
X84395000Y-68820000D01*
X84359285Y-68748571D01*
X84359285Y-68641428D01*
X84395000Y-68570000D01*
X84466428Y-68534285D01*
X84859285Y-68534285D01*
X84859285Y-67748571D02*
X84502142Y-67998571D01*
X84859285Y-68177142D02*
X84109285Y-68177142D01*
X84109285Y-67891428D01*
X84145000Y-67820000D01*
X84180714Y-67784285D01*
X84252142Y-67748571D01*
X84359285Y-67748571D01*
X84430714Y-67784285D01*
X84466428Y-67820000D01*
X84502142Y-67891428D01*
X84502142Y-68177142D01*
X84466428Y-67177142D02*
X84466428Y-67427142D01*
X84859285Y-67427142D02*
X84109285Y-67427142D01*
X84109285Y-67070000D01*
X84109285Y-66427142D02*
X84109285Y-66784285D01*
X84466428Y-66820000D01*
X84430714Y-66784285D01*
X84395000Y-66712857D01*
X84395000Y-66534285D01*
X84430714Y-66462857D01*
X84466428Y-66427142D01*
X84537857Y-66391428D01*
X84716428Y-66391428D01*
X84787857Y-66427142D01*
X84823571Y-66462857D01*
X84859285Y-66534285D01*
X84859285Y-66712857D01*
X84823571Y-66784285D01*
X84787857Y-66820000D01*
X84109285Y-66141428D02*
X84109285Y-65677142D01*
X84395000Y-65927142D01*
X84395000Y-65820000D01*
X84430714Y-65748571D01*
X84466428Y-65712857D01*
X84537857Y-65677142D01*
X84716428Y-65677142D01*
X84787857Y-65712857D01*
X84823571Y-65748571D01*
X84859285Y-65820000D01*
X84859285Y-66034285D01*
X84823571Y-66105714D01*
X84787857Y-66141428D01*
X84359285Y-65034285D02*
X84859285Y-65034285D01*
X84073571Y-65212857D02*
X84609285Y-65391428D01*
X84609285Y-64927142D01*
X84109285Y-64498571D02*
X84109285Y-64427142D01*
X84145000Y-64355714D01*
X84180714Y-64320000D01*
X84252142Y-64284285D01*
X84395000Y-64248571D01*
X84573571Y-64248571D01*
X84716428Y-64284285D01*
X84787857Y-64320000D01*
X84823571Y-64355714D01*
X84859285Y-64427142D01*
X84859285Y-64498571D01*
X84823571Y-64570000D01*
X84787857Y-64605714D01*
X84716428Y-64641428D01*
X84573571Y-64677142D01*
X84395000Y-64677142D01*
X84252142Y-64641428D01*
X84180714Y-64605714D01*
X84145000Y-64570000D01*
X84109285Y-64498571D01*
X67386428Y-79249285D02*
X67386428Y-78499285D01*
X67636428Y-79035000D01*
X67886428Y-78499285D01*
X67886428Y-79249285D01*
X68243571Y-79249285D02*
X68243571Y-78499285D01*
X69029285Y-79177857D02*
X68993571Y-79213571D01*
X68886428Y-79249285D01*
X68815000Y-79249285D01*
X68707857Y-79213571D01*
X68636428Y-79142142D01*
X68600714Y-79070714D01*
X68565000Y-78927857D01*
X68565000Y-78820714D01*
X68600714Y-78677857D01*
X68636428Y-78606428D01*
X68707857Y-78535000D01*
X68815000Y-78499285D01*
X68886428Y-78499285D01*
X68993571Y-78535000D01*
X69029285Y-78570714D01*
X70720000Y-59092440D02*
X70720000Y-59890000D01*
X70720000Y-59890000D02*
X70720000Y-72488400D01*
X70720000Y-72488400D02*
X70720000Y-72488400D01*
X70720000Y-72488400D02*
X70720000Y-59890000D01*
X69808140Y-59890000D02*
X70570140Y-59890000D01*
X70570140Y-59890000D02*
X70720000Y-59890000D01*
X70720000Y-59890000D02*
X71120000Y-59890000D01*
X71120000Y-73890480D02*
X70727620Y-73890480D01*
X86716920Y-73885400D02*
X80443120Y-73885400D01*
X86719460Y-73890480D02*
X86719460Y-73887940D01*
X70869860Y-59890000D02*
X70720000Y-59890000D01*
X70720000Y-59890000D02*
X70720000Y-59890000D01*
D11*
X80220000Y-59890000D02*
X86860000Y-59890000D01*
X86860000Y-73887940D02*
X80220000Y-73887940D01*
D10*
X70720000Y-73887940D02*
X70720000Y-59890000D01*
D11*
X86860000Y-59890000D02*
X86860000Y-73890000D01*
D10*
X70570140Y-59890000D02*
G75*
G03*
X70869860Y-59890000I149860J0D01*
G01*
X70869860Y-59890000D02*
G75*
G03*
X70570140Y-59890000I-149860J0D01*
G01*
D12*
X72950000Y-58050000D02*
X72950000Y-54350000D01*
X79070000Y-58050000D02*
X72950000Y-58050000D01*
X79070000Y-54350000D02*
X79070000Y-58050000D01*
X72950000Y-54350000D02*
X79070000Y-54350000D01*
X73365000Y-76690000D02*
X70680000Y-76690000D01*
X73365000Y-78610000D02*
X73365000Y-76690000D01*
X70680000Y-78610000D02*
X73365000Y-78610000D01*
X67620000Y-56190000D02*
X69820000Y-56190000D01*
X67840000Y-58390000D02*
X69810000Y-58390000D01*
X82566297Y-78091109D02*
X82155062Y-77378829D01*
X81212532Y-75746319D02*
X80801297Y-75034039D01*
X81847532Y-76846171D02*
X81520062Y-76278977D01*
X78223179Y-80598609D02*
X82566297Y-78091109D01*
X75198112Y-78269039D02*
X80801297Y-75034039D01*
X78223179Y-80598609D02*
X77939915Y-80107980D01*
X77376444Y-79132020D02*
X77304915Y-79008128D01*
X77231872Y-78988556D02*
X77107980Y-79060085D01*
X76132020Y-79623556D02*
X76018112Y-79689321D01*
X76018112Y-79689321D02*
X75916877Y-79513977D01*
X75609347Y-78981319D02*
X75198112Y-78269039D01*
X77565000Y-80978609D02*
X76906821Y-81358609D01*
X76906821Y-81358609D02*
X76341821Y-80380000D01*
X65215000Y-56520000D02*
X65215000Y-58127090D01*
X65215000Y-77460000D02*
X65215000Y-75852910D01*
X55445000Y-56520000D02*
X55445000Y-58127090D01*
X63330000Y-56520000D02*
X65215000Y-56520000D01*
X63330000Y-77460000D02*
X65215000Y-77460000D01*
X57330000Y-56520000D02*
X55445000Y-56520000D01*
X57330000Y-77460000D02*
X55445000Y-77460000D01*
X55445000Y-77460000D02*
X55445000Y-75852910D01*
X65211168Y-58124979D02*
G75*
G02*
X65215000Y-75852910I-4881168J-8865021D01*
G01*
X55445000Y-75852910D02*
G75*
G02*
X55445000Y-58127090I4885000J8862910D01*
G01*
D13*
X82888571Y-67841904D02*
X82936190Y-67699047D01*
X82983809Y-67651428D01*
X83079047Y-67603809D01*
X83221904Y-67603809D01*
X83317142Y-67651428D01*
X83364761Y-67699047D01*
X83412380Y-67794285D01*
X83412380Y-68175238D01*
X82412380Y-68175238D01*
X82412380Y-67841904D01*
X82460000Y-67746666D01*
X82507619Y-67699047D01*
X82602857Y-67651428D01*
X82698095Y-67651428D01*
X82793333Y-67699047D01*
X82840952Y-67746666D01*
X82888571Y-67841904D01*
X82888571Y-68175238D01*
X82412380Y-67318095D02*
X82412380Y-66746666D01*
X83412380Y-67032380D02*
X82412380Y-67032380D01*
X82745714Y-65984761D02*
X83412380Y-65984761D01*
X82364761Y-66222857D02*
X83079047Y-66460952D01*
X83079047Y-65841904D01*
X82412380Y-65270476D02*
X82412380Y-65175238D01*
X82460000Y-65080000D01*
X82507619Y-65032380D01*
X82602857Y-64984761D01*
X82793333Y-64937142D01*
X83031428Y-64937142D01*
X83221904Y-64984761D01*
X83317142Y-65032380D01*
X83364761Y-65080000D01*
X83412380Y-65175238D01*
X83412380Y-65270476D01*
X83364761Y-65365714D01*
X83317142Y-65413333D01*
X83221904Y-65460952D01*
X83031428Y-65508571D01*
X82793333Y-65508571D01*
X82602857Y-65460952D01*
X82507619Y-65413333D01*
X82460000Y-65365714D01*
X82412380Y-65270476D01*
D10*
X79550000Y-58593571D02*
X79657142Y-58629285D01*
X79835714Y-58629285D01*
X79907142Y-58593571D01*
X79942857Y-58557857D01*
X79978571Y-58486428D01*
X79978571Y-58415000D01*
X79942857Y-58343571D01*
X79907142Y-58307857D01*
X79835714Y-58272142D01*
X79692857Y-58236428D01*
X79621428Y-58200714D01*
X79585714Y-58165000D01*
X79550000Y-58093571D01*
X79550000Y-58022142D01*
X79585714Y-57950714D01*
X79621428Y-57915000D01*
X79692857Y-57879285D01*
X79871428Y-57879285D01*
X79978571Y-57915000D01*
X80228571Y-57879285D02*
X80407142Y-58629285D01*
X80550000Y-58093571D01*
X80692857Y-58629285D01*
X80871428Y-57879285D01*
X81550000Y-58629285D02*
X81121428Y-58629285D01*
X81335714Y-58629285D02*
X81335714Y-57879285D01*
X81264285Y-57986428D01*
X81192857Y-58057857D01*
X81121428Y-58093571D01*
X72396428Y-79709285D02*
X72396428Y-78959285D01*
X72575000Y-78959285D01*
X72682142Y-78995000D01*
X72753571Y-79066428D01*
X72789285Y-79137857D01*
X72825000Y-79280714D01*
X72825000Y-79387857D01*
X72789285Y-79530714D01*
X72753571Y-79602142D01*
X72682142Y-79673571D01*
X72575000Y-79709285D01*
X72396428Y-79709285D01*
X73539285Y-79709285D02*
X73110714Y-79709285D01*
X73325000Y-79709285D02*
X73325000Y-78959285D01*
X73253571Y-79066428D01*
X73182142Y-79137857D01*
X73110714Y-79173571D01*
X67891428Y-54854285D02*
X67891428Y-55461428D01*
X67927142Y-55532857D01*
X67962857Y-55568571D01*
X68034285Y-55604285D01*
X68177142Y-55604285D01*
X68248571Y-55568571D01*
X68284285Y-55532857D01*
X68320000Y-55461428D01*
X68320000Y-54854285D01*
X69070000Y-55604285D02*
X68641428Y-55604285D01*
X68855714Y-55604285D02*
X68855714Y-54854285D01*
X68784285Y-54961428D01*
X68712857Y-55032857D01*
X68641428Y-55068571D01*
X69534285Y-54854285D02*
X69605714Y-54854285D01*
X69677142Y-54890000D01*
X69712857Y-54925714D01*
X69748571Y-54997142D01*
X69784285Y-55140000D01*
X69784285Y-55318571D01*
X69748571Y-55461428D01*
X69712857Y-55532857D01*
X69677142Y-55568571D01*
X69605714Y-55604285D01*
X69534285Y-55604285D01*
X69462857Y-55568571D01*
X69427142Y-55532857D01*
X69391428Y-55461428D01*
X69355714Y-55318571D01*
X69355714Y-55140000D01*
X69391428Y-54997142D01*
X69427142Y-54925714D01*
X69462857Y-54890000D01*
X69534285Y-54854285D01*
X82820000Y-76219285D02*
X82820000Y-76755000D01*
X82784285Y-76862142D01*
X82712857Y-76933571D01*
X82605714Y-76969285D01*
X82534285Y-76969285D01*
X83570000Y-76969285D02*
X83141428Y-76969285D01*
X83355714Y-76969285D02*
X83355714Y-76219285D01*
X83284285Y-76326428D01*
X83212857Y-76397857D01*
X83141428Y-76433571D01*
X64080714Y-78356428D02*
X64187857Y-78392142D01*
X64223571Y-78427857D01*
X64259285Y-78499285D01*
X64259285Y-78606428D01*
X64223571Y-78677857D01*
X64187857Y-78713571D01*
X64116428Y-78749285D01*
X63830714Y-78749285D01*
X63830714Y-77999285D01*
X64080714Y-77999285D01*
X64152142Y-78035000D01*
X64187857Y-78070714D01*
X64223571Y-78142142D01*
X64223571Y-78213571D01*
X64187857Y-78285000D01*
X64152142Y-78320714D01*
X64080714Y-78356428D01*
X63830714Y-78356428D01*
X64473571Y-77999285D02*
X64902142Y-77999285D01*
X64687857Y-78749285D02*
X64687857Y-77999285D01*
X65545000Y-78749285D02*
X65116428Y-78749285D01*
X65330714Y-78749285D02*
X65330714Y-77999285D01*
X65259285Y-78106428D01*
X65187857Y-78177857D01*
X65116428Y-78213571D01*
M02*
