G04 #@! TF.GenerationSoftware,KiCad,Pcbnew,5.1.9-73d0e3b20d~88~ubuntu20.04.1*
G04 #@! TF.CreationDate,2021-03-19T22:30:43+02:00*
G04 #@! TF.ProjectId,nRF5340-Wearable,6e524635-3334-4302-9d57-65617261626c,rev?*
G04 #@! TF.SameCoordinates,Original*
G04 #@! TF.FileFunction,Copper,L3,Inr*
G04 #@! TF.FilePolarity,Positive*
%FSLAX46Y46*%
G04 Gerber Fmt 4.6, Leading zero omitted, Abs format (unit mm)*
G04 Created by KiCad (PCBNEW 5.1.9-73d0e3b20d~88~ubuntu20.04.1) date 2021-03-19 22:30:43*
%MOMM*%
%LPD*%
G01*
G04 APERTURE LIST*
G04 #@! TA.AperFunction,ComponentPad*
%ADD10C,0.100000*%
G04 #@! TD*
G04 #@! TA.AperFunction,ViaPad*
%ADD11C,0.600000*%
G04 #@! TD*
G04 #@! TA.AperFunction,Conductor*
%ADD12C,0.500000*%
G04 #@! TD*
G04 #@! TA.AperFunction,Conductor*
%ADD13C,0.250000*%
G04 #@! TD*
G04 #@! TA.AperFunction,Conductor*
%ADD14C,0.200000*%
G04 #@! TD*
G04 #@! TA.AperFunction,Conductor*
%ADD15C,0.150000*%
G04 #@! TD*
G04 #@! TA.AperFunction,Conductor*
%ADD16C,0.100000*%
G04 #@! TD*
G04 APERTURE END LIST*
G04 #@! TA.AperFunction,ComponentPad*
G36*
G01*
X81014409Y-76793161D02*
X81014409Y-76793161D01*
G75*
G02*
X80331396Y-76610148I-250000J433013D01*
G01*
X80331396Y-76610148D01*
G75*
G02*
X80514409Y-75927135I433013J250000D01*
G01*
X80514409Y-75927135D01*
G75*
G02*
X81197422Y-76110148I250000J-433013D01*
G01*
X81197422Y-76110148D01*
G75*
G02*
X81014409Y-76793161I-433013J-250000D01*
G01*
G37*
G04 #@! TD.AperFunction*
G04 #@! TA.AperFunction,ComponentPad*
G36*
G01*
X81649409Y-77893013D02*
X81649409Y-77893013D01*
G75*
G02*
X80966396Y-77710000I-250000J433013D01*
G01*
X80966396Y-77710000D01*
G75*
G02*
X81149409Y-77026987I433013J250000D01*
G01*
X81149409Y-77026987D01*
G75*
G02*
X81832422Y-77210000I250000J-433013D01*
G01*
X81832422Y-77210000D01*
G75*
G02*
X81649409Y-77893013I-433013J-250000D01*
G01*
G37*
G04 #@! TD.AperFunction*
G04 #@! TA.AperFunction,ComponentPad*
G36*
G01*
X79914557Y-77428161D02*
X79914557Y-77428161D01*
G75*
G02*
X79231544Y-77245148I-250000J433013D01*
G01*
X79231544Y-77245148D01*
G75*
G02*
X79414557Y-76562135I433013J250000D01*
G01*
X79414557Y-76562135D01*
G75*
G02*
X80097570Y-76745148I250000J-433013D01*
G01*
X80097570Y-76745148D01*
G75*
G02*
X79914557Y-77428161I-433013J-250000D01*
G01*
G37*
G04 #@! TD.AperFunction*
G04 #@! TA.AperFunction,ComponentPad*
G36*
G01*
X80549557Y-78528013D02*
X80549557Y-78528013D01*
G75*
G02*
X79866544Y-78345000I-250000J433013D01*
G01*
X79866544Y-78345000D01*
G75*
G02*
X80049557Y-77661987I433013J250000D01*
G01*
X80049557Y-77661987D01*
G75*
G02*
X80732570Y-77845000I250000J-433013D01*
G01*
X80732570Y-77845000D01*
G75*
G02*
X80549557Y-78528013I-433013J-250000D01*
G01*
G37*
G04 #@! TD.AperFunction*
G04 #@! TA.AperFunction,ComponentPad*
G36*
G01*
X78814705Y-78063161D02*
X78814705Y-78063161D01*
G75*
G02*
X78131692Y-77880148I-250000J433013D01*
G01*
X78131692Y-77880148D01*
G75*
G02*
X78314705Y-77197135I433013J250000D01*
G01*
X78314705Y-77197135D01*
G75*
G02*
X78997718Y-77380148I250000J-433013D01*
G01*
X78997718Y-77380148D01*
G75*
G02*
X78814705Y-78063161I-433013J-250000D01*
G01*
G37*
G04 #@! TD.AperFunction*
G04 #@! TA.AperFunction,ComponentPad*
G36*
G01*
X79449705Y-79163013D02*
X79449705Y-79163013D01*
G75*
G02*
X78766692Y-78980000I-250000J433013D01*
G01*
X78766692Y-78980000D01*
G75*
G02*
X78949705Y-78296987I433013J250000D01*
G01*
X78949705Y-78296987D01*
G75*
G02*
X79632718Y-78480000I250000J-433013D01*
G01*
X79632718Y-78480000D01*
G75*
G02*
X79449705Y-79163013I-433013J-250000D01*
G01*
G37*
G04 #@! TD.AperFunction*
G04 #@! TA.AperFunction,ComponentPad*
G36*
G01*
X77714852Y-78698161D02*
X77714852Y-78698161D01*
G75*
G02*
X77031839Y-78515148I-250000J433013D01*
G01*
X77031839Y-78515148D01*
G75*
G02*
X77214852Y-77832135I433013J250000D01*
G01*
X77214852Y-77832135D01*
G75*
G02*
X77897865Y-78015148I250000J-433013D01*
G01*
X77897865Y-78015148D01*
G75*
G02*
X77714852Y-78698161I-433013J-250000D01*
G01*
G37*
G04 #@! TD.AperFunction*
G04 #@! TA.AperFunction,ComponentPad*
G36*
G01*
X78349852Y-79798013D02*
X78349852Y-79798013D01*
G75*
G02*
X77666839Y-79615000I-250000J433013D01*
G01*
X77666839Y-79615000D01*
G75*
G02*
X77849852Y-78931987I433013J250000D01*
G01*
X77849852Y-78931987D01*
G75*
G02*
X78532865Y-79115000I250000J-433013D01*
G01*
X78532865Y-79115000D01*
G75*
G02*
X78349852Y-79798013I-433013J-250000D01*
G01*
G37*
G04 #@! TD.AperFunction*
G04 #@! TA.AperFunction,ComponentPad*
G36*
G01*
X76615000Y-79333161D02*
X76615000Y-79333161D01*
G75*
G02*
X75931987Y-79150148I-250000J433013D01*
G01*
X75931987Y-79150148D01*
G75*
G02*
X76115000Y-78467135I433013J250000D01*
G01*
X76115000Y-78467135D01*
G75*
G02*
X76798013Y-78650148I250000J-433013D01*
G01*
X76798013Y-78650148D01*
G75*
G02*
X76615000Y-79333161I-433013J-250000D01*
G01*
G37*
G04 #@! TD.AperFunction*
G04 #@! TA.AperFunction,ComponentPad*
D10*
G36*
X77683013Y-80183013D02*
G01*
X76816987Y-80683013D01*
X76316987Y-79816987D01*
X77183013Y-79316987D01*
X77683013Y-80183013D01*
G37*
G04 #@! TD.AperFunction*
D11*
X60900000Y-79000000D03*
X60800000Y-54900000D03*
X56743148Y-75624641D03*
X59600000Y-54900000D03*
X59700000Y-79000000D03*
X78129998Y-66940000D03*
X77860000Y-62330000D03*
X54070000Y-64830000D03*
X57530000Y-69960000D03*
X79220000Y-56490000D03*
X62210000Y-61790000D03*
X66430000Y-65500000D03*
X54570000Y-67490000D03*
X80750000Y-62300000D03*
X80740000Y-60040000D03*
X64580000Y-72540000D03*
X67540000Y-67840000D03*
X64620000Y-68230000D03*
X75740000Y-63860000D03*
X76490000Y-71690000D03*
X70120000Y-55620000D03*
X72110000Y-61200000D03*
X69440000Y-74730000D03*
X79130000Y-65340000D03*
X79190000Y-68350000D03*
X75000000Y-52300000D03*
X62900000Y-52200000D03*
X63100000Y-81500000D03*
X75000000Y-81500000D03*
X56400000Y-78400000D03*
X53200000Y-75300000D03*
X56100000Y-55300000D03*
X53800000Y-57600000D03*
X50780000Y-66730000D03*
X76130000Y-81980000D03*
X69200000Y-79600000D03*
X64600000Y-55800000D03*
X71700000Y-54100000D03*
X65700000Y-54000000D03*
X68800000Y-54000000D03*
X65600000Y-79800000D03*
X71800000Y-79700000D03*
X75400000Y-77000000D03*
X70700000Y-71100000D03*
X78900000Y-71900000D03*
X80720000Y-69140000D03*
X80710000Y-66880000D03*
X80720000Y-64610000D03*
X80710000Y-71540000D03*
X80750000Y-73800000D03*
X80810000Y-79630000D03*
X80780000Y-54720000D03*
X78190000Y-53070000D03*
X77700000Y-81360000D03*
X71840000Y-82460000D03*
X66820000Y-82450000D03*
X51700000Y-72270000D03*
X51420000Y-61890000D03*
X73400000Y-62370000D03*
X78170000Y-63860000D03*
X72210000Y-69880000D03*
X70240000Y-59300000D03*
X67390000Y-58860000D03*
X76270000Y-54120000D03*
X74420000Y-63870000D03*
X68130000Y-64470000D03*
X72150000Y-76100000D03*
X74400000Y-79630000D03*
X68260000Y-73550000D03*
X72960000Y-71390000D03*
X75340000Y-57940000D03*
X75630000Y-55700000D03*
X71700000Y-57530000D03*
X64470000Y-61790000D03*
X52280000Y-63740000D03*
X59605010Y-73234990D03*
X69440000Y-64090000D03*
X79470000Y-75940000D03*
X68790000Y-71160000D03*
X70669975Y-56490025D03*
X70500000Y-64430000D03*
X52620000Y-61640000D03*
X79790000Y-58830000D03*
X69610000Y-65060000D03*
X77420000Y-58070000D03*
X77500000Y-75200000D03*
X76886084Y-76866084D03*
X68790000Y-59860000D03*
X51500000Y-70230000D03*
X73320000Y-66890000D03*
X73320000Y-65400000D03*
X66940000Y-73910000D03*
X76106791Y-65419080D03*
X73248909Y-69988909D03*
X78610000Y-61300000D03*
X64960000Y-75150000D03*
X74518572Y-71689279D03*
X58380662Y-76134540D03*
X78110000Y-68350000D03*
X66370000Y-55860000D03*
X68910000Y-76684540D03*
X78290000Y-69980000D03*
X66440000Y-78860000D03*
X78200000Y-72320000D03*
X65730000Y-57950000D03*
X71600000Y-78600000D03*
X69770000Y-66260000D03*
X76233916Y-75066084D03*
X74280000Y-75200000D03*
X72540000Y-57400000D03*
X73300000Y-68360000D03*
X69679986Y-67011855D03*
X73250000Y-58610000D03*
X72550000Y-58340000D03*
X76876360Y-75781456D03*
D12*
X56743148Y-61393148D02*
X56743148Y-75624641D01*
X56743148Y-57466852D02*
X56743148Y-61393148D01*
X59310000Y-54900000D02*
X56743148Y-57466852D01*
X59600000Y-54900000D02*
X59310000Y-54900000D01*
X56743148Y-76043148D02*
X59700000Y-79000000D01*
X56743148Y-75624641D02*
X56743148Y-76043148D01*
X59700000Y-79000000D02*
X60900000Y-79000000D01*
X78129998Y-64939998D02*
X78129998Y-66940000D01*
X75180000Y-61990000D02*
X78129998Y-64939998D01*
D13*
X75180000Y-61990000D02*
X77520000Y-61990000D01*
X77520000Y-61990000D02*
X77860000Y-62330000D01*
D12*
X74220000Y-61990000D02*
X75180000Y-61990000D01*
X67130000Y-54900000D02*
X74220000Y-61990000D01*
X60800000Y-54900000D02*
X67130000Y-54900000D01*
D14*
X68910000Y-76260276D02*
X68910000Y-76684540D01*
X78290000Y-69980000D02*
X75190276Y-69980000D01*
X75190276Y-69980000D02*
X68910000Y-76260276D01*
X68150000Y-78860000D02*
X74690000Y-72320000D01*
X74690000Y-72320000D02*
X78200000Y-72320000D01*
X66440000Y-78860000D02*
X68150000Y-78860000D01*
X72964264Y-57400000D02*
X72540000Y-57400000D01*
X79900000Y-63534002D02*
X73765998Y-57400000D01*
X73765998Y-57400000D02*
X72964264Y-57400000D01*
X79900000Y-72700000D02*
X79900000Y-63534002D01*
X78770000Y-73830000D02*
X79900000Y-72700000D01*
X75650000Y-73830000D02*
X78770000Y-73830000D01*
X74280000Y-75200000D02*
X75650000Y-73830000D01*
X71951855Y-67011855D02*
X69679986Y-67011855D01*
X73300000Y-68360000D02*
X71951855Y-67011855D01*
D15*
X73554313Y-51427812D02*
X75093247Y-51659180D01*
X76601604Y-52042254D01*
X78064457Y-52573244D01*
X79467320Y-53246889D01*
X80796368Y-54056552D01*
X81162522Y-54332971D01*
X81199998Y-75719115D01*
X81131509Y-75673352D01*
X80990468Y-75614931D01*
X80840740Y-75585148D01*
X80688078Y-75585148D01*
X80538350Y-75614931D01*
X80397309Y-75673352D01*
X80270375Y-75758166D01*
X80162427Y-75866114D01*
X80077613Y-75993048D01*
X80019192Y-76134089D01*
X79989409Y-76283817D01*
X79989409Y-76290852D01*
X79890616Y-76249931D01*
X79740888Y-76220148D01*
X79588226Y-76220148D01*
X79438498Y-76249931D01*
X79297457Y-76308352D01*
X79170523Y-76393166D01*
X79062575Y-76501114D01*
X78977761Y-76628048D01*
X78919340Y-76769089D01*
X78889557Y-76918817D01*
X78889557Y-76925852D01*
X78790764Y-76884931D01*
X78641036Y-76855148D01*
X78488374Y-76855148D01*
X78338646Y-76884931D01*
X78197605Y-76943352D01*
X78070671Y-77028166D01*
X77962723Y-77136114D01*
X77877909Y-77263048D01*
X77819488Y-77404089D01*
X77789705Y-77553817D01*
X77789705Y-77560853D01*
X77690911Y-77519931D01*
X77541183Y-77490148D01*
X77388521Y-77490148D01*
X77238793Y-77519931D01*
X77097752Y-77578352D01*
X76970818Y-77663166D01*
X76862870Y-77771114D01*
X76778056Y-77898048D01*
X76719635Y-78039089D01*
X76689852Y-78188817D01*
X76689852Y-78195852D01*
X76591059Y-78154931D01*
X76441331Y-78125148D01*
X76288669Y-78125148D01*
X76138941Y-78154931D01*
X75997900Y-78213352D01*
X75870966Y-78298166D01*
X75763018Y-78406114D01*
X75678204Y-78533048D01*
X75619783Y-78674089D01*
X75590000Y-78823817D01*
X75590000Y-78976479D01*
X75619783Y-79126207D01*
X75678204Y-79267248D01*
X75763018Y-79394182D01*
X75870966Y-79502130D01*
X75997900Y-79586944D01*
X76111567Y-79634026D01*
X76097760Y-79648768D01*
X76069154Y-79694769D01*
X76050073Y-79745467D01*
X76041249Y-79798914D01*
X76043021Y-79853055D01*
X76055322Y-79905810D01*
X76077678Y-79955152D01*
X76577678Y-80821178D01*
X76609231Y-80865210D01*
X76648768Y-80902240D01*
X76694769Y-80930846D01*
X76745467Y-80949927D01*
X76798914Y-80958751D01*
X76853055Y-80956979D01*
X76905810Y-80944678D01*
X76955152Y-80922322D01*
X77821178Y-80422322D01*
X77865210Y-80390769D01*
X77902240Y-80351232D01*
X77930846Y-80305231D01*
X77949927Y-80254533D01*
X77958751Y-80201086D01*
X77956979Y-80146945D01*
X77951406Y-80123045D01*
X78068737Y-80139380D01*
X78220409Y-80130571D01*
X78330330Y-80104936D01*
X78408790Y-80000096D01*
X78081551Y-79433301D01*
X78064230Y-79443301D01*
X78029589Y-79383301D01*
X78168153Y-79383301D01*
X78495392Y-79950096D01*
X78625416Y-79934568D01*
X78702577Y-79852191D01*
X78786042Y-79725244D01*
X78843137Y-79584453D01*
X78871668Y-79435228D01*
X78871642Y-79431780D01*
X78874616Y-79433526D01*
X79018114Y-79483430D01*
X79168590Y-79504380D01*
X79320262Y-79495571D01*
X79430183Y-79469936D01*
X79508643Y-79365096D01*
X79181404Y-78798301D01*
X78735087Y-79055982D01*
X78168153Y-79383301D01*
X78029589Y-79383301D01*
X78014230Y-79356699D01*
X78031551Y-79346699D01*
X78021551Y-79329378D01*
X78108153Y-79279378D01*
X78118153Y-79296699D01*
X78564470Y-79039018D01*
X79068007Y-78748301D01*
X79268006Y-78748301D01*
X79595245Y-79315096D01*
X79725269Y-79299568D01*
X79802430Y-79217191D01*
X79885895Y-79090244D01*
X79942990Y-78949453D01*
X79971521Y-78800228D01*
X79971495Y-78796780D01*
X79974468Y-78798526D01*
X80117966Y-78848430D01*
X80268442Y-78869380D01*
X80420114Y-78860571D01*
X80530035Y-78834936D01*
X80608495Y-78730096D01*
X80281256Y-78163301D01*
X79834940Y-78420982D01*
X79268006Y-78748301D01*
X79068007Y-78748301D01*
X79131404Y-78711699D01*
X79121404Y-78694378D01*
X79208006Y-78644378D01*
X79218006Y-78661699D01*
X79664322Y-78404018D01*
X80231256Y-78076699D01*
X80221256Y-78059378D01*
X80307858Y-78009378D01*
X80317858Y-78026699D01*
X80764174Y-77769018D01*
X81203146Y-77515578D01*
X81203348Y-77630931D01*
X80934792Y-77785982D01*
X80367858Y-78113301D01*
X80695097Y-78680096D01*
X80825121Y-78664568D01*
X80902282Y-78582191D01*
X80985747Y-78455244D01*
X81042842Y-78314453D01*
X81071373Y-78165228D01*
X81071347Y-78161780D01*
X81074320Y-78163526D01*
X81204361Y-78208750D01*
X81206863Y-79636794D01*
X80246630Y-80300452D01*
X78884860Y-81053741D01*
X77455002Y-81668057D01*
X75971203Y-82137321D01*
X74448135Y-82456893D01*
X72897198Y-82624010D01*
X71994956Y-82650000D01*
X66008705Y-82650000D01*
X64445686Y-82572188D01*
X62906752Y-82340820D01*
X61398396Y-81957746D01*
X59935543Y-81426756D01*
X58532675Y-80753109D01*
X58117202Y-80500000D01*
X63698549Y-80500000D01*
X63700000Y-80514733D01*
X63700001Y-81985257D01*
X63698549Y-82000000D01*
X63704341Y-82058810D01*
X63721496Y-82115360D01*
X63749353Y-82167477D01*
X63786842Y-82213158D01*
X63832523Y-82250647D01*
X63884640Y-82278504D01*
X63941190Y-82295659D01*
X63985267Y-82300000D01*
X64000000Y-82301451D01*
X64014733Y-82300000D01*
X73985267Y-82300000D01*
X74000000Y-82301451D01*
X74014733Y-82300000D01*
X74058810Y-82295659D01*
X74115360Y-82278504D01*
X74167477Y-82250647D01*
X74213158Y-82213158D01*
X74250647Y-82167477D01*
X74278504Y-82115360D01*
X74295659Y-82058810D01*
X74301451Y-82000000D01*
X74300000Y-81985267D01*
X74300000Y-80514733D01*
X74301451Y-80500000D01*
X74295659Y-80441190D01*
X74278504Y-80384640D01*
X74250647Y-80332523D01*
X74213158Y-80286842D01*
X74167477Y-80249353D01*
X74115360Y-80221496D01*
X74058810Y-80204341D01*
X74014733Y-80200000D01*
X74000000Y-80198549D01*
X73985267Y-80200000D01*
X64014733Y-80200000D01*
X64000000Y-80198549D01*
X63985267Y-80200000D01*
X63941190Y-80204341D01*
X63884640Y-80221496D01*
X63832523Y-80249353D01*
X63786842Y-80286842D01*
X63749353Y-80332523D01*
X63721496Y-80384640D01*
X63704341Y-80441190D01*
X63698549Y-80500000D01*
X58117202Y-80500000D01*
X57203639Y-79943452D01*
X55961594Y-79005804D01*
X54818814Y-77949429D01*
X53786600Y-76784774D01*
X52907427Y-75568008D01*
X56168148Y-75568008D01*
X56168148Y-75681274D01*
X56190245Y-75792362D01*
X56218148Y-75859726D01*
X56218148Y-76017368D01*
X56215609Y-76043148D01*
X56218148Y-76068928D01*
X56218148Y-76068936D01*
X56220490Y-76092706D01*
X56225745Y-76146065D01*
X56255765Y-76245028D01*
X56304515Y-76336233D01*
X56321112Y-76356456D01*
X56370122Y-76416175D01*
X56390153Y-76432614D01*
X59162539Y-79205001D01*
X59190442Y-79272365D01*
X59253368Y-79366541D01*
X59333459Y-79446632D01*
X59427635Y-79509558D01*
X59532279Y-79552903D01*
X59643367Y-79575000D01*
X59756633Y-79575000D01*
X59867721Y-79552903D01*
X59935085Y-79525000D01*
X60664915Y-79525000D01*
X60732279Y-79552903D01*
X60843367Y-79575000D01*
X60956633Y-79575000D01*
X61067721Y-79552903D01*
X61172365Y-79509558D01*
X61266541Y-79446632D01*
X61346632Y-79366541D01*
X61409558Y-79272365D01*
X61452903Y-79167721D01*
X61475000Y-79056633D01*
X61475000Y-78943367D01*
X61452903Y-78832279D01*
X61440928Y-78803367D01*
X65865000Y-78803367D01*
X65865000Y-78916633D01*
X65887097Y-79027721D01*
X65930442Y-79132365D01*
X65993368Y-79226541D01*
X66073459Y-79306632D01*
X66167635Y-79369558D01*
X66272279Y-79412903D01*
X66383367Y-79435000D01*
X66496633Y-79435000D01*
X66607721Y-79412903D01*
X66712365Y-79369558D01*
X66806541Y-79306632D01*
X66878173Y-79235000D01*
X68131584Y-79235000D01*
X68150000Y-79236814D01*
X68168416Y-79235000D01*
X68168419Y-79235000D01*
X68223513Y-79229574D01*
X68294200Y-79208131D01*
X68359347Y-79173309D01*
X68416448Y-79126448D01*
X68428195Y-79112134D01*
X68996962Y-78543367D01*
X71025000Y-78543367D01*
X71025000Y-78656633D01*
X71047097Y-78767721D01*
X71090442Y-78872365D01*
X71153368Y-78966541D01*
X71233459Y-79046632D01*
X71327635Y-79109558D01*
X71432279Y-79152903D01*
X71543367Y-79175000D01*
X71656633Y-79175000D01*
X71767721Y-79152903D01*
X71872365Y-79109558D01*
X71966541Y-79046632D01*
X72046632Y-78966541D01*
X72109558Y-78872365D01*
X72152903Y-78767721D01*
X72175000Y-78656633D01*
X72175000Y-78543367D01*
X72152903Y-78432279D01*
X72109558Y-78327635D01*
X72046632Y-78233459D01*
X71966541Y-78153368D01*
X71872365Y-78090442D01*
X71767721Y-78047097D01*
X71656633Y-78025000D01*
X71543367Y-78025000D01*
X71432279Y-78047097D01*
X71327635Y-78090442D01*
X71233459Y-78153368D01*
X71153368Y-78233459D01*
X71090442Y-78327635D01*
X71047097Y-78432279D01*
X71025000Y-78543367D01*
X68996962Y-78543367D01*
X74845330Y-72695000D01*
X77761827Y-72695000D01*
X77833459Y-72766632D01*
X77927635Y-72829558D01*
X78032279Y-72872903D01*
X78143367Y-72895000D01*
X78256633Y-72895000D01*
X78367721Y-72872903D01*
X78472365Y-72829558D01*
X78566541Y-72766632D01*
X78646632Y-72686541D01*
X78709558Y-72592365D01*
X78752903Y-72487721D01*
X78775000Y-72376633D01*
X78775000Y-72263367D01*
X78752903Y-72152279D01*
X78709558Y-72047635D01*
X78646632Y-71953459D01*
X78566541Y-71873368D01*
X78472365Y-71810442D01*
X78367721Y-71767097D01*
X78256633Y-71745000D01*
X78143367Y-71745000D01*
X78032279Y-71767097D01*
X77927635Y-71810442D01*
X77833459Y-71873368D01*
X77761827Y-71945000D01*
X75035024Y-71945000D01*
X75071475Y-71857000D01*
X75093572Y-71745912D01*
X75093572Y-71632646D01*
X75071475Y-71521558D01*
X75028130Y-71416914D01*
X74965204Y-71322738D01*
X74885113Y-71242647D01*
X74790937Y-71179721D01*
X74686293Y-71136376D01*
X74584482Y-71116124D01*
X75345606Y-70355000D01*
X77851827Y-70355000D01*
X77923459Y-70426632D01*
X78017635Y-70489558D01*
X78122279Y-70532903D01*
X78233367Y-70555000D01*
X78346633Y-70555000D01*
X78457721Y-70532903D01*
X78562365Y-70489558D01*
X78656541Y-70426632D01*
X78736632Y-70346541D01*
X78799558Y-70252365D01*
X78842903Y-70147721D01*
X78865000Y-70036633D01*
X78865000Y-69923367D01*
X78842903Y-69812279D01*
X78799558Y-69707635D01*
X78736632Y-69613459D01*
X78656541Y-69533368D01*
X78562365Y-69470442D01*
X78457721Y-69427097D01*
X78346633Y-69405000D01*
X78233367Y-69405000D01*
X78122279Y-69427097D01*
X78017635Y-69470442D01*
X77923459Y-69533368D01*
X77851827Y-69605000D01*
X75208691Y-69605000D01*
X75190275Y-69603186D01*
X75171859Y-69605000D01*
X75171857Y-69605000D01*
X75116763Y-69610426D01*
X75046076Y-69631869D01*
X75046074Y-69631870D01*
X74980928Y-69666691D01*
X74968249Y-69677097D01*
X74923828Y-69713552D01*
X74912085Y-69727861D01*
X68657866Y-75982081D01*
X68643552Y-75993828D01*
X68596691Y-76050930D01*
X68561869Y-76116077D01*
X68540426Y-76186764D01*
X68535389Y-76237908D01*
X68534508Y-76246859D01*
X68463368Y-76317999D01*
X68400442Y-76412175D01*
X68357097Y-76516819D01*
X68335000Y-76627907D01*
X68335000Y-76741173D01*
X68357097Y-76852261D01*
X68400442Y-76956905D01*
X68463368Y-77051081D01*
X68543459Y-77131172D01*
X68637635Y-77194098D01*
X68742279Y-77237443D01*
X68853367Y-77259540D01*
X68966633Y-77259540D01*
X69077721Y-77237443D01*
X69182365Y-77194098D01*
X69276541Y-77131172D01*
X69356632Y-77051081D01*
X69419558Y-76956905D01*
X69462903Y-76852261D01*
X69485000Y-76741173D01*
X69485000Y-76627907D01*
X69462903Y-76516819D01*
X69419558Y-76412175D01*
X69367036Y-76333569D01*
X73945417Y-71755189D01*
X73965669Y-71857000D01*
X74009014Y-71961644D01*
X74071940Y-72055820D01*
X74152031Y-72135911D01*
X74246207Y-72198837D01*
X74270691Y-72208979D01*
X67994671Y-78485000D01*
X66878173Y-78485000D01*
X66806541Y-78413368D01*
X66712365Y-78350442D01*
X66607721Y-78307097D01*
X66496633Y-78285000D01*
X66383367Y-78285000D01*
X66272279Y-78307097D01*
X66167635Y-78350442D01*
X66073459Y-78413368D01*
X65993368Y-78493459D01*
X65930442Y-78587635D01*
X65887097Y-78692279D01*
X65865000Y-78803367D01*
X61440928Y-78803367D01*
X61409558Y-78727635D01*
X61346632Y-78633459D01*
X61266541Y-78553368D01*
X61172365Y-78490442D01*
X61067721Y-78447097D01*
X60956633Y-78425000D01*
X60843367Y-78425000D01*
X60732279Y-78447097D01*
X60664915Y-78475000D01*
X59935085Y-78475000D01*
X59905001Y-78462539D01*
X58953367Y-77510905D01*
X66423000Y-77510905D01*
X66423000Y-77629095D01*
X66446058Y-77745014D01*
X66491287Y-77854207D01*
X66556950Y-77952478D01*
X66640522Y-78036050D01*
X66738793Y-78101713D01*
X66847986Y-78146942D01*
X66963905Y-78170000D01*
X67082095Y-78170000D01*
X67198014Y-78146942D01*
X67307207Y-78101713D01*
X67405478Y-78036050D01*
X67489050Y-77952478D01*
X67554713Y-77854207D01*
X67599942Y-77745014D01*
X67623000Y-77629095D01*
X67623000Y-77510905D01*
X67599942Y-77394986D01*
X67554713Y-77285793D01*
X67489050Y-77187522D01*
X67405478Y-77103950D01*
X67307207Y-77038287D01*
X67198014Y-76993058D01*
X67082095Y-76970000D01*
X66963905Y-76970000D01*
X66847986Y-76993058D01*
X66738793Y-77038287D01*
X66640522Y-77103950D01*
X66556950Y-77187522D01*
X66491287Y-77285793D01*
X66446058Y-77394986D01*
X66423000Y-77510905D01*
X58953367Y-77510905D01*
X58042788Y-76600326D01*
X58108297Y-76644098D01*
X58212941Y-76687443D01*
X58324029Y-76709540D01*
X58437295Y-76709540D01*
X58548383Y-76687443D01*
X58653027Y-76644098D01*
X58747203Y-76581172D01*
X58827294Y-76501081D01*
X58890220Y-76406905D01*
X58933565Y-76302261D01*
X58955662Y-76191173D01*
X58955662Y-76077907D01*
X58933565Y-75966819D01*
X58890220Y-75862175D01*
X58827294Y-75767999D01*
X58747203Y-75687908D01*
X58653027Y-75624982D01*
X58548383Y-75581637D01*
X58437295Y-75559540D01*
X58324029Y-75559540D01*
X58212941Y-75581637D01*
X58108297Y-75624982D01*
X58014121Y-75687908D01*
X57934030Y-75767999D01*
X57871104Y-75862175D01*
X57827759Y-75966819D01*
X57805662Y-76077907D01*
X57805662Y-76191173D01*
X57827759Y-76302261D01*
X57871104Y-76406905D01*
X57914876Y-76472415D01*
X57278118Y-75835657D01*
X57296051Y-75792362D01*
X57318148Y-75681274D01*
X57318148Y-75568008D01*
X57296051Y-75456920D01*
X57268148Y-75389556D01*
X57268148Y-75093367D01*
X64385000Y-75093367D01*
X64385000Y-75206633D01*
X64407097Y-75317721D01*
X64450442Y-75422365D01*
X64513368Y-75516541D01*
X64593459Y-75596632D01*
X64687635Y-75659558D01*
X64792279Y-75702903D01*
X64903367Y-75725000D01*
X65016633Y-75725000D01*
X65127721Y-75702903D01*
X65232365Y-75659558D01*
X65326541Y-75596632D01*
X65406632Y-75516541D01*
X65469558Y-75422365D01*
X65512903Y-75317721D01*
X65535000Y-75206633D01*
X65535000Y-75093367D01*
X65512903Y-74982279D01*
X65469558Y-74877635D01*
X65406632Y-74783459D01*
X65326541Y-74703368D01*
X65232365Y-74640442D01*
X65127721Y-74597097D01*
X65016633Y-74575000D01*
X64903367Y-74575000D01*
X64792279Y-74597097D01*
X64687635Y-74640442D01*
X64593459Y-74703368D01*
X64513368Y-74783459D01*
X64450442Y-74877635D01*
X64407097Y-74982279D01*
X64385000Y-75093367D01*
X57268148Y-75093367D01*
X57268148Y-73853367D01*
X66365000Y-73853367D01*
X66365000Y-73966633D01*
X66387097Y-74077721D01*
X66430442Y-74182365D01*
X66493368Y-74276541D01*
X66573459Y-74356632D01*
X66667635Y-74419558D01*
X66772279Y-74462903D01*
X66883367Y-74485000D01*
X66996633Y-74485000D01*
X67107721Y-74462903D01*
X67212365Y-74419558D01*
X67306541Y-74356632D01*
X67386632Y-74276541D01*
X67449558Y-74182365D01*
X67492903Y-74077721D01*
X67515000Y-73966633D01*
X67515000Y-73853367D01*
X67492903Y-73742279D01*
X67449558Y-73637635D01*
X67386632Y-73543459D01*
X67306541Y-73463368D01*
X67212365Y-73400442D01*
X67107721Y-73357097D01*
X66996633Y-73335000D01*
X66883367Y-73335000D01*
X66772279Y-73357097D01*
X66667635Y-73400442D01*
X66573459Y-73463368D01*
X66493368Y-73543459D01*
X66430442Y-73637635D01*
X66387097Y-73742279D01*
X66365000Y-73853367D01*
X57268148Y-73853367D01*
X57268148Y-71103367D01*
X68215000Y-71103367D01*
X68215000Y-71216633D01*
X68237097Y-71327721D01*
X68280442Y-71432365D01*
X68343368Y-71526541D01*
X68423459Y-71606632D01*
X68517635Y-71669558D01*
X68622279Y-71712903D01*
X68733367Y-71735000D01*
X68846633Y-71735000D01*
X68957721Y-71712903D01*
X69062365Y-71669558D01*
X69156541Y-71606632D01*
X69236632Y-71526541D01*
X69299558Y-71432365D01*
X69342903Y-71327721D01*
X69365000Y-71216633D01*
X69365000Y-71103367D01*
X69342903Y-70992279D01*
X69299558Y-70887635D01*
X69236632Y-70793459D01*
X69156541Y-70713368D01*
X69062365Y-70650442D01*
X68957721Y-70607097D01*
X68846633Y-70585000D01*
X68733367Y-70585000D01*
X68622279Y-70607097D01*
X68517635Y-70650442D01*
X68423459Y-70713368D01*
X68343368Y-70793459D01*
X68280442Y-70887635D01*
X68237097Y-70992279D01*
X68215000Y-71103367D01*
X57268148Y-71103367D01*
X57268148Y-69932276D01*
X72673909Y-69932276D01*
X72673909Y-70045542D01*
X72696006Y-70156630D01*
X72739351Y-70261274D01*
X72802277Y-70355450D01*
X72882368Y-70435541D01*
X72976544Y-70498467D01*
X73081188Y-70541812D01*
X73192276Y-70563909D01*
X73305542Y-70563909D01*
X73416630Y-70541812D01*
X73521274Y-70498467D01*
X73615450Y-70435541D01*
X73695541Y-70355450D01*
X73758467Y-70261274D01*
X73801812Y-70156630D01*
X73823909Y-70045542D01*
X73823909Y-69932276D01*
X73801812Y-69821188D01*
X73758467Y-69716544D01*
X73695541Y-69622368D01*
X73615450Y-69542277D01*
X73521274Y-69479351D01*
X73416630Y-69436006D01*
X73305542Y-69413909D01*
X73192276Y-69413909D01*
X73081188Y-69436006D01*
X72976544Y-69479351D01*
X72882368Y-69542277D01*
X72802277Y-69622368D01*
X72739351Y-69716544D01*
X72696006Y-69821188D01*
X72673909Y-69932276D01*
X57268148Y-69932276D01*
X57268148Y-66955222D01*
X69104986Y-66955222D01*
X69104986Y-67068488D01*
X69127083Y-67179576D01*
X69170428Y-67284220D01*
X69233354Y-67378396D01*
X69313445Y-67458487D01*
X69407621Y-67521413D01*
X69512265Y-67564758D01*
X69623353Y-67586855D01*
X69736619Y-67586855D01*
X69847707Y-67564758D01*
X69952351Y-67521413D01*
X70046527Y-67458487D01*
X70118159Y-67386855D01*
X71796526Y-67386855D01*
X72725000Y-68315330D01*
X72725000Y-68416633D01*
X72747097Y-68527721D01*
X72790442Y-68632365D01*
X72853368Y-68726541D01*
X72933459Y-68806632D01*
X73027635Y-68869558D01*
X73132279Y-68912903D01*
X73243367Y-68935000D01*
X73356633Y-68935000D01*
X73467721Y-68912903D01*
X73572365Y-68869558D01*
X73666541Y-68806632D01*
X73746632Y-68726541D01*
X73809558Y-68632365D01*
X73852903Y-68527721D01*
X73875000Y-68416633D01*
X73875000Y-68303367D01*
X73873011Y-68293367D01*
X77535000Y-68293367D01*
X77535000Y-68406633D01*
X77557097Y-68517721D01*
X77600442Y-68622365D01*
X77663368Y-68716541D01*
X77743459Y-68796632D01*
X77837635Y-68859558D01*
X77942279Y-68902903D01*
X78053367Y-68925000D01*
X78166633Y-68925000D01*
X78277721Y-68902903D01*
X78382365Y-68859558D01*
X78476541Y-68796632D01*
X78556632Y-68716541D01*
X78619558Y-68622365D01*
X78662903Y-68517721D01*
X78685000Y-68406633D01*
X78685000Y-68293367D01*
X78662903Y-68182279D01*
X78619558Y-68077635D01*
X78556632Y-67983459D01*
X78476541Y-67903368D01*
X78382365Y-67840442D01*
X78277721Y-67797097D01*
X78166633Y-67775000D01*
X78053367Y-67775000D01*
X77942279Y-67797097D01*
X77837635Y-67840442D01*
X77743459Y-67903368D01*
X77663368Y-67983459D01*
X77600442Y-68077635D01*
X77557097Y-68182279D01*
X77535000Y-68293367D01*
X73873011Y-68293367D01*
X73852903Y-68192279D01*
X73809558Y-68087635D01*
X73746632Y-67993459D01*
X73666541Y-67913368D01*
X73572365Y-67850442D01*
X73467721Y-67807097D01*
X73356633Y-67785000D01*
X73255330Y-67785000D01*
X72303697Y-66833367D01*
X72745000Y-66833367D01*
X72745000Y-66946633D01*
X72767097Y-67057721D01*
X72810442Y-67162365D01*
X72873368Y-67256541D01*
X72953459Y-67336632D01*
X73047635Y-67399558D01*
X73152279Y-67442903D01*
X73263367Y-67465000D01*
X73376633Y-67465000D01*
X73487721Y-67442903D01*
X73592365Y-67399558D01*
X73686541Y-67336632D01*
X73766632Y-67256541D01*
X73829558Y-67162365D01*
X73872903Y-67057721D01*
X73895000Y-66946633D01*
X73895000Y-66833367D01*
X73872903Y-66722279D01*
X73829558Y-66617635D01*
X73766632Y-66523459D01*
X73686541Y-66443368D01*
X73592365Y-66380442D01*
X73487721Y-66337097D01*
X73376633Y-66315000D01*
X73263367Y-66315000D01*
X73152279Y-66337097D01*
X73047635Y-66380442D01*
X72953459Y-66443368D01*
X72873368Y-66523459D01*
X72810442Y-66617635D01*
X72767097Y-66722279D01*
X72745000Y-66833367D01*
X72303697Y-66833367D01*
X72230050Y-66759721D01*
X72218303Y-66745407D01*
X72161202Y-66698546D01*
X72096055Y-66663724D01*
X72025368Y-66642281D01*
X71970274Y-66636855D01*
X71970271Y-66636855D01*
X71951855Y-66635041D01*
X71933439Y-66636855D01*
X70206318Y-66636855D01*
X70216632Y-66626541D01*
X70279558Y-66532365D01*
X70322903Y-66427721D01*
X70345000Y-66316633D01*
X70345000Y-66203367D01*
X70322903Y-66092279D01*
X70279558Y-65987635D01*
X70216632Y-65893459D01*
X70136541Y-65813368D01*
X70042365Y-65750442D01*
X69937721Y-65707097D01*
X69826633Y-65685000D01*
X69713367Y-65685000D01*
X69602279Y-65707097D01*
X69497635Y-65750442D01*
X69403459Y-65813368D01*
X69323368Y-65893459D01*
X69260442Y-65987635D01*
X69217097Y-66092279D01*
X69195000Y-66203367D01*
X69195000Y-66316633D01*
X69217097Y-66427721D01*
X69260442Y-66532365D01*
X69294833Y-66583835D01*
X69233354Y-66645314D01*
X69170428Y-66739490D01*
X69127083Y-66844134D01*
X69104986Y-66955222D01*
X57268148Y-66955222D01*
X57268148Y-65003367D01*
X69035000Y-65003367D01*
X69035000Y-65116633D01*
X69057097Y-65227721D01*
X69100442Y-65332365D01*
X69163368Y-65426541D01*
X69243459Y-65506632D01*
X69337635Y-65569558D01*
X69442279Y-65612903D01*
X69553367Y-65635000D01*
X69666633Y-65635000D01*
X69777721Y-65612903D01*
X69882365Y-65569558D01*
X69976541Y-65506632D01*
X70056632Y-65426541D01*
X70112206Y-65343367D01*
X72745000Y-65343367D01*
X72745000Y-65456633D01*
X72767097Y-65567721D01*
X72810442Y-65672365D01*
X72873368Y-65766541D01*
X72953459Y-65846632D01*
X73047635Y-65909558D01*
X73152279Y-65952903D01*
X73263367Y-65975000D01*
X73376633Y-65975000D01*
X73487721Y-65952903D01*
X73592365Y-65909558D01*
X73686541Y-65846632D01*
X73766632Y-65766541D01*
X73829558Y-65672365D01*
X73872903Y-65567721D01*
X73895000Y-65456633D01*
X73895000Y-65362447D01*
X75531791Y-65362447D01*
X75531791Y-65475713D01*
X75553888Y-65586801D01*
X75597233Y-65691445D01*
X75660159Y-65785621D01*
X75740250Y-65865712D01*
X75834426Y-65928638D01*
X75939070Y-65971983D01*
X76050158Y-65994080D01*
X76163424Y-65994080D01*
X76274512Y-65971983D01*
X76379156Y-65928638D01*
X76473332Y-65865712D01*
X76553423Y-65785621D01*
X76616349Y-65691445D01*
X76659694Y-65586801D01*
X76681791Y-65475713D01*
X76681791Y-65362447D01*
X76659694Y-65251359D01*
X76616349Y-65146715D01*
X76553423Y-65052539D01*
X76473332Y-64972448D01*
X76379156Y-64909522D01*
X76274512Y-64866177D01*
X76163424Y-64844080D01*
X76050158Y-64844080D01*
X75939070Y-64866177D01*
X75834426Y-64909522D01*
X75740250Y-64972448D01*
X75660159Y-65052539D01*
X75597233Y-65146715D01*
X75553888Y-65251359D01*
X75531791Y-65362447D01*
X73895000Y-65362447D01*
X73895000Y-65343367D01*
X73872903Y-65232279D01*
X73829558Y-65127635D01*
X73766632Y-65033459D01*
X73686541Y-64953368D01*
X73592365Y-64890442D01*
X73487721Y-64847097D01*
X73376633Y-64825000D01*
X73263367Y-64825000D01*
X73152279Y-64847097D01*
X73047635Y-64890442D01*
X72953459Y-64953368D01*
X72873368Y-65033459D01*
X72810442Y-65127635D01*
X72767097Y-65232279D01*
X72745000Y-65343367D01*
X70112206Y-65343367D01*
X70119558Y-65332365D01*
X70162903Y-65227721D01*
X70185000Y-65116633D01*
X70185000Y-65003367D01*
X70163827Y-64896923D01*
X70227635Y-64939558D01*
X70332279Y-64982903D01*
X70443367Y-65005000D01*
X70556633Y-65005000D01*
X70667721Y-64982903D01*
X70772365Y-64939558D01*
X70866541Y-64876632D01*
X70946632Y-64796541D01*
X71009558Y-64702365D01*
X71052903Y-64597721D01*
X71075000Y-64486633D01*
X71075000Y-64373367D01*
X71052903Y-64262279D01*
X71009558Y-64157635D01*
X70946632Y-64063459D01*
X70866541Y-63983368D01*
X70772365Y-63920442D01*
X70667721Y-63877097D01*
X70556633Y-63855000D01*
X70443367Y-63855000D01*
X70332279Y-63877097D01*
X70227635Y-63920442D01*
X70133459Y-63983368D01*
X70053368Y-64063459D01*
X69990442Y-64157635D01*
X69947097Y-64262279D01*
X69925000Y-64373367D01*
X69925000Y-64486633D01*
X69946173Y-64593077D01*
X69882365Y-64550442D01*
X69777721Y-64507097D01*
X69666633Y-64485000D01*
X69553367Y-64485000D01*
X69442279Y-64507097D01*
X69337635Y-64550442D01*
X69243459Y-64613368D01*
X69163368Y-64693459D01*
X69100442Y-64787635D01*
X69057097Y-64892279D01*
X69035000Y-65003367D01*
X57268148Y-65003367D01*
X57268148Y-59803367D01*
X68215000Y-59803367D01*
X68215000Y-59916633D01*
X68237097Y-60027721D01*
X68280442Y-60132365D01*
X68343368Y-60226541D01*
X68423459Y-60306632D01*
X68517635Y-60369558D01*
X68622279Y-60412903D01*
X68733367Y-60435000D01*
X68846633Y-60435000D01*
X68957721Y-60412903D01*
X69062365Y-60369558D01*
X69156541Y-60306632D01*
X69236632Y-60226541D01*
X69299558Y-60132365D01*
X69342903Y-60027721D01*
X69365000Y-59916633D01*
X69365000Y-59803367D01*
X69342903Y-59692279D01*
X69299558Y-59587635D01*
X69236632Y-59493459D01*
X69156541Y-59413368D01*
X69062365Y-59350442D01*
X68957721Y-59307097D01*
X68846633Y-59285000D01*
X68733367Y-59285000D01*
X68622279Y-59307097D01*
X68517635Y-59350442D01*
X68423459Y-59413368D01*
X68343368Y-59493459D01*
X68280442Y-59587635D01*
X68237097Y-59692279D01*
X68215000Y-59803367D01*
X57268148Y-59803367D01*
X57268148Y-57893367D01*
X65155000Y-57893367D01*
X65155000Y-58006633D01*
X65177097Y-58117721D01*
X65220442Y-58222365D01*
X65283368Y-58316541D01*
X65363459Y-58396632D01*
X65457635Y-58459558D01*
X65562279Y-58502903D01*
X65673367Y-58525000D01*
X65786633Y-58525000D01*
X65897721Y-58502903D01*
X66002365Y-58459558D01*
X66096541Y-58396632D01*
X66176632Y-58316541D01*
X66239558Y-58222365D01*
X66282903Y-58117721D01*
X66305000Y-58006633D01*
X66305000Y-57893367D01*
X66282903Y-57782279D01*
X66239558Y-57677635D01*
X66176632Y-57583459D01*
X66096541Y-57503368D01*
X66002365Y-57440442D01*
X65897721Y-57397097D01*
X65786633Y-57375000D01*
X65673367Y-57375000D01*
X65562279Y-57397097D01*
X65457635Y-57440442D01*
X65363459Y-57503368D01*
X65283368Y-57583459D01*
X65220442Y-57677635D01*
X65177097Y-57782279D01*
X65155000Y-57893367D01*
X57268148Y-57893367D01*
X57268148Y-57684313D01*
X59488396Y-55464066D01*
X59543367Y-55475000D01*
X59656633Y-55475000D01*
X59767721Y-55452903D01*
X59872365Y-55409558D01*
X59966541Y-55346632D01*
X60046632Y-55266541D01*
X60109558Y-55172365D01*
X60152903Y-55067721D01*
X60175000Y-54956633D01*
X60175000Y-54843367D01*
X60225000Y-54843367D01*
X60225000Y-54956633D01*
X60247097Y-55067721D01*
X60290442Y-55172365D01*
X60353368Y-55266541D01*
X60433459Y-55346632D01*
X60527635Y-55409558D01*
X60632279Y-55452903D01*
X60743367Y-55475000D01*
X60856633Y-55475000D01*
X60967721Y-55452903D01*
X61035085Y-55425000D01*
X65991827Y-55425000D01*
X65923368Y-55493459D01*
X65860442Y-55587635D01*
X65817097Y-55692279D01*
X65795000Y-55803367D01*
X65795000Y-55916633D01*
X65817097Y-56027721D01*
X65860442Y-56132365D01*
X65923368Y-56226541D01*
X66003459Y-56306632D01*
X66097635Y-56369558D01*
X66202279Y-56412903D01*
X66313367Y-56435000D01*
X66426633Y-56435000D01*
X66537721Y-56412903D01*
X66642365Y-56369558D01*
X66736541Y-56306632D01*
X66816632Y-56226541D01*
X66879558Y-56132365D01*
X66922903Y-56027721D01*
X66945000Y-55916633D01*
X66945000Y-55803367D01*
X66922903Y-55692279D01*
X66879558Y-55587635D01*
X66816632Y-55493459D01*
X66748173Y-55425000D01*
X66912539Y-55425000D01*
X73830534Y-62342996D01*
X73846973Y-62363027D01*
X73926914Y-62428633D01*
X74018119Y-62477383D01*
X74117082Y-62507403D01*
X74194212Y-62515000D01*
X74194219Y-62515000D01*
X74219999Y-62517539D01*
X74245779Y-62515000D01*
X74962539Y-62515000D01*
X77604998Y-65157460D01*
X77604999Y-66704913D01*
X77577095Y-66772279D01*
X77554998Y-66883367D01*
X77554998Y-66996633D01*
X77577095Y-67107721D01*
X77620440Y-67212365D01*
X77683366Y-67306541D01*
X77763457Y-67386632D01*
X77857633Y-67449558D01*
X77962277Y-67492903D01*
X78073365Y-67515000D01*
X78186631Y-67515000D01*
X78297719Y-67492903D01*
X78402363Y-67449558D01*
X78496539Y-67386632D01*
X78576630Y-67306541D01*
X78639556Y-67212365D01*
X78682901Y-67107721D01*
X78704998Y-66996633D01*
X78704998Y-66883367D01*
X78682901Y-66772279D01*
X78654998Y-66704915D01*
X78654998Y-64965777D01*
X78657537Y-64939997D01*
X78654998Y-64914217D01*
X78654998Y-64914210D01*
X78647401Y-64837080D01*
X78617381Y-64738117D01*
X78568631Y-64646912D01*
X78503025Y-64566971D01*
X78482994Y-64550532D01*
X76322461Y-62390000D01*
X77285670Y-62390000D01*
X77307097Y-62497721D01*
X77350442Y-62602365D01*
X77413368Y-62696541D01*
X77493459Y-62776632D01*
X77587635Y-62839558D01*
X77692279Y-62882903D01*
X77803367Y-62905000D01*
X77916633Y-62905000D01*
X78027721Y-62882903D01*
X78132365Y-62839558D01*
X78226541Y-62776632D01*
X78306632Y-62696541D01*
X78369558Y-62602365D01*
X78389614Y-62553946D01*
X79525001Y-63689333D01*
X79525000Y-72544669D01*
X78614671Y-73455000D01*
X75668416Y-73455000D01*
X75650000Y-73453186D01*
X75631584Y-73455000D01*
X75631581Y-73455000D01*
X75576487Y-73460426D01*
X75505800Y-73481869D01*
X75503561Y-73483066D01*
X75440653Y-73516690D01*
X75421382Y-73532506D01*
X75383552Y-73563552D01*
X75371810Y-73577860D01*
X74324671Y-74625000D01*
X74223367Y-74625000D01*
X74112279Y-74647097D01*
X74007635Y-74690442D01*
X73913459Y-74753368D01*
X73833368Y-74833459D01*
X73770442Y-74927635D01*
X73727097Y-75032279D01*
X73705000Y-75143367D01*
X73705000Y-75256633D01*
X73727097Y-75367721D01*
X73770442Y-75472365D01*
X73833368Y-75566541D01*
X73913459Y-75646632D01*
X74007635Y-75709558D01*
X74112279Y-75752903D01*
X74223367Y-75775000D01*
X74336633Y-75775000D01*
X74447721Y-75752903D01*
X74552365Y-75709558D01*
X74646541Y-75646632D01*
X74726632Y-75566541D01*
X74789558Y-75472365D01*
X74832903Y-75367721D01*
X74855000Y-75256633D01*
X74855000Y-75155329D01*
X75000878Y-75009451D01*
X75658916Y-75009451D01*
X75658916Y-75122717D01*
X75681013Y-75233805D01*
X75724358Y-75338449D01*
X75787284Y-75432625D01*
X75867375Y-75512716D01*
X75961551Y-75575642D01*
X76066195Y-75618987D01*
X76177283Y-75641084D01*
X76290549Y-75641084D01*
X76319148Y-75635395D01*
X76301360Y-75724823D01*
X76301360Y-75838089D01*
X76323457Y-75949177D01*
X76366802Y-76053821D01*
X76429728Y-76147997D01*
X76509819Y-76228088D01*
X76603995Y-76291014D01*
X76687937Y-76325784D01*
X76613719Y-76356526D01*
X76519543Y-76419452D01*
X76439452Y-76499543D01*
X76376526Y-76593719D01*
X76333181Y-76698363D01*
X76311084Y-76809451D01*
X76311084Y-76922717D01*
X76333181Y-77033805D01*
X76376526Y-77138449D01*
X76439452Y-77232625D01*
X76519543Y-77312716D01*
X76613719Y-77375642D01*
X76718363Y-77418987D01*
X76829451Y-77441084D01*
X76942717Y-77441084D01*
X77053805Y-77418987D01*
X77158449Y-77375642D01*
X77252625Y-77312716D01*
X77332716Y-77232625D01*
X77395642Y-77138449D01*
X77438987Y-77033805D01*
X77461084Y-76922717D01*
X77461084Y-76809451D01*
X77438987Y-76698363D01*
X77395642Y-76593719D01*
X77332716Y-76499543D01*
X77252625Y-76419452D01*
X77158449Y-76356526D01*
X77074507Y-76321756D01*
X77148725Y-76291014D01*
X77242901Y-76228088D01*
X77322992Y-76147997D01*
X77385918Y-76053821D01*
X77429263Y-75949177D01*
X77451360Y-75838089D01*
X77451360Y-75775000D01*
X77556633Y-75775000D01*
X77667721Y-75752903D01*
X77772365Y-75709558D01*
X77866541Y-75646632D01*
X77946632Y-75566541D01*
X78009558Y-75472365D01*
X78052903Y-75367721D01*
X78075000Y-75256633D01*
X78075000Y-75143367D01*
X78052903Y-75032279D01*
X78009558Y-74927635D01*
X77946632Y-74833459D01*
X77866541Y-74753368D01*
X77772365Y-74690442D01*
X77667721Y-74647097D01*
X77556633Y-74625000D01*
X77443367Y-74625000D01*
X77332279Y-74647097D01*
X77227635Y-74690442D01*
X77133459Y-74753368D01*
X77053368Y-74833459D01*
X76990442Y-74927635D01*
X76947097Y-75032279D01*
X76925000Y-75143367D01*
X76925000Y-75206456D01*
X76819727Y-75206456D01*
X76791128Y-75212145D01*
X76808916Y-75122717D01*
X76808916Y-75009451D01*
X76786819Y-74898363D01*
X76743474Y-74793719D01*
X76680548Y-74699543D01*
X76600457Y-74619452D01*
X76506281Y-74556526D01*
X76401637Y-74513181D01*
X76290549Y-74491084D01*
X76177283Y-74491084D01*
X76066195Y-74513181D01*
X75961551Y-74556526D01*
X75867375Y-74619452D01*
X75787284Y-74699543D01*
X75724358Y-74793719D01*
X75681013Y-74898363D01*
X75658916Y-75009451D01*
X75000878Y-75009451D01*
X75805330Y-74205000D01*
X78751584Y-74205000D01*
X78770000Y-74206814D01*
X78788416Y-74205000D01*
X78788419Y-74205000D01*
X78843513Y-74199574D01*
X78914200Y-74178131D01*
X78979347Y-74143309D01*
X79036448Y-74096448D01*
X79048195Y-74082134D01*
X80152146Y-72978185D01*
X80166448Y-72966448D01*
X80178186Y-72952145D01*
X80178189Y-72952142D01*
X80213309Y-72909347D01*
X80248130Y-72844202D01*
X80248131Y-72844199D01*
X80269574Y-72773513D01*
X80275000Y-72718419D01*
X80275000Y-72718417D01*
X80276814Y-72700001D01*
X80275000Y-72681585D01*
X80275000Y-63552418D01*
X80276814Y-63534002D01*
X80275000Y-63515583D01*
X80269574Y-63460489D01*
X80248131Y-63389802D01*
X80213309Y-63324655D01*
X80166448Y-63267554D01*
X80152139Y-63255811D01*
X78753958Y-61857630D01*
X78777721Y-61852903D01*
X78882365Y-61809558D01*
X78976541Y-61746632D01*
X79056632Y-61666541D01*
X79119558Y-61572365D01*
X79162903Y-61467721D01*
X79185000Y-61356633D01*
X79185000Y-61243367D01*
X79162903Y-61132279D01*
X79119558Y-61027635D01*
X79056632Y-60933459D01*
X78976541Y-60853368D01*
X78882365Y-60790442D01*
X78777721Y-60747097D01*
X78666633Y-60725000D01*
X78553367Y-60725000D01*
X78442279Y-60747097D01*
X78337635Y-60790442D01*
X78243459Y-60853368D01*
X78163368Y-60933459D01*
X78100442Y-61027635D01*
X78057097Y-61132279D01*
X78052370Y-61156042D01*
X75669695Y-58773367D01*
X79215000Y-58773367D01*
X79215000Y-58886633D01*
X79237097Y-58997721D01*
X79280442Y-59102365D01*
X79343368Y-59196541D01*
X79423459Y-59276632D01*
X79517635Y-59339558D01*
X79622279Y-59382903D01*
X79733367Y-59405000D01*
X79846633Y-59405000D01*
X79957721Y-59382903D01*
X80062365Y-59339558D01*
X80156541Y-59276632D01*
X80236632Y-59196541D01*
X80299558Y-59102365D01*
X80342903Y-58997721D01*
X80365000Y-58886633D01*
X80365000Y-58773367D01*
X80342903Y-58662279D01*
X80299558Y-58557635D01*
X80236632Y-58463459D01*
X80156541Y-58383368D01*
X80062365Y-58320442D01*
X79957721Y-58277097D01*
X79846633Y-58255000D01*
X79733367Y-58255000D01*
X79622279Y-58277097D01*
X79517635Y-58320442D01*
X79423459Y-58383368D01*
X79343368Y-58463459D01*
X79280442Y-58557635D01*
X79237097Y-58662279D01*
X79215000Y-58773367D01*
X75669695Y-58773367D01*
X74909695Y-58013367D01*
X76845000Y-58013367D01*
X76845000Y-58126633D01*
X76867097Y-58237721D01*
X76910442Y-58342365D01*
X76973368Y-58436541D01*
X77053459Y-58516632D01*
X77147635Y-58579558D01*
X77252279Y-58622903D01*
X77363367Y-58645000D01*
X77476633Y-58645000D01*
X77587721Y-58622903D01*
X77692365Y-58579558D01*
X77786541Y-58516632D01*
X77866632Y-58436541D01*
X77929558Y-58342365D01*
X77972903Y-58237721D01*
X77995000Y-58126633D01*
X77995000Y-58013367D01*
X77972903Y-57902279D01*
X77929558Y-57797635D01*
X77866632Y-57703459D01*
X77786541Y-57623368D01*
X77692365Y-57560442D01*
X77587721Y-57517097D01*
X77476633Y-57495000D01*
X77363367Y-57495000D01*
X77252279Y-57517097D01*
X77147635Y-57560442D01*
X77053459Y-57623368D01*
X76973368Y-57703459D01*
X76910442Y-57797635D01*
X76867097Y-57902279D01*
X76845000Y-58013367D01*
X74909695Y-58013367D01*
X74044193Y-57147866D01*
X74032446Y-57133552D01*
X73975345Y-57086691D01*
X73910198Y-57051869D01*
X73839511Y-57030426D01*
X73784417Y-57025000D01*
X73784414Y-57025000D01*
X73765998Y-57023186D01*
X73747582Y-57025000D01*
X72978173Y-57025000D01*
X72906541Y-56953368D01*
X72812365Y-56890442D01*
X72707721Y-56847097D01*
X72596633Y-56825000D01*
X72483367Y-56825000D01*
X72372279Y-56847097D01*
X72267635Y-56890442D01*
X72173459Y-56953368D01*
X72093368Y-57033459D01*
X72030442Y-57127635D01*
X71987097Y-57232279D01*
X71965000Y-57343367D01*
X71965000Y-57456633D01*
X71987097Y-57567721D01*
X72030442Y-57672365D01*
X72093368Y-57766541D01*
X72173459Y-57846632D01*
X72213432Y-57873341D01*
X72183459Y-57893368D01*
X72103368Y-57973459D01*
X72040442Y-58067635D01*
X71997097Y-58172279D01*
X71975000Y-58283367D01*
X71975000Y-58396633D01*
X71997097Y-58507721D01*
X72040442Y-58612365D01*
X72103368Y-58706541D01*
X72183459Y-58786632D01*
X72277635Y-58849558D01*
X72382279Y-58892903D01*
X72493367Y-58915000D01*
X72606633Y-58915000D01*
X72717721Y-58892903D01*
X72741032Y-58883247D01*
X72803368Y-58976541D01*
X72883459Y-59056632D01*
X72977635Y-59119558D01*
X73082279Y-59162903D01*
X73193367Y-59185000D01*
X73306633Y-59185000D01*
X73417721Y-59162903D01*
X73522365Y-59119558D01*
X73616541Y-59056632D01*
X73696632Y-58976541D01*
X73759558Y-58882365D01*
X73802903Y-58777721D01*
X73825000Y-58666633D01*
X73825000Y-58553367D01*
X73802903Y-58442279D01*
X73759558Y-58337635D01*
X73696632Y-58243459D01*
X73616541Y-58163368D01*
X73522365Y-58100442D01*
X73417721Y-58057097D01*
X73306633Y-58035000D01*
X73193367Y-58035000D01*
X73082279Y-58057097D01*
X73058968Y-58066753D01*
X72996632Y-57973459D01*
X72916541Y-57893368D01*
X72876568Y-57866659D01*
X72906541Y-57846632D01*
X72978173Y-57775000D01*
X73610669Y-57775000D01*
X77425668Y-61590000D01*
X75520160Y-61590000D01*
X75473086Y-61551367D01*
X75381881Y-61502617D01*
X75282918Y-61472597D01*
X75205788Y-61465000D01*
X75205780Y-61465000D01*
X75180000Y-61462461D01*
X75154220Y-61465000D01*
X74437462Y-61465000D01*
X69405854Y-56433392D01*
X70094975Y-56433392D01*
X70094975Y-56546658D01*
X70117072Y-56657746D01*
X70160417Y-56762390D01*
X70223343Y-56856566D01*
X70303434Y-56936657D01*
X70397610Y-56999583D01*
X70502254Y-57042928D01*
X70613342Y-57065025D01*
X70726608Y-57065025D01*
X70837696Y-57042928D01*
X70942340Y-56999583D01*
X71036516Y-56936657D01*
X71116607Y-56856566D01*
X71179533Y-56762390D01*
X71222878Y-56657746D01*
X71244975Y-56546658D01*
X71244975Y-56433392D01*
X71222878Y-56322304D01*
X71179533Y-56217660D01*
X71116607Y-56123484D01*
X71036516Y-56043393D01*
X70942340Y-55980467D01*
X70837696Y-55937122D01*
X70726608Y-55915025D01*
X70613342Y-55915025D01*
X70502254Y-55937122D01*
X70397610Y-55980467D01*
X70303434Y-56043393D01*
X70223343Y-56123484D01*
X70160417Y-56217660D01*
X70117072Y-56322304D01*
X70094975Y-56433392D01*
X69405854Y-56433392D01*
X67519471Y-54547010D01*
X67503027Y-54526973D01*
X67423086Y-54461367D01*
X67331881Y-54412617D01*
X67232918Y-54382597D01*
X67155788Y-54375000D01*
X67155780Y-54375000D01*
X67130000Y-54372461D01*
X67104220Y-54375000D01*
X61035085Y-54375000D01*
X60967721Y-54347097D01*
X60856633Y-54325000D01*
X60743367Y-54325000D01*
X60632279Y-54347097D01*
X60527635Y-54390442D01*
X60433459Y-54453368D01*
X60353368Y-54533459D01*
X60290442Y-54627635D01*
X60247097Y-54732279D01*
X60225000Y-54843367D01*
X60175000Y-54843367D01*
X60152903Y-54732279D01*
X60109558Y-54627635D01*
X60046632Y-54533459D01*
X59966541Y-54453368D01*
X59872365Y-54390442D01*
X59767721Y-54347097D01*
X59656633Y-54325000D01*
X59543367Y-54325000D01*
X59432279Y-54347097D01*
X59364915Y-54375000D01*
X59335780Y-54375000D01*
X59310000Y-54372461D01*
X59284220Y-54375000D01*
X59284212Y-54375000D01*
X59207082Y-54382597D01*
X59108119Y-54412617D01*
X59016914Y-54461367D01*
X58936973Y-54526973D01*
X58920534Y-54547004D01*
X56390158Y-57077381D01*
X56370121Y-57093825D01*
X56304515Y-57173766D01*
X56255765Y-57264972D01*
X56225745Y-57363935D01*
X56218148Y-57441065D01*
X56218148Y-57441072D01*
X56215609Y-57466852D01*
X56218148Y-57492632D01*
X56218149Y-61367351D01*
X56218148Y-61367361D01*
X56218149Y-75389554D01*
X56190245Y-75456920D01*
X56168148Y-75568008D01*
X52907427Y-75568008D01*
X52875164Y-75523357D01*
X52093525Y-74177666D01*
X51449401Y-72760990D01*
X50949166Y-71287342D01*
X50690960Y-70173367D01*
X50925000Y-70173367D01*
X50925000Y-70286633D01*
X50947097Y-70397721D01*
X50990442Y-70502365D01*
X51053368Y-70596541D01*
X51133459Y-70676632D01*
X51227635Y-70739558D01*
X51332279Y-70782903D01*
X51443367Y-70805000D01*
X51556633Y-70805000D01*
X51667721Y-70782903D01*
X51772365Y-70739558D01*
X51866541Y-70676632D01*
X51946632Y-70596541D01*
X52009558Y-70502365D01*
X52052903Y-70397721D01*
X52075000Y-70286633D01*
X52075000Y-70173367D01*
X52052903Y-70062279D01*
X52009558Y-69957635D01*
X51946632Y-69863459D01*
X51866541Y-69783368D01*
X51772365Y-69720442D01*
X51667721Y-69677097D01*
X51556633Y-69655000D01*
X51443367Y-69655000D01*
X51332279Y-69677097D01*
X51227635Y-69720442D01*
X51133459Y-69783368D01*
X51053368Y-69863459D01*
X50990442Y-69957635D01*
X50947097Y-70062279D01*
X50925000Y-70173367D01*
X50690960Y-70173367D01*
X50597764Y-69771293D01*
X50398676Y-68227854D01*
X50353866Y-66672259D01*
X50463778Y-65119914D01*
X50727327Y-63586146D01*
X51141901Y-62086160D01*
X51336417Y-61583367D01*
X52045000Y-61583367D01*
X52045000Y-61696633D01*
X52067097Y-61807721D01*
X52110442Y-61912365D01*
X52173368Y-62006541D01*
X52253459Y-62086632D01*
X52347635Y-62149558D01*
X52452279Y-62192903D01*
X52563367Y-62215000D01*
X52676633Y-62215000D01*
X52787721Y-62192903D01*
X52892365Y-62149558D01*
X52986541Y-62086632D01*
X53066632Y-62006541D01*
X53129558Y-61912365D01*
X53172903Y-61807721D01*
X53195000Y-61696633D01*
X53195000Y-61583367D01*
X53172903Y-61472279D01*
X53129558Y-61367635D01*
X53066632Y-61273459D01*
X52986541Y-61193368D01*
X52892365Y-61130442D01*
X52787721Y-61087097D01*
X52676633Y-61065000D01*
X52563367Y-61065000D01*
X52452279Y-61087097D01*
X52347635Y-61130442D01*
X52253459Y-61193368D01*
X52173368Y-61273459D01*
X52110442Y-61367635D01*
X52067097Y-61472279D01*
X52045000Y-61583367D01*
X51336417Y-61583367D01*
X51703412Y-60634744D01*
X52406293Y-59246286D01*
X53243602Y-57934502D01*
X54207059Y-56712363D01*
X55287139Y-55591953D01*
X56473144Y-54584367D01*
X57753370Y-53699548D01*
X59115143Y-52946257D01*
X60544998Y-52331943D01*
X61594593Y-52000000D01*
X63698549Y-52000000D01*
X63700001Y-52014743D01*
X63700000Y-53485267D01*
X63698549Y-53500000D01*
X63704341Y-53558810D01*
X63721496Y-53615360D01*
X63749353Y-53667477D01*
X63776552Y-53700619D01*
X63786842Y-53713158D01*
X63832523Y-53750647D01*
X63884640Y-53778504D01*
X63941190Y-53795659D01*
X64000000Y-53801451D01*
X64014733Y-53800000D01*
X73985267Y-53800000D01*
X74000000Y-53801451D01*
X74058810Y-53795659D01*
X74115360Y-53778504D01*
X74167477Y-53750647D01*
X74213158Y-53713158D01*
X74250647Y-53667477D01*
X74278504Y-53615360D01*
X74295659Y-53558810D01*
X74300000Y-53514733D01*
X74300000Y-53514732D01*
X74301451Y-53500000D01*
X74300000Y-53485267D01*
X74300000Y-52014733D01*
X74301451Y-52000000D01*
X74295659Y-51941190D01*
X74278504Y-51884640D01*
X74250647Y-51832523D01*
X74213158Y-51786842D01*
X74167477Y-51749353D01*
X74115360Y-51721496D01*
X74058810Y-51704341D01*
X74014733Y-51700000D01*
X74000000Y-51698549D01*
X73985267Y-51700000D01*
X64014733Y-51700000D01*
X64000000Y-51698549D01*
X63985267Y-51700000D01*
X63941190Y-51704341D01*
X63884640Y-51721496D01*
X63832523Y-51749353D01*
X63786842Y-51786842D01*
X63749353Y-51832523D01*
X63721496Y-51884640D01*
X63704341Y-51941190D01*
X63698549Y-52000000D01*
X61594593Y-52000000D01*
X62028799Y-51862679D01*
X63551865Y-51543107D01*
X65102802Y-51375990D01*
X66005044Y-51350000D01*
X71991295Y-51350000D01*
X73554313Y-51427812D01*
G04 #@! TA.AperFunction,Conductor*
D16*
G36*
X73554313Y-51427812D02*
G01*
X75093247Y-51659180D01*
X76601604Y-52042254D01*
X78064457Y-52573244D01*
X79467320Y-53246889D01*
X80796368Y-54056552D01*
X81162522Y-54332971D01*
X81199998Y-75719115D01*
X81131509Y-75673352D01*
X80990468Y-75614931D01*
X80840740Y-75585148D01*
X80688078Y-75585148D01*
X80538350Y-75614931D01*
X80397309Y-75673352D01*
X80270375Y-75758166D01*
X80162427Y-75866114D01*
X80077613Y-75993048D01*
X80019192Y-76134089D01*
X79989409Y-76283817D01*
X79989409Y-76290852D01*
X79890616Y-76249931D01*
X79740888Y-76220148D01*
X79588226Y-76220148D01*
X79438498Y-76249931D01*
X79297457Y-76308352D01*
X79170523Y-76393166D01*
X79062575Y-76501114D01*
X78977761Y-76628048D01*
X78919340Y-76769089D01*
X78889557Y-76918817D01*
X78889557Y-76925852D01*
X78790764Y-76884931D01*
X78641036Y-76855148D01*
X78488374Y-76855148D01*
X78338646Y-76884931D01*
X78197605Y-76943352D01*
X78070671Y-77028166D01*
X77962723Y-77136114D01*
X77877909Y-77263048D01*
X77819488Y-77404089D01*
X77789705Y-77553817D01*
X77789705Y-77560853D01*
X77690911Y-77519931D01*
X77541183Y-77490148D01*
X77388521Y-77490148D01*
X77238793Y-77519931D01*
X77097752Y-77578352D01*
X76970818Y-77663166D01*
X76862870Y-77771114D01*
X76778056Y-77898048D01*
X76719635Y-78039089D01*
X76689852Y-78188817D01*
X76689852Y-78195852D01*
X76591059Y-78154931D01*
X76441331Y-78125148D01*
X76288669Y-78125148D01*
X76138941Y-78154931D01*
X75997900Y-78213352D01*
X75870966Y-78298166D01*
X75763018Y-78406114D01*
X75678204Y-78533048D01*
X75619783Y-78674089D01*
X75590000Y-78823817D01*
X75590000Y-78976479D01*
X75619783Y-79126207D01*
X75678204Y-79267248D01*
X75763018Y-79394182D01*
X75870966Y-79502130D01*
X75997900Y-79586944D01*
X76111567Y-79634026D01*
X76097760Y-79648768D01*
X76069154Y-79694769D01*
X76050073Y-79745467D01*
X76041249Y-79798914D01*
X76043021Y-79853055D01*
X76055322Y-79905810D01*
X76077678Y-79955152D01*
X76577678Y-80821178D01*
X76609231Y-80865210D01*
X76648768Y-80902240D01*
X76694769Y-80930846D01*
X76745467Y-80949927D01*
X76798914Y-80958751D01*
X76853055Y-80956979D01*
X76905810Y-80944678D01*
X76955152Y-80922322D01*
X77821178Y-80422322D01*
X77865210Y-80390769D01*
X77902240Y-80351232D01*
X77930846Y-80305231D01*
X77949927Y-80254533D01*
X77958751Y-80201086D01*
X77956979Y-80146945D01*
X77951406Y-80123045D01*
X78068737Y-80139380D01*
X78220409Y-80130571D01*
X78330330Y-80104936D01*
X78408790Y-80000096D01*
X78081551Y-79433301D01*
X78064230Y-79443301D01*
X78029589Y-79383301D01*
X78168153Y-79383301D01*
X78495392Y-79950096D01*
X78625416Y-79934568D01*
X78702577Y-79852191D01*
X78786042Y-79725244D01*
X78843137Y-79584453D01*
X78871668Y-79435228D01*
X78871642Y-79431780D01*
X78874616Y-79433526D01*
X79018114Y-79483430D01*
X79168590Y-79504380D01*
X79320262Y-79495571D01*
X79430183Y-79469936D01*
X79508643Y-79365096D01*
X79181404Y-78798301D01*
X78735087Y-79055982D01*
X78168153Y-79383301D01*
X78029589Y-79383301D01*
X78014230Y-79356699D01*
X78031551Y-79346699D01*
X78021551Y-79329378D01*
X78108153Y-79279378D01*
X78118153Y-79296699D01*
X78564470Y-79039018D01*
X79068007Y-78748301D01*
X79268006Y-78748301D01*
X79595245Y-79315096D01*
X79725269Y-79299568D01*
X79802430Y-79217191D01*
X79885895Y-79090244D01*
X79942990Y-78949453D01*
X79971521Y-78800228D01*
X79971495Y-78796780D01*
X79974468Y-78798526D01*
X80117966Y-78848430D01*
X80268442Y-78869380D01*
X80420114Y-78860571D01*
X80530035Y-78834936D01*
X80608495Y-78730096D01*
X80281256Y-78163301D01*
X79834940Y-78420982D01*
X79268006Y-78748301D01*
X79068007Y-78748301D01*
X79131404Y-78711699D01*
X79121404Y-78694378D01*
X79208006Y-78644378D01*
X79218006Y-78661699D01*
X79664322Y-78404018D01*
X80231256Y-78076699D01*
X80221256Y-78059378D01*
X80307858Y-78009378D01*
X80317858Y-78026699D01*
X80764174Y-77769018D01*
X81203146Y-77515578D01*
X81203348Y-77630931D01*
X80934792Y-77785982D01*
X80367858Y-78113301D01*
X80695097Y-78680096D01*
X80825121Y-78664568D01*
X80902282Y-78582191D01*
X80985747Y-78455244D01*
X81042842Y-78314453D01*
X81071373Y-78165228D01*
X81071347Y-78161780D01*
X81074320Y-78163526D01*
X81204361Y-78208750D01*
X81206863Y-79636794D01*
X80246630Y-80300452D01*
X78884860Y-81053741D01*
X77455002Y-81668057D01*
X75971203Y-82137321D01*
X74448135Y-82456893D01*
X72897198Y-82624010D01*
X71994956Y-82650000D01*
X66008705Y-82650000D01*
X64445686Y-82572188D01*
X62906752Y-82340820D01*
X61398396Y-81957746D01*
X59935543Y-81426756D01*
X58532675Y-80753109D01*
X58117202Y-80500000D01*
X63698549Y-80500000D01*
X63700000Y-80514733D01*
X63700001Y-81985257D01*
X63698549Y-82000000D01*
X63704341Y-82058810D01*
X63721496Y-82115360D01*
X63749353Y-82167477D01*
X63786842Y-82213158D01*
X63832523Y-82250647D01*
X63884640Y-82278504D01*
X63941190Y-82295659D01*
X63985267Y-82300000D01*
X64000000Y-82301451D01*
X64014733Y-82300000D01*
X73985267Y-82300000D01*
X74000000Y-82301451D01*
X74014733Y-82300000D01*
X74058810Y-82295659D01*
X74115360Y-82278504D01*
X74167477Y-82250647D01*
X74213158Y-82213158D01*
X74250647Y-82167477D01*
X74278504Y-82115360D01*
X74295659Y-82058810D01*
X74301451Y-82000000D01*
X74300000Y-81985267D01*
X74300000Y-80514733D01*
X74301451Y-80500000D01*
X74295659Y-80441190D01*
X74278504Y-80384640D01*
X74250647Y-80332523D01*
X74213158Y-80286842D01*
X74167477Y-80249353D01*
X74115360Y-80221496D01*
X74058810Y-80204341D01*
X74014733Y-80200000D01*
X74000000Y-80198549D01*
X73985267Y-80200000D01*
X64014733Y-80200000D01*
X64000000Y-80198549D01*
X63985267Y-80200000D01*
X63941190Y-80204341D01*
X63884640Y-80221496D01*
X63832523Y-80249353D01*
X63786842Y-80286842D01*
X63749353Y-80332523D01*
X63721496Y-80384640D01*
X63704341Y-80441190D01*
X63698549Y-80500000D01*
X58117202Y-80500000D01*
X57203639Y-79943452D01*
X55961594Y-79005804D01*
X54818814Y-77949429D01*
X53786600Y-76784774D01*
X52907427Y-75568008D01*
X56168148Y-75568008D01*
X56168148Y-75681274D01*
X56190245Y-75792362D01*
X56218148Y-75859726D01*
X56218148Y-76017368D01*
X56215609Y-76043148D01*
X56218148Y-76068928D01*
X56218148Y-76068936D01*
X56220490Y-76092706D01*
X56225745Y-76146065D01*
X56255765Y-76245028D01*
X56304515Y-76336233D01*
X56321112Y-76356456D01*
X56370122Y-76416175D01*
X56390153Y-76432614D01*
X59162539Y-79205001D01*
X59190442Y-79272365D01*
X59253368Y-79366541D01*
X59333459Y-79446632D01*
X59427635Y-79509558D01*
X59532279Y-79552903D01*
X59643367Y-79575000D01*
X59756633Y-79575000D01*
X59867721Y-79552903D01*
X59935085Y-79525000D01*
X60664915Y-79525000D01*
X60732279Y-79552903D01*
X60843367Y-79575000D01*
X60956633Y-79575000D01*
X61067721Y-79552903D01*
X61172365Y-79509558D01*
X61266541Y-79446632D01*
X61346632Y-79366541D01*
X61409558Y-79272365D01*
X61452903Y-79167721D01*
X61475000Y-79056633D01*
X61475000Y-78943367D01*
X61452903Y-78832279D01*
X61440928Y-78803367D01*
X65865000Y-78803367D01*
X65865000Y-78916633D01*
X65887097Y-79027721D01*
X65930442Y-79132365D01*
X65993368Y-79226541D01*
X66073459Y-79306632D01*
X66167635Y-79369558D01*
X66272279Y-79412903D01*
X66383367Y-79435000D01*
X66496633Y-79435000D01*
X66607721Y-79412903D01*
X66712365Y-79369558D01*
X66806541Y-79306632D01*
X66878173Y-79235000D01*
X68131584Y-79235000D01*
X68150000Y-79236814D01*
X68168416Y-79235000D01*
X68168419Y-79235000D01*
X68223513Y-79229574D01*
X68294200Y-79208131D01*
X68359347Y-79173309D01*
X68416448Y-79126448D01*
X68428195Y-79112134D01*
X68996962Y-78543367D01*
X71025000Y-78543367D01*
X71025000Y-78656633D01*
X71047097Y-78767721D01*
X71090442Y-78872365D01*
X71153368Y-78966541D01*
X71233459Y-79046632D01*
X71327635Y-79109558D01*
X71432279Y-79152903D01*
X71543367Y-79175000D01*
X71656633Y-79175000D01*
X71767721Y-79152903D01*
X71872365Y-79109558D01*
X71966541Y-79046632D01*
X72046632Y-78966541D01*
X72109558Y-78872365D01*
X72152903Y-78767721D01*
X72175000Y-78656633D01*
X72175000Y-78543367D01*
X72152903Y-78432279D01*
X72109558Y-78327635D01*
X72046632Y-78233459D01*
X71966541Y-78153368D01*
X71872365Y-78090442D01*
X71767721Y-78047097D01*
X71656633Y-78025000D01*
X71543367Y-78025000D01*
X71432279Y-78047097D01*
X71327635Y-78090442D01*
X71233459Y-78153368D01*
X71153368Y-78233459D01*
X71090442Y-78327635D01*
X71047097Y-78432279D01*
X71025000Y-78543367D01*
X68996962Y-78543367D01*
X74845330Y-72695000D01*
X77761827Y-72695000D01*
X77833459Y-72766632D01*
X77927635Y-72829558D01*
X78032279Y-72872903D01*
X78143367Y-72895000D01*
X78256633Y-72895000D01*
X78367721Y-72872903D01*
X78472365Y-72829558D01*
X78566541Y-72766632D01*
X78646632Y-72686541D01*
X78709558Y-72592365D01*
X78752903Y-72487721D01*
X78775000Y-72376633D01*
X78775000Y-72263367D01*
X78752903Y-72152279D01*
X78709558Y-72047635D01*
X78646632Y-71953459D01*
X78566541Y-71873368D01*
X78472365Y-71810442D01*
X78367721Y-71767097D01*
X78256633Y-71745000D01*
X78143367Y-71745000D01*
X78032279Y-71767097D01*
X77927635Y-71810442D01*
X77833459Y-71873368D01*
X77761827Y-71945000D01*
X75035024Y-71945000D01*
X75071475Y-71857000D01*
X75093572Y-71745912D01*
X75093572Y-71632646D01*
X75071475Y-71521558D01*
X75028130Y-71416914D01*
X74965204Y-71322738D01*
X74885113Y-71242647D01*
X74790937Y-71179721D01*
X74686293Y-71136376D01*
X74584482Y-71116124D01*
X75345606Y-70355000D01*
X77851827Y-70355000D01*
X77923459Y-70426632D01*
X78017635Y-70489558D01*
X78122279Y-70532903D01*
X78233367Y-70555000D01*
X78346633Y-70555000D01*
X78457721Y-70532903D01*
X78562365Y-70489558D01*
X78656541Y-70426632D01*
X78736632Y-70346541D01*
X78799558Y-70252365D01*
X78842903Y-70147721D01*
X78865000Y-70036633D01*
X78865000Y-69923367D01*
X78842903Y-69812279D01*
X78799558Y-69707635D01*
X78736632Y-69613459D01*
X78656541Y-69533368D01*
X78562365Y-69470442D01*
X78457721Y-69427097D01*
X78346633Y-69405000D01*
X78233367Y-69405000D01*
X78122279Y-69427097D01*
X78017635Y-69470442D01*
X77923459Y-69533368D01*
X77851827Y-69605000D01*
X75208691Y-69605000D01*
X75190275Y-69603186D01*
X75171859Y-69605000D01*
X75171857Y-69605000D01*
X75116763Y-69610426D01*
X75046076Y-69631869D01*
X75046074Y-69631870D01*
X74980928Y-69666691D01*
X74968249Y-69677097D01*
X74923828Y-69713552D01*
X74912085Y-69727861D01*
X68657866Y-75982081D01*
X68643552Y-75993828D01*
X68596691Y-76050930D01*
X68561869Y-76116077D01*
X68540426Y-76186764D01*
X68535389Y-76237908D01*
X68534508Y-76246859D01*
X68463368Y-76317999D01*
X68400442Y-76412175D01*
X68357097Y-76516819D01*
X68335000Y-76627907D01*
X68335000Y-76741173D01*
X68357097Y-76852261D01*
X68400442Y-76956905D01*
X68463368Y-77051081D01*
X68543459Y-77131172D01*
X68637635Y-77194098D01*
X68742279Y-77237443D01*
X68853367Y-77259540D01*
X68966633Y-77259540D01*
X69077721Y-77237443D01*
X69182365Y-77194098D01*
X69276541Y-77131172D01*
X69356632Y-77051081D01*
X69419558Y-76956905D01*
X69462903Y-76852261D01*
X69485000Y-76741173D01*
X69485000Y-76627907D01*
X69462903Y-76516819D01*
X69419558Y-76412175D01*
X69367036Y-76333569D01*
X73945417Y-71755189D01*
X73965669Y-71857000D01*
X74009014Y-71961644D01*
X74071940Y-72055820D01*
X74152031Y-72135911D01*
X74246207Y-72198837D01*
X74270691Y-72208979D01*
X67994671Y-78485000D01*
X66878173Y-78485000D01*
X66806541Y-78413368D01*
X66712365Y-78350442D01*
X66607721Y-78307097D01*
X66496633Y-78285000D01*
X66383367Y-78285000D01*
X66272279Y-78307097D01*
X66167635Y-78350442D01*
X66073459Y-78413368D01*
X65993368Y-78493459D01*
X65930442Y-78587635D01*
X65887097Y-78692279D01*
X65865000Y-78803367D01*
X61440928Y-78803367D01*
X61409558Y-78727635D01*
X61346632Y-78633459D01*
X61266541Y-78553368D01*
X61172365Y-78490442D01*
X61067721Y-78447097D01*
X60956633Y-78425000D01*
X60843367Y-78425000D01*
X60732279Y-78447097D01*
X60664915Y-78475000D01*
X59935085Y-78475000D01*
X59905001Y-78462539D01*
X58953367Y-77510905D01*
X66423000Y-77510905D01*
X66423000Y-77629095D01*
X66446058Y-77745014D01*
X66491287Y-77854207D01*
X66556950Y-77952478D01*
X66640522Y-78036050D01*
X66738793Y-78101713D01*
X66847986Y-78146942D01*
X66963905Y-78170000D01*
X67082095Y-78170000D01*
X67198014Y-78146942D01*
X67307207Y-78101713D01*
X67405478Y-78036050D01*
X67489050Y-77952478D01*
X67554713Y-77854207D01*
X67599942Y-77745014D01*
X67623000Y-77629095D01*
X67623000Y-77510905D01*
X67599942Y-77394986D01*
X67554713Y-77285793D01*
X67489050Y-77187522D01*
X67405478Y-77103950D01*
X67307207Y-77038287D01*
X67198014Y-76993058D01*
X67082095Y-76970000D01*
X66963905Y-76970000D01*
X66847986Y-76993058D01*
X66738793Y-77038287D01*
X66640522Y-77103950D01*
X66556950Y-77187522D01*
X66491287Y-77285793D01*
X66446058Y-77394986D01*
X66423000Y-77510905D01*
X58953367Y-77510905D01*
X58042788Y-76600326D01*
X58108297Y-76644098D01*
X58212941Y-76687443D01*
X58324029Y-76709540D01*
X58437295Y-76709540D01*
X58548383Y-76687443D01*
X58653027Y-76644098D01*
X58747203Y-76581172D01*
X58827294Y-76501081D01*
X58890220Y-76406905D01*
X58933565Y-76302261D01*
X58955662Y-76191173D01*
X58955662Y-76077907D01*
X58933565Y-75966819D01*
X58890220Y-75862175D01*
X58827294Y-75767999D01*
X58747203Y-75687908D01*
X58653027Y-75624982D01*
X58548383Y-75581637D01*
X58437295Y-75559540D01*
X58324029Y-75559540D01*
X58212941Y-75581637D01*
X58108297Y-75624982D01*
X58014121Y-75687908D01*
X57934030Y-75767999D01*
X57871104Y-75862175D01*
X57827759Y-75966819D01*
X57805662Y-76077907D01*
X57805662Y-76191173D01*
X57827759Y-76302261D01*
X57871104Y-76406905D01*
X57914876Y-76472415D01*
X57278118Y-75835657D01*
X57296051Y-75792362D01*
X57318148Y-75681274D01*
X57318148Y-75568008D01*
X57296051Y-75456920D01*
X57268148Y-75389556D01*
X57268148Y-75093367D01*
X64385000Y-75093367D01*
X64385000Y-75206633D01*
X64407097Y-75317721D01*
X64450442Y-75422365D01*
X64513368Y-75516541D01*
X64593459Y-75596632D01*
X64687635Y-75659558D01*
X64792279Y-75702903D01*
X64903367Y-75725000D01*
X65016633Y-75725000D01*
X65127721Y-75702903D01*
X65232365Y-75659558D01*
X65326541Y-75596632D01*
X65406632Y-75516541D01*
X65469558Y-75422365D01*
X65512903Y-75317721D01*
X65535000Y-75206633D01*
X65535000Y-75093367D01*
X65512903Y-74982279D01*
X65469558Y-74877635D01*
X65406632Y-74783459D01*
X65326541Y-74703368D01*
X65232365Y-74640442D01*
X65127721Y-74597097D01*
X65016633Y-74575000D01*
X64903367Y-74575000D01*
X64792279Y-74597097D01*
X64687635Y-74640442D01*
X64593459Y-74703368D01*
X64513368Y-74783459D01*
X64450442Y-74877635D01*
X64407097Y-74982279D01*
X64385000Y-75093367D01*
X57268148Y-75093367D01*
X57268148Y-73853367D01*
X66365000Y-73853367D01*
X66365000Y-73966633D01*
X66387097Y-74077721D01*
X66430442Y-74182365D01*
X66493368Y-74276541D01*
X66573459Y-74356632D01*
X66667635Y-74419558D01*
X66772279Y-74462903D01*
X66883367Y-74485000D01*
X66996633Y-74485000D01*
X67107721Y-74462903D01*
X67212365Y-74419558D01*
X67306541Y-74356632D01*
X67386632Y-74276541D01*
X67449558Y-74182365D01*
X67492903Y-74077721D01*
X67515000Y-73966633D01*
X67515000Y-73853367D01*
X67492903Y-73742279D01*
X67449558Y-73637635D01*
X67386632Y-73543459D01*
X67306541Y-73463368D01*
X67212365Y-73400442D01*
X67107721Y-73357097D01*
X66996633Y-73335000D01*
X66883367Y-73335000D01*
X66772279Y-73357097D01*
X66667635Y-73400442D01*
X66573459Y-73463368D01*
X66493368Y-73543459D01*
X66430442Y-73637635D01*
X66387097Y-73742279D01*
X66365000Y-73853367D01*
X57268148Y-73853367D01*
X57268148Y-71103367D01*
X68215000Y-71103367D01*
X68215000Y-71216633D01*
X68237097Y-71327721D01*
X68280442Y-71432365D01*
X68343368Y-71526541D01*
X68423459Y-71606632D01*
X68517635Y-71669558D01*
X68622279Y-71712903D01*
X68733367Y-71735000D01*
X68846633Y-71735000D01*
X68957721Y-71712903D01*
X69062365Y-71669558D01*
X69156541Y-71606632D01*
X69236632Y-71526541D01*
X69299558Y-71432365D01*
X69342903Y-71327721D01*
X69365000Y-71216633D01*
X69365000Y-71103367D01*
X69342903Y-70992279D01*
X69299558Y-70887635D01*
X69236632Y-70793459D01*
X69156541Y-70713368D01*
X69062365Y-70650442D01*
X68957721Y-70607097D01*
X68846633Y-70585000D01*
X68733367Y-70585000D01*
X68622279Y-70607097D01*
X68517635Y-70650442D01*
X68423459Y-70713368D01*
X68343368Y-70793459D01*
X68280442Y-70887635D01*
X68237097Y-70992279D01*
X68215000Y-71103367D01*
X57268148Y-71103367D01*
X57268148Y-69932276D01*
X72673909Y-69932276D01*
X72673909Y-70045542D01*
X72696006Y-70156630D01*
X72739351Y-70261274D01*
X72802277Y-70355450D01*
X72882368Y-70435541D01*
X72976544Y-70498467D01*
X73081188Y-70541812D01*
X73192276Y-70563909D01*
X73305542Y-70563909D01*
X73416630Y-70541812D01*
X73521274Y-70498467D01*
X73615450Y-70435541D01*
X73695541Y-70355450D01*
X73758467Y-70261274D01*
X73801812Y-70156630D01*
X73823909Y-70045542D01*
X73823909Y-69932276D01*
X73801812Y-69821188D01*
X73758467Y-69716544D01*
X73695541Y-69622368D01*
X73615450Y-69542277D01*
X73521274Y-69479351D01*
X73416630Y-69436006D01*
X73305542Y-69413909D01*
X73192276Y-69413909D01*
X73081188Y-69436006D01*
X72976544Y-69479351D01*
X72882368Y-69542277D01*
X72802277Y-69622368D01*
X72739351Y-69716544D01*
X72696006Y-69821188D01*
X72673909Y-69932276D01*
X57268148Y-69932276D01*
X57268148Y-66955222D01*
X69104986Y-66955222D01*
X69104986Y-67068488D01*
X69127083Y-67179576D01*
X69170428Y-67284220D01*
X69233354Y-67378396D01*
X69313445Y-67458487D01*
X69407621Y-67521413D01*
X69512265Y-67564758D01*
X69623353Y-67586855D01*
X69736619Y-67586855D01*
X69847707Y-67564758D01*
X69952351Y-67521413D01*
X70046527Y-67458487D01*
X70118159Y-67386855D01*
X71796526Y-67386855D01*
X72725000Y-68315330D01*
X72725000Y-68416633D01*
X72747097Y-68527721D01*
X72790442Y-68632365D01*
X72853368Y-68726541D01*
X72933459Y-68806632D01*
X73027635Y-68869558D01*
X73132279Y-68912903D01*
X73243367Y-68935000D01*
X73356633Y-68935000D01*
X73467721Y-68912903D01*
X73572365Y-68869558D01*
X73666541Y-68806632D01*
X73746632Y-68726541D01*
X73809558Y-68632365D01*
X73852903Y-68527721D01*
X73875000Y-68416633D01*
X73875000Y-68303367D01*
X73873011Y-68293367D01*
X77535000Y-68293367D01*
X77535000Y-68406633D01*
X77557097Y-68517721D01*
X77600442Y-68622365D01*
X77663368Y-68716541D01*
X77743459Y-68796632D01*
X77837635Y-68859558D01*
X77942279Y-68902903D01*
X78053367Y-68925000D01*
X78166633Y-68925000D01*
X78277721Y-68902903D01*
X78382365Y-68859558D01*
X78476541Y-68796632D01*
X78556632Y-68716541D01*
X78619558Y-68622365D01*
X78662903Y-68517721D01*
X78685000Y-68406633D01*
X78685000Y-68293367D01*
X78662903Y-68182279D01*
X78619558Y-68077635D01*
X78556632Y-67983459D01*
X78476541Y-67903368D01*
X78382365Y-67840442D01*
X78277721Y-67797097D01*
X78166633Y-67775000D01*
X78053367Y-67775000D01*
X77942279Y-67797097D01*
X77837635Y-67840442D01*
X77743459Y-67903368D01*
X77663368Y-67983459D01*
X77600442Y-68077635D01*
X77557097Y-68182279D01*
X77535000Y-68293367D01*
X73873011Y-68293367D01*
X73852903Y-68192279D01*
X73809558Y-68087635D01*
X73746632Y-67993459D01*
X73666541Y-67913368D01*
X73572365Y-67850442D01*
X73467721Y-67807097D01*
X73356633Y-67785000D01*
X73255330Y-67785000D01*
X72303697Y-66833367D01*
X72745000Y-66833367D01*
X72745000Y-66946633D01*
X72767097Y-67057721D01*
X72810442Y-67162365D01*
X72873368Y-67256541D01*
X72953459Y-67336632D01*
X73047635Y-67399558D01*
X73152279Y-67442903D01*
X73263367Y-67465000D01*
X73376633Y-67465000D01*
X73487721Y-67442903D01*
X73592365Y-67399558D01*
X73686541Y-67336632D01*
X73766632Y-67256541D01*
X73829558Y-67162365D01*
X73872903Y-67057721D01*
X73895000Y-66946633D01*
X73895000Y-66833367D01*
X73872903Y-66722279D01*
X73829558Y-66617635D01*
X73766632Y-66523459D01*
X73686541Y-66443368D01*
X73592365Y-66380442D01*
X73487721Y-66337097D01*
X73376633Y-66315000D01*
X73263367Y-66315000D01*
X73152279Y-66337097D01*
X73047635Y-66380442D01*
X72953459Y-66443368D01*
X72873368Y-66523459D01*
X72810442Y-66617635D01*
X72767097Y-66722279D01*
X72745000Y-66833367D01*
X72303697Y-66833367D01*
X72230050Y-66759721D01*
X72218303Y-66745407D01*
X72161202Y-66698546D01*
X72096055Y-66663724D01*
X72025368Y-66642281D01*
X71970274Y-66636855D01*
X71970271Y-66636855D01*
X71951855Y-66635041D01*
X71933439Y-66636855D01*
X70206318Y-66636855D01*
X70216632Y-66626541D01*
X70279558Y-66532365D01*
X70322903Y-66427721D01*
X70345000Y-66316633D01*
X70345000Y-66203367D01*
X70322903Y-66092279D01*
X70279558Y-65987635D01*
X70216632Y-65893459D01*
X70136541Y-65813368D01*
X70042365Y-65750442D01*
X69937721Y-65707097D01*
X69826633Y-65685000D01*
X69713367Y-65685000D01*
X69602279Y-65707097D01*
X69497635Y-65750442D01*
X69403459Y-65813368D01*
X69323368Y-65893459D01*
X69260442Y-65987635D01*
X69217097Y-66092279D01*
X69195000Y-66203367D01*
X69195000Y-66316633D01*
X69217097Y-66427721D01*
X69260442Y-66532365D01*
X69294833Y-66583835D01*
X69233354Y-66645314D01*
X69170428Y-66739490D01*
X69127083Y-66844134D01*
X69104986Y-66955222D01*
X57268148Y-66955222D01*
X57268148Y-65003367D01*
X69035000Y-65003367D01*
X69035000Y-65116633D01*
X69057097Y-65227721D01*
X69100442Y-65332365D01*
X69163368Y-65426541D01*
X69243459Y-65506632D01*
X69337635Y-65569558D01*
X69442279Y-65612903D01*
X69553367Y-65635000D01*
X69666633Y-65635000D01*
X69777721Y-65612903D01*
X69882365Y-65569558D01*
X69976541Y-65506632D01*
X70056632Y-65426541D01*
X70112206Y-65343367D01*
X72745000Y-65343367D01*
X72745000Y-65456633D01*
X72767097Y-65567721D01*
X72810442Y-65672365D01*
X72873368Y-65766541D01*
X72953459Y-65846632D01*
X73047635Y-65909558D01*
X73152279Y-65952903D01*
X73263367Y-65975000D01*
X73376633Y-65975000D01*
X73487721Y-65952903D01*
X73592365Y-65909558D01*
X73686541Y-65846632D01*
X73766632Y-65766541D01*
X73829558Y-65672365D01*
X73872903Y-65567721D01*
X73895000Y-65456633D01*
X73895000Y-65362447D01*
X75531791Y-65362447D01*
X75531791Y-65475713D01*
X75553888Y-65586801D01*
X75597233Y-65691445D01*
X75660159Y-65785621D01*
X75740250Y-65865712D01*
X75834426Y-65928638D01*
X75939070Y-65971983D01*
X76050158Y-65994080D01*
X76163424Y-65994080D01*
X76274512Y-65971983D01*
X76379156Y-65928638D01*
X76473332Y-65865712D01*
X76553423Y-65785621D01*
X76616349Y-65691445D01*
X76659694Y-65586801D01*
X76681791Y-65475713D01*
X76681791Y-65362447D01*
X76659694Y-65251359D01*
X76616349Y-65146715D01*
X76553423Y-65052539D01*
X76473332Y-64972448D01*
X76379156Y-64909522D01*
X76274512Y-64866177D01*
X76163424Y-64844080D01*
X76050158Y-64844080D01*
X75939070Y-64866177D01*
X75834426Y-64909522D01*
X75740250Y-64972448D01*
X75660159Y-65052539D01*
X75597233Y-65146715D01*
X75553888Y-65251359D01*
X75531791Y-65362447D01*
X73895000Y-65362447D01*
X73895000Y-65343367D01*
X73872903Y-65232279D01*
X73829558Y-65127635D01*
X73766632Y-65033459D01*
X73686541Y-64953368D01*
X73592365Y-64890442D01*
X73487721Y-64847097D01*
X73376633Y-64825000D01*
X73263367Y-64825000D01*
X73152279Y-64847097D01*
X73047635Y-64890442D01*
X72953459Y-64953368D01*
X72873368Y-65033459D01*
X72810442Y-65127635D01*
X72767097Y-65232279D01*
X72745000Y-65343367D01*
X70112206Y-65343367D01*
X70119558Y-65332365D01*
X70162903Y-65227721D01*
X70185000Y-65116633D01*
X70185000Y-65003367D01*
X70163827Y-64896923D01*
X70227635Y-64939558D01*
X70332279Y-64982903D01*
X70443367Y-65005000D01*
X70556633Y-65005000D01*
X70667721Y-64982903D01*
X70772365Y-64939558D01*
X70866541Y-64876632D01*
X70946632Y-64796541D01*
X71009558Y-64702365D01*
X71052903Y-64597721D01*
X71075000Y-64486633D01*
X71075000Y-64373367D01*
X71052903Y-64262279D01*
X71009558Y-64157635D01*
X70946632Y-64063459D01*
X70866541Y-63983368D01*
X70772365Y-63920442D01*
X70667721Y-63877097D01*
X70556633Y-63855000D01*
X70443367Y-63855000D01*
X70332279Y-63877097D01*
X70227635Y-63920442D01*
X70133459Y-63983368D01*
X70053368Y-64063459D01*
X69990442Y-64157635D01*
X69947097Y-64262279D01*
X69925000Y-64373367D01*
X69925000Y-64486633D01*
X69946173Y-64593077D01*
X69882365Y-64550442D01*
X69777721Y-64507097D01*
X69666633Y-64485000D01*
X69553367Y-64485000D01*
X69442279Y-64507097D01*
X69337635Y-64550442D01*
X69243459Y-64613368D01*
X69163368Y-64693459D01*
X69100442Y-64787635D01*
X69057097Y-64892279D01*
X69035000Y-65003367D01*
X57268148Y-65003367D01*
X57268148Y-59803367D01*
X68215000Y-59803367D01*
X68215000Y-59916633D01*
X68237097Y-60027721D01*
X68280442Y-60132365D01*
X68343368Y-60226541D01*
X68423459Y-60306632D01*
X68517635Y-60369558D01*
X68622279Y-60412903D01*
X68733367Y-60435000D01*
X68846633Y-60435000D01*
X68957721Y-60412903D01*
X69062365Y-60369558D01*
X69156541Y-60306632D01*
X69236632Y-60226541D01*
X69299558Y-60132365D01*
X69342903Y-60027721D01*
X69365000Y-59916633D01*
X69365000Y-59803367D01*
X69342903Y-59692279D01*
X69299558Y-59587635D01*
X69236632Y-59493459D01*
X69156541Y-59413368D01*
X69062365Y-59350442D01*
X68957721Y-59307097D01*
X68846633Y-59285000D01*
X68733367Y-59285000D01*
X68622279Y-59307097D01*
X68517635Y-59350442D01*
X68423459Y-59413368D01*
X68343368Y-59493459D01*
X68280442Y-59587635D01*
X68237097Y-59692279D01*
X68215000Y-59803367D01*
X57268148Y-59803367D01*
X57268148Y-57893367D01*
X65155000Y-57893367D01*
X65155000Y-58006633D01*
X65177097Y-58117721D01*
X65220442Y-58222365D01*
X65283368Y-58316541D01*
X65363459Y-58396632D01*
X65457635Y-58459558D01*
X65562279Y-58502903D01*
X65673367Y-58525000D01*
X65786633Y-58525000D01*
X65897721Y-58502903D01*
X66002365Y-58459558D01*
X66096541Y-58396632D01*
X66176632Y-58316541D01*
X66239558Y-58222365D01*
X66282903Y-58117721D01*
X66305000Y-58006633D01*
X66305000Y-57893367D01*
X66282903Y-57782279D01*
X66239558Y-57677635D01*
X66176632Y-57583459D01*
X66096541Y-57503368D01*
X66002365Y-57440442D01*
X65897721Y-57397097D01*
X65786633Y-57375000D01*
X65673367Y-57375000D01*
X65562279Y-57397097D01*
X65457635Y-57440442D01*
X65363459Y-57503368D01*
X65283368Y-57583459D01*
X65220442Y-57677635D01*
X65177097Y-57782279D01*
X65155000Y-57893367D01*
X57268148Y-57893367D01*
X57268148Y-57684313D01*
X59488396Y-55464066D01*
X59543367Y-55475000D01*
X59656633Y-55475000D01*
X59767721Y-55452903D01*
X59872365Y-55409558D01*
X59966541Y-55346632D01*
X60046632Y-55266541D01*
X60109558Y-55172365D01*
X60152903Y-55067721D01*
X60175000Y-54956633D01*
X60175000Y-54843367D01*
X60225000Y-54843367D01*
X60225000Y-54956633D01*
X60247097Y-55067721D01*
X60290442Y-55172365D01*
X60353368Y-55266541D01*
X60433459Y-55346632D01*
X60527635Y-55409558D01*
X60632279Y-55452903D01*
X60743367Y-55475000D01*
X60856633Y-55475000D01*
X60967721Y-55452903D01*
X61035085Y-55425000D01*
X65991827Y-55425000D01*
X65923368Y-55493459D01*
X65860442Y-55587635D01*
X65817097Y-55692279D01*
X65795000Y-55803367D01*
X65795000Y-55916633D01*
X65817097Y-56027721D01*
X65860442Y-56132365D01*
X65923368Y-56226541D01*
X66003459Y-56306632D01*
X66097635Y-56369558D01*
X66202279Y-56412903D01*
X66313367Y-56435000D01*
X66426633Y-56435000D01*
X66537721Y-56412903D01*
X66642365Y-56369558D01*
X66736541Y-56306632D01*
X66816632Y-56226541D01*
X66879558Y-56132365D01*
X66922903Y-56027721D01*
X66945000Y-55916633D01*
X66945000Y-55803367D01*
X66922903Y-55692279D01*
X66879558Y-55587635D01*
X66816632Y-55493459D01*
X66748173Y-55425000D01*
X66912539Y-55425000D01*
X73830534Y-62342996D01*
X73846973Y-62363027D01*
X73926914Y-62428633D01*
X74018119Y-62477383D01*
X74117082Y-62507403D01*
X74194212Y-62515000D01*
X74194219Y-62515000D01*
X74219999Y-62517539D01*
X74245779Y-62515000D01*
X74962539Y-62515000D01*
X77604998Y-65157460D01*
X77604999Y-66704913D01*
X77577095Y-66772279D01*
X77554998Y-66883367D01*
X77554998Y-66996633D01*
X77577095Y-67107721D01*
X77620440Y-67212365D01*
X77683366Y-67306541D01*
X77763457Y-67386632D01*
X77857633Y-67449558D01*
X77962277Y-67492903D01*
X78073365Y-67515000D01*
X78186631Y-67515000D01*
X78297719Y-67492903D01*
X78402363Y-67449558D01*
X78496539Y-67386632D01*
X78576630Y-67306541D01*
X78639556Y-67212365D01*
X78682901Y-67107721D01*
X78704998Y-66996633D01*
X78704998Y-66883367D01*
X78682901Y-66772279D01*
X78654998Y-66704915D01*
X78654998Y-64965777D01*
X78657537Y-64939997D01*
X78654998Y-64914217D01*
X78654998Y-64914210D01*
X78647401Y-64837080D01*
X78617381Y-64738117D01*
X78568631Y-64646912D01*
X78503025Y-64566971D01*
X78482994Y-64550532D01*
X76322461Y-62390000D01*
X77285670Y-62390000D01*
X77307097Y-62497721D01*
X77350442Y-62602365D01*
X77413368Y-62696541D01*
X77493459Y-62776632D01*
X77587635Y-62839558D01*
X77692279Y-62882903D01*
X77803367Y-62905000D01*
X77916633Y-62905000D01*
X78027721Y-62882903D01*
X78132365Y-62839558D01*
X78226541Y-62776632D01*
X78306632Y-62696541D01*
X78369558Y-62602365D01*
X78389614Y-62553946D01*
X79525001Y-63689333D01*
X79525000Y-72544669D01*
X78614671Y-73455000D01*
X75668416Y-73455000D01*
X75650000Y-73453186D01*
X75631584Y-73455000D01*
X75631581Y-73455000D01*
X75576487Y-73460426D01*
X75505800Y-73481869D01*
X75503561Y-73483066D01*
X75440653Y-73516690D01*
X75421382Y-73532506D01*
X75383552Y-73563552D01*
X75371810Y-73577860D01*
X74324671Y-74625000D01*
X74223367Y-74625000D01*
X74112279Y-74647097D01*
X74007635Y-74690442D01*
X73913459Y-74753368D01*
X73833368Y-74833459D01*
X73770442Y-74927635D01*
X73727097Y-75032279D01*
X73705000Y-75143367D01*
X73705000Y-75256633D01*
X73727097Y-75367721D01*
X73770442Y-75472365D01*
X73833368Y-75566541D01*
X73913459Y-75646632D01*
X74007635Y-75709558D01*
X74112279Y-75752903D01*
X74223367Y-75775000D01*
X74336633Y-75775000D01*
X74447721Y-75752903D01*
X74552365Y-75709558D01*
X74646541Y-75646632D01*
X74726632Y-75566541D01*
X74789558Y-75472365D01*
X74832903Y-75367721D01*
X74855000Y-75256633D01*
X74855000Y-75155329D01*
X75000878Y-75009451D01*
X75658916Y-75009451D01*
X75658916Y-75122717D01*
X75681013Y-75233805D01*
X75724358Y-75338449D01*
X75787284Y-75432625D01*
X75867375Y-75512716D01*
X75961551Y-75575642D01*
X76066195Y-75618987D01*
X76177283Y-75641084D01*
X76290549Y-75641084D01*
X76319148Y-75635395D01*
X76301360Y-75724823D01*
X76301360Y-75838089D01*
X76323457Y-75949177D01*
X76366802Y-76053821D01*
X76429728Y-76147997D01*
X76509819Y-76228088D01*
X76603995Y-76291014D01*
X76687937Y-76325784D01*
X76613719Y-76356526D01*
X76519543Y-76419452D01*
X76439452Y-76499543D01*
X76376526Y-76593719D01*
X76333181Y-76698363D01*
X76311084Y-76809451D01*
X76311084Y-76922717D01*
X76333181Y-77033805D01*
X76376526Y-77138449D01*
X76439452Y-77232625D01*
X76519543Y-77312716D01*
X76613719Y-77375642D01*
X76718363Y-77418987D01*
X76829451Y-77441084D01*
X76942717Y-77441084D01*
X77053805Y-77418987D01*
X77158449Y-77375642D01*
X77252625Y-77312716D01*
X77332716Y-77232625D01*
X77395642Y-77138449D01*
X77438987Y-77033805D01*
X77461084Y-76922717D01*
X77461084Y-76809451D01*
X77438987Y-76698363D01*
X77395642Y-76593719D01*
X77332716Y-76499543D01*
X77252625Y-76419452D01*
X77158449Y-76356526D01*
X77074507Y-76321756D01*
X77148725Y-76291014D01*
X77242901Y-76228088D01*
X77322992Y-76147997D01*
X77385918Y-76053821D01*
X77429263Y-75949177D01*
X77451360Y-75838089D01*
X77451360Y-75775000D01*
X77556633Y-75775000D01*
X77667721Y-75752903D01*
X77772365Y-75709558D01*
X77866541Y-75646632D01*
X77946632Y-75566541D01*
X78009558Y-75472365D01*
X78052903Y-75367721D01*
X78075000Y-75256633D01*
X78075000Y-75143367D01*
X78052903Y-75032279D01*
X78009558Y-74927635D01*
X77946632Y-74833459D01*
X77866541Y-74753368D01*
X77772365Y-74690442D01*
X77667721Y-74647097D01*
X77556633Y-74625000D01*
X77443367Y-74625000D01*
X77332279Y-74647097D01*
X77227635Y-74690442D01*
X77133459Y-74753368D01*
X77053368Y-74833459D01*
X76990442Y-74927635D01*
X76947097Y-75032279D01*
X76925000Y-75143367D01*
X76925000Y-75206456D01*
X76819727Y-75206456D01*
X76791128Y-75212145D01*
X76808916Y-75122717D01*
X76808916Y-75009451D01*
X76786819Y-74898363D01*
X76743474Y-74793719D01*
X76680548Y-74699543D01*
X76600457Y-74619452D01*
X76506281Y-74556526D01*
X76401637Y-74513181D01*
X76290549Y-74491084D01*
X76177283Y-74491084D01*
X76066195Y-74513181D01*
X75961551Y-74556526D01*
X75867375Y-74619452D01*
X75787284Y-74699543D01*
X75724358Y-74793719D01*
X75681013Y-74898363D01*
X75658916Y-75009451D01*
X75000878Y-75009451D01*
X75805330Y-74205000D01*
X78751584Y-74205000D01*
X78770000Y-74206814D01*
X78788416Y-74205000D01*
X78788419Y-74205000D01*
X78843513Y-74199574D01*
X78914200Y-74178131D01*
X78979347Y-74143309D01*
X79036448Y-74096448D01*
X79048195Y-74082134D01*
X80152146Y-72978185D01*
X80166448Y-72966448D01*
X80178186Y-72952145D01*
X80178189Y-72952142D01*
X80213309Y-72909347D01*
X80248130Y-72844202D01*
X80248131Y-72844199D01*
X80269574Y-72773513D01*
X80275000Y-72718419D01*
X80275000Y-72718417D01*
X80276814Y-72700001D01*
X80275000Y-72681585D01*
X80275000Y-63552418D01*
X80276814Y-63534002D01*
X80275000Y-63515583D01*
X80269574Y-63460489D01*
X80248131Y-63389802D01*
X80213309Y-63324655D01*
X80166448Y-63267554D01*
X80152139Y-63255811D01*
X78753958Y-61857630D01*
X78777721Y-61852903D01*
X78882365Y-61809558D01*
X78976541Y-61746632D01*
X79056632Y-61666541D01*
X79119558Y-61572365D01*
X79162903Y-61467721D01*
X79185000Y-61356633D01*
X79185000Y-61243367D01*
X79162903Y-61132279D01*
X79119558Y-61027635D01*
X79056632Y-60933459D01*
X78976541Y-60853368D01*
X78882365Y-60790442D01*
X78777721Y-60747097D01*
X78666633Y-60725000D01*
X78553367Y-60725000D01*
X78442279Y-60747097D01*
X78337635Y-60790442D01*
X78243459Y-60853368D01*
X78163368Y-60933459D01*
X78100442Y-61027635D01*
X78057097Y-61132279D01*
X78052370Y-61156042D01*
X75669695Y-58773367D01*
X79215000Y-58773367D01*
X79215000Y-58886633D01*
X79237097Y-58997721D01*
X79280442Y-59102365D01*
X79343368Y-59196541D01*
X79423459Y-59276632D01*
X79517635Y-59339558D01*
X79622279Y-59382903D01*
X79733367Y-59405000D01*
X79846633Y-59405000D01*
X79957721Y-59382903D01*
X80062365Y-59339558D01*
X80156541Y-59276632D01*
X80236632Y-59196541D01*
X80299558Y-59102365D01*
X80342903Y-58997721D01*
X80365000Y-58886633D01*
X80365000Y-58773367D01*
X80342903Y-58662279D01*
X80299558Y-58557635D01*
X80236632Y-58463459D01*
X80156541Y-58383368D01*
X80062365Y-58320442D01*
X79957721Y-58277097D01*
X79846633Y-58255000D01*
X79733367Y-58255000D01*
X79622279Y-58277097D01*
X79517635Y-58320442D01*
X79423459Y-58383368D01*
X79343368Y-58463459D01*
X79280442Y-58557635D01*
X79237097Y-58662279D01*
X79215000Y-58773367D01*
X75669695Y-58773367D01*
X74909695Y-58013367D01*
X76845000Y-58013367D01*
X76845000Y-58126633D01*
X76867097Y-58237721D01*
X76910442Y-58342365D01*
X76973368Y-58436541D01*
X77053459Y-58516632D01*
X77147635Y-58579558D01*
X77252279Y-58622903D01*
X77363367Y-58645000D01*
X77476633Y-58645000D01*
X77587721Y-58622903D01*
X77692365Y-58579558D01*
X77786541Y-58516632D01*
X77866632Y-58436541D01*
X77929558Y-58342365D01*
X77972903Y-58237721D01*
X77995000Y-58126633D01*
X77995000Y-58013367D01*
X77972903Y-57902279D01*
X77929558Y-57797635D01*
X77866632Y-57703459D01*
X77786541Y-57623368D01*
X77692365Y-57560442D01*
X77587721Y-57517097D01*
X77476633Y-57495000D01*
X77363367Y-57495000D01*
X77252279Y-57517097D01*
X77147635Y-57560442D01*
X77053459Y-57623368D01*
X76973368Y-57703459D01*
X76910442Y-57797635D01*
X76867097Y-57902279D01*
X76845000Y-58013367D01*
X74909695Y-58013367D01*
X74044193Y-57147866D01*
X74032446Y-57133552D01*
X73975345Y-57086691D01*
X73910198Y-57051869D01*
X73839511Y-57030426D01*
X73784417Y-57025000D01*
X73784414Y-57025000D01*
X73765998Y-57023186D01*
X73747582Y-57025000D01*
X72978173Y-57025000D01*
X72906541Y-56953368D01*
X72812365Y-56890442D01*
X72707721Y-56847097D01*
X72596633Y-56825000D01*
X72483367Y-56825000D01*
X72372279Y-56847097D01*
X72267635Y-56890442D01*
X72173459Y-56953368D01*
X72093368Y-57033459D01*
X72030442Y-57127635D01*
X71987097Y-57232279D01*
X71965000Y-57343367D01*
X71965000Y-57456633D01*
X71987097Y-57567721D01*
X72030442Y-57672365D01*
X72093368Y-57766541D01*
X72173459Y-57846632D01*
X72213432Y-57873341D01*
X72183459Y-57893368D01*
X72103368Y-57973459D01*
X72040442Y-58067635D01*
X71997097Y-58172279D01*
X71975000Y-58283367D01*
X71975000Y-58396633D01*
X71997097Y-58507721D01*
X72040442Y-58612365D01*
X72103368Y-58706541D01*
X72183459Y-58786632D01*
X72277635Y-58849558D01*
X72382279Y-58892903D01*
X72493367Y-58915000D01*
X72606633Y-58915000D01*
X72717721Y-58892903D01*
X72741032Y-58883247D01*
X72803368Y-58976541D01*
X72883459Y-59056632D01*
X72977635Y-59119558D01*
X73082279Y-59162903D01*
X73193367Y-59185000D01*
X73306633Y-59185000D01*
X73417721Y-59162903D01*
X73522365Y-59119558D01*
X73616541Y-59056632D01*
X73696632Y-58976541D01*
X73759558Y-58882365D01*
X73802903Y-58777721D01*
X73825000Y-58666633D01*
X73825000Y-58553367D01*
X73802903Y-58442279D01*
X73759558Y-58337635D01*
X73696632Y-58243459D01*
X73616541Y-58163368D01*
X73522365Y-58100442D01*
X73417721Y-58057097D01*
X73306633Y-58035000D01*
X73193367Y-58035000D01*
X73082279Y-58057097D01*
X73058968Y-58066753D01*
X72996632Y-57973459D01*
X72916541Y-57893368D01*
X72876568Y-57866659D01*
X72906541Y-57846632D01*
X72978173Y-57775000D01*
X73610669Y-57775000D01*
X77425668Y-61590000D01*
X75520160Y-61590000D01*
X75473086Y-61551367D01*
X75381881Y-61502617D01*
X75282918Y-61472597D01*
X75205788Y-61465000D01*
X75205780Y-61465000D01*
X75180000Y-61462461D01*
X75154220Y-61465000D01*
X74437462Y-61465000D01*
X69405854Y-56433392D01*
X70094975Y-56433392D01*
X70094975Y-56546658D01*
X70117072Y-56657746D01*
X70160417Y-56762390D01*
X70223343Y-56856566D01*
X70303434Y-56936657D01*
X70397610Y-56999583D01*
X70502254Y-57042928D01*
X70613342Y-57065025D01*
X70726608Y-57065025D01*
X70837696Y-57042928D01*
X70942340Y-56999583D01*
X71036516Y-56936657D01*
X71116607Y-56856566D01*
X71179533Y-56762390D01*
X71222878Y-56657746D01*
X71244975Y-56546658D01*
X71244975Y-56433392D01*
X71222878Y-56322304D01*
X71179533Y-56217660D01*
X71116607Y-56123484D01*
X71036516Y-56043393D01*
X70942340Y-55980467D01*
X70837696Y-55937122D01*
X70726608Y-55915025D01*
X70613342Y-55915025D01*
X70502254Y-55937122D01*
X70397610Y-55980467D01*
X70303434Y-56043393D01*
X70223343Y-56123484D01*
X70160417Y-56217660D01*
X70117072Y-56322304D01*
X70094975Y-56433392D01*
X69405854Y-56433392D01*
X67519471Y-54547010D01*
X67503027Y-54526973D01*
X67423086Y-54461367D01*
X67331881Y-54412617D01*
X67232918Y-54382597D01*
X67155788Y-54375000D01*
X67155780Y-54375000D01*
X67130000Y-54372461D01*
X67104220Y-54375000D01*
X61035085Y-54375000D01*
X60967721Y-54347097D01*
X60856633Y-54325000D01*
X60743367Y-54325000D01*
X60632279Y-54347097D01*
X60527635Y-54390442D01*
X60433459Y-54453368D01*
X60353368Y-54533459D01*
X60290442Y-54627635D01*
X60247097Y-54732279D01*
X60225000Y-54843367D01*
X60175000Y-54843367D01*
X60152903Y-54732279D01*
X60109558Y-54627635D01*
X60046632Y-54533459D01*
X59966541Y-54453368D01*
X59872365Y-54390442D01*
X59767721Y-54347097D01*
X59656633Y-54325000D01*
X59543367Y-54325000D01*
X59432279Y-54347097D01*
X59364915Y-54375000D01*
X59335780Y-54375000D01*
X59310000Y-54372461D01*
X59284220Y-54375000D01*
X59284212Y-54375000D01*
X59207082Y-54382597D01*
X59108119Y-54412617D01*
X59016914Y-54461367D01*
X58936973Y-54526973D01*
X58920534Y-54547004D01*
X56390158Y-57077381D01*
X56370121Y-57093825D01*
X56304515Y-57173766D01*
X56255765Y-57264972D01*
X56225745Y-57363935D01*
X56218148Y-57441065D01*
X56218148Y-57441072D01*
X56215609Y-57466852D01*
X56218148Y-57492632D01*
X56218149Y-61367351D01*
X56218148Y-61367361D01*
X56218149Y-75389554D01*
X56190245Y-75456920D01*
X56168148Y-75568008D01*
X52907427Y-75568008D01*
X52875164Y-75523357D01*
X52093525Y-74177666D01*
X51449401Y-72760990D01*
X50949166Y-71287342D01*
X50690960Y-70173367D01*
X50925000Y-70173367D01*
X50925000Y-70286633D01*
X50947097Y-70397721D01*
X50990442Y-70502365D01*
X51053368Y-70596541D01*
X51133459Y-70676632D01*
X51227635Y-70739558D01*
X51332279Y-70782903D01*
X51443367Y-70805000D01*
X51556633Y-70805000D01*
X51667721Y-70782903D01*
X51772365Y-70739558D01*
X51866541Y-70676632D01*
X51946632Y-70596541D01*
X52009558Y-70502365D01*
X52052903Y-70397721D01*
X52075000Y-70286633D01*
X52075000Y-70173367D01*
X52052903Y-70062279D01*
X52009558Y-69957635D01*
X51946632Y-69863459D01*
X51866541Y-69783368D01*
X51772365Y-69720442D01*
X51667721Y-69677097D01*
X51556633Y-69655000D01*
X51443367Y-69655000D01*
X51332279Y-69677097D01*
X51227635Y-69720442D01*
X51133459Y-69783368D01*
X51053368Y-69863459D01*
X50990442Y-69957635D01*
X50947097Y-70062279D01*
X50925000Y-70173367D01*
X50690960Y-70173367D01*
X50597764Y-69771293D01*
X50398676Y-68227854D01*
X50353866Y-66672259D01*
X50463778Y-65119914D01*
X50727327Y-63586146D01*
X51141901Y-62086160D01*
X51336417Y-61583367D01*
X52045000Y-61583367D01*
X52045000Y-61696633D01*
X52067097Y-61807721D01*
X52110442Y-61912365D01*
X52173368Y-62006541D01*
X52253459Y-62086632D01*
X52347635Y-62149558D01*
X52452279Y-62192903D01*
X52563367Y-62215000D01*
X52676633Y-62215000D01*
X52787721Y-62192903D01*
X52892365Y-62149558D01*
X52986541Y-62086632D01*
X53066632Y-62006541D01*
X53129558Y-61912365D01*
X53172903Y-61807721D01*
X53195000Y-61696633D01*
X53195000Y-61583367D01*
X53172903Y-61472279D01*
X53129558Y-61367635D01*
X53066632Y-61273459D01*
X52986541Y-61193368D01*
X52892365Y-61130442D01*
X52787721Y-61087097D01*
X52676633Y-61065000D01*
X52563367Y-61065000D01*
X52452279Y-61087097D01*
X52347635Y-61130442D01*
X52253459Y-61193368D01*
X52173368Y-61273459D01*
X52110442Y-61367635D01*
X52067097Y-61472279D01*
X52045000Y-61583367D01*
X51336417Y-61583367D01*
X51703412Y-60634744D01*
X52406293Y-59246286D01*
X53243602Y-57934502D01*
X54207059Y-56712363D01*
X55287139Y-55591953D01*
X56473144Y-54584367D01*
X57753370Y-53699548D01*
X59115143Y-52946257D01*
X60544998Y-52331943D01*
X61594593Y-52000000D01*
X63698549Y-52000000D01*
X63700001Y-52014743D01*
X63700000Y-53485267D01*
X63698549Y-53500000D01*
X63704341Y-53558810D01*
X63721496Y-53615360D01*
X63749353Y-53667477D01*
X63776552Y-53700619D01*
X63786842Y-53713158D01*
X63832523Y-53750647D01*
X63884640Y-53778504D01*
X63941190Y-53795659D01*
X64000000Y-53801451D01*
X64014733Y-53800000D01*
X73985267Y-53800000D01*
X74000000Y-53801451D01*
X74058810Y-53795659D01*
X74115360Y-53778504D01*
X74167477Y-53750647D01*
X74213158Y-53713158D01*
X74250647Y-53667477D01*
X74278504Y-53615360D01*
X74295659Y-53558810D01*
X74300000Y-53514733D01*
X74300000Y-53514732D01*
X74301451Y-53500000D01*
X74300000Y-53485267D01*
X74300000Y-52014733D01*
X74301451Y-52000000D01*
X74295659Y-51941190D01*
X74278504Y-51884640D01*
X74250647Y-51832523D01*
X74213158Y-51786842D01*
X74167477Y-51749353D01*
X74115360Y-51721496D01*
X74058810Y-51704341D01*
X74014733Y-51700000D01*
X74000000Y-51698549D01*
X73985267Y-51700000D01*
X64014733Y-51700000D01*
X64000000Y-51698549D01*
X63985267Y-51700000D01*
X63941190Y-51704341D01*
X63884640Y-51721496D01*
X63832523Y-51749353D01*
X63786842Y-51786842D01*
X63749353Y-51832523D01*
X63721496Y-51884640D01*
X63704341Y-51941190D01*
X63698549Y-52000000D01*
X61594593Y-52000000D01*
X62028799Y-51862679D01*
X63551865Y-51543107D01*
X65102802Y-51375990D01*
X66005044Y-51350000D01*
X71991295Y-51350000D01*
X73554313Y-51427812D01*
G37*
G04 #@! TD.AperFunction*
M02*
