G04 #@! TF.GenerationSoftware,KiCad,Pcbnew,5.1.9-73d0e3b20d~88~ubuntu20.04.1*
G04 #@! TF.CreationDate,2021-03-19T22:30:43+02:00*
G04 #@! TF.ProjectId,nRF5340-Wearable,6e524635-3334-4302-9d57-65617261626c,rev?*
G04 #@! TF.SameCoordinates,Original*
G04 #@! TF.FileFunction,Soldermask,Top*
G04 #@! TF.FilePolarity,Negative*
%FSLAX46Y46*%
G04 Gerber Fmt 4.6, Leading zero omitted, Abs format (unit mm)*
G04 Created by KiCad (PCBNEW 5.1.9-73d0e3b20d~88~ubuntu20.04.1) date 2021-03-19 22:30:43*
%MOMM*%
%LPD*%
G01*
G04 APERTURE LIST*
%ADD10C,0.699440*%
%ADD11C,0.750000*%
%ADD12C,17.900000*%
G04 APERTURE END LIST*
D10*
X75119280Y-72137880D03*
G36*
G01*
X79867810Y-60689300D02*
X79169310Y-60689300D01*
G75*
G02*
X79119310Y-60639300I0J50000D01*
G01*
X79119310Y-59140700D01*
G75*
G02*
X79169310Y-59090700I50000J0D01*
G01*
X79867810Y-59090700D01*
G75*
G02*
X79917810Y-59140700I0J-50000D01*
G01*
X79917810Y-60639300D01*
G75*
G02*
X79867810Y-60689300I-50000J0D01*
G01*
G37*
G36*
G01*
X78069490Y-59090700D02*
X78767990Y-59090700D01*
G75*
G02*
X78817990Y-59140700I0J-50000D01*
G01*
X78817990Y-60639300D01*
G75*
G02*
X78767990Y-60689300I-50000J0D01*
G01*
X78069490Y-60689300D01*
G75*
G02*
X78019490Y-60639300I0J50000D01*
G01*
X78019490Y-59140700D01*
G75*
G02*
X78069490Y-59090700I50000J0D01*
G01*
G37*
G36*
G01*
X76969670Y-59090700D02*
X77668170Y-59090700D01*
G75*
G02*
X77718170Y-59140700I0J-50000D01*
G01*
X77718170Y-60639300D01*
G75*
G02*
X77668170Y-60689300I-50000J0D01*
G01*
X76969670Y-60689300D01*
G75*
G02*
X76919670Y-60639300I0J50000D01*
G01*
X76919670Y-59140700D01*
G75*
G02*
X76969670Y-59090700I50000J0D01*
G01*
G37*
G36*
G01*
X75869850Y-59090700D02*
X76568350Y-59090700D01*
G75*
G02*
X76618350Y-59140700I0J-50000D01*
G01*
X76618350Y-60639300D01*
G75*
G02*
X76568350Y-60689300I-50000J0D01*
G01*
X75869850Y-60689300D01*
G75*
G02*
X75819850Y-60639300I0J50000D01*
G01*
X75819850Y-59140700D01*
G75*
G02*
X75869850Y-59090700I50000J0D01*
G01*
G37*
G36*
G01*
X74770030Y-59090700D02*
X75468530Y-59090700D01*
G75*
G02*
X75518530Y-59140700I0J-50000D01*
G01*
X75518530Y-60639300D01*
G75*
G02*
X75468530Y-60689300I-50000J0D01*
G01*
X74770030Y-60689300D01*
G75*
G02*
X74720030Y-60639300I0J50000D01*
G01*
X74720030Y-59140700D01*
G75*
G02*
X74770030Y-59090700I50000J0D01*
G01*
G37*
G36*
G01*
X73670210Y-59090700D02*
X74368710Y-59090700D01*
G75*
G02*
X74418710Y-59140700I0J-50000D01*
G01*
X74418710Y-60639300D01*
G75*
G02*
X74368710Y-60689300I-50000J0D01*
G01*
X73670210Y-60689300D01*
G75*
G02*
X73620210Y-60639300I0J50000D01*
G01*
X73620210Y-59140700D01*
G75*
G02*
X73670210Y-59090700I50000J0D01*
G01*
G37*
G36*
G01*
X72570390Y-59090700D02*
X73268890Y-59090700D01*
G75*
G02*
X73318890Y-59140700I0J-50000D01*
G01*
X73318890Y-60639300D01*
G75*
G02*
X73268890Y-60689300I-50000J0D01*
G01*
X72570390Y-60689300D01*
G75*
G02*
X72520390Y-60639300I0J50000D01*
G01*
X72520390Y-59140700D01*
G75*
G02*
X72570390Y-59090700I50000J0D01*
G01*
G37*
G36*
G01*
X71470570Y-59090700D02*
X72169070Y-59090700D01*
G75*
G02*
X72219070Y-59140700I0J-50000D01*
G01*
X72219070Y-60639300D01*
G75*
G02*
X72169070Y-60689300I-50000J0D01*
G01*
X71470570Y-60689300D01*
G75*
G02*
X71420570Y-60639300I0J50000D01*
G01*
X71420570Y-59140700D01*
G75*
G02*
X71470570Y-59090700I50000J0D01*
G01*
G37*
G36*
G01*
X71470570Y-73088640D02*
X72169070Y-73088640D01*
G75*
G02*
X72219070Y-73138640I0J-50000D01*
G01*
X72219070Y-74637240D01*
G75*
G02*
X72169070Y-74687240I-50000J0D01*
G01*
X71470570Y-74687240D01*
G75*
G02*
X71420570Y-74637240I0J50000D01*
G01*
X71420570Y-73138640D01*
G75*
G02*
X71470570Y-73088640I50000J0D01*
G01*
G37*
G36*
G01*
X72570390Y-73088640D02*
X73268890Y-73088640D01*
G75*
G02*
X73318890Y-73138640I0J-50000D01*
G01*
X73318890Y-74637240D01*
G75*
G02*
X73268890Y-74687240I-50000J0D01*
G01*
X72570390Y-74687240D01*
G75*
G02*
X72520390Y-74637240I0J50000D01*
G01*
X72520390Y-73138640D01*
G75*
G02*
X72570390Y-73088640I50000J0D01*
G01*
G37*
G36*
G01*
X73670210Y-73088640D02*
X74368710Y-73088640D01*
G75*
G02*
X74418710Y-73138640I0J-50000D01*
G01*
X74418710Y-74637240D01*
G75*
G02*
X74368710Y-74687240I-50000J0D01*
G01*
X73670210Y-74687240D01*
G75*
G02*
X73620210Y-74637240I0J50000D01*
G01*
X73620210Y-73138640D01*
G75*
G02*
X73670210Y-73088640I50000J0D01*
G01*
G37*
G36*
G01*
X74770030Y-73088640D02*
X75468530Y-73088640D01*
G75*
G02*
X75518530Y-73138640I0J-50000D01*
G01*
X75518530Y-74637240D01*
G75*
G02*
X75468530Y-74687240I-50000J0D01*
G01*
X74770030Y-74687240D01*
G75*
G02*
X74720030Y-74637240I0J50000D01*
G01*
X74720030Y-73138640D01*
G75*
G02*
X74770030Y-73088640I50000J0D01*
G01*
G37*
G36*
G01*
X75869850Y-73088640D02*
X76568350Y-73088640D01*
G75*
G02*
X76618350Y-73138640I0J-50000D01*
G01*
X76618350Y-74637240D01*
G75*
G02*
X76568350Y-74687240I-50000J0D01*
G01*
X75869850Y-74687240D01*
G75*
G02*
X75819850Y-74637240I0J50000D01*
G01*
X75819850Y-73138640D01*
G75*
G02*
X75869850Y-73088640I50000J0D01*
G01*
G37*
G36*
G01*
X76969670Y-73088640D02*
X77668170Y-73088640D01*
G75*
G02*
X77718170Y-73138640I0J-50000D01*
G01*
X77718170Y-74637240D01*
G75*
G02*
X77668170Y-74687240I-50000J0D01*
G01*
X76969670Y-74687240D01*
G75*
G02*
X76919670Y-74637240I0J50000D01*
G01*
X76919670Y-73138640D01*
G75*
G02*
X76969670Y-73088640I50000J0D01*
G01*
G37*
G36*
G01*
X78069490Y-73088640D02*
X78767990Y-73088640D01*
G75*
G02*
X78817990Y-73138640I0J-50000D01*
G01*
X78817990Y-74637240D01*
G75*
G02*
X78767990Y-74687240I-50000J0D01*
G01*
X78069490Y-74687240D01*
G75*
G02*
X78019490Y-74637240I0J50000D01*
G01*
X78019490Y-73138640D01*
G75*
G02*
X78069490Y-73088640I50000J0D01*
G01*
G37*
G36*
G01*
X79169310Y-73088640D02*
X79867810Y-73088640D01*
G75*
G02*
X79917810Y-73138640I0J-50000D01*
G01*
X79917810Y-74637240D01*
G75*
G02*
X79867810Y-74687240I-50000J0D01*
G01*
X79169310Y-74687240D01*
G75*
G02*
X79119310Y-74637240I0J50000D01*
G01*
X79119310Y-73138640D01*
G75*
G02*
X79169310Y-73088640I50000J0D01*
G01*
G37*
X78718460Y-64639800D03*
X77519580Y-64639800D03*
X76318160Y-64639800D03*
X75119280Y-64639800D03*
X73917860Y-64639800D03*
X72718980Y-64639800D03*
X71517560Y-64639800D03*
X78718460Y-66138400D03*
X77519580Y-66138400D03*
X76318160Y-66138400D03*
X75119280Y-66138400D03*
X73917860Y-66138400D03*
X72718980Y-66138400D03*
X71517560Y-66138400D03*
X78718460Y-67639540D03*
X77519580Y-67639540D03*
X76318160Y-67639540D03*
X75119280Y-67639540D03*
X73917860Y-67639540D03*
X72718980Y-67639540D03*
X71517560Y-67639540D03*
X78718460Y-69138140D03*
X77519580Y-69138140D03*
X76318160Y-69138140D03*
X75119280Y-69138140D03*
X73917860Y-69138140D03*
X72718980Y-69138140D03*
X71517560Y-69138140D03*
X78718460Y-70639280D03*
X77519580Y-70639280D03*
X76318160Y-70639280D03*
X75119280Y-70639280D03*
X73917860Y-70639280D03*
X72718980Y-70639280D03*
X71517560Y-70639280D03*
G36*
G01*
X79970680Y-62720360D02*
X81469280Y-62720360D01*
G75*
G02*
X81519280Y-62770360I0J-50000D01*
G01*
X81519280Y-64268960D01*
G75*
G02*
X81469280Y-64318960I-50000J0D01*
G01*
X79970680Y-64318960D01*
G75*
G02*
X79920680Y-64268960I0J50000D01*
G01*
X79920680Y-62770360D01*
G75*
G02*
X79970680Y-62720360I50000J0D01*
G01*
G37*
G36*
G01*
X79970680Y-64968260D02*
X81469280Y-64968260D01*
G75*
G02*
X81519280Y-65018260I0J-50000D01*
G01*
X81519280Y-66516860D01*
G75*
G02*
X81469280Y-66566860I-50000J0D01*
G01*
X79970680Y-66566860D01*
G75*
G02*
X79920680Y-66516860I0J50000D01*
G01*
X79920680Y-65018260D01*
G75*
G02*
X79970680Y-64968260I50000J0D01*
G01*
G37*
G36*
G01*
X79970680Y-67218700D02*
X81469280Y-67218700D01*
G75*
G02*
X81519280Y-67268700I0J-50000D01*
G01*
X81519280Y-68767300D01*
G75*
G02*
X81469280Y-68817300I-50000J0D01*
G01*
X79970680Y-68817300D01*
G75*
G02*
X79920680Y-68767300I0J50000D01*
G01*
X79920680Y-67268700D01*
G75*
G02*
X79970680Y-67218700I50000J0D01*
G01*
G37*
G36*
G01*
X79970680Y-69469140D02*
X81469280Y-69469140D01*
G75*
G02*
X81519280Y-69519140I0J-50000D01*
G01*
X81519280Y-71017740D01*
G75*
G02*
X81469280Y-71067740I-50000J0D01*
G01*
X79970680Y-71067740D01*
G75*
G02*
X79920680Y-71017740I0J50000D01*
G01*
X79920680Y-69519140D01*
G75*
G02*
X79970680Y-69469140I50000J0D01*
G01*
G37*
X73917860Y-72137880D03*
X72718980Y-72137880D03*
G36*
G01*
X71217840Y-71788160D02*
X71817280Y-71788160D01*
G75*
G02*
X71867280Y-71838160I0J-50000D01*
G01*
X71867280Y-72437600D01*
G75*
G02*
X71817280Y-72487600I-50000J0D01*
G01*
X71217840Y-72487600D01*
G75*
G02*
X71167840Y-72437600I0J50000D01*
G01*
X71167840Y-71838160D01*
G75*
G02*
X71217840Y-71788160I50000J0D01*
G01*
G37*
X78718460Y-63138660D03*
X77519580Y-63138660D03*
X76318160Y-63138660D03*
X75119280Y-63138660D03*
X73917860Y-63138660D03*
X72718980Y-63138660D03*
X71517560Y-63138660D03*
G36*
G01*
X79110000Y-56950000D02*
X79110000Y-55450000D01*
G75*
G02*
X79160000Y-55400000I50000J0D01*
G01*
X80660000Y-55400000D01*
G75*
G02*
X80710000Y-55450000I0J-50000D01*
G01*
X80710000Y-56950000D01*
G75*
G02*
X80660000Y-57000000I-50000J0D01*
G01*
X79160000Y-57000000D01*
G75*
G02*
X79110000Y-56950000I0J50000D01*
G01*
G37*
G36*
G01*
X71310000Y-56950000D02*
X71310000Y-55450000D01*
G75*
G02*
X71360000Y-55400000I50000J0D01*
G01*
X72860000Y-55400000D01*
G75*
G02*
X72910000Y-55450000I0J-50000D01*
G01*
X72910000Y-56950000D01*
G75*
G02*
X72860000Y-57000000I-50000J0D01*
G01*
X71360000Y-57000000D01*
G75*
G02*
X71310000Y-56950000I0J50000D01*
G01*
G37*
G36*
G01*
X71280000Y-77168750D02*
X71280000Y-78131250D01*
G75*
G02*
X71011250Y-78400000I-268750J0D01*
G01*
X70473750Y-78400000D01*
G75*
G02*
X70205000Y-78131250I0J268750D01*
G01*
X70205000Y-77168750D01*
G75*
G02*
X70473750Y-76900000I268750J0D01*
G01*
X71011250Y-76900000D01*
G75*
G02*
X71280000Y-77168750I0J-268750D01*
G01*
G37*
G36*
G01*
X73155000Y-77168750D02*
X73155000Y-78131250D01*
G75*
G02*
X72886250Y-78400000I-268750J0D01*
G01*
X72348750Y-78400000D01*
G75*
G02*
X72080000Y-78131250I0J268750D01*
G01*
X72080000Y-77168750D01*
G75*
G02*
X72348750Y-76900000I268750J0D01*
G01*
X72886250Y-76900000D01*
G75*
G02*
X73155000Y-77168750I0J-268750D01*
G01*
G37*
G36*
G01*
X69345000Y-56740000D02*
X69345000Y-56540000D01*
G75*
G02*
X69445000Y-56440000I100000J0D01*
G01*
X69995000Y-56440000D01*
G75*
G02*
X70095000Y-56540000I0J-100000D01*
G01*
X70095000Y-56740000D01*
G75*
G02*
X69995000Y-56840000I-100000J0D01*
G01*
X69445000Y-56840000D01*
G75*
G02*
X69345000Y-56740000I0J100000D01*
G01*
G37*
G36*
G01*
X69345000Y-57390000D02*
X69345000Y-57190000D01*
G75*
G02*
X69445000Y-57090000I100000J0D01*
G01*
X69995000Y-57090000D01*
G75*
G02*
X70095000Y-57190000I0J-100000D01*
G01*
X70095000Y-57390000D01*
G75*
G02*
X69995000Y-57490000I-100000J0D01*
G01*
X69445000Y-57490000D01*
G75*
G02*
X69345000Y-57390000I0J100000D01*
G01*
G37*
G36*
G01*
X69345000Y-58040000D02*
X69345000Y-57840000D01*
G75*
G02*
X69445000Y-57740000I100000J0D01*
G01*
X69995000Y-57740000D01*
G75*
G02*
X70095000Y-57840000I0J-100000D01*
G01*
X70095000Y-58040000D01*
G75*
G02*
X69995000Y-58140000I-100000J0D01*
G01*
X69445000Y-58140000D01*
G75*
G02*
X69345000Y-58040000I0J100000D01*
G01*
G37*
G36*
G01*
X67545000Y-58040000D02*
X67545000Y-57840000D01*
G75*
G02*
X67645000Y-57740000I100000J0D01*
G01*
X68195000Y-57740000D01*
G75*
G02*
X68295000Y-57840000I0J-100000D01*
G01*
X68295000Y-58040000D01*
G75*
G02*
X68195000Y-58140000I-100000J0D01*
G01*
X67645000Y-58140000D01*
G75*
G02*
X67545000Y-58040000I0J100000D01*
G01*
G37*
G36*
G01*
X67545000Y-57390000D02*
X67545000Y-57190000D01*
G75*
G02*
X67645000Y-57090000I100000J0D01*
G01*
X68195000Y-57090000D01*
G75*
G02*
X68295000Y-57190000I0J-100000D01*
G01*
X68295000Y-57390000D01*
G75*
G02*
X68195000Y-57490000I-100000J0D01*
G01*
X67645000Y-57490000D01*
G75*
G02*
X67545000Y-57390000I0J100000D01*
G01*
G37*
G36*
G01*
X67545000Y-56740000D02*
X67545000Y-56540000D01*
G75*
G02*
X67645000Y-56440000I100000J0D01*
G01*
X68195000Y-56440000D01*
G75*
G02*
X68295000Y-56540000I0J-100000D01*
G01*
X68295000Y-56740000D01*
G75*
G02*
X68195000Y-56840000I-100000J0D01*
G01*
X67645000Y-56840000D01*
G75*
G02*
X67545000Y-56740000I0J100000D01*
G01*
G37*
D11*
X67023000Y-77570000D03*
G36*
G01*
X81039409Y-76836462D02*
X81039409Y-76836462D01*
G75*
G02*
X80288095Y-76635148I-275000J476314D01*
G01*
X80288095Y-76635148D01*
G75*
G02*
X80489409Y-75883834I476314J275000D01*
G01*
X80489409Y-75883834D01*
G75*
G02*
X81240723Y-76085148I275000J-476314D01*
G01*
X81240723Y-76085148D01*
G75*
G02*
X81039409Y-76836462I-476314J-275000D01*
G01*
G37*
G36*
G01*
X81674409Y-77936314D02*
X81674409Y-77936314D01*
G75*
G02*
X80923095Y-77735000I-275000J476314D01*
G01*
X80923095Y-77735000D01*
G75*
G02*
X81124409Y-76983686I476314J275000D01*
G01*
X81124409Y-76983686D01*
G75*
G02*
X81875723Y-77185000I275000J-476314D01*
G01*
X81875723Y-77185000D01*
G75*
G02*
X81674409Y-77936314I-476314J-275000D01*
G01*
G37*
G36*
G01*
X79939557Y-77471462D02*
X79939557Y-77471462D01*
G75*
G02*
X79188243Y-77270148I-275000J476314D01*
G01*
X79188243Y-77270148D01*
G75*
G02*
X79389557Y-76518834I476314J275000D01*
G01*
X79389557Y-76518834D01*
G75*
G02*
X80140871Y-76720148I275000J-476314D01*
G01*
X80140871Y-76720148D01*
G75*
G02*
X79939557Y-77471462I-476314J-275000D01*
G01*
G37*
G36*
G01*
X80574557Y-78571314D02*
X80574557Y-78571314D01*
G75*
G02*
X79823243Y-78370000I-275000J476314D01*
G01*
X79823243Y-78370000D01*
G75*
G02*
X80024557Y-77618686I476314J275000D01*
G01*
X80024557Y-77618686D01*
G75*
G02*
X80775871Y-77820000I275000J-476314D01*
G01*
X80775871Y-77820000D01*
G75*
G02*
X80574557Y-78571314I-476314J-275000D01*
G01*
G37*
G36*
G01*
X78839705Y-78106462D02*
X78839705Y-78106462D01*
G75*
G02*
X78088391Y-77905148I-275000J476314D01*
G01*
X78088391Y-77905148D01*
G75*
G02*
X78289705Y-77153834I476314J275000D01*
G01*
X78289705Y-77153834D01*
G75*
G02*
X79041019Y-77355148I275000J-476314D01*
G01*
X79041019Y-77355148D01*
G75*
G02*
X78839705Y-78106462I-476314J-275000D01*
G01*
G37*
G36*
G01*
X79474705Y-79206314D02*
X79474705Y-79206314D01*
G75*
G02*
X78723391Y-79005000I-275000J476314D01*
G01*
X78723391Y-79005000D01*
G75*
G02*
X78924705Y-78253686I476314J275000D01*
G01*
X78924705Y-78253686D01*
G75*
G02*
X79676019Y-78455000I275000J-476314D01*
G01*
X79676019Y-78455000D01*
G75*
G02*
X79474705Y-79206314I-476314J-275000D01*
G01*
G37*
G36*
G01*
X77739852Y-78741462D02*
X77739852Y-78741462D01*
G75*
G02*
X76988538Y-78540148I-275000J476314D01*
G01*
X76988538Y-78540148D01*
G75*
G02*
X77189852Y-77788834I476314J275000D01*
G01*
X77189852Y-77788834D01*
G75*
G02*
X77941166Y-77990148I275000J-476314D01*
G01*
X77941166Y-77990148D01*
G75*
G02*
X77739852Y-78741462I-476314J-275000D01*
G01*
G37*
G36*
G01*
X78374852Y-79841314D02*
X78374852Y-79841314D01*
G75*
G02*
X77623538Y-79640000I-275000J476314D01*
G01*
X77623538Y-79640000D01*
G75*
G02*
X77824852Y-78888686I476314J275000D01*
G01*
X77824852Y-78888686D01*
G75*
G02*
X78576166Y-79090000I275000J-476314D01*
G01*
X78576166Y-79090000D01*
G75*
G02*
X78374852Y-79841314I-476314J-275000D01*
G01*
G37*
G36*
G01*
X76640000Y-79376462D02*
X76640000Y-79376462D01*
G75*
G02*
X75888686Y-79175148I-275000J476314D01*
G01*
X75888686Y-79175148D01*
G75*
G02*
X76090000Y-78423834I476314J275000D01*
G01*
X76090000Y-78423834D01*
G75*
G02*
X76841314Y-78625148I275000J-476314D01*
G01*
X76841314Y-78625148D01*
G75*
G02*
X76640000Y-79376462I-476314J-275000D01*
G01*
G37*
G36*
G01*
X77708013Y-80226314D02*
X76841987Y-80726314D01*
G75*
G02*
X76773686Y-80708013I-25000J43301D01*
G01*
X76273686Y-79841987D01*
G75*
G02*
X76291987Y-79773686I43301J25000D01*
G01*
X77158013Y-79273686D01*
G75*
G02*
X77226314Y-79291987I25000J-43301D01*
G01*
X77726314Y-80158013D01*
G75*
G02*
X77708013Y-80226314I-43301J-25000D01*
G01*
G37*
G36*
G01*
X63110000Y-80245000D02*
X57550000Y-80245000D01*
G75*
G02*
X57500000Y-80195000I0J50000D01*
G01*
X57500000Y-77595000D01*
G75*
G02*
X57550000Y-77545000I50000J0D01*
G01*
X63110000Y-77545000D01*
G75*
G02*
X63160000Y-77595000I0J-50000D01*
G01*
X63160000Y-80195000D01*
G75*
G02*
X63110000Y-80245000I-50000J0D01*
G01*
G37*
G36*
G01*
X63110000Y-56435000D02*
X57550000Y-56435000D01*
G75*
G02*
X57500000Y-56385000I0J50000D01*
G01*
X57500000Y-53785000D01*
G75*
G02*
X57550000Y-53735000I50000J0D01*
G01*
X63110000Y-53735000D01*
G75*
G02*
X63160000Y-53785000I0J-50000D01*
G01*
X63160000Y-56385000D01*
G75*
G02*
X63110000Y-56435000I-50000J0D01*
G01*
G37*
D12*
X60330000Y-66990000D03*
M02*
