M48
; DRILL file {KiCad 5.1.9-73d0e3b20d~88~ubuntu20.04.1} date Fri Mar 19 22:30:45 2021
; FORMAT={-:-/ absolute / inch / decimal}
; #@! TF.CreationDate,2021-03-19T22:30:45+02:00
; #@! TF.GenerationSoftware,Kicad,Pcbnew,5.1.9-73d0e3b20d~88~ubuntu20.04.1
; #@! TF.FileFunction,Plated,1,4,PTH
FMAT,2
INCH
T1C0.0118
T2C0.0256
%
G90
G05
T1
X1.9992Y-2.6272
X2.0244Y-2.4366
X2.0276Y-2.765
X2.0354Y-2.8453
X2.0583Y-2.5094
X2.0717Y-2.4268
X2.0945Y-2.9646
X2.1181Y-2.2677
X2.1287Y-2.5524
X2.1484Y-2.6571
X2.2087Y-2.1772
X2.2205Y-3.0866
X2.234Y-2.9773
X2.265Y-2.7543
X2.2985Y-2.9974
X2.3465Y-2.1614
X2.3467Y-2.8833
X2.3504Y-3.1102
X2.3937Y-2.1614
X2.3976Y-3.1102
X2.4492Y-2.4327
X2.4764Y-2.0551
X2.4843Y-3.2087
X2.5382Y-2.4327
X2.5425Y-2.8559
X2.5433Y-2.1969
X2.5441Y-2.6862
X2.5575Y-2.9587
X2.5827Y-3.1417
X2.5866Y-2.126
X2.5878Y-2.2815
X2.613Y-2.1992
X2.6154Y-2.5787
X2.6157Y-3.1047
X2.6307Y-3.2461
X2.6354Y-2.9098
X2.6531Y-2.3173
X2.6591Y-2.6709
X2.6823Y-2.5382
X2.6874Y-2.8957
X2.7083Y-2.3567
X2.7083Y-2.8016
X2.7087Y-2.126
X2.713Y-3.0191
X2.7244Y-3.1339
X2.7339Y-2.5232
X2.7339Y-2.9421
X2.7406Y-2.5614
X2.7433Y-2.6383
X2.7469Y-2.6087
X2.7606Y-2.1898
X2.7654Y-2.3346
X2.7756Y-2.5366
X2.7823Y-2.224
X2.7835Y-2.7992
X2.8189Y-3.0945
X2.8228Y-2.1299
X2.8228Y-2.265
X2.8268Y-3.1378
X2.8283Y-3.2465
X2.839Y-2.4094
X2.8406Y-2.9961
X2.8429Y-2.7512
X2.8559Y-2.2598
X2.8563Y-2.2969
X2.8724Y-2.8106
X2.8838Y-2.7555
X2.8839Y-2.3075
X2.8858Y-2.6913
X2.8866Y-2.5748
X2.8866Y-2.6335
X2.8898Y-2.4555
X2.9244Y-2.9606
X2.9291Y-3.135
X2.9299Y-2.5146
X2.9338Y-2.8224
X2.9528Y-2.0591
X2.9528Y-3.2087
X2.9661Y-2.2811
X2.9685Y-3.0315
X2.9776Y-2.1929
X2.9819Y-2.5142
X2.9963Y-2.5756
X2.9972Y-3.2276
X3.0013Y-2.9554
X3.0028Y-2.1307
X3.0114Y-2.8224
X3.0266Y-2.9835
X3.027Y-3.0262
X3.048Y-2.2862
X3.0512Y-2.9606
X3.0591Y-3.2031
X3.0654Y-2.4539
X3.0752Y-2.6909
X3.076Y-2.6354
X3.0776Y-2.5142
X3.0783Y-2.0894
X3.0787Y-2.8472
X3.0823Y-2.7551
X3.0949Y-2.4134
X3.1063Y-2.8307
X3.1154Y-2.5724
X3.1177Y-2.6909
X3.1189Y-2.224
X3.1287Y-2.9898
X3.1413Y-2.3161
X3.1776Y-2.6331
X3.1776Y-2.8165
X3.178Y-2.5437
X3.178Y-2.722
X3.1787Y-2.3638
X3.1791Y-2.4528
X3.1791Y-2.9055
X3.1803Y-2.1543
X3.1815Y-3.135
T2
X3.0065Y-3.1063
X3.0315Y-3.1496
X3.0498Y-3.0813
X3.0748Y-3.1246
X3.0931Y-3.0563
X3.1181Y-3.0996
X3.1364Y-3.0313
X3.1614Y-3.0746
X3.1797Y-3.0063
X3.2047Y-3.0496
T0
M30
