G04 #@! TF.GenerationSoftware,KiCad,Pcbnew,5.1.9-73d0e3b20d~88~ubuntu20.04.1*
G04 #@! TF.CreationDate,2021-03-19T22:30:43+02:00*
G04 #@! TF.ProjectId,nRF5340-Wearable,6e524635-3334-4302-9d57-65617261626c,rev?*
G04 #@! TF.SameCoordinates,Original*
G04 #@! TF.FileFunction,Legend,Bot*
G04 #@! TF.FilePolarity,Positive*
%FSLAX46Y46*%
G04 Gerber Fmt 4.6, Leading zero omitted, Abs format (unit mm)*
G04 Created by KiCad (PCBNEW 5.1.9-73d0e3b20d~88~ubuntu20.04.1) date 2021-03-19 22:30:43*
%MOMM*%
%LPD*%
G01*
G04 APERTURE LIST*
%ADD10C,0.150000*%
%ADD11C,0.100000*%
%ADD12C,0.090000*%
%ADD13C,0.120000*%
%ADD14C,0.010000*%
%ADD15C,0.060000*%
%ADD16C,0.200000*%
%ADD17C,0.127000*%
G04 APERTURE END LIST*
D10*
X79351904Y-63024761D02*
X79923333Y-63024761D01*
X80037619Y-62986666D01*
X80113809Y-62910476D01*
X80151904Y-62796190D01*
X80151904Y-62720000D01*
X80151904Y-63786666D02*
X80151904Y-63405714D01*
X79351904Y-63405714D01*
X80075714Y-64510476D02*
X80113809Y-64472380D01*
X80151904Y-64358095D01*
X80151904Y-64281904D01*
X80113809Y-64167619D01*
X80037619Y-64091428D01*
X79961428Y-64053333D01*
X79809047Y-64015238D01*
X79694761Y-64015238D01*
X79542380Y-64053333D01*
X79466190Y-64091428D01*
X79390000Y-64167619D01*
X79351904Y-64281904D01*
X79351904Y-64358095D01*
X79390000Y-64472380D01*
X79428095Y-64510476D01*
X79351904Y-65081904D02*
X79923333Y-65081904D01*
X80037619Y-65043809D01*
X80113809Y-64967619D01*
X80151904Y-64853333D01*
X80151904Y-64777142D01*
X80151904Y-65843809D02*
X80151904Y-65462857D01*
X79351904Y-65462857D01*
X80075714Y-66567619D02*
X80113809Y-66529523D01*
X80151904Y-66415238D01*
X80151904Y-66339047D01*
X80113809Y-66224761D01*
X80037619Y-66148571D01*
X79961428Y-66110476D01*
X79809047Y-66072380D01*
X79694761Y-66072380D01*
X79542380Y-66110476D01*
X79466190Y-66148571D01*
X79390000Y-66224761D01*
X79351904Y-66339047D01*
X79351904Y-66415238D01*
X79390000Y-66529523D01*
X79428095Y-66567619D01*
X79351904Y-67139047D02*
X79923333Y-67139047D01*
X80037619Y-67100952D01*
X80113809Y-67024761D01*
X80151904Y-66910476D01*
X80151904Y-66834285D01*
X80151904Y-67900952D02*
X80151904Y-67520000D01*
X79351904Y-67520000D01*
X80075714Y-68624761D02*
X80113809Y-68586666D01*
X80151904Y-68472380D01*
X80151904Y-68396190D01*
X80113809Y-68281904D01*
X80037619Y-68205714D01*
X79961428Y-68167619D01*
X79809047Y-68129523D01*
X79694761Y-68129523D01*
X79542380Y-68167619D01*
X79466190Y-68205714D01*
X79390000Y-68281904D01*
X79351904Y-68396190D01*
X79351904Y-68472380D01*
X79390000Y-68586666D01*
X79428095Y-68624761D01*
X79351904Y-69196190D02*
X79923333Y-69196190D01*
X80037619Y-69158095D01*
X80113809Y-69081904D01*
X80151904Y-68967619D01*
X80151904Y-68891428D01*
X80151904Y-69958095D02*
X80151904Y-69577142D01*
X79351904Y-69577142D01*
X80075714Y-70681904D02*
X80113809Y-70643809D01*
X80151904Y-70529523D01*
X80151904Y-70453333D01*
X80113809Y-70339047D01*
X80037619Y-70262857D01*
X79961428Y-70224761D01*
X79809047Y-70186666D01*
X79694761Y-70186666D01*
X79542380Y-70224761D01*
X79466190Y-70262857D01*
X79390000Y-70339047D01*
X79351904Y-70453333D01*
X79351904Y-70529523D01*
X79390000Y-70643809D01*
X79428095Y-70681904D01*
D11*
X62109936Y-57045936D02*
X61905148Y-56902542D01*
X61592048Y-57162897D02*
X61884602Y-57367746D01*
X62314784Y-56753382D01*
X62022230Y-56548533D01*
X61817442Y-56405139D02*
X60977684Y-56732715D01*
X61407866Y-56118351D02*
X61387260Y-57019503D01*
X61261589Y-56015926D02*
X60910524Y-55770108D01*
X60655874Y-56507381D02*
X61086056Y-55893017D01*
X60380861Y-56402013D02*
X59912774Y-56074255D01*
X59857207Y-55904549D02*
X59748956Y-55872350D01*
X59602679Y-55769926D01*
X59564653Y-55699701D01*
X59555882Y-55649960D01*
X59567596Y-55570964D01*
X59608566Y-55512454D01*
X59678791Y-55474428D01*
X59728532Y-55465657D01*
X59807527Y-55477371D01*
X59945034Y-55530055D01*
X60024030Y-55541770D01*
X60073770Y-55532999D01*
X60143995Y-55494973D01*
X60184965Y-55436462D01*
X60196679Y-55357467D01*
X60187909Y-55307726D01*
X60149883Y-55237501D01*
X60003606Y-55135077D01*
X59895354Y-55102878D01*
X59222358Y-55503622D02*
X59652540Y-54889258D01*
X58871293Y-55257804D01*
X59301475Y-54643440D01*
X58628479Y-55044185D02*
X58520228Y-55011985D01*
X58373951Y-54909561D01*
X58335925Y-54839336D01*
X58327154Y-54789596D01*
X58338868Y-54710600D01*
X58379838Y-54652089D01*
X58450063Y-54614063D01*
X58499804Y-54605292D01*
X58578799Y-54617007D01*
X58716306Y-54669691D01*
X58795302Y-54681405D01*
X58845042Y-54672635D01*
X58915267Y-54634609D01*
X58956237Y-54576098D01*
X58967951Y-54497102D01*
X58959181Y-54447362D01*
X58921155Y-54377136D01*
X58774877Y-54274712D01*
X58666626Y-54242513D01*
X77780714Y-54569285D02*
X77780714Y-53819285D01*
X77352142Y-54569285D01*
X77352142Y-53819285D01*
X76745000Y-54176428D02*
X76995000Y-54176428D01*
X76995000Y-54569285D02*
X76995000Y-53819285D01*
X76637857Y-53819285D01*
X75923571Y-54497857D02*
X75959285Y-54533571D01*
X76066428Y-54569285D01*
X76137857Y-54569285D01*
X76245000Y-54533571D01*
X76316428Y-54462142D01*
X76352142Y-54390714D01*
X76387857Y-54247857D01*
X76387857Y-54140714D01*
X76352142Y-53997857D01*
X76316428Y-53926428D01*
X76245000Y-53855000D01*
X76137857Y-53819285D01*
X76066428Y-53819285D01*
X75959285Y-53855000D01*
X75923571Y-53890714D01*
X60939781Y-81437615D02*
X61434755Y-80942640D01*
X61316904Y-80824789D01*
X61222623Y-80777649D01*
X61128342Y-80777649D01*
X61057632Y-80801219D01*
X60939781Y-80871930D01*
X60869070Y-80942640D01*
X60798359Y-81060491D01*
X60774789Y-81131202D01*
X60774789Y-81225483D01*
X60821930Y-81319764D01*
X60939781Y-81437615D01*
X60279814Y-80730508D02*
X60303385Y-80801219D01*
X60397665Y-80895500D01*
X60468376Y-80919070D01*
X60539087Y-80895500D01*
X60727649Y-80706938D01*
X60751219Y-80636227D01*
X60727649Y-80565517D01*
X60633368Y-80471236D01*
X60562657Y-80447665D01*
X60491946Y-80471236D01*
X60444806Y-80518376D01*
X60633368Y-80801219D01*
X60067682Y-80518376D02*
X59996972Y-80494806D01*
X59902691Y-80400525D01*
X59879120Y-80329814D01*
X59902691Y-80259104D01*
X59926261Y-80235533D01*
X59996972Y-80211963D01*
X60067682Y-80235533D01*
X60138393Y-80306244D01*
X60209104Y-80329814D01*
X60279814Y-80306244D01*
X60303385Y-80282674D01*
X60326955Y-80211963D01*
X60303385Y-80141253D01*
X60232674Y-80070542D01*
X60161963Y-80046972D01*
X59619848Y-80117682D02*
X59949831Y-79787699D01*
X60114823Y-79622708D02*
X60114823Y-79669848D01*
X60067682Y-79669848D01*
X60067682Y-79622708D01*
X60114823Y-79622708D01*
X60067682Y-79669848D01*
X59501997Y-79339865D02*
X59101303Y-79740559D01*
X59077733Y-79811269D01*
X59077733Y-79858410D01*
X59101303Y-79929120D01*
X59172014Y-79999831D01*
X59242724Y-80023401D01*
X59195584Y-79646278D02*
X59219154Y-79716988D01*
X59313435Y-79811269D01*
X59384146Y-79834840D01*
X59431286Y-79834840D01*
X59501997Y-79811269D01*
X59643418Y-79669848D01*
X59666988Y-79599137D01*
X59666988Y-79551997D01*
X59643418Y-79481286D01*
X59549137Y-79387005D01*
X59478427Y-79363435D01*
X59266295Y-79104163D02*
X58936311Y-79434146D01*
X59219154Y-79151303D02*
X59219154Y-79104163D01*
X59195584Y-79033452D01*
X59124873Y-78962741D01*
X59054163Y-78939171D01*
X58983452Y-78962741D01*
X58724179Y-79222014D01*
X58323486Y-78774179D02*
X58347056Y-78844890D01*
X58441337Y-78939171D01*
X58512047Y-78962741D01*
X58582758Y-78939171D01*
X58771320Y-78750609D01*
X58794890Y-78679898D01*
X58771320Y-78609188D01*
X58677039Y-78514907D01*
X58606328Y-78491337D01*
X58535618Y-78514907D01*
X58488477Y-78562047D01*
X58677039Y-78844890D01*
X57852081Y-78349915D02*
X58347056Y-77854941D01*
X57875651Y-78326345D02*
X57899221Y-78397056D01*
X57993502Y-78491337D01*
X58064213Y-78514907D01*
X58111354Y-78514907D01*
X58182064Y-78491337D01*
X58323486Y-78349915D01*
X58347056Y-78279205D01*
X58347056Y-78232064D01*
X58323486Y-78161354D01*
X58229205Y-78067073D01*
X58158494Y-78043502D01*
X57239255Y-77737089D02*
X57734230Y-77242115D01*
X57545668Y-77430677D02*
X57522098Y-77359966D01*
X57427817Y-77265685D01*
X57357106Y-77242115D01*
X57309966Y-77242115D01*
X57239255Y-77265685D01*
X57097834Y-77407106D01*
X57074264Y-77477817D01*
X57074264Y-77524957D01*
X57097834Y-77595668D01*
X57192115Y-77689949D01*
X57262825Y-77713519D01*
X57168544Y-77006412D02*
X56720710Y-77218544D01*
X56932842Y-76770710D02*
X56720710Y-77218544D01*
X56650000Y-77383536D01*
X56650000Y-77430677D01*
X56673570Y-77501387D01*
X56202165Y-76417157D02*
X55966463Y-76181455D01*
X56107884Y-76605719D02*
X56437867Y-75945752D01*
X55777901Y-76275735D01*
X56013603Y-75851471D02*
X55825042Y-75662910D01*
X56107884Y-75615769D02*
X55683620Y-76040033D01*
X55612910Y-76063603D01*
X55542199Y-76040033D01*
X55495058Y-75992893D01*
X55730761Y-75568629D02*
X55542199Y-75380067D01*
X55825042Y-75332926D02*
X55400778Y-75757190D01*
X55330067Y-75780761D01*
X55259356Y-75757190D01*
X55212216Y-75710050D01*
X55047224Y-75545058D02*
X55377207Y-75215075D01*
X55542199Y-75050084D02*
X55542199Y-75097224D01*
X55495058Y-75097224D01*
X55495058Y-75050084D01*
X55542199Y-75050084D01*
X55495058Y-75097224D01*
X54740811Y-75238645D02*
X54811522Y-75262216D01*
X54882233Y-75238645D01*
X55306497Y-74814381D01*
X54340117Y-74837952D02*
X54599390Y-74578679D01*
X54670101Y-74555109D01*
X54740811Y-74578679D01*
X54835092Y-74672960D01*
X54858662Y-74743671D01*
X54363688Y-74814381D02*
X54387258Y-74885092D01*
X54505109Y-75002943D01*
X54575820Y-75026513D01*
X54646530Y-75002943D01*
X54693671Y-74955803D01*
X54717241Y-74885092D01*
X54693671Y-74814381D01*
X54575820Y-74696530D01*
X54552249Y-74625820D01*
X54292977Y-73800862D02*
X54010134Y-73518019D01*
X53656581Y-74154415D02*
X54151556Y-73659440D01*
X53279457Y-73777291D02*
X53350168Y-73800862D01*
X53397308Y-73800862D01*
X53468019Y-73777291D01*
X53609440Y-73635870D01*
X53633011Y-73565159D01*
X53633011Y-73518019D01*
X53609440Y-73447308D01*
X53538730Y-73376598D01*
X53468019Y-73353027D01*
X53420879Y-73353027D01*
X53350168Y-73376598D01*
X53208746Y-73518019D01*
X53185176Y-73588730D01*
X53185176Y-73635870D01*
X53208746Y-73706581D01*
X53279457Y-73777291D01*
X53774432Y-73235176D02*
X53774432Y-73376598D01*
X53609440Y-73070185D02*
X53609440Y-73211606D01*
X52902334Y-73400168D02*
X53397308Y-72905193D01*
X53043755Y-73164466D02*
X52713772Y-73211606D01*
X53043755Y-72881623D02*
X53043755Y-73258746D01*
X52336648Y-72787342D02*
X52360218Y-72858053D01*
X52454499Y-72952334D01*
X52525210Y-72975904D01*
X52595921Y-72952334D01*
X52784482Y-72763772D01*
X52808053Y-72693061D01*
X52784482Y-72622350D01*
X52690202Y-72528069D01*
X52619491Y-72504499D01*
X52548780Y-72528069D01*
X52501640Y-72575210D01*
X52690202Y-72858053D01*
X52878763Y-72339508D02*
X52878763Y-72480929D01*
X52124516Y-72575210D02*
X52053805Y-72551640D01*
X51959525Y-72457359D01*
X51935954Y-72386648D01*
X51959525Y-72315937D01*
X51983095Y-72292367D01*
X52053805Y-72268797D01*
X52124516Y-72292367D01*
X52195227Y-72363078D01*
X52265937Y-72386648D01*
X52336648Y-72363078D01*
X52360218Y-72339508D01*
X52383789Y-72268797D01*
X52360218Y-72198086D01*
X52289508Y-72127376D01*
X52218797Y-72103805D01*
D12*
X85470952Y-60473333D02*
X85232857Y-60473333D01*
X85518571Y-60616190D02*
X85351904Y-60116190D01*
X85185238Y-60616190D01*
X85018571Y-60282857D02*
X85018571Y-60616190D01*
X85018571Y-60330476D02*
X84994761Y-60306666D01*
X84947142Y-60282857D01*
X84875714Y-60282857D01*
X84828095Y-60306666D01*
X84804285Y-60354285D01*
X84804285Y-60616190D01*
X84637619Y-60282857D02*
X84447142Y-60282857D01*
X84566190Y-60116190D02*
X84566190Y-60544761D01*
X84542380Y-60592380D01*
X84494761Y-60616190D01*
X84447142Y-60616190D01*
X84090000Y-60592380D02*
X84137619Y-60616190D01*
X84232857Y-60616190D01*
X84280476Y-60592380D01*
X84304285Y-60544761D01*
X84304285Y-60354285D01*
X84280476Y-60306666D01*
X84232857Y-60282857D01*
X84137619Y-60282857D01*
X84090000Y-60306666D01*
X84066190Y-60354285D01*
X84066190Y-60401904D01*
X84304285Y-60449523D01*
X83851904Y-60282857D02*
X83851904Y-60616190D01*
X83851904Y-60330476D02*
X83828095Y-60306666D01*
X83780476Y-60282857D01*
X83709047Y-60282857D01*
X83661428Y-60306666D01*
X83637619Y-60354285D01*
X83637619Y-60616190D01*
X83399523Y-60282857D02*
X83399523Y-60616190D01*
X83399523Y-60330476D02*
X83375714Y-60306666D01*
X83328095Y-60282857D01*
X83256666Y-60282857D01*
X83209047Y-60306666D01*
X83185238Y-60354285D01*
X83185238Y-60616190D01*
X82732857Y-60616190D02*
X82732857Y-60354285D01*
X82756666Y-60306666D01*
X82804285Y-60282857D01*
X82899523Y-60282857D01*
X82947142Y-60306666D01*
X82732857Y-60592380D02*
X82780476Y-60616190D01*
X82899523Y-60616190D01*
X82947142Y-60592380D01*
X82970952Y-60544761D01*
X82970952Y-60497142D01*
X82947142Y-60449523D01*
X82899523Y-60425714D01*
X82780476Y-60425714D01*
X82732857Y-60401904D01*
D13*
X81310000Y-61140000D02*
X81310000Y-72670000D01*
X85810000Y-73880000D02*
X81470000Y-73880000D01*
X86860000Y-62020000D02*
X86860000Y-71940000D01*
X81430000Y-59880000D02*
X85650000Y-59880000D01*
D14*
G36*
X83149918Y-68279744D02*
G01*
X83177568Y-68335201D01*
X83228480Y-68384148D01*
X83247338Y-68397629D01*
X83272015Y-68412314D01*
X83298816Y-68421842D01*
X83334587Y-68427293D01*
X83386169Y-68429747D01*
X83454267Y-68430286D01*
X83547588Y-68427852D01*
X83617657Y-68419394D01*
X83669931Y-68403174D01*
X83709869Y-68377454D01*
X83742929Y-68340497D01*
X83744886Y-68337782D01*
X83764908Y-68301360D01*
X83774815Y-68257502D01*
X83777257Y-68201724D01*
X83777257Y-68111048D01*
X83865283Y-68111010D01*
X83914308Y-68110166D01*
X83943065Y-68105024D01*
X83960311Y-68091587D01*
X83974808Y-68065858D01*
X83977769Y-68059679D01*
X83991648Y-68030764D01*
X84000414Y-68008376D01*
X84001171Y-67991729D01*
X83991023Y-67980036D01*
X83967073Y-67972510D01*
X83926426Y-67968366D01*
X83866186Y-67966815D01*
X83783455Y-67967071D01*
X83675339Y-67968349D01*
X83643000Y-67968748D01*
X83531524Y-67970185D01*
X83458603Y-67971472D01*
X83458603Y-68110971D01*
X83520499Y-68111755D01*
X83560997Y-68115240D01*
X83587708Y-68123124D01*
X83608244Y-68137105D01*
X83618260Y-68146597D01*
X83647567Y-68185404D01*
X83649952Y-68219763D01*
X83625750Y-68255216D01*
X83624857Y-68256114D01*
X83606153Y-68270539D01*
X83580732Y-68279313D01*
X83541584Y-68283739D01*
X83481697Y-68285118D01*
X83468430Y-68285143D01*
X83385901Y-68281812D01*
X83328691Y-68270969D01*
X83293766Y-68251340D01*
X83278094Y-68221650D01*
X83276514Y-68204491D01*
X83283926Y-68163766D01*
X83308330Y-68135832D01*
X83352980Y-68119017D01*
X83421130Y-68111650D01*
X83458603Y-68110971D01*
X83458603Y-67971472D01*
X83445245Y-67971708D01*
X83380333Y-67973677D01*
X83332958Y-67976450D01*
X83299290Y-67980388D01*
X83275498Y-67985849D01*
X83257753Y-67993192D01*
X83242224Y-68002777D01*
X83236381Y-68006887D01*
X83181185Y-68061405D01*
X83149890Y-68130336D01*
X83141165Y-68210072D01*
X83149918Y-68279744D01*
G37*
X83149918Y-68279744D02*
X83177568Y-68335201D01*
X83228480Y-68384148D01*
X83247338Y-68397629D01*
X83272015Y-68412314D01*
X83298816Y-68421842D01*
X83334587Y-68427293D01*
X83386169Y-68429747D01*
X83454267Y-68430286D01*
X83547588Y-68427852D01*
X83617657Y-68419394D01*
X83669931Y-68403174D01*
X83709869Y-68377454D01*
X83742929Y-68340497D01*
X83744886Y-68337782D01*
X83764908Y-68301360D01*
X83774815Y-68257502D01*
X83777257Y-68201724D01*
X83777257Y-68111048D01*
X83865283Y-68111010D01*
X83914308Y-68110166D01*
X83943065Y-68105024D01*
X83960311Y-68091587D01*
X83974808Y-68065858D01*
X83977769Y-68059679D01*
X83991648Y-68030764D01*
X84000414Y-68008376D01*
X84001171Y-67991729D01*
X83991023Y-67980036D01*
X83967073Y-67972510D01*
X83926426Y-67968366D01*
X83866186Y-67966815D01*
X83783455Y-67967071D01*
X83675339Y-67968349D01*
X83643000Y-67968748D01*
X83531524Y-67970185D01*
X83458603Y-67971472D01*
X83458603Y-68110971D01*
X83520499Y-68111755D01*
X83560997Y-68115240D01*
X83587708Y-68123124D01*
X83608244Y-68137105D01*
X83618260Y-68146597D01*
X83647567Y-68185404D01*
X83649952Y-68219763D01*
X83625750Y-68255216D01*
X83624857Y-68256114D01*
X83606153Y-68270539D01*
X83580732Y-68279313D01*
X83541584Y-68283739D01*
X83481697Y-68285118D01*
X83468430Y-68285143D01*
X83385901Y-68281812D01*
X83328691Y-68270969D01*
X83293766Y-68251340D01*
X83278094Y-68221650D01*
X83276514Y-68204491D01*
X83283926Y-68163766D01*
X83308330Y-68135832D01*
X83352980Y-68119017D01*
X83421130Y-68111650D01*
X83458603Y-68110971D01*
X83458603Y-67971472D01*
X83445245Y-67971708D01*
X83380333Y-67973677D01*
X83332958Y-67976450D01*
X83299290Y-67980388D01*
X83275498Y-67985849D01*
X83257753Y-67993192D01*
X83242224Y-68002777D01*
X83236381Y-68006887D01*
X83181185Y-68061405D01*
X83149890Y-68130336D01*
X83141165Y-68210072D01*
X83149918Y-68279744D01*
G36*
X83157780Y-69396093D02*
G01*
X83184723Y-69442672D01*
X83211466Y-69475057D01*
X83239484Y-69498742D01*
X83273748Y-69515059D01*
X83319227Y-69525339D01*
X83380892Y-69530914D01*
X83463711Y-69533116D01*
X83523246Y-69533371D01*
X83742391Y-69533371D01*
X83770044Y-69471686D01*
X83797697Y-69410000D01*
X83557670Y-69402743D01*
X83468028Y-69399744D01*
X83402962Y-69396598D01*
X83358026Y-69392701D01*
X83328770Y-69387447D01*
X83310748Y-69380231D01*
X83299511Y-69370450D01*
X83297079Y-69367312D01*
X83278083Y-69319761D01*
X83285600Y-69271697D01*
X83305543Y-69243086D01*
X83319675Y-69231447D01*
X83338220Y-69223391D01*
X83366334Y-69218271D01*
X83409173Y-69215441D01*
X83471895Y-69214256D01*
X83537261Y-69214057D01*
X83619268Y-69214018D01*
X83677316Y-69212614D01*
X83716465Y-69207914D01*
X83741780Y-69197987D01*
X83758323Y-69180903D01*
X83771156Y-69154732D01*
X83784491Y-69119775D01*
X83799007Y-69081596D01*
X83541389Y-69086141D01*
X83448519Y-69087971D01*
X83379889Y-69090112D01*
X83330711Y-69093181D01*
X83296198Y-69097794D01*
X83271562Y-69104568D01*
X83252016Y-69114119D01*
X83234770Y-69125634D01*
X83179680Y-69181190D01*
X83147822Y-69248980D01*
X83140191Y-69322713D01*
X83157780Y-69396093D01*
G37*
X83157780Y-69396093D02*
X83184723Y-69442672D01*
X83211466Y-69475057D01*
X83239484Y-69498742D01*
X83273748Y-69515059D01*
X83319227Y-69525339D01*
X83380892Y-69530914D01*
X83463711Y-69533116D01*
X83523246Y-69533371D01*
X83742391Y-69533371D01*
X83770044Y-69471686D01*
X83797697Y-69410000D01*
X83557670Y-69402743D01*
X83468028Y-69399744D01*
X83402962Y-69396598D01*
X83358026Y-69392701D01*
X83328770Y-69387447D01*
X83310748Y-69380231D01*
X83299511Y-69370450D01*
X83297079Y-69367312D01*
X83278083Y-69319761D01*
X83285600Y-69271697D01*
X83305543Y-69243086D01*
X83319675Y-69231447D01*
X83338220Y-69223391D01*
X83366334Y-69218271D01*
X83409173Y-69215441D01*
X83471895Y-69214256D01*
X83537261Y-69214057D01*
X83619268Y-69214018D01*
X83677316Y-69212614D01*
X83716465Y-69207914D01*
X83741780Y-69197987D01*
X83758323Y-69180903D01*
X83771156Y-69154732D01*
X83784491Y-69119775D01*
X83799007Y-69081596D01*
X83541389Y-69086141D01*
X83448519Y-69087971D01*
X83379889Y-69090112D01*
X83330711Y-69093181D01*
X83296198Y-69097794D01*
X83271562Y-69104568D01*
X83252016Y-69114119D01*
X83234770Y-69125634D01*
X83179680Y-69181190D01*
X83147822Y-69248980D01*
X83140191Y-69322713D01*
X83157780Y-69396093D01*
G36*
X83151962Y-67721115D02*
G01*
X83187733Y-67789145D01*
X83245301Y-67839351D01*
X83282312Y-67857185D01*
X83337882Y-67871063D01*
X83408096Y-67878167D01*
X83484727Y-67878840D01*
X83559552Y-67873427D01*
X83624342Y-67862270D01*
X83670873Y-67845714D01*
X83678887Y-67840626D01*
X83738707Y-67780355D01*
X83774535Y-67708769D01*
X83785020Y-67631092D01*
X83768810Y-67552548D01*
X83759092Y-67530689D01*
X83729143Y-67488122D01*
X83689433Y-67450763D01*
X83684397Y-67447232D01*
X83660124Y-67432881D01*
X83634178Y-67423394D01*
X83600022Y-67417790D01*
X83551119Y-67415086D01*
X83480935Y-67414299D01*
X83465200Y-67414286D01*
X83460192Y-67414322D01*
X83460192Y-67559429D01*
X83526430Y-67560273D01*
X83570386Y-67563596D01*
X83598779Y-67570583D01*
X83618325Y-67582416D01*
X83624857Y-67588457D01*
X83649680Y-67623186D01*
X83648548Y-67656903D01*
X83627016Y-67690995D01*
X83604029Y-67711329D01*
X83570478Y-67723371D01*
X83517569Y-67730134D01*
X83511399Y-67730598D01*
X83415513Y-67731752D01*
X83344299Y-67719688D01*
X83298194Y-67694570D01*
X83277635Y-67656560D01*
X83276514Y-67642992D01*
X83282152Y-67607364D01*
X83301686Y-67582994D01*
X83339042Y-67568093D01*
X83398150Y-67560875D01*
X83460192Y-67559429D01*
X83460192Y-67414322D01*
X83390413Y-67414826D01*
X83338159Y-67417096D01*
X83301949Y-67422068D01*
X83275299Y-67430713D01*
X83251722Y-67444005D01*
X83247338Y-67446943D01*
X83188249Y-67496313D01*
X83153947Y-67550109D01*
X83140331Y-67615602D01*
X83139665Y-67637842D01*
X83151962Y-67721115D01*
G37*
X83151962Y-67721115D02*
X83187733Y-67789145D01*
X83245301Y-67839351D01*
X83282312Y-67857185D01*
X83337882Y-67871063D01*
X83408096Y-67878167D01*
X83484727Y-67878840D01*
X83559552Y-67873427D01*
X83624342Y-67862270D01*
X83670873Y-67845714D01*
X83678887Y-67840626D01*
X83738707Y-67780355D01*
X83774535Y-67708769D01*
X83785020Y-67631092D01*
X83768810Y-67552548D01*
X83759092Y-67530689D01*
X83729143Y-67488122D01*
X83689433Y-67450763D01*
X83684397Y-67447232D01*
X83660124Y-67432881D01*
X83634178Y-67423394D01*
X83600022Y-67417790D01*
X83551119Y-67415086D01*
X83480935Y-67414299D01*
X83465200Y-67414286D01*
X83460192Y-67414322D01*
X83460192Y-67559429D01*
X83526430Y-67560273D01*
X83570386Y-67563596D01*
X83598779Y-67570583D01*
X83618325Y-67582416D01*
X83624857Y-67588457D01*
X83649680Y-67623186D01*
X83648548Y-67656903D01*
X83627016Y-67690995D01*
X83604029Y-67711329D01*
X83570478Y-67723371D01*
X83517569Y-67730134D01*
X83511399Y-67730598D01*
X83415513Y-67731752D01*
X83344299Y-67719688D01*
X83298194Y-67694570D01*
X83277635Y-67656560D01*
X83276514Y-67642992D01*
X83282152Y-67607364D01*
X83301686Y-67582994D01*
X83339042Y-67568093D01*
X83398150Y-67560875D01*
X83460192Y-67559429D01*
X83460192Y-67414322D01*
X83390413Y-67414826D01*
X83338159Y-67417096D01*
X83301949Y-67422068D01*
X83275299Y-67430713D01*
X83251722Y-67444005D01*
X83247338Y-67446943D01*
X83188249Y-67496313D01*
X83153947Y-67550109D01*
X83140331Y-67615602D01*
X83139665Y-67637842D01*
X83151962Y-67721115D01*
G36*
X83161239Y-68848303D02*
G01*
X83199735Y-68905527D01*
X83255335Y-68949749D01*
X83326086Y-68976167D01*
X83378162Y-68981510D01*
X83399893Y-68980903D01*
X83416531Y-68975822D01*
X83431437Y-68961855D01*
X83447973Y-68934589D01*
X83469498Y-68889612D01*
X83499374Y-68822511D01*
X83499524Y-68822171D01*
X83527813Y-68760407D01*
X83552933Y-68709759D01*
X83572179Y-68675404D01*
X83582848Y-68662518D01*
X83582934Y-68662514D01*
X83606166Y-68673872D01*
X83631774Y-68700431D01*
X83650221Y-68730923D01*
X83653886Y-68746370D01*
X83641212Y-68788515D01*
X83609471Y-68824808D01*
X83574572Y-68842517D01*
X83548845Y-68859552D01*
X83519546Y-68892922D01*
X83494235Y-68932149D01*
X83480471Y-68966756D01*
X83479714Y-68973993D01*
X83492160Y-68982139D01*
X83523972Y-68982630D01*
X83566866Y-68976643D01*
X83612558Y-68965357D01*
X83652761Y-68949950D01*
X83654322Y-68949171D01*
X83719062Y-68902804D01*
X83763097Y-68842711D01*
X83784711Y-68774465D01*
X83782185Y-68703638D01*
X83753804Y-68635804D01*
X83751808Y-68632788D01*
X83703448Y-68579427D01*
X83640352Y-68544340D01*
X83557387Y-68524922D01*
X83534078Y-68522316D01*
X83424055Y-68517701D01*
X83372748Y-68523233D01*
X83372748Y-68662514D01*
X83404753Y-68664324D01*
X83414093Y-68674222D01*
X83407105Y-68698898D01*
X83390587Y-68737795D01*
X83369881Y-68781275D01*
X83369333Y-68782356D01*
X83349949Y-68819209D01*
X83337013Y-68834000D01*
X83323451Y-68830353D01*
X83305632Y-68814995D01*
X83279845Y-68775923D01*
X83277950Y-68733846D01*
X83296717Y-68696103D01*
X83332915Y-68670034D01*
X83372748Y-68662514D01*
X83372748Y-68523233D01*
X83336027Y-68527194D01*
X83266212Y-68551550D01*
X83217302Y-68585456D01*
X83167878Y-68646653D01*
X83143359Y-68714063D01*
X83141797Y-68782880D01*
X83161239Y-68848303D01*
G37*
X83161239Y-68848303D02*
X83199735Y-68905527D01*
X83255335Y-68949749D01*
X83326086Y-68976167D01*
X83378162Y-68981510D01*
X83399893Y-68980903D01*
X83416531Y-68975822D01*
X83431437Y-68961855D01*
X83447973Y-68934589D01*
X83469498Y-68889612D01*
X83499374Y-68822511D01*
X83499524Y-68822171D01*
X83527813Y-68760407D01*
X83552933Y-68709759D01*
X83572179Y-68675404D01*
X83582848Y-68662518D01*
X83582934Y-68662514D01*
X83606166Y-68673872D01*
X83631774Y-68700431D01*
X83650221Y-68730923D01*
X83653886Y-68746370D01*
X83641212Y-68788515D01*
X83609471Y-68824808D01*
X83574572Y-68842517D01*
X83548845Y-68859552D01*
X83519546Y-68892922D01*
X83494235Y-68932149D01*
X83480471Y-68966756D01*
X83479714Y-68973993D01*
X83492160Y-68982139D01*
X83523972Y-68982630D01*
X83566866Y-68976643D01*
X83612558Y-68965357D01*
X83652761Y-68949950D01*
X83654322Y-68949171D01*
X83719062Y-68902804D01*
X83763097Y-68842711D01*
X83784711Y-68774465D01*
X83782185Y-68703638D01*
X83753804Y-68635804D01*
X83751808Y-68632788D01*
X83703448Y-68579427D01*
X83640352Y-68544340D01*
X83557387Y-68524922D01*
X83534078Y-68522316D01*
X83424055Y-68517701D01*
X83372748Y-68523233D01*
X83372748Y-68662514D01*
X83404753Y-68664324D01*
X83414093Y-68674222D01*
X83407105Y-68698898D01*
X83390587Y-68737795D01*
X83369881Y-68781275D01*
X83369333Y-68782356D01*
X83349949Y-68819209D01*
X83337013Y-68834000D01*
X83323451Y-68830353D01*
X83305632Y-68814995D01*
X83279845Y-68775923D01*
X83277950Y-68733846D01*
X83296717Y-68696103D01*
X83332915Y-68670034D01*
X83372748Y-68662514D01*
X83372748Y-68523233D01*
X83336027Y-68527194D01*
X83266212Y-68551550D01*
X83217302Y-68585456D01*
X83167878Y-68646653D01*
X83143359Y-68714063D01*
X83141797Y-68782880D01*
X83161239Y-68848303D01*
G36*
X84321289Y-67565886D02*
G01*
X84380613Y-67570139D01*
X84415572Y-67575025D01*
X84430820Y-67581795D01*
X84431015Y-67591702D01*
X84429195Y-67594914D01*
X84416015Y-67637644D01*
X84416785Y-67693227D01*
X84430333Y-67749737D01*
X84447861Y-67785082D01*
X84475861Y-67821321D01*
X84507549Y-67847813D01*
X84547813Y-67865999D01*
X84601543Y-67877322D01*
X84673626Y-67883222D01*
X84768951Y-67885143D01*
X84787237Y-67885177D01*
X84992646Y-67885200D01*
X85008580Y-67839491D01*
X85019420Y-67807027D01*
X85024468Y-67789215D01*
X85024514Y-67788691D01*
X85010828Y-67786937D01*
X84973076Y-67785444D01*
X84916224Y-67784326D01*
X84845234Y-67783697D01*
X84802073Y-67783600D01*
X84716973Y-67783398D01*
X84655981Y-67782358D01*
X84614177Y-67779831D01*
X84586642Y-67775164D01*
X84568456Y-67767707D01*
X84554698Y-67756811D01*
X84548073Y-67750007D01*
X84521375Y-67703272D01*
X84519375Y-67652272D01*
X84541955Y-67606001D01*
X84550107Y-67597444D01*
X84565436Y-67584893D01*
X84583618Y-67576188D01*
X84609909Y-67570631D01*
X84649562Y-67567526D01*
X84707832Y-67566176D01*
X84788173Y-67565886D01*
X84992646Y-67565886D01*
X85008580Y-67520177D01*
X85019420Y-67487713D01*
X85024468Y-67469901D01*
X85024514Y-67469377D01*
X85010623Y-67468037D01*
X84971439Y-67466828D01*
X84910700Y-67465801D01*
X84832141Y-67465002D01*
X84739498Y-67464481D01*
X84636509Y-67464286D01*
X84239342Y-67464286D01*
X84219444Y-67511457D01*
X84199547Y-67558629D01*
X84321289Y-67565886D01*
G37*
X84321289Y-67565886D02*
X84380613Y-67570139D01*
X84415572Y-67575025D01*
X84430820Y-67581795D01*
X84431015Y-67591702D01*
X84429195Y-67594914D01*
X84416015Y-67637644D01*
X84416785Y-67693227D01*
X84430333Y-67749737D01*
X84447861Y-67785082D01*
X84475861Y-67821321D01*
X84507549Y-67847813D01*
X84547813Y-67865999D01*
X84601543Y-67877322D01*
X84673626Y-67883222D01*
X84768951Y-67885143D01*
X84787237Y-67885177D01*
X84992646Y-67885200D01*
X85008580Y-67839491D01*
X85019420Y-67807027D01*
X85024468Y-67789215D01*
X85024514Y-67788691D01*
X85010828Y-67786937D01*
X84973076Y-67785444D01*
X84916224Y-67784326D01*
X84845234Y-67783697D01*
X84802073Y-67783600D01*
X84716973Y-67783398D01*
X84655981Y-67782358D01*
X84614177Y-67779831D01*
X84586642Y-67775164D01*
X84568456Y-67767707D01*
X84554698Y-67756811D01*
X84548073Y-67750007D01*
X84521375Y-67703272D01*
X84519375Y-67652272D01*
X84541955Y-67606001D01*
X84550107Y-67597444D01*
X84565436Y-67584893D01*
X84583618Y-67576188D01*
X84609909Y-67570631D01*
X84649562Y-67567526D01*
X84707832Y-67566176D01*
X84788173Y-67565886D01*
X84992646Y-67565886D01*
X85008580Y-67520177D01*
X85019420Y-67487713D01*
X85024468Y-67469901D01*
X85024514Y-67469377D01*
X85010623Y-67468037D01*
X84971439Y-67466828D01*
X84910700Y-67465801D01*
X84832141Y-67465002D01*
X84739498Y-67464481D01*
X84636509Y-67464286D01*
X84239342Y-67464286D01*
X84219444Y-67511457D01*
X84199547Y-67558629D01*
X84321289Y-67565886D01*
G36*
X84420968Y-68229744D02*
G01*
X84442087Y-68286616D01*
X84442493Y-68287267D01*
X84468380Y-68322440D01*
X84498633Y-68348407D01*
X84538058Y-68366670D01*
X84591462Y-68378732D01*
X84663651Y-68386096D01*
X84759432Y-68390264D01*
X84773078Y-68390629D01*
X84978842Y-68395876D01*
X85001678Y-68351716D01*
X85017110Y-68319763D01*
X85024423Y-68300470D01*
X85024514Y-68299578D01*
X85011022Y-68296239D01*
X84974626Y-68293587D01*
X84921452Y-68291956D01*
X84878393Y-68291600D01*
X84808641Y-68291592D01*
X84764837Y-68288403D01*
X84743944Y-68277288D01*
X84742925Y-68253501D01*
X84758741Y-68212296D01*
X84787815Y-68150086D01*
X84811963Y-68104341D01*
X84832913Y-68080813D01*
X84855747Y-68073896D01*
X84856877Y-68073886D01*
X84896212Y-68085299D01*
X84917462Y-68119092D01*
X84920539Y-68170809D01*
X84920006Y-68208061D01*
X84930735Y-68227703D01*
X84956505Y-68239952D01*
X84989337Y-68247002D01*
X85007966Y-68236842D01*
X85010632Y-68233017D01*
X85021340Y-68197001D01*
X85022856Y-68146566D01*
X85015759Y-68094626D01*
X85002788Y-68057822D01*
X84959585Y-68006938D01*
X84899446Y-67978014D01*
X84852462Y-67972286D01*
X84810082Y-67976657D01*
X84775488Y-67992475D01*
X84744763Y-68023797D01*
X84713990Y-68074678D01*
X84679252Y-68149176D01*
X84677288Y-68153714D01*
X84646287Y-68220821D01*
X84620862Y-68262232D01*
X84598014Y-68279981D01*
X84574745Y-68276107D01*
X84548056Y-68252643D01*
X84541914Y-68245627D01*
X84518100Y-68198630D01*
X84519103Y-68149933D01*
X84542451Y-68107522D01*
X84585675Y-68079384D01*
X84594160Y-68076769D01*
X84635308Y-68051308D01*
X84655128Y-68019001D01*
X84674770Y-67972286D01*
X84623950Y-67972286D01*
X84550082Y-67986496D01*
X84482327Y-68028675D01*
X84459661Y-68050624D01*
X84430569Y-68100517D01*
X84417400Y-68163967D01*
X84420968Y-68229744D01*
G37*
X84420968Y-68229744D02*
X84442087Y-68286616D01*
X84442493Y-68287267D01*
X84468380Y-68322440D01*
X84498633Y-68348407D01*
X84538058Y-68366670D01*
X84591462Y-68378732D01*
X84663651Y-68386096D01*
X84759432Y-68390264D01*
X84773078Y-68390629D01*
X84978842Y-68395876D01*
X85001678Y-68351716D01*
X85017110Y-68319763D01*
X85024423Y-68300470D01*
X85024514Y-68299578D01*
X85011022Y-68296239D01*
X84974626Y-68293587D01*
X84921452Y-68291956D01*
X84878393Y-68291600D01*
X84808641Y-68291592D01*
X84764837Y-68288403D01*
X84743944Y-68277288D01*
X84742925Y-68253501D01*
X84758741Y-68212296D01*
X84787815Y-68150086D01*
X84811963Y-68104341D01*
X84832913Y-68080813D01*
X84855747Y-68073896D01*
X84856877Y-68073886D01*
X84896212Y-68085299D01*
X84917462Y-68119092D01*
X84920539Y-68170809D01*
X84920006Y-68208061D01*
X84930735Y-68227703D01*
X84956505Y-68239952D01*
X84989337Y-68247002D01*
X85007966Y-68236842D01*
X85010632Y-68233017D01*
X85021340Y-68197001D01*
X85022856Y-68146566D01*
X85015759Y-68094626D01*
X85002788Y-68057822D01*
X84959585Y-68006938D01*
X84899446Y-67978014D01*
X84852462Y-67972286D01*
X84810082Y-67976657D01*
X84775488Y-67992475D01*
X84744763Y-68023797D01*
X84713990Y-68074678D01*
X84679252Y-68149176D01*
X84677288Y-68153714D01*
X84646287Y-68220821D01*
X84620862Y-68262232D01*
X84598014Y-68279981D01*
X84574745Y-68276107D01*
X84548056Y-68252643D01*
X84541914Y-68245627D01*
X84518100Y-68198630D01*
X84519103Y-68149933D01*
X84542451Y-68107522D01*
X84585675Y-68079384D01*
X84594160Y-68076769D01*
X84635308Y-68051308D01*
X84655128Y-68019001D01*
X84674770Y-67972286D01*
X84623950Y-67972286D01*
X84550082Y-67986496D01*
X84482327Y-68028675D01*
X84459661Y-68050624D01*
X84430569Y-68100517D01*
X84417400Y-68163967D01*
X84420968Y-68229744D01*
G36*
X84419755Y-68719926D02*
G01*
X84444084Y-68785858D01*
X84487117Y-68839273D01*
X84517409Y-68860164D01*
X84572994Y-68882939D01*
X84613186Y-68882466D01*
X84640217Y-68858562D01*
X84644813Y-68849717D01*
X84659144Y-68811530D01*
X84655472Y-68792028D01*
X84631407Y-68785422D01*
X84618114Y-68785086D01*
X84569210Y-68772992D01*
X84534999Y-68741471D01*
X84518476Y-68697659D01*
X84522634Y-68648695D01*
X84544227Y-68608894D01*
X84556544Y-68595450D01*
X84571487Y-68585921D01*
X84594075Y-68579485D01*
X84629328Y-68575317D01*
X84682266Y-68572597D01*
X84757907Y-68570502D01*
X84781857Y-68569960D01*
X84863790Y-68567981D01*
X84921455Y-68565731D01*
X84959608Y-68562357D01*
X84983004Y-68557006D01*
X84996398Y-68548824D01*
X85004545Y-68536959D01*
X85008144Y-68529362D01*
X85020452Y-68497102D01*
X85024514Y-68478111D01*
X85010948Y-68471836D01*
X84969934Y-68468006D01*
X84900999Y-68466600D01*
X84803669Y-68467598D01*
X84788657Y-68467908D01*
X84699859Y-68470101D01*
X84635019Y-68472693D01*
X84589067Y-68476382D01*
X84556935Y-68481864D01*
X84533553Y-68489835D01*
X84513852Y-68500993D01*
X84505410Y-68506830D01*
X84468057Y-68540296D01*
X84439003Y-68577727D01*
X84436467Y-68582309D01*
X84416443Y-68649426D01*
X84419755Y-68719926D01*
G37*
X84419755Y-68719926D02*
X84444084Y-68785858D01*
X84487117Y-68839273D01*
X84517409Y-68860164D01*
X84572994Y-68882939D01*
X84613186Y-68882466D01*
X84640217Y-68858562D01*
X84644813Y-68849717D01*
X84659144Y-68811530D01*
X84655472Y-68792028D01*
X84631407Y-68785422D01*
X84618114Y-68785086D01*
X84569210Y-68772992D01*
X84534999Y-68741471D01*
X84518476Y-68697659D01*
X84522634Y-68648695D01*
X84544227Y-68608894D01*
X84556544Y-68595450D01*
X84571487Y-68585921D01*
X84594075Y-68579485D01*
X84629328Y-68575317D01*
X84682266Y-68572597D01*
X84757907Y-68570502D01*
X84781857Y-68569960D01*
X84863790Y-68567981D01*
X84921455Y-68565731D01*
X84959608Y-68562357D01*
X84983004Y-68557006D01*
X84996398Y-68548824D01*
X85004545Y-68536959D01*
X85008144Y-68529362D01*
X85020452Y-68497102D01*
X85024514Y-68478111D01*
X85010948Y-68471836D01*
X84969934Y-68468006D01*
X84900999Y-68466600D01*
X84803669Y-68467598D01*
X84788657Y-68467908D01*
X84699859Y-68470101D01*
X84635019Y-68472693D01*
X84589067Y-68476382D01*
X84556935Y-68481864D01*
X84533553Y-68489835D01*
X84513852Y-68500993D01*
X84505410Y-68506830D01*
X84468057Y-68540296D01*
X84439003Y-68577727D01*
X84436467Y-68582309D01*
X84416443Y-68649426D01*
X84419755Y-68719926D01*
G36*
X84535358Y-69380117D02*
G01*
X84643837Y-69379933D01*
X84727287Y-69379219D01*
X84789704Y-69377675D01*
X84835085Y-69375001D01*
X84867429Y-69370894D01*
X84890733Y-69365055D01*
X84908995Y-69357182D01*
X84919418Y-69351221D01*
X84975945Y-69301855D01*
X85011377Y-69239264D01*
X85024090Y-69170013D01*
X85012463Y-69100668D01*
X84991568Y-69059375D01*
X84955422Y-69016025D01*
X84911276Y-68986481D01*
X84853462Y-68968655D01*
X84776313Y-68960463D01*
X84719714Y-68959302D01*
X84715647Y-68959458D01*
X84715647Y-69060857D01*
X84780550Y-69061476D01*
X84823514Y-69064314D01*
X84851622Y-69070840D01*
X84871953Y-69082523D01*
X84887288Y-69096483D01*
X84916890Y-69143365D01*
X84919419Y-69193701D01*
X84894705Y-69241276D01*
X84891356Y-69244979D01*
X84873935Y-69260783D01*
X84853209Y-69270693D01*
X84822362Y-69276058D01*
X84774577Y-69278228D01*
X84721748Y-69278571D01*
X84655381Y-69277827D01*
X84611106Y-69274748D01*
X84582009Y-69268061D01*
X84561173Y-69256496D01*
X84550107Y-69247013D01*
X84522198Y-69202960D01*
X84518843Y-69152224D01*
X84540159Y-69103796D01*
X84548073Y-69094450D01*
X84565647Y-69078540D01*
X84586587Y-69068610D01*
X84617782Y-69063278D01*
X84666122Y-69061163D01*
X84715647Y-69060857D01*
X84715647Y-68959458D01*
X84628568Y-68962810D01*
X84560086Y-68974726D01*
X84508600Y-68997135D01*
X84468443Y-69032124D01*
X84447861Y-69059375D01*
X84425625Y-69108907D01*
X84415304Y-69166316D01*
X84418067Y-69219682D01*
X84429212Y-69249543D01*
X84432383Y-69261261D01*
X84420557Y-69269037D01*
X84388866Y-69274465D01*
X84340593Y-69278571D01*
X84286829Y-69283067D01*
X84254482Y-69289313D01*
X84235985Y-69300676D01*
X84223770Y-69320528D01*
X84218362Y-69333000D01*
X84198601Y-69380171D01*
X84535358Y-69380117D01*
G37*
X84535358Y-69380117D02*
X84643837Y-69379933D01*
X84727287Y-69379219D01*
X84789704Y-69377675D01*
X84835085Y-69375001D01*
X84867429Y-69370894D01*
X84890733Y-69365055D01*
X84908995Y-69357182D01*
X84919418Y-69351221D01*
X84975945Y-69301855D01*
X85011377Y-69239264D01*
X85024090Y-69170013D01*
X85012463Y-69100668D01*
X84991568Y-69059375D01*
X84955422Y-69016025D01*
X84911276Y-68986481D01*
X84853462Y-68968655D01*
X84776313Y-68960463D01*
X84719714Y-68959302D01*
X84715647Y-68959458D01*
X84715647Y-69060857D01*
X84780550Y-69061476D01*
X84823514Y-69064314D01*
X84851622Y-69070840D01*
X84871953Y-69082523D01*
X84887288Y-69096483D01*
X84916890Y-69143365D01*
X84919419Y-69193701D01*
X84894705Y-69241276D01*
X84891356Y-69244979D01*
X84873935Y-69260783D01*
X84853209Y-69270693D01*
X84822362Y-69276058D01*
X84774577Y-69278228D01*
X84721748Y-69278571D01*
X84655381Y-69277827D01*
X84611106Y-69274748D01*
X84582009Y-69268061D01*
X84561173Y-69256496D01*
X84550107Y-69247013D01*
X84522198Y-69202960D01*
X84518843Y-69152224D01*
X84540159Y-69103796D01*
X84548073Y-69094450D01*
X84565647Y-69078540D01*
X84586587Y-69068610D01*
X84617782Y-69063278D01*
X84666122Y-69061163D01*
X84715647Y-69060857D01*
X84715647Y-68959458D01*
X84628568Y-68962810D01*
X84560086Y-68974726D01*
X84508600Y-68997135D01*
X84468443Y-69032124D01*
X84447861Y-69059375D01*
X84425625Y-69108907D01*
X84415304Y-69166316D01*
X84418067Y-69219682D01*
X84429212Y-69249543D01*
X84432383Y-69261261D01*
X84420557Y-69269037D01*
X84388866Y-69274465D01*
X84340593Y-69278571D01*
X84286829Y-69283067D01*
X84254482Y-69289313D01*
X84235985Y-69300676D01*
X84223770Y-69320528D01*
X84218362Y-69333000D01*
X84198601Y-69380171D01*
X84535358Y-69380117D01*
G36*
X84428663Y-69969833D02*
G01*
X84466850Y-69972048D01*
X84524886Y-69973784D01*
X84598180Y-69974899D01*
X84675055Y-69975257D01*
X84935196Y-69975257D01*
X84981127Y-69929326D01*
X85009429Y-69897675D01*
X85020893Y-69869890D01*
X85020168Y-69831915D01*
X85018321Y-69816840D01*
X85012948Y-69769726D01*
X85009869Y-69730756D01*
X85009585Y-69721257D01*
X85011445Y-69689233D01*
X85016114Y-69643432D01*
X85018321Y-69625674D01*
X85021735Y-69582057D01*
X85014320Y-69552745D01*
X84991427Y-69523680D01*
X84981127Y-69513188D01*
X84935196Y-69467257D01*
X84448602Y-69467257D01*
X84431758Y-69504226D01*
X84419282Y-69536059D01*
X84414914Y-69554683D01*
X84428718Y-69559458D01*
X84467286Y-69563921D01*
X84526356Y-69567775D01*
X84601663Y-69570722D01*
X84665286Y-69572143D01*
X84915657Y-69576114D01*
X84920556Y-69610759D01*
X84917131Y-69642268D01*
X84906041Y-69657708D01*
X84885308Y-69662023D01*
X84841145Y-69665708D01*
X84779146Y-69668469D01*
X84704909Y-69670012D01*
X84666706Y-69670235D01*
X84446783Y-69670457D01*
X84430849Y-69716166D01*
X84420015Y-69748518D01*
X84414962Y-69766115D01*
X84414914Y-69766623D01*
X84428648Y-69768388D01*
X84466730Y-69770329D01*
X84524482Y-69772282D01*
X84597227Y-69774084D01*
X84665286Y-69775343D01*
X84915657Y-69779314D01*
X84915657Y-69866400D01*
X84687240Y-69870396D01*
X84458822Y-69874392D01*
X84436868Y-69916847D01*
X84421793Y-69948192D01*
X84414951Y-69966744D01*
X84414914Y-69967279D01*
X84428663Y-69969833D01*
G37*
X84428663Y-69969833D02*
X84466850Y-69972048D01*
X84524886Y-69973784D01*
X84598180Y-69974899D01*
X84675055Y-69975257D01*
X84935196Y-69975257D01*
X84981127Y-69929326D01*
X85009429Y-69897675D01*
X85020893Y-69869890D01*
X85020168Y-69831915D01*
X85018321Y-69816840D01*
X85012948Y-69769726D01*
X85009869Y-69730756D01*
X85009585Y-69721257D01*
X85011445Y-69689233D01*
X85016114Y-69643432D01*
X85018321Y-69625674D01*
X85021735Y-69582057D01*
X85014320Y-69552745D01*
X84991427Y-69523680D01*
X84981127Y-69513188D01*
X84935196Y-69467257D01*
X84448602Y-69467257D01*
X84431758Y-69504226D01*
X84419282Y-69536059D01*
X84414914Y-69554683D01*
X84428718Y-69559458D01*
X84467286Y-69563921D01*
X84526356Y-69567775D01*
X84601663Y-69570722D01*
X84665286Y-69572143D01*
X84915657Y-69576114D01*
X84920556Y-69610759D01*
X84917131Y-69642268D01*
X84906041Y-69657708D01*
X84885308Y-69662023D01*
X84841145Y-69665708D01*
X84779146Y-69668469D01*
X84704909Y-69670012D01*
X84666706Y-69670235D01*
X84446783Y-69670457D01*
X84430849Y-69716166D01*
X84420015Y-69748518D01*
X84414962Y-69766115D01*
X84414914Y-69766623D01*
X84428648Y-69768388D01*
X84466730Y-69770329D01*
X84524482Y-69772282D01*
X84597227Y-69774084D01*
X84665286Y-69775343D01*
X84915657Y-69779314D01*
X84915657Y-69866400D01*
X84687240Y-69870396D01*
X84458822Y-69874392D01*
X84436868Y-69916847D01*
X84421793Y-69948192D01*
X84414951Y-69966744D01*
X84414914Y-69967279D01*
X84428663Y-69969833D01*
G36*
X84426335Y-70334876D02*
G01*
X84445344Y-70376667D01*
X84468378Y-70409469D01*
X84494133Y-70433503D01*
X84527358Y-70450097D01*
X84572800Y-70460577D01*
X84635207Y-70466271D01*
X84719327Y-70468507D01*
X84774721Y-70468743D01*
X84990826Y-70468743D01*
X85007670Y-70431774D01*
X85019981Y-70402656D01*
X85024514Y-70388231D01*
X85011025Y-70385472D01*
X84974653Y-70383282D01*
X84921542Y-70381942D01*
X84879372Y-70381657D01*
X84818447Y-70380434D01*
X84770115Y-70377136D01*
X84740518Y-70372321D01*
X84734229Y-70368496D01*
X84740652Y-70342783D01*
X84757125Y-70302418D01*
X84779458Y-70255679D01*
X84803457Y-70210845D01*
X84824930Y-70176193D01*
X84839685Y-70160002D01*
X84839845Y-70159938D01*
X84867152Y-70161330D01*
X84893219Y-70173818D01*
X84914392Y-70195743D01*
X84921474Y-70227743D01*
X84920649Y-70255092D01*
X84920042Y-70293826D01*
X84929116Y-70314158D01*
X84953092Y-70326369D01*
X84957613Y-70327909D01*
X84991806Y-70333203D01*
X85012568Y-70319047D01*
X85022462Y-70282148D01*
X85024292Y-70242289D01*
X85010727Y-70170562D01*
X84991355Y-70133432D01*
X84945845Y-70087576D01*
X84889983Y-70063256D01*
X84830957Y-70061073D01*
X84775953Y-70081629D01*
X84741486Y-70112549D01*
X84722189Y-70143420D01*
X84697759Y-70191942D01*
X84672985Y-70248485D01*
X84669199Y-70257910D01*
X84641791Y-70320019D01*
X84617634Y-70355822D01*
X84593619Y-70367337D01*
X84566635Y-70356580D01*
X84545543Y-70338114D01*
X84519572Y-70294469D01*
X84517624Y-70246446D01*
X84537637Y-70202406D01*
X84577551Y-70170709D01*
X84587848Y-70166549D01*
X84625724Y-70142327D01*
X84653842Y-70106965D01*
X84676917Y-70062343D01*
X84611485Y-70062343D01*
X84571506Y-70064969D01*
X84539997Y-70076230D01*
X84506378Y-70101199D01*
X84480484Y-70125169D01*
X84443817Y-70162441D01*
X84424121Y-70191401D01*
X84416220Y-70222505D01*
X84414914Y-70257713D01*
X84426335Y-70334876D01*
G37*
X84426335Y-70334876D02*
X84445344Y-70376667D01*
X84468378Y-70409469D01*
X84494133Y-70433503D01*
X84527358Y-70450097D01*
X84572800Y-70460577D01*
X84635207Y-70466271D01*
X84719327Y-70468507D01*
X84774721Y-70468743D01*
X84990826Y-70468743D01*
X85007670Y-70431774D01*
X85019981Y-70402656D01*
X85024514Y-70388231D01*
X85011025Y-70385472D01*
X84974653Y-70383282D01*
X84921542Y-70381942D01*
X84879372Y-70381657D01*
X84818447Y-70380434D01*
X84770115Y-70377136D01*
X84740518Y-70372321D01*
X84734229Y-70368496D01*
X84740652Y-70342783D01*
X84757125Y-70302418D01*
X84779458Y-70255679D01*
X84803457Y-70210845D01*
X84824930Y-70176193D01*
X84839685Y-70160002D01*
X84839845Y-70159938D01*
X84867152Y-70161330D01*
X84893219Y-70173818D01*
X84914392Y-70195743D01*
X84921474Y-70227743D01*
X84920649Y-70255092D01*
X84920042Y-70293826D01*
X84929116Y-70314158D01*
X84953092Y-70326369D01*
X84957613Y-70327909D01*
X84991806Y-70333203D01*
X85012568Y-70319047D01*
X85022462Y-70282148D01*
X85024292Y-70242289D01*
X85010727Y-70170562D01*
X84991355Y-70133432D01*
X84945845Y-70087576D01*
X84889983Y-70063256D01*
X84830957Y-70061073D01*
X84775953Y-70081629D01*
X84741486Y-70112549D01*
X84722189Y-70143420D01*
X84697759Y-70191942D01*
X84672985Y-70248485D01*
X84669199Y-70257910D01*
X84641791Y-70320019D01*
X84617634Y-70355822D01*
X84593619Y-70367337D01*
X84566635Y-70356580D01*
X84545543Y-70338114D01*
X84519572Y-70294469D01*
X84517624Y-70246446D01*
X84537637Y-70202406D01*
X84577551Y-70170709D01*
X84587848Y-70166549D01*
X84625724Y-70142327D01*
X84653842Y-70106965D01*
X84676917Y-70062343D01*
X84611485Y-70062343D01*
X84571506Y-70064969D01*
X84539997Y-70076230D01*
X84506378Y-70101199D01*
X84480484Y-70125169D01*
X84443817Y-70162441D01*
X84424121Y-70191401D01*
X84416220Y-70222505D01*
X84414914Y-70257713D01*
X84426335Y-70334876D01*
G36*
X84428752Y-70842600D02*
G01*
X84436334Y-70859948D01*
X84469128Y-70901356D01*
X84516547Y-70936765D01*
X84567151Y-70958664D01*
X84592098Y-70962229D01*
X84626927Y-70950279D01*
X84645357Y-70924067D01*
X84656516Y-70895964D01*
X84658572Y-70883095D01*
X84643649Y-70876829D01*
X84611175Y-70864456D01*
X84596502Y-70859028D01*
X84545744Y-70828590D01*
X84520427Y-70784520D01*
X84521206Y-70728010D01*
X84522203Y-70723825D01*
X84536507Y-70693655D01*
X84564393Y-70671476D01*
X84609287Y-70656327D01*
X84674615Y-70647250D01*
X84763804Y-70643286D01*
X84811261Y-70642914D01*
X84886071Y-70642730D01*
X84937069Y-70641522D01*
X84969471Y-70638309D01*
X84988495Y-70632109D01*
X84999356Y-70621940D01*
X85007272Y-70606819D01*
X85007670Y-70605946D01*
X85019981Y-70576828D01*
X85024514Y-70562403D01*
X85010809Y-70560186D01*
X84972925Y-70558289D01*
X84915715Y-70556847D01*
X84844027Y-70555998D01*
X84791565Y-70555829D01*
X84690047Y-70556692D01*
X84613032Y-70560070D01*
X84556023Y-70567142D01*
X84514526Y-70579088D01*
X84484043Y-70597090D01*
X84460080Y-70622327D01*
X84443355Y-70647247D01*
X84421097Y-70707171D01*
X84416076Y-70776911D01*
X84428752Y-70842600D01*
G37*
X84428752Y-70842600D02*
X84436334Y-70859948D01*
X84469128Y-70901356D01*
X84516547Y-70936765D01*
X84567151Y-70958664D01*
X84592098Y-70962229D01*
X84626927Y-70950279D01*
X84645357Y-70924067D01*
X84656516Y-70895964D01*
X84658572Y-70883095D01*
X84643649Y-70876829D01*
X84611175Y-70864456D01*
X84596502Y-70859028D01*
X84545744Y-70828590D01*
X84520427Y-70784520D01*
X84521206Y-70728010D01*
X84522203Y-70723825D01*
X84536507Y-70693655D01*
X84564393Y-70671476D01*
X84609287Y-70656327D01*
X84674615Y-70647250D01*
X84763804Y-70643286D01*
X84811261Y-70642914D01*
X84886071Y-70642730D01*
X84937069Y-70641522D01*
X84969471Y-70638309D01*
X84988495Y-70632109D01*
X84999356Y-70621940D01*
X85007272Y-70606819D01*
X85007670Y-70605946D01*
X85019981Y-70576828D01*
X85024514Y-70562403D01*
X85010809Y-70560186D01*
X84972925Y-70558289D01*
X84915715Y-70556847D01*
X84844027Y-70555998D01*
X84791565Y-70555829D01*
X84690047Y-70556692D01*
X84613032Y-70560070D01*
X84556023Y-70567142D01*
X84514526Y-70579088D01*
X84484043Y-70597090D01*
X84460080Y-70622327D01*
X84443355Y-70647247D01*
X84421097Y-70707171D01*
X84416076Y-70776911D01*
X84428752Y-70842600D01*
G36*
X84436966Y-71343595D02*
G01*
X84474497Y-71401021D01*
X84508096Y-71428719D01*
X84569064Y-71450662D01*
X84617308Y-71452405D01*
X84681816Y-71448457D01*
X84746934Y-71299686D01*
X84780202Y-71227349D01*
X84806964Y-71180084D01*
X84830144Y-71155507D01*
X84852667Y-71151237D01*
X84877455Y-71164889D01*
X84893886Y-71179943D01*
X84920235Y-71223746D01*
X84922081Y-71271389D01*
X84901546Y-71315145D01*
X84860752Y-71347289D01*
X84846347Y-71353038D01*
X84801356Y-71380576D01*
X84782182Y-71412258D01*
X84765779Y-71455714D01*
X84827966Y-71455714D01*
X84870283Y-71451872D01*
X84905969Y-71436823D01*
X84946943Y-71405280D01*
X84952267Y-71400592D01*
X84988720Y-71365506D01*
X85008283Y-71335347D01*
X85017283Y-71297615D01*
X85020230Y-71266335D01*
X85020965Y-71210385D01*
X85011660Y-71170555D01*
X84997846Y-71145708D01*
X84967467Y-71106656D01*
X84934613Y-71079625D01*
X84893294Y-71062517D01*
X84837521Y-71053238D01*
X84761305Y-71049693D01*
X84722622Y-71049410D01*
X84676247Y-71050372D01*
X84676247Y-71138007D01*
X84701126Y-71139023D01*
X84705200Y-71141556D01*
X84699665Y-71158274D01*
X84685017Y-71194249D01*
X84664190Y-71242331D01*
X84659714Y-71252386D01*
X84628814Y-71313152D01*
X84601657Y-71346632D01*
X84576220Y-71353990D01*
X84550481Y-71336391D01*
X84539109Y-71321856D01*
X84516364Y-71269410D01*
X84520122Y-71220322D01*
X84547884Y-71179227D01*
X84597152Y-71150758D01*
X84636257Y-71141631D01*
X84676247Y-71138007D01*
X84676247Y-71050372D01*
X84632249Y-71051285D01*
X84565384Y-71058196D01*
X84516695Y-71071884D01*
X84480849Y-71094096D01*
X84452513Y-71126574D01*
X84443355Y-71140733D01*
X84419507Y-71205053D01*
X84418006Y-71275473D01*
X84436966Y-71343595D01*
G37*
X84436966Y-71343595D02*
X84474497Y-71401021D01*
X84508096Y-71428719D01*
X84569064Y-71450662D01*
X84617308Y-71452405D01*
X84681816Y-71448457D01*
X84746934Y-71299686D01*
X84780202Y-71227349D01*
X84806964Y-71180084D01*
X84830144Y-71155507D01*
X84852667Y-71151237D01*
X84877455Y-71164889D01*
X84893886Y-71179943D01*
X84920235Y-71223746D01*
X84922081Y-71271389D01*
X84901546Y-71315145D01*
X84860752Y-71347289D01*
X84846347Y-71353038D01*
X84801356Y-71380576D01*
X84782182Y-71412258D01*
X84765779Y-71455714D01*
X84827966Y-71455714D01*
X84870283Y-71451872D01*
X84905969Y-71436823D01*
X84946943Y-71405280D01*
X84952267Y-71400592D01*
X84988720Y-71365506D01*
X85008283Y-71335347D01*
X85017283Y-71297615D01*
X85020230Y-71266335D01*
X85020965Y-71210385D01*
X85011660Y-71170555D01*
X84997846Y-71145708D01*
X84967467Y-71106656D01*
X84934613Y-71079625D01*
X84893294Y-71062517D01*
X84837521Y-71053238D01*
X84761305Y-71049693D01*
X84722622Y-71049410D01*
X84676247Y-71050372D01*
X84676247Y-71138007D01*
X84701126Y-71139023D01*
X84705200Y-71141556D01*
X84699665Y-71158274D01*
X84685017Y-71194249D01*
X84664190Y-71242331D01*
X84659714Y-71252386D01*
X84628814Y-71313152D01*
X84601657Y-71346632D01*
X84576220Y-71353990D01*
X84550481Y-71336391D01*
X84539109Y-71321856D01*
X84516364Y-71269410D01*
X84520122Y-71220322D01*
X84547884Y-71179227D01*
X84597152Y-71150758D01*
X84636257Y-71141631D01*
X84676247Y-71138007D01*
X84676247Y-71050372D01*
X84632249Y-71051285D01*
X84565384Y-71058196D01*
X84516695Y-71071884D01*
X84480849Y-71094096D01*
X84452513Y-71126574D01*
X84443355Y-71140733D01*
X84419507Y-71205053D01*
X84418006Y-71275473D01*
X84436966Y-71343595D01*
G36*
X81932348Y-64573910D02*
G01*
X81932778Y-64652454D01*
X81933942Y-64709298D01*
X81936207Y-64748105D01*
X81939940Y-64772538D01*
X81945506Y-64786262D01*
X81953273Y-64792940D01*
X81963605Y-64796236D01*
X81964943Y-64796556D01*
X81989079Y-64801562D01*
X82036701Y-64810829D01*
X82102741Y-64823392D01*
X82182128Y-64838287D01*
X82269796Y-64854551D01*
X82272875Y-64855119D01*
X82358789Y-64871410D01*
X82434696Y-64886652D01*
X82496045Y-64899861D01*
X82538282Y-64910054D01*
X82556855Y-64916248D01*
X82557184Y-64916543D01*
X82566253Y-64934788D01*
X82581367Y-64972405D01*
X82599262Y-65021271D01*
X82599358Y-65021543D01*
X82622493Y-65083093D01*
X82651965Y-65155657D01*
X82681597Y-65224057D01*
X82683062Y-65227294D01*
X82733626Y-65338702D01*
X82565160Y-65585399D01*
X82513803Y-65661077D01*
X82467889Y-65729631D01*
X82430030Y-65787088D01*
X82402837Y-65829476D01*
X82388921Y-65852825D01*
X82387889Y-65855042D01*
X82392484Y-65872010D01*
X82414655Y-65903701D01*
X82455447Y-65951352D01*
X82515905Y-66016198D01*
X82580227Y-66082397D01*
X82643612Y-66146214D01*
X82701451Y-66203329D01*
X82750175Y-66250305D01*
X82786210Y-66283703D01*
X82805984Y-66300085D01*
X82807002Y-66300694D01*
X82820572Y-66302505D01*
X82842733Y-66295683D01*
X82876478Y-66278540D01*
X82924800Y-66249393D01*
X82990692Y-66206555D01*
X83075517Y-66149448D01*
X83150177Y-66098766D01*
X83217140Y-66053461D01*
X83272516Y-66016150D01*
X83312420Y-65989452D01*
X83332962Y-65975985D01*
X83334356Y-65975137D01*
X83354038Y-65976781D01*
X83392293Y-65989245D01*
X83441889Y-66010048D01*
X83457728Y-66017462D01*
X83528290Y-66049814D01*
X83608353Y-66084328D01*
X83677629Y-66112365D01*
X83729045Y-66132568D01*
X83768119Y-66148615D01*
X83788541Y-66157888D01*
X83790114Y-66159041D01*
X83792721Y-66176096D01*
X83799863Y-66216298D01*
X83810523Y-66274302D01*
X83823685Y-66344763D01*
X83838333Y-66422335D01*
X83853449Y-66501672D01*
X83868018Y-66577431D01*
X83881022Y-66644264D01*
X83891445Y-66696828D01*
X83898270Y-66729776D01*
X83900199Y-66737857D01*
X83904962Y-66746205D01*
X83915718Y-66752506D01*
X83936098Y-66757045D01*
X83969734Y-66760104D01*
X84020255Y-66761967D01*
X84091292Y-66762918D01*
X84186476Y-66763240D01*
X84225492Y-66763257D01*
X84542799Y-66763257D01*
X84557839Y-66687057D01*
X84565995Y-66644663D01*
X84577899Y-66581400D01*
X84592116Y-66504962D01*
X84607210Y-66423043D01*
X84611355Y-66400400D01*
X84626053Y-66324806D01*
X84640505Y-66258953D01*
X84653375Y-66208366D01*
X84663322Y-66178574D01*
X84666287Y-66173612D01*
X84687283Y-66161426D01*
X84727967Y-66143953D01*
X84780322Y-66124577D01*
X84791600Y-66120734D01*
X84861523Y-66095339D01*
X84940418Y-66063817D01*
X85011266Y-66032969D01*
X85011595Y-66032817D01*
X85122733Y-65981447D01*
X85371253Y-66150399D01*
X85619772Y-66319352D01*
X85837058Y-66102429D01*
X85901726Y-66036819D01*
X85958733Y-65976979D01*
X86005033Y-65926267D01*
X86037584Y-65888046D01*
X86053343Y-65865675D01*
X86054343Y-65862466D01*
X86046469Y-65843626D01*
X86024578Y-65805180D01*
X85991267Y-65751330D01*
X85949131Y-65686276D01*
X85901943Y-65615940D01*
X85853810Y-65544555D01*
X85811928Y-65480908D01*
X85778871Y-65429041D01*
X85757218Y-65392995D01*
X85749543Y-65376867D01*
X85756037Y-65357189D01*
X85773150Y-65319875D01*
X85797326Y-65272621D01*
X85800013Y-65267612D01*
X85831927Y-65203977D01*
X85847579Y-65160341D01*
X85847745Y-65133202D01*
X85833204Y-65119057D01*
X85833000Y-65118975D01*
X85815779Y-65111905D01*
X85774899Y-65095042D01*
X85713525Y-65069695D01*
X85634819Y-65037171D01*
X85541947Y-64998778D01*
X85438072Y-64955822D01*
X85337502Y-64914222D01*
X85226516Y-64868504D01*
X85123703Y-64826526D01*
X85032215Y-64789548D01*
X84955201Y-64758827D01*
X84895815Y-64735622D01*
X84857209Y-64721190D01*
X84842800Y-64716743D01*
X84826272Y-64727896D01*
X84799930Y-64757069D01*
X84770887Y-64795971D01*
X84679039Y-64906757D01*
X84573759Y-64993351D01*
X84457266Y-65054716D01*
X84331776Y-65089815D01*
X84199507Y-65097608D01*
X84138457Y-65091943D01*
X84011795Y-65061078D01*
X83899941Y-65007920D01*
X83804001Y-64935767D01*
X83725076Y-64847917D01*
X83664270Y-64747665D01*
X83622687Y-64638310D01*
X83601428Y-64523147D01*
X83601599Y-64405475D01*
X83624301Y-64288590D01*
X83670638Y-64175789D01*
X83741713Y-64070369D01*
X83781911Y-64026368D01*
X83885129Y-63941979D01*
X83997925Y-63883222D01*
X84117010Y-63849704D01*
X84239095Y-63841035D01*
X84360893Y-63856823D01*
X84479116Y-63896678D01*
X84590475Y-63960207D01*
X84691684Y-64047021D01*
X84770887Y-64144029D01*
X84801162Y-64184437D01*
X84827219Y-64212982D01*
X84842825Y-64223257D01*
X84859843Y-64217877D01*
X84900500Y-64202575D01*
X84961642Y-64178612D01*
X85040119Y-64147244D01*
X85132780Y-64109732D01*
X85236472Y-64067333D01*
X85337526Y-64025663D01*
X85448607Y-63979690D01*
X85551541Y-63937107D01*
X85643165Y-63899221D01*
X85720316Y-63867340D01*
X85779831Y-63842771D01*
X85818544Y-63826820D01*
X85833000Y-63820910D01*
X85847685Y-63806948D01*
X85847642Y-63779940D01*
X85832099Y-63736413D01*
X85800284Y-63672890D01*
X85800013Y-63672388D01*
X85775323Y-63624560D01*
X85757338Y-63585897D01*
X85749614Y-63564095D01*
X85749543Y-63563133D01*
X85757378Y-63546721D01*
X85779165Y-63510487D01*
X85812328Y-63458474D01*
X85854291Y-63394725D01*
X85901943Y-63324060D01*
X85950191Y-63252116D01*
X85992151Y-63187274D01*
X86025227Y-63133735D01*
X86046821Y-63095697D01*
X86054343Y-63077533D01*
X86044457Y-63060808D01*
X86016826Y-63027180D01*
X85974495Y-62980010D01*
X85920505Y-62922658D01*
X85857899Y-62858484D01*
X85836983Y-62837497D01*
X85619623Y-62620499D01*
X85377220Y-62785668D01*
X85302781Y-62835864D01*
X85235972Y-62879919D01*
X85180665Y-62915362D01*
X85140729Y-62939719D01*
X85120036Y-62950522D01*
X85118563Y-62950838D01*
X85099058Y-62945143D01*
X85059822Y-62929826D01*
X85007430Y-62907537D01*
X84972355Y-62891893D01*
X84905201Y-62862641D01*
X84837358Y-62835094D01*
X84780034Y-62813737D01*
X84762572Y-62807935D01*
X84715938Y-62791452D01*
X84679905Y-62775340D01*
X84666287Y-62766490D01*
X84657952Y-62746960D01*
X84646137Y-62704334D01*
X84632181Y-62644145D01*
X84617422Y-62571922D01*
X84611355Y-62539600D01*
X84596273Y-62457522D01*
X84581669Y-62378795D01*
X84568980Y-62311109D01*
X84559642Y-62262160D01*
X84557839Y-62252943D01*
X84542799Y-62176743D01*
X84225492Y-62176743D01*
X84121154Y-62176914D01*
X84042213Y-62177616D01*
X83985038Y-62179134D01*
X83945999Y-62181749D01*
X83921465Y-62185746D01*
X83907805Y-62191409D01*
X83901389Y-62199020D01*
X83900199Y-62202143D01*
X83895980Y-62220978D01*
X83887562Y-62262588D01*
X83875961Y-62321630D01*
X83862195Y-62392757D01*
X83847280Y-62470625D01*
X83832232Y-62549887D01*
X83818069Y-62625198D01*
X83805806Y-62691213D01*
X83796461Y-62742587D01*
X83791050Y-62773975D01*
X83790114Y-62780959D01*
X83777596Y-62787285D01*
X83744246Y-62801290D01*
X83696377Y-62820355D01*
X83677629Y-62827634D01*
X83605195Y-62856996D01*
X83525170Y-62891571D01*
X83457728Y-62922537D01*
X83406159Y-62945323D01*
X83363785Y-62960482D01*
X83337834Y-62965542D01*
X83334356Y-62964736D01*
X83317936Y-62954041D01*
X83281417Y-62929620D01*
X83228687Y-62894095D01*
X83163635Y-62850087D01*
X83090151Y-62800217D01*
X83075645Y-62790356D01*
X82989704Y-62732492D01*
X82924261Y-62689956D01*
X82876304Y-62661054D01*
X82842820Y-62644090D01*
X82820795Y-62637367D01*
X82807217Y-62639190D01*
X82807131Y-62639236D01*
X82789297Y-62653586D01*
X82754817Y-62685323D01*
X82707268Y-62731010D01*
X82650222Y-62787204D01*
X82587255Y-62850468D01*
X82580227Y-62857602D01*
X82503020Y-62937330D01*
X82446330Y-62998857D01*
X82409110Y-63043421D01*
X82390315Y-63072257D01*
X82387889Y-63084958D01*
X82398471Y-63103494D01*
X82422916Y-63141961D01*
X82458612Y-63196386D01*
X82502947Y-63262798D01*
X82553311Y-63337225D01*
X82565160Y-63354601D01*
X82733626Y-63601297D01*
X82683062Y-63712706D01*
X82653595Y-63780457D01*
X82623959Y-63853183D01*
X82600330Y-63915703D01*
X82599358Y-63918457D01*
X82581457Y-63967360D01*
X82566320Y-64005057D01*
X82557210Y-64023425D01*
X82557184Y-64023456D01*
X82540717Y-64029285D01*
X82500219Y-64039192D01*
X82440242Y-64052195D01*
X82365340Y-64067309D01*
X82280064Y-64083552D01*
X82272875Y-64084881D01*
X82185014Y-64101175D01*
X82105260Y-64116133D01*
X82038681Y-64128791D01*
X81990347Y-64138186D01*
X81965325Y-64143354D01*
X81964943Y-64143444D01*
X81954299Y-64146589D01*
X81946262Y-64152704D01*
X81940467Y-64165453D01*
X81936547Y-64188500D01*
X81934135Y-64225509D01*
X81932865Y-64280144D01*
X81932371Y-64356067D01*
X81932286Y-64456944D01*
X81932286Y-64470000D01*
X81932348Y-64573910D01*
G37*
X81932348Y-64573910D02*
X81932778Y-64652454D01*
X81933942Y-64709298D01*
X81936207Y-64748105D01*
X81939940Y-64772538D01*
X81945506Y-64786262D01*
X81953273Y-64792940D01*
X81963605Y-64796236D01*
X81964943Y-64796556D01*
X81989079Y-64801562D01*
X82036701Y-64810829D01*
X82102741Y-64823392D01*
X82182128Y-64838287D01*
X82269796Y-64854551D01*
X82272875Y-64855119D01*
X82358789Y-64871410D01*
X82434696Y-64886652D01*
X82496045Y-64899861D01*
X82538282Y-64910054D01*
X82556855Y-64916248D01*
X82557184Y-64916543D01*
X82566253Y-64934788D01*
X82581367Y-64972405D01*
X82599262Y-65021271D01*
X82599358Y-65021543D01*
X82622493Y-65083093D01*
X82651965Y-65155657D01*
X82681597Y-65224057D01*
X82683062Y-65227294D01*
X82733626Y-65338702D01*
X82565160Y-65585399D01*
X82513803Y-65661077D01*
X82467889Y-65729631D01*
X82430030Y-65787088D01*
X82402837Y-65829476D01*
X82388921Y-65852825D01*
X82387889Y-65855042D01*
X82392484Y-65872010D01*
X82414655Y-65903701D01*
X82455447Y-65951352D01*
X82515905Y-66016198D01*
X82580227Y-66082397D01*
X82643612Y-66146214D01*
X82701451Y-66203329D01*
X82750175Y-66250305D01*
X82786210Y-66283703D01*
X82805984Y-66300085D01*
X82807002Y-66300694D01*
X82820572Y-66302505D01*
X82842733Y-66295683D01*
X82876478Y-66278540D01*
X82924800Y-66249393D01*
X82990692Y-66206555D01*
X83075517Y-66149448D01*
X83150177Y-66098766D01*
X83217140Y-66053461D01*
X83272516Y-66016150D01*
X83312420Y-65989452D01*
X83332962Y-65975985D01*
X83334356Y-65975137D01*
X83354038Y-65976781D01*
X83392293Y-65989245D01*
X83441889Y-66010048D01*
X83457728Y-66017462D01*
X83528290Y-66049814D01*
X83608353Y-66084328D01*
X83677629Y-66112365D01*
X83729045Y-66132568D01*
X83768119Y-66148615D01*
X83788541Y-66157888D01*
X83790114Y-66159041D01*
X83792721Y-66176096D01*
X83799863Y-66216298D01*
X83810523Y-66274302D01*
X83823685Y-66344763D01*
X83838333Y-66422335D01*
X83853449Y-66501672D01*
X83868018Y-66577431D01*
X83881022Y-66644264D01*
X83891445Y-66696828D01*
X83898270Y-66729776D01*
X83900199Y-66737857D01*
X83904962Y-66746205D01*
X83915718Y-66752506D01*
X83936098Y-66757045D01*
X83969734Y-66760104D01*
X84020255Y-66761967D01*
X84091292Y-66762918D01*
X84186476Y-66763240D01*
X84225492Y-66763257D01*
X84542799Y-66763257D01*
X84557839Y-66687057D01*
X84565995Y-66644663D01*
X84577899Y-66581400D01*
X84592116Y-66504962D01*
X84607210Y-66423043D01*
X84611355Y-66400400D01*
X84626053Y-66324806D01*
X84640505Y-66258953D01*
X84653375Y-66208366D01*
X84663322Y-66178574D01*
X84666287Y-66173612D01*
X84687283Y-66161426D01*
X84727967Y-66143953D01*
X84780322Y-66124577D01*
X84791600Y-66120734D01*
X84861523Y-66095339D01*
X84940418Y-66063817D01*
X85011266Y-66032969D01*
X85011595Y-66032817D01*
X85122733Y-65981447D01*
X85371253Y-66150399D01*
X85619772Y-66319352D01*
X85837058Y-66102429D01*
X85901726Y-66036819D01*
X85958733Y-65976979D01*
X86005033Y-65926267D01*
X86037584Y-65888046D01*
X86053343Y-65865675D01*
X86054343Y-65862466D01*
X86046469Y-65843626D01*
X86024578Y-65805180D01*
X85991267Y-65751330D01*
X85949131Y-65686276D01*
X85901943Y-65615940D01*
X85853810Y-65544555D01*
X85811928Y-65480908D01*
X85778871Y-65429041D01*
X85757218Y-65392995D01*
X85749543Y-65376867D01*
X85756037Y-65357189D01*
X85773150Y-65319875D01*
X85797326Y-65272621D01*
X85800013Y-65267612D01*
X85831927Y-65203977D01*
X85847579Y-65160341D01*
X85847745Y-65133202D01*
X85833204Y-65119057D01*
X85833000Y-65118975D01*
X85815779Y-65111905D01*
X85774899Y-65095042D01*
X85713525Y-65069695D01*
X85634819Y-65037171D01*
X85541947Y-64998778D01*
X85438072Y-64955822D01*
X85337502Y-64914222D01*
X85226516Y-64868504D01*
X85123703Y-64826526D01*
X85032215Y-64789548D01*
X84955201Y-64758827D01*
X84895815Y-64735622D01*
X84857209Y-64721190D01*
X84842800Y-64716743D01*
X84826272Y-64727896D01*
X84799930Y-64757069D01*
X84770887Y-64795971D01*
X84679039Y-64906757D01*
X84573759Y-64993351D01*
X84457266Y-65054716D01*
X84331776Y-65089815D01*
X84199507Y-65097608D01*
X84138457Y-65091943D01*
X84011795Y-65061078D01*
X83899941Y-65007920D01*
X83804001Y-64935767D01*
X83725076Y-64847917D01*
X83664270Y-64747665D01*
X83622687Y-64638310D01*
X83601428Y-64523147D01*
X83601599Y-64405475D01*
X83624301Y-64288590D01*
X83670638Y-64175789D01*
X83741713Y-64070369D01*
X83781911Y-64026368D01*
X83885129Y-63941979D01*
X83997925Y-63883222D01*
X84117010Y-63849704D01*
X84239095Y-63841035D01*
X84360893Y-63856823D01*
X84479116Y-63896678D01*
X84590475Y-63960207D01*
X84691684Y-64047021D01*
X84770887Y-64144029D01*
X84801162Y-64184437D01*
X84827219Y-64212982D01*
X84842825Y-64223257D01*
X84859843Y-64217877D01*
X84900500Y-64202575D01*
X84961642Y-64178612D01*
X85040119Y-64147244D01*
X85132780Y-64109732D01*
X85236472Y-64067333D01*
X85337526Y-64025663D01*
X85448607Y-63979690D01*
X85551541Y-63937107D01*
X85643165Y-63899221D01*
X85720316Y-63867340D01*
X85779831Y-63842771D01*
X85818544Y-63826820D01*
X85833000Y-63820910D01*
X85847685Y-63806948D01*
X85847642Y-63779940D01*
X85832099Y-63736413D01*
X85800284Y-63672890D01*
X85800013Y-63672388D01*
X85775323Y-63624560D01*
X85757338Y-63585897D01*
X85749614Y-63564095D01*
X85749543Y-63563133D01*
X85757378Y-63546721D01*
X85779165Y-63510487D01*
X85812328Y-63458474D01*
X85854291Y-63394725D01*
X85901943Y-63324060D01*
X85950191Y-63252116D01*
X85992151Y-63187274D01*
X86025227Y-63133735D01*
X86046821Y-63095697D01*
X86054343Y-63077533D01*
X86044457Y-63060808D01*
X86016826Y-63027180D01*
X85974495Y-62980010D01*
X85920505Y-62922658D01*
X85857899Y-62858484D01*
X85836983Y-62837497D01*
X85619623Y-62620499D01*
X85377220Y-62785668D01*
X85302781Y-62835864D01*
X85235972Y-62879919D01*
X85180665Y-62915362D01*
X85140729Y-62939719D01*
X85120036Y-62950522D01*
X85118563Y-62950838D01*
X85099058Y-62945143D01*
X85059822Y-62929826D01*
X85007430Y-62907537D01*
X84972355Y-62891893D01*
X84905201Y-62862641D01*
X84837358Y-62835094D01*
X84780034Y-62813737D01*
X84762572Y-62807935D01*
X84715938Y-62791452D01*
X84679905Y-62775340D01*
X84666287Y-62766490D01*
X84657952Y-62746960D01*
X84646137Y-62704334D01*
X84632181Y-62644145D01*
X84617422Y-62571922D01*
X84611355Y-62539600D01*
X84596273Y-62457522D01*
X84581669Y-62378795D01*
X84568980Y-62311109D01*
X84559642Y-62262160D01*
X84557839Y-62252943D01*
X84542799Y-62176743D01*
X84225492Y-62176743D01*
X84121154Y-62176914D01*
X84042213Y-62177616D01*
X83985038Y-62179134D01*
X83945999Y-62181749D01*
X83921465Y-62185746D01*
X83907805Y-62191409D01*
X83901389Y-62199020D01*
X83900199Y-62202143D01*
X83895980Y-62220978D01*
X83887562Y-62262588D01*
X83875961Y-62321630D01*
X83862195Y-62392757D01*
X83847280Y-62470625D01*
X83832232Y-62549887D01*
X83818069Y-62625198D01*
X83805806Y-62691213D01*
X83796461Y-62742587D01*
X83791050Y-62773975D01*
X83790114Y-62780959D01*
X83777596Y-62787285D01*
X83744246Y-62801290D01*
X83696377Y-62820355D01*
X83677629Y-62827634D01*
X83605195Y-62856996D01*
X83525170Y-62891571D01*
X83457728Y-62922537D01*
X83406159Y-62945323D01*
X83363785Y-62960482D01*
X83337834Y-62965542D01*
X83334356Y-62964736D01*
X83317936Y-62954041D01*
X83281417Y-62929620D01*
X83228687Y-62894095D01*
X83163635Y-62850087D01*
X83090151Y-62800217D01*
X83075645Y-62790356D01*
X82989704Y-62732492D01*
X82924261Y-62689956D01*
X82876304Y-62661054D01*
X82842820Y-62644090D01*
X82820795Y-62637367D01*
X82807217Y-62639190D01*
X82807131Y-62639236D01*
X82789297Y-62653586D01*
X82754817Y-62685323D01*
X82707268Y-62731010D01*
X82650222Y-62787204D01*
X82587255Y-62850468D01*
X82580227Y-62857602D01*
X82503020Y-62937330D01*
X82446330Y-62998857D01*
X82409110Y-63043421D01*
X82390315Y-63072257D01*
X82387889Y-63084958D01*
X82398471Y-63103494D01*
X82422916Y-63141961D01*
X82458612Y-63196386D01*
X82502947Y-63262798D01*
X82553311Y-63337225D01*
X82565160Y-63354601D01*
X82733626Y-63601297D01*
X82683062Y-63712706D01*
X82653595Y-63780457D01*
X82623959Y-63853183D01*
X82600330Y-63915703D01*
X82599358Y-63918457D01*
X82581457Y-63967360D01*
X82566320Y-64005057D01*
X82557210Y-64023425D01*
X82557184Y-64023456D01*
X82540717Y-64029285D01*
X82500219Y-64039192D01*
X82440242Y-64052195D01*
X82365340Y-64067309D01*
X82280064Y-64083552D01*
X82272875Y-64084881D01*
X82185014Y-64101175D01*
X82105260Y-64116133D01*
X82038681Y-64128791D01*
X81990347Y-64138186D01*
X81965325Y-64143354D01*
X81964943Y-64143444D01*
X81954299Y-64146589D01*
X81946262Y-64152704D01*
X81940467Y-64165453D01*
X81936547Y-64188500D01*
X81934135Y-64225509D01*
X81932865Y-64280144D01*
X81932371Y-64356067D01*
X81932286Y-64456944D01*
X81932286Y-64470000D01*
X81932348Y-64573910D01*
D11*
X62640000Y-65540000D02*
X62640000Y-65785000D01*
X62885000Y-65540000D02*
X62640000Y-65540000D01*
X62640000Y-66275000D02*
X62640000Y-66520000D01*
X62885000Y-66520000D02*
X62640000Y-66520000D01*
X63620000Y-66520000D02*
X63375000Y-66520000D01*
X63620000Y-66520000D02*
X63620000Y-66275000D01*
X63620000Y-65540000D02*
X63375000Y-65540000D01*
X63620000Y-65785000D02*
X63620000Y-65540000D01*
D15*
X62460000Y-66330000D02*
G75*
G03*
X62460000Y-66330000I-30000J0D01*
G01*
D11*
X67470000Y-55990000D02*
X67225000Y-55990000D01*
X67470000Y-56235000D02*
X67470000Y-55990000D01*
X66735000Y-55990000D02*
X66490000Y-55990000D01*
X66490000Y-56235000D02*
X66490000Y-55990000D01*
X66490000Y-56970000D02*
X66490000Y-56725000D01*
X66490000Y-56970000D02*
X66735000Y-56970000D01*
X67470000Y-56970000D02*
X67470000Y-56725000D01*
X67225000Y-56970000D02*
X67470000Y-56970000D01*
D15*
X66710000Y-55780000D02*
G75*
G03*
X66710000Y-55780000I-30000J0D01*
G01*
D11*
X58860000Y-76770000D02*
X59105000Y-76770000D01*
X58860000Y-76525000D02*
X58860000Y-76770000D01*
X59595000Y-76770000D02*
X59840000Y-76770000D01*
X59840000Y-76525000D02*
X59840000Y-76770000D01*
X59840000Y-75790000D02*
X59840000Y-76035000D01*
X59840000Y-75790000D02*
X59595000Y-75790000D01*
X58860000Y-75790000D02*
X58860000Y-76035000D01*
X59105000Y-75790000D02*
X58860000Y-75790000D01*
D15*
X59680000Y-76980000D02*
G75*
G03*
X59680000Y-76980000I-30000J0D01*
G01*
D11*
X53800000Y-70760000D02*
X54045000Y-70760000D01*
X53800000Y-70515000D02*
X53800000Y-70760000D01*
X54535000Y-70760000D02*
X54780000Y-70760000D01*
X54780000Y-70515000D02*
X54780000Y-70760000D01*
X54780000Y-69780000D02*
X54780000Y-70025000D01*
X54780000Y-69780000D02*
X54535000Y-69780000D01*
X53800000Y-69780000D02*
X53800000Y-70025000D01*
X54045000Y-69780000D02*
X53800000Y-69780000D01*
D15*
X54620000Y-70970000D02*
G75*
G03*
X54620000Y-70970000I-30000J0D01*
G01*
D11*
X76390000Y-61180000D02*
X76390000Y-61425000D01*
X76635000Y-61180000D02*
X76390000Y-61180000D01*
X76390000Y-61915000D02*
X76390000Y-62160000D01*
X76635000Y-62160000D02*
X76390000Y-62160000D01*
X77370000Y-62160000D02*
X77125000Y-62160000D01*
X77370000Y-62160000D02*
X77370000Y-61915000D01*
X77370000Y-61180000D02*
X77125000Y-61180000D01*
X77370000Y-61425000D02*
X77370000Y-61180000D01*
D15*
X76210000Y-61970000D02*
G75*
G03*
X76210000Y-61970000I-30000J0D01*
G01*
D11*
X76390000Y-67980000D02*
X76635000Y-67980000D01*
X76390000Y-67735000D02*
X76390000Y-67980000D01*
X77125000Y-67980000D02*
X77370000Y-67980000D01*
X77370000Y-67735000D02*
X77370000Y-67980000D01*
X77370000Y-67000000D02*
X77370000Y-67245000D01*
X77370000Y-67000000D02*
X77125000Y-67000000D01*
X76390000Y-67000000D02*
X76390000Y-67245000D01*
X76635000Y-67000000D02*
X76390000Y-67000000D01*
D15*
X77210000Y-68190000D02*
G75*
G03*
X77210000Y-68190000I-30000J0D01*
G01*
D11*
X78601472Y-54640101D02*
X79520711Y-53720862D01*
X79520711Y-53720862D02*
X82349138Y-56549289D01*
X82349138Y-56549289D02*
X81429899Y-57468528D01*
X77470101Y-56620000D02*
X77045837Y-56195736D01*
X77045837Y-56195736D02*
X77470101Y-55771472D01*
X79450000Y-58599899D02*
X79874264Y-59024163D01*
X79874264Y-59024163D02*
X80298528Y-58599899D01*
D16*
X77187258Y-57327107D02*
X77187258Y-57327107D01*
X77328680Y-57468528D02*
X77328680Y-57468528D01*
X77328680Y-57468527D02*
G75*
G03*
X77187258Y-57327107I-70711J70710D01*
G01*
X77187258Y-57327106D02*
G75*
G03*
X77328680Y-57468528I70711J-70711D01*
G01*
D13*
X75308748Y-60375000D02*
X75831252Y-60375000D01*
X75308748Y-58905000D02*
X75831252Y-58905000D01*
X73135000Y-55758748D02*
X73135000Y-56281252D01*
X74605000Y-55758748D02*
X74605000Y-56281252D01*
X62748748Y-54155000D02*
X63271252Y-54155000D01*
X62748748Y-55625000D02*
X63271252Y-55625000D01*
X58934020Y-55797761D02*
X60670623Y-57013743D01*
X53129427Y-64087579D02*
X54866029Y-65303561D01*
X72785000Y-77927064D02*
X72785000Y-77472936D01*
X74255000Y-77927064D02*
X74255000Y-77472936D01*
X59868748Y-65335000D02*
X60391252Y-65335000D01*
X59868748Y-66805000D02*
X60391252Y-66805000D01*
X64695000Y-58612936D02*
X64695000Y-59067064D01*
X63225000Y-58612936D02*
X63225000Y-59067064D01*
X52784421Y-66552315D02*
X52412421Y-66291838D01*
X53627579Y-65348162D02*
X53255579Y-65087685D01*
D16*
X62110000Y-70740000D02*
G75*
G03*
X62110000Y-70740000I-100000J0D01*
G01*
D17*
X61510000Y-72790000D02*
X60860000Y-72790000D01*
X61510000Y-72640000D02*
X61510000Y-72790000D01*
X58510000Y-72790000D02*
X59160000Y-72790000D01*
X58510000Y-72640000D02*
X58510000Y-72790000D01*
X58510000Y-70290000D02*
X58510000Y-70440000D01*
X59160000Y-70290000D02*
X58510000Y-70290000D01*
X61510000Y-70290000D02*
X60860000Y-70290000D01*
X61510000Y-70440000D02*
X61510000Y-70290000D01*
X68060000Y-76245000D02*
X66310000Y-76245000D01*
X68060000Y-78895000D02*
X66360000Y-78895000D01*
D16*
X65060000Y-75832500D02*
G75*
G03*
X65060000Y-75832500I-100000J0D01*
G01*
D17*
X68060000Y-76245000D02*
X68060000Y-78895000D01*
X64560000Y-77770000D02*
X64560000Y-77370000D01*
D13*
X69535000Y-56368748D02*
X69535000Y-56891252D01*
X68065000Y-56368748D02*
X68065000Y-56891252D01*
X76188748Y-72725000D02*
X76711252Y-72725000D01*
X76188748Y-74195000D02*
X76711252Y-74195000D01*
X60741000Y-76585252D02*
X60741000Y-76062748D01*
X62211000Y-76585252D02*
X62211000Y-76062748D01*
X56945000Y-71008748D02*
X56945000Y-71531252D01*
X55475000Y-71008748D02*
X55475000Y-71531252D01*
X75665000Y-62118748D02*
X75665000Y-62641252D01*
X74195000Y-62118748D02*
X74195000Y-62641252D01*
X74195000Y-67061252D02*
X74195000Y-66538748D01*
X75665000Y-67061252D02*
X75665000Y-66538748D01*
X74820000Y-71380000D02*
X74820000Y-68930000D01*
X78040000Y-69580000D02*
X78040000Y-71380000D01*
D17*
X67450000Y-60450000D02*
X70550000Y-60450000D01*
X67450000Y-63550000D02*
X70550000Y-63550000D01*
D16*
X66655000Y-62975000D02*
G75*
G03*
X66655000Y-62975000I-100000J0D01*
G01*
D13*
X71900000Y-72660000D02*
X71900000Y-69350000D01*
X66080000Y-71000000D02*
X66080000Y-72640000D01*
D11*
X64028571Y-64409285D02*
X64028571Y-65016428D01*
X63992857Y-65087857D01*
X63957142Y-65123571D01*
X63885714Y-65159285D01*
X63742857Y-65159285D01*
X63671428Y-65123571D01*
X63635714Y-65087857D01*
X63600000Y-65016428D01*
X63600000Y-64409285D01*
X62850000Y-65159285D02*
X63278571Y-65159285D01*
X63064285Y-65159285D02*
X63064285Y-64409285D01*
X63135714Y-64516428D01*
X63207142Y-64587857D01*
X63278571Y-64623571D01*
X62135714Y-65159285D02*
X62564285Y-65159285D01*
X62350000Y-65159285D02*
X62350000Y-64409285D01*
X62421428Y-64516428D01*
X62492857Y-64587857D01*
X62564285Y-64623571D01*
X67531428Y-57359285D02*
X67531428Y-57966428D01*
X67495714Y-58037857D01*
X67460000Y-58073571D01*
X67388571Y-58109285D01*
X67245714Y-58109285D01*
X67174285Y-58073571D01*
X67138571Y-58037857D01*
X67102857Y-57966428D01*
X67102857Y-57359285D01*
X66638571Y-57680714D02*
X66710000Y-57645000D01*
X66745714Y-57609285D01*
X66781428Y-57537857D01*
X66781428Y-57502142D01*
X66745714Y-57430714D01*
X66710000Y-57395000D01*
X66638571Y-57359285D01*
X66495714Y-57359285D01*
X66424285Y-57395000D01*
X66388571Y-57430714D01*
X66352857Y-57502142D01*
X66352857Y-57537857D01*
X66388571Y-57609285D01*
X66424285Y-57645000D01*
X66495714Y-57680714D01*
X66638571Y-57680714D01*
X66710000Y-57716428D01*
X66745714Y-57752142D01*
X66781428Y-57823571D01*
X66781428Y-57966428D01*
X66745714Y-58037857D01*
X66710000Y-58073571D01*
X66638571Y-58109285D01*
X66495714Y-58109285D01*
X66424285Y-58073571D01*
X66388571Y-58037857D01*
X66352857Y-57966428D01*
X66352857Y-57823571D01*
X66388571Y-57752142D01*
X66424285Y-57716428D01*
X66495714Y-57680714D01*
X59691428Y-74609285D02*
X59691428Y-75216428D01*
X59655714Y-75287857D01*
X59620000Y-75323571D01*
X59548571Y-75359285D01*
X59405714Y-75359285D01*
X59334285Y-75323571D01*
X59298571Y-75287857D01*
X59262857Y-75216428D01*
X59262857Y-74609285D01*
X58584285Y-74609285D02*
X58727142Y-74609285D01*
X58798571Y-74645000D01*
X58834285Y-74680714D01*
X58905714Y-74787857D01*
X58941428Y-74930714D01*
X58941428Y-75216428D01*
X58905714Y-75287857D01*
X58870000Y-75323571D01*
X58798571Y-75359285D01*
X58655714Y-75359285D01*
X58584285Y-75323571D01*
X58548571Y-75287857D01*
X58512857Y-75216428D01*
X58512857Y-75037857D01*
X58548571Y-74966428D01*
X58584285Y-74930714D01*
X58655714Y-74895000D01*
X58798571Y-74895000D01*
X58870000Y-74930714D01*
X58905714Y-74966428D01*
X58941428Y-75037857D01*
X54551428Y-71259285D02*
X54551428Y-71866428D01*
X54515714Y-71937857D01*
X54480000Y-71973571D01*
X54408571Y-72009285D01*
X54265714Y-72009285D01*
X54194285Y-71973571D01*
X54158571Y-71937857D01*
X54122857Y-71866428D01*
X54122857Y-71259285D01*
X53408571Y-71259285D02*
X53765714Y-71259285D01*
X53801428Y-71616428D01*
X53765714Y-71580714D01*
X53694285Y-71545000D01*
X53515714Y-71545000D01*
X53444285Y-71580714D01*
X53408571Y-71616428D01*
X53372857Y-71687857D01*
X53372857Y-71866428D01*
X53408571Y-71937857D01*
X53444285Y-71973571D01*
X53515714Y-72009285D01*
X53694285Y-72009285D01*
X53765714Y-71973571D01*
X53801428Y-71937857D01*
X77371428Y-62579285D02*
X77371428Y-63186428D01*
X77335714Y-63257857D01*
X77300000Y-63293571D01*
X77228571Y-63329285D01*
X77085714Y-63329285D01*
X77014285Y-63293571D01*
X76978571Y-63257857D01*
X76942857Y-63186428D01*
X76942857Y-62579285D01*
X76264285Y-62829285D02*
X76264285Y-63329285D01*
X76442857Y-62543571D02*
X76621428Y-63079285D01*
X76157142Y-63079285D01*
X77461428Y-65839285D02*
X77461428Y-66446428D01*
X77425714Y-66517857D01*
X77390000Y-66553571D01*
X77318571Y-66589285D01*
X77175714Y-66589285D01*
X77104285Y-66553571D01*
X77068571Y-66517857D01*
X77032857Y-66446428D01*
X77032857Y-65839285D01*
X76747142Y-65839285D02*
X76282857Y-65839285D01*
X76532857Y-66125000D01*
X76425714Y-66125000D01*
X76354285Y-66160714D01*
X76318571Y-66196428D01*
X76282857Y-66267857D01*
X76282857Y-66446428D01*
X76318571Y-66517857D01*
X76354285Y-66553571D01*
X76425714Y-66589285D01*
X76640000Y-66589285D01*
X76711428Y-66553571D01*
X76747142Y-66517857D01*
X73242142Y-60167857D02*
X73277857Y-60203571D01*
X73385000Y-60239285D01*
X73456428Y-60239285D01*
X73563571Y-60203571D01*
X73635000Y-60132142D01*
X73670714Y-60060714D01*
X73706428Y-59917857D01*
X73706428Y-59810714D01*
X73670714Y-59667857D01*
X73635000Y-59596428D01*
X73563571Y-59525000D01*
X73456428Y-59489285D01*
X73385000Y-59489285D01*
X73277857Y-59525000D01*
X73242142Y-59560714D01*
X72527857Y-60239285D02*
X72956428Y-60239285D01*
X72742142Y-60239285D02*
X72742142Y-59489285D01*
X72813571Y-59596428D01*
X72885000Y-59667857D01*
X72956428Y-59703571D01*
X72063571Y-59489285D02*
X71992142Y-59489285D01*
X71920714Y-59525000D01*
X71885000Y-59560714D01*
X71849285Y-59632142D01*
X71813571Y-59775000D01*
X71813571Y-59953571D01*
X71849285Y-60096428D01*
X71885000Y-60167857D01*
X71920714Y-60203571D01*
X71992142Y-60239285D01*
X72063571Y-60239285D01*
X72135000Y-60203571D01*
X72170714Y-60167857D01*
X72206428Y-60096428D01*
X72242142Y-59953571D01*
X72242142Y-59775000D01*
X72206428Y-59632142D01*
X72170714Y-59560714D01*
X72135000Y-59525000D01*
X72063571Y-59489285D01*
X72295000Y-55267857D02*
X72330714Y-55303571D01*
X72437857Y-55339285D01*
X72509285Y-55339285D01*
X72616428Y-55303571D01*
X72687857Y-55232142D01*
X72723571Y-55160714D01*
X72759285Y-55017857D01*
X72759285Y-54910714D01*
X72723571Y-54767857D01*
X72687857Y-54696428D01*
X72616428Y-54625000D01*
X72509285Y-54589285D01*
X72437857Y-54589285D01*
X72330714Y-54625000D01*
X72295000Y-54660714D01*
X71937857Y-55339285D02*
X71795000Y-55339285D01*
X71723571Y-55303571D01*
X71687857Y-55267857D01*
X71616428Y-55160714D01*
X71580714Y-55017857D01*
X71580714Y-54732142D01*
X71616428Y-54660714D01*
X71652142Y-54625000D01*
X71723571Y-54589285D01*
X71866428Y-54589285D01*
X71937857Y-54625000D01*
X71973571Y-54660714D01*
X72009285Y-54732142D01*
X72009285Y-54910714D01*
X71973571Y-54982142D01*
X71937857Y-55017857D01*
X71866428Y-55053571D01*
X71723571Y-55053571D01*
X71652142Y-55017857D01*
X71616428Y-54982142D01*
X71580714Y-54910714D01*
X62325000Y-53697857D02*
X62360714Y-53733571D01*
X62467857Y-53769285D01*
X62539285Y-53769285D01*
X62646428Y-53733571D01*
X62717857Y-53662142D01*
X62753571Y-53590714D01*
X62789285Y-53447857D01*
X62789285Y-53340714D01*
X62753571Y-53197857D01*
X62717857Y-53126428D01*
X62646428Y-53055000D01*
X62539285Y-53019285D01*
X62467857Y-53019285D01*
X62360714Y-53055000D01*
X62325000Y-53090714D01*
X61896428Y-53340714D02*
X61967857Y-53305000D01*
X62003571Y-53269285D01*
X62039285Y-53197857D01*
X62039285Y-53162142D01*
X62003571Y-53090714D01*
X61967857Y-53055000D01*
X61896428Y-53019285D01*
X61753571Y-53019285D01*
X61682142Y-53055000D01*
X61646428Y-53090714D01*
X61610714Y-53162142D01*
X61610714Y-53197857D01*
X61646428Y-53269285D01*
X61682142Y-53305000D01*
X61753571Y-53340714D01*
X61896428Y-53340714D01*
X61967857Y-53376428D01*
X62003571Y-53412142D01*
X62039285Y-53483571D01*
X62039285Y-53626428D01*
X62003571Y-53697857D01*
X61967857Y-53733571D01*
X61896428Y-53769285D01*
X61753571Y-53769285D01*
X61682142Y-53733571D01*
X61646428Y-53697857D01*
X61610714Y-53626428D01*
X61610714Y-53483571D01*
X61646428Y-53412142D01*
X61682142Y-53376428D01*
X61753571Y-53340714D01*
X53942288Y-62769782D02*
X53307317Y-63240752D01*
X53532712Y-62482994D01*
X52587646Y-62649635D02*
X52596416Y-62699375D01*
X52663698Y-62790085D01*
X52722209Y-62831055D01*
X52830460Y-62863254D01*
X52929940Y-62845713D01*
X53000166Y-62807687D01*
X53111361Y-62711150D01*
X53172815Y-62623384D01*
X53225499Y-62485877D01*
X53237213Y-62406882D01*
X53219672Y-62307401D01*
X53152391Y-62216691D01*
X53093880Y-62175721D01*
X52985629Y-62143522D01*
X52935889Y-62152293D01*
X51973282Y-62219453D02*
X51982052Y-62269193D01*
X52049334Y-62359903D01*
X52107845Y-62400873D01*
X52216096Y-62433072D01*
X52315576Y-62415531D01*
X52385802Y-62377505D01*
X52496996Y-62280968D01*
X52558451Y-62193202D01*
X52611135Y-62055695D01*
X52622849Y-61976699D01*
X52605308Y-61877219D01*
X52538027Y-61786509D01*
X52479516Y-61745539D01*
X52371265Y-61713340D01*
X52321525Y-61722110D01*
X55727658Y-60033210D02*
X55619407Y-60001011D01*
X55473130Y-59898587D01*
X55435104Y-59828362D01*
X55426333Y-59778621D01*
X55438047Y-59699626D01*
X55479017Y-59641115D01*
X55549242Y-59603089D01*
X55598983Y-59594318D01*
X55677978Y-59606033D01*
X55815485Y-59658717D01*
X55894481Y-59670431D01*
X55944221Y-59661660D01*
X56014446Y-59623634D01*
X56055416Y-59565124D01*
X56067130Y-59486128D01*
X56058360Y-59436388D01*
X56020334Y-59366162D01*
X55874056Y-59263738D01*
X55765805Y-59231539D01*
X54782714Y-59327954D02*
X54791484Y-59377695D01*
X54858765Y-59468405D01*
X54917276Y-59509374D01*
X55025528Y-59541574D01*
X55125008Y-59524032D01*
X55195233Y-59486006D01*
X55306428Y-59389470D01*
X55367883Y-59301703D01*
X55420567Y-59164197D01*
X55432281Y-59085201D01*
X55414740Y-58985720D01*
X55347459Y-58895010D01*
X55288948Y-58854041D01*
X55180697Y-58821841D01*
X55130956Y-58830612D01*
X54185891Y-58997253D02*
X54478445Y-59202101D01*
X54908627Y-58587737D01*
X58136407Y-56032768D02*
X58215402Y-56044483D01*
X58303169Y-56105937D01*
X58370450Y-56196647D01*
X58387991Y-56296128D01*
X58376277Y-56375124D01*
X58323593Y-56512630D01*
X58262138Y-56600397D01*
X58150943Y-56696933D01*
X58080718Y-56734959D01*
X57981237Y-56752501D01*
X57872986Y-56720301D01*
X57814475Y-56679332D01*
X57747194Y-56588622D01*
X57738423Y-56538881D01*
X57881818Y-56334093D01*
X57998839Y-56416033D01*
X57434155Y-56413028D02*
X57864337Y-55798664D01*
X57083090Y-56167210D01*
X57513272Y-55552846D01*
X56790535Y-55962361D02*
X57220718Y-55347997D01*
X57074441Y-55245573D01*
X56966189Y-55213374D01*
X56866709Y-55230915D01*
X56796484Y-55268941D01*
X56685289Y-55365477D01*
X56623834Y-55453244D01*
X56571150Y-55590750D01*
X56559436Y-55669746D01*
X56576977Y-55769227D01*
X56644258Y-55859937D01*
X56790535Y-55962361D01*
X56673058Y-58309445D02*
X57103241Y-57695081D01*
X56380504Y-58104596D02*
X56810686Y-57490232D01*
X56029439Y-57858777D01*
X56459621Y-57244413D01*
X56254833Y-57101019D02*
X55903768Y-56855201D01*
X55649118Y-57592474D02*
X56079301Y-56978110D01*
X54600869Y-61673566D02*
X54492617Y-61641367D01*
X54346340Y-61538942D01*
X54308314Y-61468717D01*
X54299544Y-61418977D01*
X54311258Y-61339981D01*
X54352228Y-61281470D01*
X54422453Y-61243444D01*
X54472193Y-61234674D01*
X54551189Y-61246388D01*
X54688696Y-61299072D01*
X54767691Y-61310786D01*
X54817432Y-61302016D01*
X54887657Y-61263990D01*
X54928627Y-61205479D01*
X54940341Y-61126483D01*
X54931570Y-61076743D01*
X54893544Y-61006518D01*
X54747267Y-60904093D01*
X54639016Y-60871894D01*
X53966020Y-61272639D02*
X54396202Y-60658275D01*
X54249925Y-60555851D01*
X54141674Y-60523651D01*
X54042193Y-60541193D01*
X53971968Y-60579219D01*
X53860773Y-60675755D01*
X53799318Y-60763522D01*
X53746634Y-60901028D01*
X53734920Y-60980024D01*
X53752461Y-61079505D01*
X53819742Y-61170215D01*
X53966020Y-61272639D01*
X53503820Y-60687409D02*
X53211266Y-60482560D01*
X53439422Y-60903911D02*
X53664816Y-60146153D01*
X53029846Y-60617123D01*
X71985000Y-77999285D02*
X72235000Y-77642142D01*
X72413571Y-77999285D02*
X72413571Y-77249285D01*
X72127857Y-77249285D01*
X72056428Y-77285000D01*
X72020714Y-77320714D01*
X71985000Y-77392142D01*
X71985000Y-77499285D01*
X72020714Y-77570714D01*
X72056428Y-77606428D01*
X72127857Y-77642142D01*
X72413571Y-77642142D01*
X71735000Y-77249285D02*
X71270714Y-77249285D01*
X71520714Y-77535000D01*
X71413571Y-77535000D01*
X71342142Y-77570714D01*
X71306428Y-77606428D01*
X71270714Y-77677857D01*
X71270714Y-77856428D01*
X71306428Y-77927857D01*
X71342142Y-77963571D01*
X71413571Y-77999285D01*
X71627857Y-77999285D01*
X71699285Y-77963571D01*
X71735000Y-77927857D01*
X60295000Y-64857857D02*
X60330714Y-64893571D01*
X60437857Y-64929285D01*
X60509285Y-64929285D01*
X60616428Y-64893571D01*
X60687857Y-64822142D01*
X60723571Y-64750714D01*
X60759285Y-64607857D01*
X60759285Y-64500714D01*
X60723571Y-64357857D01*
X60687857Y-64286428D01*
X60616428Y-64215000D01*
X60509285Y-64179285D01*
X60437857Y-64179285D01*
X60330714Y-64215000D01*
X60295000Y-64250714D01*
X60045000Y-64179285D02*
X59545000Y-64179285D01*
X59866428Y-64929285D01*
X64085000Y-57059285D02*
X64335000Y-56702142D01*
X64513571Y-57059285D02*
X64513571Y-56309285D01*
X64227857Y-56309285D01*
X64156428Y-56345000D01*
X64120714Y-56380714D01*
X64085000Y-56452142D01*
X64085000Y-56559285D01*
X64120714Y-56630714D01*
X64156428Y-56666428D01*
X64227857Y-56702142D01*
X64513571Y-56702142D01*
X63799285Y-56380714D02*
X63763571Y-56345000D01*
X63692142Y-56309285D01*
X63513571Y-56309285D01*
X63442142Y-56345000D01*
X63406428Y-56380714D01*
X63370714Y-56452142D01*
X63370714Y-56523571D01*
X63406428Y-56630714D01*
X63835000Y-57059285D01*
X63370714Y-57059285D01*
X52975000Y-68239285D02*
X53225000Y-67882142D01*
X53403571Y-68239285D02*
X53403571Y-67489285D01*
X53117857Y-67489285D01*
X53046428Y-67525000D01*
X53010714Y-67560714D01*
X52975000Y-67632142D01*
X52975000Y-67739285D01*
X53010714Y-67810714D01*
X53046428Y-67846428D01*
X53117857Y-67882142D01*
X53403571Y-67882142D01*
X52260714Y-68239285D02*
X52689285Y-68239285D01*
X52475000Y-68239285D02*
X52475000Y-67489285D01*
X52546428Y-67596428D01*
X52617857Y-67667857D01*
X52689285Y-67703571D01*
X61661428Y-69169285D02*
X61661428Y-69776428D01*
X61625714Y-69847857D01*
X61590000Y-69883571D01*
X61518571Y-69919285D01*
X61375714Y-69919285D01*
X61304285Y-69883571D01*
X61268571Y-69847857D01*
X61232857Y-69776428D01*
X61232857Y-69169285D01*
X60840000Y-69919285D02*
X60697142Y-69919285D01*
X60625714Y-69883571D01*
X60590000Y-69847857D01*
X60518571Y-69740714D01*
X60482857Y-69597857D01*
X60482857Y-69312142D01*
X60518571Y-69240714D01*
X60554285Y-69205000D01*
X60625714Y-69169285D01*
X60768571Y-69169285D01*
X60840000Y-69205000D01*
X60875714Y-69240714D01*
X60911428Y-69312142D01*
X60911428Y-69490714D01*
X60875714Y-69562142D01*
X60840000Y-69597857D01*
X60768571Y-69633571D01*
X60625714Y-69633571D01*
X60554285Y-69597857D01*
X60518571Y-69562142D01*
X60482857Y-69490714D01*
X68202142Y-75849285D02*
X68202142Y-75099285D01*
X67952142Y-75635000D01*
X67702142Y-75099285D01*
X67702142Y-75849285D01*
X67345000Y-75849285D02*
X67345000Y-75099285D01*
X66916428Y-75849285D02*
X67237857Y-75420714D01*
X66916428Y-75099285D02*
X67345000Y-75527857D01*
X66202142Y-75849285D02*
X66630714Y-75849285D01*
X66416428Y-75849285D02*
X66416428Y-75099285D01*
X66487857Y-75206428D01*
X66559285Y-75277857D01*
X66630714Y-75313571D01*
X70665000Y-58047857D02*
X70700714Y-58083571D01*
X70807857Y-58119285D01*
X70879285Y-58119285D01*
X70986428Y-58083571D01*
X71057857Y-58012142D01*
X71093571Y-57940714D01*
X71129285Y-57797857D01*
X71129285Y-57690714D01*
X71093571Y-57547857D01*
X71057857Y-57476428D01*
X70986428Y-57405000D01*
X70879285Y-57369285D01*
X70807857Y-57369285D01*
X70700714Y-57405000D01*
X70665000Y-57440714D01*
X70022142Y-57369285D02*
X70165000Y-57369285D01*
X70236428Y-57405000D01*
X70272142Y-57440714D01*
X70343571Y-57547857D01*
X70379285Y-57690714D01*
X70379285Y-57976428D01*
X70343571Y-58047857D01*
X70307857Y-58083571D01*
X70236428Y-58119285D01*
X70093571Y-58119285D01*
X70022142Y-58083571D01*
X69986428Y-58047857D01*
X69950714Y-57976428D01*
X69950714Y-57797857D01*
X69986428Y-57726428D01*
X70022142Y-57690714D01*
X70093571Y-57655000D01*
X70236428Y-57655000D01*
X70307857Y-57690714D01*
X70343571Y-57726428D01*
X70379285Y-57797857D01*
X74125000Y-73165857D02*
X74160714Y-73201571D01*
X74267857Y-73237285D01*
X74339285Y-73237285D01*
X74446428Y-73201571D01*
X74517857Y-73130142D01*
X74553571Y-73058714D01*
X74589285Y-72915857D01*
X74589285Y-72808714D01*
X74553571Y-72665857D01*
X74517857Y-72594428D01*
X74446428Y-72523000D01*
X74339285Y-72487285D01*
X74267857Y-72487285D01*
X74160714Y-72523000D01*
X74125000Y-72558714D01*
X73446428Y-72487285D02*
X73803571Y-72487285D01*
X73839285Y-72844428D01*
X73803571Y-72808714D01*
X73732142Y-72773000D01*
X73553571Y-72773000D01*
X73482142Y-72808714D01*
X73446428Y-72844428D01*
X73410714Y-72915857D01*
X73410714Y-73094428D01*
X73446428Y-73165857D01*
X73482142Y-73201571D01*
X73553571Y-73237285D01*
X73732142Y-73237285D01*
X73803571Y-73201571D01*
X73839285Y-73165857D01*
X61655000Y-74420000D02*
X61690714Y-74453333D01*
X61797857Y-74486666D01*
X61869285Y-74486666D01*
X61976428Y-74453333D01*
X62047857Y-74386666D01*
X62083571Y-74320000D01*
X62119285Y-74186666D01*
X62119285Y-74086666D01*
X62083571Y-73953333D01*
X62047857Y-73886666D01*
X61976428Y-73820000D01*
X61869285Y-73786666D01*
X61797857Y-73786666D01*
X61690714Y-73820000D01*
X61655000Y-73853333D01*
X61012142Y-74020000D02*
X61012142Y-74486666D01*
X61190714Y-73753333D02*
X61369285Y-74253333D01*
X60905000Y-74253333D01*
X56365000Y-73727857D02*
X56400714Y-73763571D01*
X56507857Y-73799285D01*
X56579285Y-73799285D01*
X56686428Y-73763571D01*
X56757857Y-73692142D01*
X56793571Y-73620714D01*
X56829285Y-73477857D01*
X56829285Y-73370714D01*
X56793571Y-73227857D01*
X56757857Y-73156428D01*
X56686428Y-73085000D01*
X56579285Y-73049285D01*
X56507857Y-73049285D01*
X56400714Y-73085000D01*
X56365000Y-73120714D01*
X56115000Y-73049285D02*
X55650714Y-73049285D01*
X55900714Y-73335000D01*
X55793571Y-73335000D01*
X55722142Y-73370714D01*
X55686428Y-73406428D01*
X55650714Y-73477857D01*
X55650714Y-73656428D01*
X55686428Y-73727857D01*
X55722142Y-73763571D01*
X55793571Y-73799285D01*
X56007857Y-73799285D01*
X56079285Y-73763571D01*
X56115000Y-73727857D01*
X73225000Y-63657857D02*
X73260714Y-63693571D01*
X73367857Y-63729285D01*
X73439285Y-63729285D01*
X73546428Y-63693571D01*
X73617857Y-63622142D01*
X73653571Y-63550714D01*
X73689285Y-63407857D01*
X73689285Y-63300714D01*
X73653571Y-63157857D01*
X73617857Y-63086428D01*
X73546428Y-63015000D01*
X73439285Y-62979285D01*
X73367857Y-62979285D01*
X73260714Y-63015000D01*
X73225000Y-63050714D01*
X72939285Y-63050714D02*
X72903571Y-63015000D01*
X72832142Y-62979285D01*
X72653571Y-62979285D01*
X72582142Y-63015000D01*
X72546428Y-63050714D01*
X72510714Y-63122142D01*
X72510714Y-63193571D01*
X72546428Y-63300714D01*
X72975000Y-63729285D01*
X72510714Y-63729285D01*
X73365000Y-66457857D02*
X73400714Y-66493571D01*
X73507857Y-66529285D01*
X73579285Y-66529285D01*
X73686428Y-66493571D01*
X73757857Y-66422142D01*
X73793571Y-66350714D01*
X73829285Y-66207857D01*
X73829285Y-66100714D01*
X73793571Y-65957857D01*
X73757857Y-65886428D01*
X73686428Y-65815000D01*
X73579285Y-65779285D01*
X73507857Y-65779285D01*
X73400714Y-65815000D01*
X73365000Y-65850714D01*
X72650714Y-66529285D02*
X73079285Y-66529285D01*
X72865000Y-66529285D02*
X72865000Y-65779285D01*
X72936428Y-65886428D01*
X73007857Y-65957857D01*
X73079285Y-65993571D01*
X74481428Y-68929285D02*
X74481428Y-69536428D01*
X74445714Y-69607857D01*
X74410000Y-69643571D01*
X74338571Y-69679285D01*
X74195714Y-69679285D01*
X74124285Y-69643571D01*
X74088571Y-69607857D01*
X74052857Y-69536428D01*
X74052857Y-68929285D01*
X73767142Y-68929285D02*
X73267142Y-68929285D01*
X73588571Y-69679285D01*
X67401428Y-63939285D02*
X67401428Y-64546428D01*
X67365714Y-64617857D01*
X67330000Y-64653571D01*
X67258571Y-64689285D01*
X67115714Y-64689285D01*
X67044285Y-64653571D01*
X67008571Y-64617857D01*
X66972857Y-64546428D01*
X66972857Y-63939285D01*
X66651428Y-64010714D02*
X66615714Y-63975000D01*
X66544285Y-63939285D01*
X66365714Y-63939285D01*
X66294285Y-63975000D01*
X66258571Y-64010714D01*
X66222857Y-64082142D01*
X66222857Y-64153571D01*
X66258571Y-64260714D01*
X66687142Y-64689285D01*
X66222857Y-64689285D01*
X67552142Y-68879285D02*
X67552142Y-68129285D01*
X66766428Y-68807857D02*
X66802142Y-68843571D01*
X66909285Y-68879285D01*
X66980714Y-68879285D01*
X67087857Y-68843571D01*
X67159285Y-68772142D01*
X67195000Y-68700714D01*
X67230714Y-68557857D01*
X67230714Y-68450714D01*
X67195000Y-68307857D01*
X67159285Y-68236428D01*
X67087857Y-68165000D01*
X66980714Y-68129285D01*
X66909285Y-68129285D01*
X66802142Y-68165000D01*
X66766428Y-68200714D01*
X66052142Y-68879285D02*
X66480714Y-68879285D01*
X66266428Y-68879285D02*
X66266428Y-68129285D01*
X66337857Y-68236428D01*
X66409285Y-68307857D01*
X66480714Y-68343571D01*
M02*
